<?xml version="1.0" encoding="UTF-8" standalone="no"?>
<!-- Created with Inkscape (http://www.inkscape.org/) -->

<svg
   version="1.1"
   id="svg2"
   xml:space="preserve"
   width="932"
   height="453.33334"
   viewBox="0 0 932 453.33334"
   sodipodi:docname="sysml_stm_graphschema.svg"
   inkscape:version="1.1.2 (b8e25be833, 2022-02-05)"
   xmlns:inkscape="http://www.inkscape.org/namespaces/inkscape"
   xmlns:sodipodi="http://sodipodi.sourceforge.net/DTD/sodipodi-0.dtd"
   xmlns="http://www.w3.org/2000/svg"
   xmlns:svg="http://www.w3.org/2000/svg"><defs
     id="defs6" /><sodipodi:namedview
     id="namedview4"
     pagecolor="#ffffff"
     bordercolor="#666666"
     borderopacity="1.0"
     inkscape:pageshadow="2"
     inkscape:pageopacity="0.0"
     inkscape:pagecheckerboard="0"
     showgrid="false"
     inkscape:zoom="1.2736052"
     inkscape:cx="466"
     inkscape:cy="226.91491"
     inkscape:window-width="1920"
     inkscape:window-height="1017"
     inkscape:window-x="-1928"
     inkscape:window-y="-8"
     inkscape:window-maximized="1"
     inkscape:current-layer="g8" /><g
     id="g8"
     inkscape:groupmode="layer"
     inkscape:label="ink_ext_XXXXXX"
     transform="matrix(1.3333333,0,0,-1.3333333,0,453.33333)"><g
       id="g10"
       transform="scale(0.1)"><path
         d="M 0,3400 H 6990 V 0 H 0 v 3400"
         style="fill:#ffffff;fill-opacity:1;fill-rule:nonzero;stroke:none"
         id="path12" /><path
         d="M 0,3400 H 6990 V 0 H 0 v 3400"
         style="fill:#ffffff;fill-opacity:1;fill-rule:nonzero;stroke:none"
         id="path14" /><path
         d="M 0,3400 H 6990 V 0 H 0 v 3400"
         style="fill:#ffffff;fill-opacity:1;fill-rule:nonzero;stroke:none"
         id="path16" /><path
         d="M 159.301,2520 V 195.789 c 0,-22.09 17.91,-40 40,-40 H 1389.3 c 22.1,0 40,17.91 40,40 V 2520 c 0,22.09 -17.9,40 -40,40 H 199.301 c -22.09,0 -40,-17.91 -40,-40"
         style="fill:#ffffff;fill-opacity:1;fill-rule:nonzero;stroke:none"
         id="path18" /><path
         d="M 159.301,2520 V 195.789 c 0,-22.09 17.91,-40 40,-40 H 1389.3 c 22.1,0 40,17.91 40,40 V 2520 c 0,22.09 -17.9,40 -40,40 H 199.301 c -22.09,0 -40,-17.91 -40,-40 z"
         style="fill:none;stroke:#000000;stroke-width:10;stroke-linecap:butt;stroke-linejoin:miter;stroke-miterlimit:1.45;stroke-dasharray:none;stroke-opacity:1"
         id="path20" /><path
         d="m 451.742,1360.91 v 12.03 h 12.028 v -12.03 z m 0,-50.16 v 12.04 h 12.028 v -12.04 z m 28.02,27.66 10.629,0.94 c 0.519,-4.38 1.718,-7.92 3.589,-10.63 1.879,-2.7 4.739,-4.94 8.602,-6.72 3.949,-1.66 8.379,-2.5 13.277,-2.5 4.27,0 8.071,0.63 11.403,1.88 3.34,1.35 5.789,3.12 7.347,5.31 1.661,2.29 2.5,4.74 2.5,7.35 0,2.7 -0.777,5.05 -2.347,7.03 -1.563,2.08 -4.114,3.8 -7.653,5.15 -2.398,0.94 -7.55,2.35 -15.468,4.22 -7.809,1.88 -13.282,3.65 -16.411,5.31 -4.16,2.19 -7.238,4.85 -9.218,7.97 -1.981,3.23 -2.961,6.83 -2.961,10.78 0,4.28 1.191,8.29 3.59,12.04 2.5,3.85 6.089,6.71 10.781,8.59 4.789,1.98 10.047,2.97 15.777,2.97 6.36,0 11.981,-1.04 16.883,-3.13 4.887,-1.98 8.637,-5 11.25,-9.06 2.598,-3.96 4.008,-8.44 4.219,-13.44 l -10.942,-0.78 c -0.629,5.42 -2.66,9.48 -6.097,12.19 -3.332,2.81 -8.282,4.22 -14.84,4.22 -6.871,0 -11.871,-1.25 -15,-3.75 -3.121,-2.5 -4.692,-5.52 -4.692,-9.06 0,-3.13 1.102,-5.68 3.282,-7.66 2.187,-1.98 7.867,-4.01 17.039,-6.09 9.269,-2.09 15.621,-3.91 19.058,-5.47 5,-2.4 8.7,-5.37 11.09,-8.91 2.403,-3.44 3.602,-7.5 3.602,-12.19 0,-4.58 -1.309,-8.9 -3.91,-12.97 -2.61,-3.95 -6.36,-7.08 -11.25,-9.37 -4.899,-2.19 -10.422,-3.28 -16.559,-3.28 -7.82,0 -14.383,1.09 -19.691,3.28 -5.211,2.29 -9.321,5.73 -12.34,10.31 -2.922,4.59 -4.43,9.74 -4.539,15.47 z m 105.668,-27.66 v 75.79 h -28.282 v 10.15 h 68.122 v -10.15 h -28.438 v -75.79 z m 51.109,0 v 85.94 h 17.191 l 20.309,-60.78 c 1.883,-5.73 3.231,-10 4.063,-12.81 0.937,3.12 2.449,7.71 4.527,13.75 l 20.633,59.84 h 15.308 v -85.94 h -10.941 v 71.88 l -25,-71.88 H 672.32 l -24.84,73.13 v -73.13 z m 101.84,50.16 v 12.03 h 12.031 v -12.03 z m 0,-50.16 v 12.04 h 12.031 v -12.04 z m 28.019,27.66 10.633,0.94 c 0.52,-4.38 1.719,-7.92 3.59,-10.63 1.879,-2.7 4.738,-4.94 8.598,-6.72 3.961,-1.66 8.383,-2.5 13.281,-2.5 4.27,0 8.07,0.63 11.398,1.88 3.34,1.35 5.793,3.12 7.352,5.31 1.66,2.29 2.5,4.74 2.5,7.35 0,2.7 -0.781,5.05 -2.352,7.03 -1.558,2.08 -4.109,3.8 -7.648,5.15 -2.398,0.94 -7.551,2.35 -15.469,4.22 -7.812,1.88 -13.281,3.65 -16.41,5.31 -4.16,2.19 -7.242,4.85 -9.223,7.97 -1.968,3.23 -2.957,6.83 -2.957,10.78 0,4.28 1.188,8.29 3.59,12.04 2.5,3.85 6.09,6.71 10.778,8.59 4.793,1.98 10.05,2.97 15.781,2.97 6.359,0 11.98,-1.04 16.879,-3.13 4.89,-1.98 8.64,-5 11.25,-9.06 2.601,-3.96 4.011,-8.44 4.222,-13.44 l -10.941,-0.78 c -0.629,5.42 -2.66,9.48 -6.102,12.19 -3.328,2.81 -8.277,4.22 -14.839,4.22 -6.868,0 -11.868,-1.25 -15,-3.75 -3.118,-2.5 -4.688,-5.52 -4.688,-9.06 0,-3.13 1.098,-5.68 3.277,-7.66 2.192,-1.98 7.872,-4.01 17.043,-6.09 9.27,-2.09 15.618,-3.91 19.059,-5.47 5,-2.4 8.699,-5.37 11.09,-8.91 2.398,-3.44 3.601,-7.5 3.601,-12.19 0,-4.58 -1.312,-8.9 -3.91,-12.97 -2.601,-3.95 -6.351,-7.08 -11.25,-9.37 -4.902,-2.19 -10.422,-3.28 -16.562,-3.28 -7.821,0 -14.379,1.09 -19.688,3.28 -5.211,2.29 -9.32,5.73 -12.34,10.31 -2.921,4.59 -4.429,9.74 -4.543,15.47 z m 105.672,-27.66 v 75.79 h -28.281 v 10.15 h 68.121 v -10.15 h -28.441 v -75.79 z m 42.051,0 32.969,85.94 h 12.191 l 35.149,-85.94 h -12.809 l -10.16,26.1 H 935.68 l -9.532,-26.1 z m 24.84,35.32 h 29.07 l -8.91,23.75 c -2.812,7.18 -4.84,13.12 -6.09,17.81 -1.152,-5.52 -2.711,-10.99 -4.691,-16.41 z m 86.449,-35.32 v 75.79 h -28.281 v 10.15 h 68.121 v -10.15 h -28.44 v -75.79 z m 51.74,0 v 85.94 h 62.03 v -10.15 h -50.63 v -26.25 h 47.5 v -10.16 h -47.5 v -29.22 h 52.66 v -10.16 h -64.06"
         style="fill:#000000;fill-opacity:1;fill-rule:nonzero;stroke:none"
         id="path22" /><path
         d="m 2723.6,2003.62 v -369.08 c 0,-22.09 17.91,-40 40,-40 h 1340 c 22.1,0 40,17.91 40,40 v 369.08 c 0,22.09 -17.9,40 -40,40 h -1340 c -22.09,0 -40,-17.91 -40,-40"
         style="fill:#ffffff;fill-opacity:1;fill-rule:nonzero;stroke:none"
         id="path24" /><path
         d="m 2723.6,2003.62 v -369.08 c 0,-22.09 17.91,-40 40,-40 h 1340 c 22.1,0 40,17.91 40,40 v 369.08 c 0,22.09 -17.9,40 -40,40 h -1340 c -22.09,0 -40,-17.91 -40,-40 z"
         style="fill:none;stroke:#000000;stroke-width:10;stroke-linecap:butt;stroke-linejoin:miter;stroke-miterlimit:1.45;stroke-dasharray:none;stroke-opacity:1"
         id="path26" /><path
         d="m 2771,1822.1 v 12.03 h 12.03 v -12.03 z m 0,-50.16 v 12.03 h 12.03 v -12.03 z m 28.02,27.66 10.63,0.93 c 0.52,-4.37 1.72,-7.91 3.59,-10.62 1.88,-2.71 4.74,-4.95 8.6,-6.72 3.95,-1.67 8.38,-2.5 13.28,-2.5 4.27,0 8.07,0.63 11.4,1.88 3.34,1.35 5.79,3.12 7.35,5.31 1.66,2.29 2.5,4.74 2.5,7.34 0,2.71 -0.78,5.05 -2.35,7.03 -1.56,2.09 -4.11,3.81 -7.65,5.16 -2.4,0.94 -7.55,2.34 -15.47,4.22 -7.81,1.87 -13.28,3.64 -16.41,5.31 -4.16,2.19 -7.24,4.84 -9.22,7.97 -1.98,3.23 -2.96,6.82 -2.96,10.78 0,4.27 1.19,8.28 3.59,12.03 2.5,3.86 6.09,6.72 10.78,8.6 4.79,1.97 10.05,2.96 15.78,2.96 6.36,0 11.98,-1.04 16.88,-3.12 4.89,-1.98 8.64,-5 11.25,-9.06 2.6,-3.96 4.01,-8.44 4.22,-13.44 l -10.94,-0.78 c -0.63,5.41 -2.66,9.48 -6.1,12.19 -3.33,2.81 -8.28,4.21 -14.84,4.21 -6.87,0 -11.87,-1.25 -15,-3.75 -3.12,-2.5 -4.69,-5.52 -4.69,-9.06 0,-3.12 1.1,-5.68 3.28,-7.65 2.19,-1.98 7.87,-4.01 17.04,-6.1 9.27,-2.08 15.62,-3.9 19.06,-5.47 5,-2.39 8.7,-5.36 11.09,-8.9 2.4,-3.44 3.6,-7.5 3.6,-12.19 0,-4.58 -1.31,-8.91 -3.91,-12.97 -2.61,-3.96 -6.36,-7.08 -11.25,-9.37 -4.9,-2.19 -10.42,-3.29 -16.56,-3.29 -7.82,0 -14.38,1.1 -19.69,3.29 -5.21,2.29 -9.32,5.72 -12.34,10.31 -2.92,4.58 -4.43,9.74 -4.54,15.47 z m 105.67,-27.66 v 75.78 h -28.28 v 10.16 h 68.12 v -10.16 h -28.44 v -75.78 z m 51.11,0 v 85.94 h 17.19 l 20.31,-60.78 c 1.88,-5.73 3.23,-10 4.06,-12.82 0.94,3.13 2.45,7.71 4.54,13.75 l 20.62,59.85 h 15.31 v -85.94 h -10.93 v 71.88 l -25,-71.88 h -10.32 l -24.84,73.13 v -73.13 z m 101.84,50.16 v 12.03 h 12.03 v -12.03 z m 0,-50.16 v 12.03 h 12.03 v -12.03 z m 28.02,27.66 10.63,0.93 c 0.52,-4.37 1.72,-7.91 3.59,-10.62 1.88,-2.71 4.74,-4.95 8.6,-6.72 3.96,-1.67 8.38,-2.5 13.28,-2.5 4.27,0 8.07,0.63 11.4,1.88 3.34,1.35 5.79,3.12 7.35,5.31 1.67,2.29 2.5,4.74 2.5,7.34 0,2.71 -0.78,5.05 -2.35,7.03 -1.56,2.09 -4.11,3.81 -7.65,5.16 -2.4,0.94 -7.55,2.34 -15.47,4.22 -7.81,1.87 -13.28,3.64 -16.41,5.31 -4.16,2.19 -7.24,4.84 -9.22,7.97 -1.97,3.23 -2.96,6.82 -2.96,10.78 0,4.27 1.19,8.28 3.59,12.03 2.5,3.86 6.09,6.72 10.78,8.6 4.79,1.97 10.05,2.96 15.78,2.96 6.36,0 11.98,-1.04 16.88,-3.12 4.89,-1.98 8.64,-5 11.25,-9.06 2.6,-3.96 4.01,-8.44 4.22,-13.44 l -10.94,-0.78 c -0.63,5.41 -2.66,9.48 -6.1,12.19 -3.33,2.81 -8.28,4.21 -14.84,4.21 -6.87,0 -11.87,-1.25 -15,-3.75 -3.12,-2.5 -4.69,-5.52 -4.69,-9.06 0,-3.12 1.1,-5.68 3.28,-7.65 2.19,-1.98 7.87,-4.01 17.04,-6.1 9.27,-2.08 15.62,-3.9 19.06,-5.47 5,-2.39 8.7,-5.36 11.09,-8.9 2.4,-3.44 3.6,-7.5 3.6,-12.19 0,-4.58 -1.31,-8.91 -3.91,-12.97 -2.6,-3.96 -6.35,-7.08 -11.25,-9.37 -4.9,-2.19 -10.42,-3.29 -16.56,-3.29 -7.82,0 -14.38,1.1 -19.69,3.29 -5.21,2.29 -9.32,5.72 -12.34,10.31 -2.92,4.58 -4.43,9.74 -4.54,15.47 z m 105.67,-27.66 v 75.78 h -28.28 v 10.16 h 68.12 v -10.16 h -28.44 v -75.78 z m 42.05,0 32.97,85.94 h 12.19 l 35.15,-85.94 h -12.81 l -10.16,26.09 h -35.78 l -9.53,-26.09 z m 24.84,35.31 h 29.07 l -8.91,23.75 c -2.81,7.19 -4.84,13.13 -6.09,17.82 -1.15,-5.53 -2.71,-10.99 -4.69,-16.41 z m 86.45,-35.31 v 75.78 h -28.28 v 10.16 h 68.12 v -10.16 h -28.44 v -75.78 z m 51.74,0 v 85.94 h 62.03 v -10.16 h -50.63 v -26.25 h 47.5 v -10.15 h -47.5 v -29.22 h 52.66 v -10.16 z m 81.29,50.16 v 12.03 h 12.03 v -12.03 z m 0,-50.16 v 12.03 h 12.03 v -12.03 z m 33.8,0 v 85.94 h 11.25 v -85.94 z m 31.31,0 v 85.94 h 11.57 l 45.15,-67.5 v 67.5 h 10.94 v -85.94 h -11.72 l -45.16,67.5 v -67.5 z m 82.91,27.66 10.63,0.93 c 0.52,-4.37 1.72,-7.91 3.59,-10.62 1.88,-2.71 4.74,-4.95 8.6,-6.72 3.95,-1.67 8.38,-2.5 13.28,-2.5 4.27,0 8.07,0.63 11.4,1.88 3.34,1.35 5.78,3.12 7.35,5.31 1.66,2.29 2.5,4.74 2.5,7.34 0,2.71 -0.78,5.05 -2.35,7.03 -1.56,2.09 -4.11,3.81 -7.65,5.16 -2.4,0.94 -7.56,2.34 -15.47,4.22 -7.81,1.87 -13.28,3.64 -16.41,5.31 -4.16,2.19 -7.24,4.84 -9.22,7.97 -1.98,3.23 -2.97,6.82 -2.97,10.78 0,4.27 1.2,8.28 3.6,12.03 2.5,3.86 6.09,6.72 10.78,8.6 4.79,1.97 10.05,2.96 15.78,2.96 6.35,0 11.98,-1.04 16.88,-3.12 4.89,-1.98 8.64,-5 11.25,-9.06 2.6,-3.96 4.01,-8.44 4.21,-13.44 l -10.93,-0.78 c -0.63,5.41 -2.66,9.48 -6.1,12.19 -3.33,2.81 -8.28,4.21 -14.84,4.21 -6.88,0 -11.88,-1.25 -15,-3.75 -3.13,-2.5 -4.69,-5.52 -4.69,-9.06 0,-3.12 1.1,-5.68 3.28,-7.65 2.19,-1.98 7.87,-4.01 17.03,-6.1 9.28,-2.08 15.63,-3.9 19.07,-5.47 5,-2.39 8.69,-5.36 11.09,-8.9 2.4,-3.44 3.59,-7.5 3.59,-12.19 0,-4.58 -1.3,-8.91 -3.9,-12.97 -2.61,-3.96 -6.36,-7.08 -11.25,-9.37 -4.9,-2.19 -10.42,-3.29 -16.56,-3.29 -7.82,0 -14.38,1.1 -19.69,3.29 -5.21,2.29 -9.32,5.72 -12.35,10.31 -2.91,4.58 -4.42,9.74 -4.53,15.47 z m 105.67,-27.66 v 75.78 h -28.28 v 10.16 h 68.12 v -10.16 h -28.44 v -75.78 z m 42.05,0 32.97,85.94 h 12.18 l 35.16,-85.94 h -12.81 l -10.16,26.09 H 3795 l -9.53,-26.09 z m 24.84,35.31 h 29.06 l -8.9,23.75 c -2.81,7.19 -4.85,13.13 -6.1,17.82 -1.14,-5.53 -2.7,-10.99 -4.68,-16.41 z m 64.57,-35.31 v 85.94 h 11.56 l 45.16,-67.5 v 67.5 h 10.94 v -85.94 h -11.72 l -45.16,67.5 v -67.5 z m 148.07,30.16 11.25,-2.97 c -2.4,-9.27 -6.67,-16.36 -12.81,-21.25 -6.15,-4.9 -13.7,-7.35 -22.66,-7.35 -9.27,0 -16.82,1.88 -22.66,5.63 -5.83,3.75 -10.26,9.17 -13.28,16.25 -3.02,7.19 -4.53,14.9 -4.53,23.12 0,8.96 1.72,16.78 5.16,23.44 3.43,6.67 8.28,11.72 14.53,15.16 6.35,3.44 13.33,5.15 20.94,5.15 8.54,0 15.73,-2.18 21.56,-6.56 5.94,-4.37 10.05,-10.52 12.34,-18.44 l -11.25,-2.65 c -1.98,6.25 -4.89,10.78 -8.75,13.59 -3.75,2.92 -8.49,4.38 -14.22,4.38 -6.56,0 -12.08,-1.62 -16.56,-4.85 -4.37,-3.12 -7.5,-7.34 -9.37,-12.65 -1.77,-5.32 -2.66,-10.84 -2.66,-16.57 0,-7.29 1.04,-13.64 3.12,-19.06 2.19,-5.41 5.53,-9.48 10,-12.19 4.48,-2.7 9.38,-4.06 14.69,-4.06 6.36,0 11.72,1.82 16.1,5.47 4.48,3.65 7.5,9.12 9.06,16.41 z m 25.56,-30.16 v 85.94 h 62.04 v -10.16 h -50.63 v -26.25 h 47.5 v -10.15 h -47.5 v -29.22 h 52.66 v -10.16 h -64.07"
         style="fill:#000000;fill-opacity:1;fill-rule:nonzero;stroke:none"
         id="path28" /><path
         d="m 2723.6,1487.24 v -369.08 c 0,-22.09 17.91,-40 40,-40 h 1340 c 22.1,0 40,17.91 40,40 v 369.08 c 0,22.09 -17.9,40 -40,40 h -1340 c -22.09,0 -40,-17.91 -40,-40"
         style="fill:#ffffff;fill-opacity:1;fill-rule:nonzero;stroke:none"
         id="path30" /><path
         d="m 2723.6,1487.24 v -369.08 c 0,-22.09 17.91,-40 40,-40 h 1340 c 22.1,0 40,17.91 40,40 v 369.08 c 0,22.09 -17.9,40 -40,40 h -1340 c -22.09,0 -40,-17.91 -40,-40 z"
         style="fill:none;stroke:#000000;stroke-width:10;stroke-linecap:butt;stroke-linejoin:miter;stroke-miterlimit:1.45;stroke-dasharray:none;stroke-opacity:1"
         id="path32" /><path
         d="m 2837.65,1305.72 v 12.03 h 12.03 v -12.03 z m 0,-50.16 v 12.03 h 12.03 v -12.03 z m 28.02,27.66 10.63,0.93 c 0.52,-4.37 1.72,-7.91 3.59,-10.62 1.88,-2.71 4.74,-4.95 8.6,-6.72 3.96,-1.67 8.38,-2.5 13.28,-2.5 4.27,0 8.07,0.62 11.4,1.87 3.34,1.36 5.79,3.13 7.35,5.32 1.66,2.29 2.5,4.74 2.5,7.34 0,2.71 -0.78,5.05 -2.35,7.03 -1.56,2.09 -4.11,3.8 -7.65,5.16 -2.4,0.94 -7.55,2.34 -15.47,4.22 -7.81,1.87 -13.28,3.64 -16.41,5.31 -4.16,2.19 -7.24,4.84 -9.22,7.97 -1.97,3.23 -2.96,6.82 -2.96,10.78 0,4.27 1.19,8.28 3.59,12.03 2.5,3.86 6.09,6.72 10.78,8.59 4.79,1.98 10.05,2.97 15.78,2.97 6.36,0 11.98,-1.04 16.88,-3.12 4.89,-1.98 8.64,-5 11.25,-9.06 2.6,-3.96 4.01,-8.44 4.22,-13.44 l -10.94,-0.78 c -0.63,5.41 -2.66,9.48 -6.1,12.18 -3.33,2.82 -8.28,4.22 -14.84,4.22 -6.87,0 -11.87,-1.25 -15,-3.75 -3.12,-2.5 -4.69,-5.52 -4.69,-9.06 0,-3.12 1.1,-5.68 3.28,-7.66 2.19,-1.97 7.87,-4.01 17.04,-6.09 9.27,-2.08 15.62,-3.91 19.06,-5.47 5,-2.39 8.7,-5.36 11.09,-8.9 2.4,-3.44 3.6,-7.5 3.6,-12.19 0,-4.58 -1.31,-8.91 -3.91,-12.97 -2.6,-3.96 -6.35,-7.08 -11.25,-9.38 -4.9,-2.18 -10.42,-3.28 -16.56,-3.28 -7.82,0 -14.38,1.1 -19.69,3.28 -5.21,2.3 -9.32,5.73 -12.34,10.32 -2.92,4.58 -4.43,9.74 -4.54,15.47 z m 105.67,-27.66 v 75.78 h -28.28 v 10.16 h 68.12 v -10.16 h -28.44 v -75.78 z m 51.11,0 v 85.94 h 17.19 l 20.31,-60.78 c 1.88,-5.73 3.23,-10 4.06,-12.82 0.94,3.13 2.45,7.71 4.54,13.75 l 20.62,59.85 h 15.31 v -85.94 h -10.93 v 71.87 l -25,-71.87 h -10.32 l -24.84,73.12 v -73.12 z m 101.84,50.16 v 12.03 h 12.03 v -12.03 z m 0,-50.16 v 12.03 h 12.03 v -12.03 z m 31.78,0 v 85.94 h 32.5 c 5.62,0 9.94,-0.26 12.96,-0.78 4.27,-0.73 7.82,-2.09 10.63,-4.07 2.92,-1.98 5.21,-4.74 6.87,-8.28 1.77,-3.54 2.66,-7.45 2.66,-11.72 0,-7.29 -2.34,-13.49 -7.03,-18.59 -4.58,-5 -12.97,-7.5 -25.16,-7.5 h -22.03 v -35 z m 11.4,45 h 22.19 c 7.39,0 12.6,1.35 15.62,4.06 3.13,2.81 4.69,6.72 4.69,11.72 0,3.54 -0.94,6.56 -2.81,9.06 -1.77,2.61 -4.12,4.33 -7.03,5.16 -1.98,0.52 -5.52,0.78 -10.63,0.78 h -22.03 z m 64.88,-17.34 10.63,0.93 c 0.52,-4.37 1.72,-7.91 3.59,-10.62 1.88,-2.71 4.74,-4.95 8.6,-6.72 3.95,-1.67 8.38,-2.5 13.28,-2.5 4.27,0 8.07,0.62 11.4,1.87 3.34,1.36 5.79,3.13 7.35,5.32 1.66,2.29 2.5,4.74 2.5,7.34 0,2.71 -0.78,5.05 -2.35,7.03 -1.56,2.09 -4.11,3.8 -7.65,5.16 -2.4,0.94 -7.55,2.34 -15.47,4.22 -7.81,1.87 -13.28,3.64 -16.41,5.31 -4.16,2.19 -7.24,4.84 -9.22,7.97 -1.98,3.23 -2.96,6.82 -2.96,10.78 0,4.27 1.19,8.28 3.59,12.03 2.5,3.86 6.09,6.72 10.78,8.59 4.79,1.98 10.05,2.97 15.78,2.97 6.36,0 11.98,-1.04 16.88,-3.12 4.89,-1.98 8.64,-5 11.25,-9.06 2.6,-3.96 4.01,-8.44 4.22,-13.44 l -10.94,-0.78 c -0.63,5.41 -2.66,9.48 -6.1,12.18 -3.33,2.82 -8.28,4.22 -14.84,4.22 -6.87,0 -11.87,-1.25 -15,-3.75 -3.12,-2.5 -4.69,-5.52 -4.69,-9.06 0,-3.12 1.1,-5.68 3.28,-7.66 2.19,-1.97 7.87,-4.01 17.04,-6.09 9.27,-2.08 15.62,-3.91 19.06,-5.47 5,-2.39 8.7,-5.36 11.09,-8.9 2.4,-3.44 3.6,-7.5 3.6,-12.19 0,-4.58 -1.31,-8.91 -3.91,-12.97 -2.61,-3.96 -6.36,-7.08 -11.25,-9.38 -4.9,-2.18 -10.42,-3.28 -16.56,-3.28 -7.82,0 -14.38,1.1 -19.69,3.28 -5.21,2.3 -9.32,5.73 -12.34,10.32 -2.92,4.58 -4.43,9.74 -4.54,15.47 z m 84.11,-27.66 v 85.94 h 62.03 v -10.16 h -50.63 v -26.25 h 47.5 v -10.16 h -47.5 v -29.21 h 52.66 v -10.16 z m 136.13,85.94 h 11.4 v -49.69 c 0,-8.65 -0.98,-15.52 -2.96,-20.63 -1.98,-5 -5.52,-9.11 -10.63,-12.34 -5.1,-3.12 -11.77,-4.69 -20,-4.69 -8.02,0 -14.63,1.36 -19.84,4.07 -5.11,2.81 -8.75,6.82 -10.94,12.03 -2.19,5.31 -3.28,12.5 -3.28,21.56 v 49.69 h 11.4 v -49.53 c 0,-7.5 0.68,-13.02 2.04,-16.57 1.45,-3.54 3.85,-6.3 7.18,-8.28 3.44,-1.87 7.61,-2.81 12.5,-2.81 8.34,0 14.27,1.87 17.82,5.62 3.54,3.86 5.31,11.2 5.31,22.04 z m 30.25,-85.94 v 85.94 h 29.69 c 6.67,0 11.77,-0.42 15.31,-1.25 4.9,-1.15 9.06,-3.18 12.5,-6.1 4.59,-3.85 7.97,-8.8 10.16,-14.84 2.29,-5.94 3.44,-12.71 3.44,-20.31 0,-6.57 -0.79,-12.35 -2.35,-17.35 -1.46,-5 -3.38,-9.16 -5.78,-12.5 -2.39,-3.33 -5.05,-5.93 -7.97,-7.81 -2.81,-1.87 -6.2,-3.33 -10.15,-4.37 -3.96,-0.94 -8.55,-1.41 -13.75,-1.41 z m 11.41,10.16 h 18.28 c 5.73,0 10.21,0.52 13.44,1.56 3.23,1.04 5.78,2.55 7.65,4.53 2.71,2.6 4.8,6.2 6.25,10.78 1.57,4.58 2.35,10.11 2.35,16.56 0,8.96 -1.51,15.84 -4.53,20.63 -2.92,4.89 -6.46,8.18 -10.63,9.84 -3.12,1.15 -8.02,1.72 -14.69,1.72 h -18.12 z m 71.82,31.71 c 0,14.28 3.8,25.42 11.4,33.44 7.71,8.13 17.61,12.19 29.69,12.19 8.02,0 15.21,-1.93 21.56,-5.78 6.36,-3.75 11.2,-9.01 14.53,-15.78 3.34,-6.77 5,-14.48 5,-23.13 0,-8.64 -1.77,-16.4 -5.31,-23.28 -3.54,-6.87 -8.54,-12.08 -15,-15.62 -6.35,-3.55 -13.28,-5.32 -20.78,-5.32 -8.13,0 -15.37,1.93 -21.72,5.78 -6.35,3.96 -11.2,9.28 -14.53,15.94 -3.23,6.77 -4.84,13.96 -4.84,21.56 z m 11.71,-0.15 c 0,-10.42 2.76,-18.6 8.29,-24.53 5.62,-5.94 12.65,-8.91 21.09,-8.91 8.54,0 15.57,2.97 21.09,8.91 5.52,6.04 8.28,14.63 8.28,25.78 0,6.98 -1.19,13.07 -3.59,18.28 -2.29,5.21 -5.73,9.22 -10.31,12.03 -4.59,2.92 -9.69,4.38 -15.31,4.38 -8.03,0 -14.95,-2.76 -20.79,-8.29 -5.83,-5.52 -8.75,-14.73 -8.75,-27.65 z m 81.31,-14.06 10.63,0.93 c 0.52,-4.37 1.72,-7.91 3.59,-10.62 1.88,-2.71 4.74,-4.95 8.59,-6.72 3.96,-1.67 8.39,-2.5 13.29,-2.5 4.27,0 8.07,0.62 11.4,1.87 3.34,1.36 5.78,3.13 7.35,5.32 1.66,2.29 2.5,4.74 2.5,7.34 0,2.71 -0.79,5.05 -2.35,7.03 -1.56,2.09 -4.11,3.8 -7.65,5.16 -2.4,0.94 -7.56,2.34 -15.47,4.22 -7.82,1.87 -13.28,3.64 -16.41,5.31 -4.17,2.19 -7.24,4.84 -9.22,7.97 -1.98,3.23 -2.97,6.82 -2.97,10.78 0,4.27 1.2,8.28 3.6,12.03 2.5,3.86 6.09,6.72 10.78,8.59 4.79,1.98 10.05,2.97 15.78,2.97 6.35,0 11.98,-1.04 16.87,-3.12 4.9,-1.98 8.65,-5 11.25,-9.06 2.61,-3.96 4.02,-8.44 4.22,-13.44 l -10.93,-0.78 c -0.63,5.41 -2.66,9.48 -6.1,12.18 -3.33,2.82 -8.28,4.22 -14.84,4.22 -6.88,0 -11.88,-1.25 -15,-3.75 -3.13,-2.5 -4.69,-5.52 -4.69,-9.06 0,-3.12 1.09,-5.68 3.28,-7.66 2.19,-1.97 7.87,-4.01 17.03,-6.09 9.27,-2.08 15.63,-3.91 19.07,-5.47 5,-2.39 8.69,-5.36 11.09,-8.9 2.4,-3.44 3.59,-7.5 3.59,-12.19 0,-4.58 -1.3,-8.91 -3.9,-12.97 -2.61,-3.96 -6.36,-7.08 -11.25,-9.38 -4.9,-2.18 -10.42,-3.28 -16.57,-3.28 -7.81,0 -14.37,1.1 -19.68,3.28 -5.21,2.3 -9.33,5.73 -12.35,10.32 -2.91,4.58 -4.42,9.74 -4.53,15.47 z m 105.67,-27.66 v 75.78 h -28.28 v 10.16 h 68.12 v -10.16 h -28.44 v -75.78 z m 42.05,0 32.97,85.94 h 12.18 l 35.16,-85.94 h -12.81 l -10.16,26.09 h -35.78 l -9.53,-26.09 z m 24.84,35.31 h 29.06 l -8.9,23.75 c -2.82,7.19 -4.85,13.13 -6.1,17.81 -1.14,-5.52 -2.7,-10.98 -4.68,-16.4 z m 86.45,-35.31 v 75.78 h -28.28 v 10.16 h 68.12 v -10.16 h -28.44 v -75.78 z m 51.73,0 v 85.94 h 62.04 v -10.16 h -50.63 v -26.25 h 47.5 v -10.16 h -47.5 v -29.21 h 52.66 v -10.16 h -64.07"
         style="fill:#000000;fill-opacity:1;fill-rule:nonzero;stroke:none"
         id="path34" /><path
         d="m 2723.6,2520 v -369.08 c 0,-22.09 17.91,-40 40,-40 h 1340 c 22.1,0 40,17.91 40,40 V 2520 c 0,22.09 -17.9,40 -40,40 h -1340 c -22.09,0 -40,-17.91 -40,-40"
         style="fill:#ffffff;fill-opacity:1;fill-rule:nonzero;stroke:none"
         id="path36" /><path
         d="m 2723.6,2520 v -369.08 c 0,-22.09 17.91,-40 40,-40 h 1340 c 22.1,0 40,17.91 40,40 V 2520 c 0,22.09 -17.9,40 -40,40 h -1340 c -22.09,0 -40,-17.91 -40,-40 z"
         style="fill:none;stroke:#000000;stroke-width:10;stroke-linecap:butt;stroke-linejoin:miter;stroke-miterlimit:1.45;stroke-dasharray:none;stroke-opacity:1"
         id="path38" /><path
         d="m 3021.02,2338.48 v 12.03 h 12.03 v -12.03 z m 0,-50.16 v 12.03 h 12.03 v -12.03 z m 22.4,0 32.97,85.94 h 12.18 l 35.16,-85.94 h -12.81 l -10.16,26.09 h -35.78 l -9.53,-26.09 z m 24.84,35.31 h 29.06 l -8.9,23.75 c -2.81,7.19 -4.85,13.13 -6.1,17.82 -1.14,-5.52 -2.7,-10.99 -4.68,-16.41 z m 125.98,-5.15 11.25,-2.97 c -2.4,-9.27 -6.67,-16.35 -12.81,-21.25 -6.15,-4.9 -13.7,-7.35 -22.66,-7.35 -9.27,0 -16.82,1.88 -22.66,5.63 -5.83,3.75 -10.26,9.17 -13.28,16.25 -3.02,7.19 -4.53,14.9 -4.53,23.12 0,8.97 1.72,16.78 5.16,23.44 3.44,6.67 8.28,11.72 14.53,15.16 6.35,3.44 13.33,5.15 20.94,5.15 8.54,0 15.73,-2.18 21.56,-6.56 5.94,-4.37 10.05,-10.52 12.34,-18.44 l -11.25,-2.65 c -1.98,6.25 -4.89,10.78 -8.75,13.59 -3.75,2.92 -8.49,4.38 -14.22,4.38 -6.56,0 -12.08,-1.62 -16.56,-4.85 -4.37,-3.12 -7.5,-7.34 -9.37,-12.65 -1.77,-5.32 -2.66,-10.84 -2.66,-16.57 0,-7.28 1.04,-13.64 3.13,-19.06 2.18,-5.41 5.52,-9.47 10,-12.19 4.47,-2.7 9.37,-4.06 14.68,-4.06 6.36,0 11.72,1.83 16.1,5.47 4.48,3.65 7.5,9.12 9.06,16.41 z m 47.13,-30.16 v 75.78 h -28.28 v 10.16 h 68.12 v -10.16 h -28.44 v -75.78 z m 52.99,50.16 v 12.03 h 12.03 v -12.03 z m 0,-50.16 v 12.03 h 12.03 v -12.03 z m 22.4,0 32.97,85.94 h 12.18 l 35.16,-85.94 h -12.81 l -10.16,26.09 h -35.78 l -9.53,-26.09 z m 24.84,35.31 h 29.06 l -8.9,23.75 c -2.81,7.19 -4.85,13.13 -6.1,17.82 -1.14,-5.52 -2.7,-10.99 -4.68,-16.41 z m 125.98,-5.15 11.25,-2.97 c -2.4,-9.27 -6.67,-16.35 -12.81,-21.25 -6.15,-4.9 -13.7,-7.35 -22.66,-7.35 -9.27,0 -16.82,1.88 -22.66,5.63 -5.83,3.75 -10.26,9.17 -13.28,16.25 -3.02,7.19 -4.53,14.9 -4.53,23.12 0,8.97 1.72,16.78 5.16,23.44 3.43,6.67 8.28,11.72 14.53,15.16 6.35,3.44 13.33,5.15 20.94,5.15 8.54,0 15.73,-2.18 21.56,-6.56 5.94,-4.37 10.05,-10.52 12.34,-18.44 l -11.25,-2.65 c -1.98,6.25 -4.89,10.78 -8.75,13.59 -3.75,2.92 -8.49,4.38 -14.22,4.38 -6.56,0 -12.08,-1.62 -16.56,-4.85 -4.37,-3.12 -7.5,-7.34 -9.37,-12.65 -1.77,-5.32 -2.66,-10.84 -2.66,-16.57 0,-7.28 1.04,-13.64 3.12,-19.06 2.19,-5.41 5.53,-9.47 10,-12.19 4.48,-2.7 9.38,-4.06 14.69,-4.06 6.36,0 11.72,1.83 16.1,5.47 4.48,3.65 7.5,9.12 9.06,16.41 z m 47.13,-30.16 v 75.78 h -28.28 v 10.16 h 68.12 v -10.16 h -28.44 v -75.78 z m 53.45,0 v 85.94 h 11.25 v -85.94 z m 55.84,0 -33.28,85.94 h 12.35 l 22.34,-62.5 c 1.77,-5 3.28,-9.69 4.53,-14.06 1.36,4.68 2.92,9.37 4.69,14.06 l 23.12,62.5 h 11.57 l -33.6,-85.94 z m 57.54,0 v 85.94 h 11.25 v -85.94 z m 53.19,0 v 75.78 h -28.28 v 10.16 h 68.12 v -10.16 h -28.44 v -75.78 z m 75.64,0 v 36.41 l -33.12,49.53 h 13.9 l 16.88,-25.94 c 3.12,-4.79 6.04,-9.63 8.75,-14.53 2.6,4.48 5.73,9.53 9.37,15.16 l 16.72,25.31 H 3856 l -34.22,-49.53 v -36.41 h -11.41"
         style="fill:#000000;fill-opacity:1;fill-rule:nonzero;stroke:none"
         id="path40" /><path
         d="M 2723.6,564.871 V 195.789 c 0,-22.09 17.91,-40 40,-40 h 1340 c 22.1,0 40,17.91 40,40 v 369.082 c 0,22.09 -17.9,40 -40,40 h -1340 c -22.09,0 -40,-17.91 -40,-40"
         style="fill:#ffffff;fill-opacity:1;fill-rule:nonzero;stroke:none"
         id="path42" /><path
         d="M 2723.6,564.871 V 195.789 c 0,-22.09 17.91,-40 40,-40 h 1340 c 22.1,0 40,17.91 40,40 v 369.082 c 0,22.09 -17.9,40 -40,40 h -1340 c -22.09,0 -40,-17.91 -40,-40 z"
         style="fill:none;stroke:#000000;stroke-width:10;stroke-linecap:butt;stroke-linejoin:miter;stroke-miterlimit:1.45;stroke-dasharray:none;stroke-opacity:1"
         id="path44" /><path
         d="m 3011.06,383.34 v 12.039 h 12.03 V 383.34 Z m 0,-50.149 v 12.028 h 12.03 v -12.028 z m 28.02,27.649 10.63,0.941 c 0.52,-4.371 1.72,-7.922 3.59,-10.621 1.88,-2.711 4.74,-4.949 8.6,-6.719 3.95,-1.671 8.38,-2.5 13.28,-2.5 4.27,0 8.07,0.618 11.4,1.868 3.34,1.363 5.78,3.132 7.35,5.32 1.66,2.293 2.5,4.73 2.5,7.34 0,2.711 -0.78,5.051 -2.35,7.031 -1.56,2.082 -4.11,3.801 -7.65,5.16 -2.4,0.93 -7.56,2.34 -15.47,4.219 -7.81,1.871 -13.28,3.641 -16.41,5.312 -4.17,2.188 -7.24,4.84 -9.22,7.969 -1.98,3.231 -2.97,6.82 -2.97,10.781 0,4.27 1.2,8.278 3.6,12.028 2.5,3.851 6.09,6.722 10.78,8.59 4.79,1.98 10.05,2.972 15.78,2.972 6.35,0 11.98,-1.043 16.88,-3.121 4.89,-1.98 8.64,-5 11.25,-9.07 2.6,-3.949 4.01,-8.43 4.21,-13.43 l -10.93,-0.781 c -0.63,5.41 -2.66,9.473 -6.1,12.18 -3.33,2.82 -8.28,4.222 -14.84,4.222 -6.88,0 -11.88,-1.25 -15,-3.75 -3.13,-2.5 -4.69,-5.519 -4.69,-9.062 0,-3.129 1.1,-5.68 3.28,-7.66 2.19,-1.977 7.87,-4.008 17.03,-6.09 9.27,-2.078 15.63,-3.91 19.07,-5.469 5,-2.398 8.69,-5.359 11.09,-8.91 2.4,-3.43 3.59,-7.5 3.59,-12.18 0,-4.59 -1.3,-8.91 -3.9,-12.969 -2.61,-3.961 -6.36,-7.089 -11.25,-9.382 -4.9,-2.18 -10.42,-3.278 -16.56,-3.278 -7.82,0 -14.38,1.098 -19.69,3.278 -5.21,2.293 -9.33,5.73 -12.35,10.32 -2.91,4.582 -4.42,9.73 -4.53,15.461 z m 105.67,-27.649 v 75.778 h -28.28 v 10.16 h 68.12 v -10.16 h -28.44 v -75.778 z m 51.11,0 v 85.938 h 17.19 l 20.31,-60.789 c 1.87,-5.731 3.23,-10 4.06,-12.809 0.94,3.129 2.45,7.707 4.53,13.75 l 20.63,59.848 h 15.31 v -85.938 h -10.94 v 71.868 l -25,-71.868 h -10.31 l -24.84,73.118 v -73.118 z m 101.84,50.149 v 12.039 h 12.03 V 383.34 Z m 0,-50.149 v 12.028 h 12.03 v -12.028 z m 53.65,0 v 75.778 h -28.28 v 10.16 h 68.12 v -10.16 h -28.44 v -75.778 z m 51.58,0 v 85.938 h 38.13 c 7.7,0 13.54,-0.789 17.5,-2.348 3.95,-1.562 7.13,-4.32 9.53,-8.281 2.39,-3.852 3.59,-8.121 3.59,-12.809 0,-6.152 -1.98,-11.3 -5.94,-15.472 -3.96,-4.168 -10.05,-6.821 -18.28,-7.969 3.02,-1.461 5.31,-2.859 6.88,-4.219 3.33,-3.019 6.45,-6.82 9.37,-11.402 l 15,-23.438 h -14.37 L 3453.09,351 c -3.34,5.211 -6.1,9.172 -8.28,11.879 -2.09,2.703 -4.02,4.582 -5.79,5.621 -1.66,1.148 -3.38,1.98 -5.15,2.5 -1.25,0.211 -3.34,0.309 -6.25,0.309 h -13.28 v -38.118 z m 11.41,47.969 h 24.53 c 5.1,0 9.11,0.52 12.03,1.559 3.02,1.14 5.26,2.863 6.72,5.16 1.56,2.391 2.34,5 2.34,7.812 0,4.059 -1.51,7.391 -4.53,10 -2.92,2.598 -7.55,3.899 -13.91,3.899 h -27.18 z m 77.13,-47.969 v 85.938 h 11.25 v -85.938 z m 71.62,33.75 v 10 l 36.25,0.149 v -31.871 c -5.52,-4.481 -11.25,-7.867 -17.19,-10.16 -5.94,-2.18 -12.03,-3.278 -18.28,-3.278 -8.44,0 -16.15,1.77 -23.13,5.309 -6.87,3.648 -12.08,8.859 -15.62,15.629 -3.44,6.871 -5.16,14.531 -5.16,22.972 0,8.438 1.72,16.25 5.16,23.438 3.54,7.293 8.59,12.652 15.15,16.09 6.57,3.543 14.12,5.312 22.66,5.312 6.25,0 11.88,-0.992 16.88,-2.972 5,-1.977 8.9,-4.789 11.71,-8.43 2.92,-3.547 5.11,-8.231 6.57,-14.07 l -10.16,-2.809 c -1.35,4.379 -3.02,7.809 -5,10.309 -1.87,2.5 -4.58,4.48 -8.12,5.941 -3.55,1.559 -7.45,2.34 -11.72,2.34 -5.21,0 -9.74,-0.781 -13.6,-2.34 -3.75,-1.559 -6.82,-3.648 -9.22,-6.25 -2.29,-2.602 -4.06,-5.469 -5.31,-8.59 -2.19,-5.32 -3.28,-11.051 -3.28,-17.191 0,-7.707 1.3,-14.168 3.91,-19.379 2.7,-5.102 6.56,-8.899 11.56,-11.399 5,-2.5 10.36,-3.75 16.09,-3.75 4.9,0 9.69,0.938 14.38,2.809 4.69,1.98 8.23,4.012 10.62,6.09 v 16.101 z m 93.34,0 v 10 l 36.25,0.149 v -31.871 c -5.52,-4.481 -11.25,-7.867 -17.19,-10.16 -5.94,-2.18 -12.03,-3.278 -18.28,-3.278 -8.44,0 -16.15,1.77 -23.13,5.309 -6.87,3.648 -12.08,8.859 -15.62,15.629 -3.44,6.871 -5.16,14.531 -5.16,22.972 0,8.438 1.72,16.25 5.16,23.438 3.54,7.293 8.59,12.652 15.15,16.09 6.57,3.543 14.12,5.312 22.66,5.312 6.25,0 11.88,-0.992 16.88,-2.972 5,-1.977 8.9,-4.789 11.71,-8.43 2.92,-3.547 5.11,-8.231 6.57,-14.07 l -10.16,-2.809 c -1.35,4.379 -3.02,7.809 -5,10.309 -1.87,2.5 -4.58,4.48 -8.12,5.941 -3.55,1.559 -7.45,2.34 -11.72,2.34 -5.21,0 -9.74,-0.781 -13.6,-2.34 -3.75,-1.559 -6.82,-3.648 -9.22,-6.25 -2.29,-2.602 -4.06,-5.469 -5.31,-8.59 -2.19,-5.32 -3.28,-11.051 -3.28,-17.191 0,-7.707 1.3,-14.168 3.91,-19.379 2.7,-5.102 6.56,-8.899 11.56,-11.399 5,-2.5 10.36,-3.75 16.09,-3.75 4.9,0 9.69,0.938 14.38,2.809 4.69,1.98 8.23,4.012 10.62,6.09 v 16.101 z m 53.34,-33.75 v 85.938 h 62.03 v -10.16 h -50.63 v -26.25 h 47.5 v -10.16 h -47.5 V 343.34 h 52.66 v -10.149 z m 79.88,0 v 85.938 h 38.12 c 7.71,0 13.55,-0.789 17.5,-2.348 3.96,-1.562 7.14,-4.32 9.54,-8.281 2.39,-3.852 3.59,-8.121 3.59,-12.809 0,-6.152 -1.98,-11.3 -5.94,-15.472 -3.96,-4.168 -10.05,-6.821 -18.28,-7.969 3.02,-1.461 5.31,-2.859 6.88,-4.219 3.33,-3.019 6.45,-6.82 9.37,-11.402 l 15,-23.438 h -14.37 L 3839.81,351 c -3.34,5.211 -6.1,9.172 -8.29,11.879 -2.08,2.703 -4.01,4.582 -5.78,5.621 -1.66,1.148 -3.38,1.98 -5.15,2.5 -1.25,0.211 -3.34,0.309 -6.25,0.309 h -13.28 v -38.118 z m 11.41,47.969 h 24.53 c 5.1,0 9.11,0.52 12.03,1.559 3.02,1.14 5.26,2.863 6.72,5.16 1.56,2.391 2.34,5 2.34,7.812 0,4.059 -1.51,7.391 -4.53,10 -2.92,2.598 -7.55,3.899 -13.91,3.899 h -27.18 v -28.43"
         style="fill:#000000;fill-opacity:1;fill-rule:nonzero;stroke:none"
         id="path46" /><path
         d="m 1339.84,2560.27 0.51,2.88 3.98,52.58 -1.24,52.11 -6.28,51.32 -11.15,50.18 -15.87,48.7 -20.4,46.89 -24.78,44.72 -28.99,42.23 -33.03,39.39 -36.89,36.22 -40.6,32.7 -44.14,28.84 -47.5,24.65 -50.71,20.11 -52.469,14.9 -52.699,9.36 -52.57,3.97 -52.121,-1.23 -51.321,-6.28 -50.179,-11.16 -48.7,-15.86 -46.882,-20.41 -44.727,-24.78 -42.23,-28.98 -39.391,-33.03 -36.211,-36.9 -32.699,-40.6 -28.852,-44.13 -24.64,-47.51 -20.118,-50.7 -14.902,-52.48 -9.359,-52.69 -3.969,-52.58 0.07,-3.14 0.117,-0.99"
         style="fill:none;stroke:#000000;stroke-width:10;stroke-linecap:butt;stroke-linejoin:miter;stroke-miterlimit:1.45;stroke-dasharray:none;stroke-opacity:1"
         id="path48" /><path
         d="m 283.781,2558.72 42.59,122.82 -48.082,-32.99 -51.73,26.9 z"
         style="fill:#000000;fill-opacity:1;fill-rule:nonzero;stroke:none"
         id="path50" /><path
         d="M 391.961,3240.26 H 1198.84 V 3053.25 H 391.961 v 187.01"
         style="fill:#ffffff;fill-opacity:1;fill-rule:nonzero;stroke:none"
         id="path52" /><path
         d="m 422.738,3149.77 v 12.03 h 12.043 v -12.03 z m 0,-50.16 v 12.03 h 12.043 v -12.03 z m 33.813,0 v 85.94 h 11.25 v -85.94 z m 27.558,27.66 10.629,0.94 c 0.524,-4.38 1.723,-7.92 3.594,-10.63 1.879,-2.71 4.738,-4.95 8.59,-6.72 3.957,-1.66 8.387,-2.5 13.289,-2.5 4.269,0 8.07,0.63 11.398,1.88 3.332,1.35 5.782,3.12 7.352,5.31 1.66,2.29 2.5,4.74 2.5,7.34 0,2.71 -0.789,5.06 -2.352,7.04 -1.558,2.08 -4.109,3.8 -7.648,5.15 -2.402,0.94 -7.563,2.35 -15.473,4.22 -7.816,1.88 -13.277,3.65 -16.406,5.31 -4.172,2.19 -7.242,4.85 -9.223,7.97 -1.98,3.23 -2.968,6.82 -2.968,10.78 0,4.27 1.199,8.28 3.597,12.03 2.5,3.86 6.094,6.72 10.782,8.6 4.789,1.97 10.05,2.96 15.781,2.96 6.347,0 11.98,-1.04 16.871,-3.12 4.898,-1.98 8.648,-5 11.25,-9.06 2.609,-3.96 4.008,-8.44 4.219,-13.44 l -10.93,-0.78 c -0.629,5.41 -2.66,9.48 -6.102,12.19 -3.328,2.81 -8.277,4.21 -14.839,4.21 -6.879,0 -11.879,-1.25 -15,-3.75 -3.129,-2.5 -4.688,-5.52 -4.688,-9.06 0,-3.12 1.09,-5.68 3.277,-7.65 2.192,-1.98 7.871,-4.01 17.032,-6.1 9.269,-2.08 15.629,-3.9 19.07,-5.46 5,-2.4 8.687,-5.37 11.09,-8.91 2.39,-3.44 3.59,-7.5 3.59,-12.19 0,-4.58 -1.301,-8.9 -3.903,-12.97 -2.609,-3.96 -6.359,-7.08 -11.25,-9.37 -4.898,-2.19 -10.418,-3.28 -16.566,-3.28 -7.813,0 -14.371,1.09 -19.684,3.28 -5.207,2.29 -9.328,5.72 -12.347,10.31 -2.911,4.58 -4.422,9.74 -4.532,15.47 z m 72.7,-51.56 v 7.65 h 70 v -7.65 z m 77.832,23.9 v 85.94 h 32.5 c 5.621,0 9.949,-0.26 12.968,-0.78 4.27,-0.73 7.813,-2.09 10.621,-4.07 2.918,-1.97 5.211,-4.74 6.879,-8.27 1.77,-3.55 2.653,-7.45 2.653,-11.73 0,-7.29 -2.34,-13.49 -7.032,-18.59 -4.582,-5 -12.968,-7.5 -25.148,-7.5 h -22.043 v -35 z m 11.398,45 h 22.191 c 7.399,0 12.61,1.35 15.629,4.07 3.121,2.81 4.68,6.71 4.68,11.71 0,3.54 -0.93,6.56 -2.809,9.06 -1.769,2.61 -4.109,4.33 -7.031,5.16 -1.98,0.52 -5.519,0.78 -10.617,0.78 h -22.043 z m 59.262,-45 32.969,85.94 h 12.191 l 35.16,-85.94 h -12.82 l -10.153,26.1 h -35.777 l -9.539,-26.1 z m 24.847,35.32 h 29.063 l -8.91,23.75 c -2.813,7.18 -4.84,13.12 -6.09,17.81 -1.152,-5.53 -2.711,-10.99 -4.691,-16.41 z m 64.723,-35.32 v 85.94 H 833 c 7.711,0 13.539,-0.78 17.5,-2.35 3.961,-1.56 7.129,-4.32 9.531,-8.27 2.399,-3.86 3.59,-8.13 3.59,-12.82 0,-6.15 -1.98,-11.3 -5.93,-15.47 -3.961,-4.16 -10.062,-6.82 -18.293,-7.96 3.032,-1.47 5.321,-2.87 6.883,-4.22 3.328,-3.03 6.457,-6.83 9.367,-11.41 l 15,-23.44 h -14.367 l -11.25,17.82 c -3.332,5.2 -6.09,9.16 -8.281,11.87 -2.09,2.71 -4.012,4.58 -5.781,5.63 -1.668,1.14 -3.387,1.97 -5.16,2.5 -1.25,0.2 -3.329,0.31 -6.25,0.31 h -13.278 v -38.13 z m 11.41,47.97 h 24.528 c 5.101,0 9.121,0.52 12.031,1.56 3.019,1.15 5.262,2.87 6.719,5.16 1.562,2.4 2.339,5 2.339,7.81 0,4.07 -1.507,7.4 -4.527,10 -2.91,2.6 -7.551,3.91 -13.902,3.91 h -27.188 z m 96.969,-47.97 v 75.78 h -28.281 v 10.16 h 68.133 v -10.16 H 914.66 v -75.78 z m 40.332,-23.9 v 7.65 h 69.998 v -7.65 z m 74.398,65.78 c 0,14.27 3.8,25.41 11.4,33.44 7.71,8.12 17.61,12.18 29.69,12.18 8.02,0 15.21,-1.93 21.56,-5.78 6.36,-3.75 11.2,-9.01 14.54,-15.78 3.33,-6.77 5,-14.48 5,-23.12 0,-8.65 -1.77,-16.41 -5.32,-23.29 -3.54,-6.87 -8.54,-12.08 -15,-15.62 -6.35,-3.54 -13.28,-5.31 -20.78,-5.31 -8.12,0 -15.36,1.92 -21.72,5.78 -6.35,3.96 -11.19,9.27 -14.53,15.94 -3.23,6.77 -4.84,13.95 -4.84,21.56 z m 11.72,-0.16 c 0,-10.42 2.76,-18.59 8.28,-24.53 5.62,-5.94 12.65,-8.91 21.09,-8.91 8.54,0 15.58,2.97 21.1,8.91 5.52,6.04 8.28,14.63 8.28,25.78 0,6.98 -1.2,13.07 -3.6,18.28 -2.29,5.21 -5.73,9.22 -10.31,12.03 -4.58,2.92 -9.69,4.38 -15.31,4.38 -8.02,0 -14.95,-2.76 -20.78,-8.28 -5.84,-5.53 -8.75,-14.74 -8.75,-27.66 z m 85.68,-41.72 v 85.94 h 57.97 v -10.16 h -46.56 v -26.56 h 40.31 v -10.15 h -40.31 v -39.07 h -11.41"
         style="fill:#000000;fill-opacity:1;fill-rule:nonzero;stroke:none"
         id="path54" /><path
         d="M 2723.59,1812.07 1509.73,1800.08"
         style="fill:none;stroke:#000000;stroke-width:10;stroke-linecap:butt;stroke-linejoin:miter;stroke-miterlimit:1.45;stroke-dasharray:none;stroke-opacity:1"
         id="path56" /><path
         d="m 1429.73,1799.29 120.49,-48.81 -30.49,49.7 29.5,50.29 z"
         style="fill:#000000;fill-opacity:1;fill-rule:nonzero;stroke:none"
         id="path58" /><path
         d="M 1529.67,1899.18 H 2623.24 V 1712.17 H 1529.67 v 187.01"
         style="fill:#ffffff;fill-opacity:1;fill-rule:nonzero;stroke:none"
         id="path60" /><path
         d="m 1560.45,1808.7 v 12.03 h 12.03 v -12.03 z m 0,-50.16 v 12.03 h 12.03 v -12.03 z m 33.81,0 v 85.94 h 11.25 v -85.94 z m 27.56,27.66 10.62,0.93 c 0.52,-4.37 1.72,-7.91 3.59,-10.62 1.88,-2.71 4.74,-4.95 8.6,-6.72 3.96,-1.67 8.38,-2.5 13.28,-2.5 4.27,0 8.07,0.62 11.41,1.87 3.33,1.36 5.78,3.13 7.34,5.32 1.67,2.29 2.5,4.74 2.5,7.34 0,2.71 -0.78,5.05 -2.34,7.03 -1.57,2.09 -4.12,3.8 -7.66,5.16 -2.4,0.94 -7.55,2.34 -15.47,4.22 -7.81,1.87 -13.28,3.64 -16.41,5.31 -4.16,2.19 -7.24,4.84 -9.21,7.97 -1.98,3.23 -2.97,6.82 -2.97,10.78 0,4.27 1.19,8.28 3.59,12.03 2.5,3.86 6.09,6.72 10.78,8.59 4.79,1.98 10.05,2.97 15.78,2.97 6.36,0 11.98,-1.04 16.88,-3.12 4.89,-1.98 8.64,-5 11.25,-9.06 2.6,-3.96 4.01,-8.44 4.22,-13.44 l -10.94,-0.78 c -0.63,5.41 -2.66,9.48 -6.09,12.18 -3.34,2.82 -8.29,4.22 -14.85,4.22 -6.87,0 -11.87,-1.25 -15,-3.75 -3.12,-2.5 -4.69,-5.52 -4.69,-9.06 0,-3.12 1.1,-5.68 3.29,-7.66 2.18,-1.97 7.86,-4.01 17.03,-6.09 9.27,-2.08 15.62,-3.91 19.06,-5.47 5,-2.39 8.7,-5.36 11.09,-8.9 2.4,-3.44 3.6,-7.5 3.6,-12.19 0,-4.58 -1.31,-8.91 -3.91,-12.97 -2.6,-3.96 -6.35,-7.08 -11.25,-9.38 -4.9,-2.18 -10.42,-3.28 -16.56,-3.28 -7.81,0 -14.38,1.1 -19.69,3.28 -5.21,2.3 -9.32,5.73 -12.34,10.32 -2.92,4.58 -4.43,9.74 -4.53,15.47 z m 72.69,-51.57 v 7.66 h 70 v -7.66 z m 79.86,23.91 v 85.94 h 11.25 v -85.94 z m 31.31,0 v 85.94 h 11.57 l 45.15,-67.5 v 67.5 h 10.94 v -85.94 h -11.72 l -45.16,67.5 v -67.5 z m 82.91,27.66 10.63,0.93 c 0.52,-4.37 1.72,-7.91 3.59,-10.62 1.88,-2.71 4.74,-4.95 8.6,-6.72 3.95,-1.67 8.38,-2.5 13.28,-2.5 4.27,0 8.07,0.62 11.4,1.87 3.34,1.36 5.78,3.13 7.35,5.32 1.66,2.29 2.5,4.74 2.5,7.34 0,2.71 -0.78,5.05 -2.35,7.03 -1.56,2.09 -4.11,3.8 -7.65,5.16 -2.4,0.94 -7.56,2.34 -15.47,4.22 -7.81,1.87 -13.28,3.64 -16.41,5.31 -4.16,2.19 -7.24,4.84 -9.22,7.97 -1.98,3.23 -2.97,6.82 -2.97,10.78 0,4.27 1.2,8.28 3.6,12.03 2.5,3.86 6.09,6.72 10.78,8.59 4.79,1.98 10.05,2.97 15.78,2.97 6.35,0 11.98,-1.04 16.88,-3.12 4.89,-1.98 8.64,-5 11.25,-9.06 2.6,-3.96 4.01,-8.44 4.21,-13.44 l -10.93,-0.78 c -0.63,5.41 -2.66,9.48 -6.1,12.18 -3.33,2.82 -8.28,4.22 -14.84,4.22 -6.88,0 -11.88,-1.25 -15,-3.75 -3.13,-2.5 -4.69,-5.52 -4.69,-9.06 0,-3.12 1.1,-5.68 3.28,-7.66 2.19,-1.97 7.87,-4.01 17.03,-6.09 9.28,-2.08 15.63,-3.91 19.07,-5.47 5,-2.39 8.69,-5.36 11.09,-8.9 2.4,-3.44 3.59,-7.5 3.59,-12.19 0,-4.58 -1.3,-8.91 -3.9,-12.97 -2.61,-3.96 -6.36,-7.08 -11.25,-9.38 -4.9,-2.18 -10.42,-3.28 -16.56,-3.28 -7.82,0 -14.38,1.1 -19.69,3.28 -5.21,2.3 -9.32,5.73 -12.35,10.32 -2.91,4.58 -4.42,9.74 -4.53,15.47 z m 105.67,-27.66 v 75.78 h -28.28 v 10.16 h 68.12 v -10.16 h -28.44 v -75.78 z m 42.05,0 32.97,85.94 h 12.18 l 35.16,-85.94 h -12.81 l -10.16,26.09 h -35.78 l -9.53,-26.09 z m 24.84,35.31 h 29.06 l -8.9,23.75 c -2.81,7.19 -4.85,13.13 -6.1,17.81 -1.14,-5.52 -2.7,-10.98 -4.68,-16.4 z m 64.57,-35.31 v 85.94 h 11.56 l 45.16,-67.5 v 67.5 h 10.94 v -85.94 h -11.72 l -45.16,67.5 v -67.5 z m 148.07,30.16 11.25,-2.97 c -2.4,-9.27 -6.67,-16.36 -12.81,-21.25 -6.15,-4.9 -13.7,-7.35 -22.66,-7.35 -9.27,0 -16.82,1.88 -22.66,5.63 -5.83,3.75 -10.26,9.17 -13.28,16.25 -3.02,7.19 -4.53,14.89 -4.53,23.12 0,8.96 1.72,16.77 5.16,23.44 3.43,6.67 8.28,11.72 14.53,15.16 6.35,3.43 13.33,5.15 20.94,5.15 8.54,0 15.73,-2.18 21.56,-6.56 5.94,-4.37 10.05,-10.52 12.34,-18.44 l -11.25,-2.65 c -1.98,6.25 -4.89,10.78 -8.75,13.59 -3.75,2.92 -8.49,4.38 -14.22,4.38 -6.56,0 -12.08,-1.62 -16.56,-4.85 -4.37,-3.12 -7.5,-7.34 -9.37,-12.65 -1.77,-5.32 -2.66,-10.84 -2.66,-16.57 0,-7.29 1.04,-13.64 3.12,-19.06 2.19,-5.42 5.53,-9.48 10,-12.19 4.48,-2.7 9.38,-4.06 14.69,-4.06 6.36,0 11.72,1.82 16.1,5.47 4.48,3.65 7.5,9.11 9.06,16.41 z m 25.56,-30.16 v 85.94 h 62.04 v -10.16 h -50.63 v -26.25 h 47.5 v -10.16 h -47.5 v -29.21 h 52.66 v -10.16 z m 68.64,-23.91 v 7.66 h 70 v -7.66 z m 74.39,65.78 c 0,14.28 3.8,25.42 11.41,33.44 7.71,8.13 17.6,12.19 29.69,12.19 8.02,0 15.2,-1.93 21.56,-5.78 6.35,-3.75 11.2,-9.01 14.53,-15.78 3.33,-6.77 5,-14.48 5,-23.13 0,-8.64 -1.77,-16.4 -5.31,-23.28 -3.54,-6.87 -8.54,-12.08 -15,-15.62 -6.36,-3.55 -13.28,-5.32 -20.78,-5.32 -8.13,0 -15.37,1.93 -21.72,5.78 -6.36,3.96 -11.2,9.28 -14.53,15.94 -3.23,6.77 -4.85,13.96 -4.85,21.56 z m 11.72,-0.15 c 0,-10.42 2.76,-18.6 8.28,-24.53 5.63,-5.94 12.66,-8.91 21.1,-8.91 8.54,0 15.57,2.97 21.09,8.91 5.52,6.04 8.28,14.63 8.28,25.78 0,6.98 -1.2,13.07 -3.59,18.28 -2.29,5.21 -5.73,9.22 -10.32,12.03 -4.58,2.92 -9.68,4.38 -15.31,4.38 -8.02,0 -14.95,-2.76 -20.78,-8.29 -5.83,-5.52 -8.75,-14.73 -8.75,-27.65 z m 85.68,-41.72 v 85.94 h 57.97 v -10.16 h -46.56 v -26.56 h 40.31 v -10.16 h -40.31 v -39.06 h -11.41"
         style="fill:#000000;fill-opacity:1;fill-rule:nonzero;stroke:none"
         id="path62" /><path
         d="M 2723.98,1302.7 H 1509.32"
         style="fill:none;stroke:#000000;stroke-width:10;stroke-linecap:butt;stroke-linejoin:miter;stroke-miterlimit:1.45;stroke-dasharray:none;stroke-opacity:1"
         id="path64" /><path
         d="m 1429.32,1302.7 120,-50 -30,50 30,50 z"
         style="fill:#000000;fill-opacity:1;fill-rule:nonzero;stroke:none"
         id="path66" /><path
         d="m 1673.02,1396.2 h 806.87 v -187.01 h -806.87 v 187.01"
         style="fill:#ffffff;fill-opacity:1;fill-rule:nonzero;stroke:none"
         id="path68" /><path
         d="m 1703.8,1305.72 v 12.03 h 12.03 v -12.03 z m 0,-50.16 v 12.03 h 12.03 v -12.03 z m 33.81,0 v 85.94 h 11.25 v -85.94 z m 27.56,27.66 10.62,0.93 c 0.52,-4.37 1.72,-7.91 3.59,-10.62 1.88,-2.71 4.74,-4.95 8.6,-6.72 3.96,-1.67 8.38,-2.5 13.28,-2.5 4.27,0 8.07,0.62 11.41,1.87 3.33,1.36 5.78,3.13 7.34,5.32 1.67,2.29 2.5,4.74 2.5,7.34 0,2.71 -0.78,5.05 -2.34,7.03 -1.57,2.09 -4.12,3.8 -7.66,5.16 -2.4,0.94 -7.55,2.34 -15.47,4.22 -7.81,1.87 -13.28,3.64 -16.41,5.31 -4.16,2.19 -7.24,4.84 -9.21,7.97 -1.98,3.23 -2.97,6.82 -2.97,10.78 0,4.27 1.19,8.28 3.59,12.03 2.5,3.86 6.09,6.72 10.78,8.59 4.79,1.98 10.05,2.97 15.78,2.97 6.36,0 11.98,-1.04 16.88,-3.12 4.89,-1.98 8.64,-5 11.25,-9.06 2.6,-3.96 4.01,-8.44 4.22,-13.44 l -10.94,-0.78 c -0.63,5.41 -2.66,9.48 -6.09,12.18 -3.34,2.82 -8.29,4.22 -14.85,4.22 -6.87,0 -11.87,-1.25 -15,-3.75 -3.12,-2.5 -4.69,-5.52 -4.69,-9.06 0,-3.12 1.1,-5.68 3.29,-7.66 2.18,-1.97 7.86,-4.01 17.03,-6.09 9.27,-2.08 15.62,-3.91 19.06,-5.47 5,-2.39 8.7,-5.36 11.09,-8.9 2.4,-3.44 3.6,-7.5 3.6,-12.19 0,-4.58 -1.31,-8.91 -3.91,-12.97 -2.6,-3.96 -6.35,-7.08 -11.25,-9.38 -4.9,-2.18 -10.42,-3.28 -16.56,-3.28 -7.81,0 -14.38,1.1 -19.69,3.28 -5.21,2.3 -9.32,5.73 -12.34,10.32 -2.92,4.58 -4.43,9.74 -4.53,15.47 z m 72.69,-51.57 v 7.66 h 70 v -7.66 z m 77.83,23.91 v 85.94 h 32.5 c 5.63,0 9.95,-0.26 12.97,-0.78 4.27,-0.73 7.81,-2.09 10.63,-4.07 2.91,-1.98 5.2,-4.74 6.87,-8.28 1.77,-3.54 2.66,-7.45 2.66,-11.72 0,-7.29 -2.35,-13.49 -7.03,-18.59 -4.59,-5 -12.97,-7.5 -25.16,-7.5 h -22.03 v -35 z m 11.41,45 h 22.19 c 7.39,0 12.6,1.35 15.62,4.06 3.13,2.81 4.69,6.72 4.69,11.72 0,3.54 -0.94,6.56 -2.81,9.06 -1.77,2.61 -4.12,4.33 -7.03,5.16 -1.98,0.52 -5.53,0.78 -10.63,0.78 h -22.03 z m 59.26,-45 32.97,85.94 h 12.18 l 35.16,-85.94 h -12.81 l -10.16,26.09 h -35.78 l -9.53,-26.09 z m 24.84,35.31 h 29.06 l -8.9,23.75 c -2.82,7.19 -4.85,13.13 -6.1,17.81 -1.14,-5.52 -2.71,-10.98 -4.68,-16.4 z m 64.73,-35.31 v 85.94 h 38.12 c 7.71,0 13.54,-0.78 17.5,-2.35 3.96,-1.56 7.14,-4.32 9.53,-8.28 2.4,-3.85 3.6,-8.12 3.6,-12.81 0,-6.15 -1.98,-11.3 -5.94,-15.47 -3.96,-4.17 -10.05,-6.82 -18.28,-7.97 3.02,-1.46 5.31,-2.86 6.87,-4.22 3.34,-3.02 6.46,-6.82 9.38,-11.4 l 15,-23.44 h -14.38 l -11.25,17.81 c -3.33,5.21 -6.09,9.17 -8.28,11.88 -2.08,2.71 -4.01,4.58 -5.78,5.62 -1.67,1.15 -3.38,1.98 -5.16,2.5 -1.25,0.21 -3.33,0.31 -6.25,0.31 h -13.28 v -38.12 z m 11.4,47.97 h 24.53 c 5.11,0 9.12,0.52 12.04,1.56 3.02,1.15 5.26,2.87 6.71,5.16 1.57,2.39 2.35,5 2.35,7.81 0,4.06 -1.51,7.4 -4.53,10 -2.92,2.6 -7.55,3.91 -13.91,3.91 h -27.19 z m 96.98,-47.97 v 75.78 h -28.29 v 10.16 h 68.13 v -10.16 h -28.44 v -75.78 z m 40.33,-23.91 v 7.66 h 70 v -7.66 z m 74.39,65.78 c 0,14.28 3.8,25.42 11.41,33.44 7.71,8.13 17.6,12.19 29.69,12.19 8.02,0 15.2,-1.93 21.56,-5.78 6.35,-3.75 11.2,-9.01 14.53,-15.78 3.33,-6.77 5,-14.48 5,-23.13 0,-8.64 -1.77,-16.4 -5.31,-23.28 -3.54,-6.87 -8.54,-12.08 -15,-15.62 -6.36,-3.55 -13.28,-5.32 -20.78,-5.32 -8.13,0 -15.37,1.93 -21.72,5.78 -6.36,3.96 -11.2,9.28 -14.53,15.94 -3.23,6.77 -4.85,13.96 -4.85,21.56 z m 11.72,-0.15 c 0,-10.42 2.76,-18.6 8.28,-24.53 5.63,-5.94 12.66,-8.91 21.1,-8.91 8.54,0 15.57,2.97 21.09,8.91 5.52,6.04 8.28,14.63 8.28,25.78 0,6.98 -1.2,13.07 -3.59,18.28 -2.29,5.21 -5.73,9.22 -10.31,12.03 -4.59,2.92 -9.69,4.38 -15.32,4.38 -8.02,0 -14.95,-2.76 -20.78,-8.29 -5.83,-5.52 -8.75,-14.73 -8.75,-27.65 z m 85.68,-41.72 v 85.94 h 57.97 v -10.16 h -46.56 v -26.56 h 40.31 v -10.16 h -40.31 v -39.06 h -11.41"
         style="fill:#000000;fill-opacity:1;fill-rule:nonzero;stroke:none"
         id="path70" /><path
         d="m 3825.72,2559.82 1.34,4.44 8.99,44.89 4.66,45.71 0.2,46.21 -4.35,46.39 -9.03,46.26 -13.81,45.8 -18.72,45.02 -23.16,42.91 -26.84,39.59 -30.22,36.16 -33.28,32.62 -36,28.97 -38.43,25.19 -40.51,21.32 -42.3,17.32 -43.75,13.21 -44.89,8.99 -45.71,4.66 -46.21,0.2 -46.4,-4.35 -46.25,-9.03 -45.8,-13.82 -45.02,-18.71 -42.91,-23.16 -39.59,-26.84 -36.16,-30.22 -32.62,-33.28 -28.97,-36 -25.2,-38.43 -21.31,-40.52 -17.32,-42.29 -13.21,-43.75 -8.99,-44.89 -4.66,-45.71 -0.2,-46.21 1.86,-19.86 0.2,-0.97"
         style="fill:none;stroke:#000000;stroke-width:10;stroke-linecap:butt;stroke-linejoin:miter;stroke-miterlimit:1.45;stroke-dasharray:none;stroke-opacity:1"
         id="path72" /><path
         d="m 2904.47,2558.75 29.33,126.65 -44.31,-37.9 -54.3,21.25 z"
         style="fill:#000000;fill-opacity:1;fill-rule:nonzero;stroke:none"
         id="path74" /><path
         d="M 2767.92,3197.1 H 3841.34 V 3010.09 H 2767.92 v 187.01"
         style="fill:#ffffff;fill-opacity:1;fill-rule:nonzero;stroke:none"
         id="path76" /><path
         d="m 2798.7,3106.61 v 12.03 h 12.04 v -12.03 z m 0,-50.16 v 12.03 h 12.04 v -12.03 z m 93.19,30.16 11.25,-2.97 c -2.4,-9.27 -6.67,-16.35 -12.81,-21.25 -6.15,-4.9 -13.7,-7.34 -22.66,-7.34 -9.27,0 -16.82,1.87 -22.66,5.62 -5.83,3.75 -10.26,9.17 -13.28,16.25 -3.02,7.19 -4.53,14.9 -4.53,23.13 0,8.95 1.72,16.77 5.16,23.43 3.43,6.67 8.28,11.72 14.53,15.16 6.35,3.44 13.33,5.16 20.94,5.16 8.54,0 15.72,-2.19 21.56,-6.57 5.94,-4.37 10.05,-10.52 12.34,-18.43 l -11.25,-2.66 c -1.98,6.25 -4.89,10.78 -8.75,13.59 -3.75,2.92 -8.49,4.38 -14.22,4.38 -6.56,0 -12.08,-1.62 -16.56,-4.84 -4.37,-3.13 -7.5,-7.35 -9.37,-12.66 -1.78,-5.31 -2.66,-10.84 -2.66,-16.56 0,-7.3 1.04,-13.65 3.12,-19.07 2.19,-5.41 5.52,-9.48 10,-12.18 4.48,-2.71 9.38,-4.07 14.69,-4.07 6.36,0 11.72,1.82 16.1,5.47 4.47,3.65 7.5,9.12 9.06,16.41 z m 21.81,11.72 c 0,14.27 3.81,25.41 11.41,33.44 7.71,8.12 17.6,12.18 29.69,12.18 8.02,0 15.21,-1.93 21.56,-5.78 6.35,-3.75 11.2,-9.01 14.53,-15.78 3.34,-6.77 5,-14.48 5,-23.12 0,-8.65 -1.77,-16.41 -5.31,-23.29 -3.54,-6.87 -8.54,-12.08 -15,-15.62 -6.35,-3.54 -13.28,-5.31 -20.78,-5.31 -8.13,0 -15.37,1.92 -21.72,5.78 -6.35,3.96 -11.2,9.27 -14.53,15.94 -3.23,6.77 -4.85,13.95 -4.85,21.56 z m 11.72,-0.16 c 0,-10.42 2.76,-18.59 8.28,-24.53 5.63,-5.94 12.66,-8.91 21.1,-8.91 8.54,0 15.57,2.97 21.09,8.91 5.52,6.04 8.28,14.63 8.28,25.78 0,6.98 -1.19,13.07 -3.59,18.28 -2.29,5.21 -5.73,9.22 -10.31,12.03 -4.59,2.92 -9.69,4.38 -15.32,4.38 -8.02,0 -14.94,-2.76 -20.78,-8.28 -5.83,-5.53 -8.75,-14.74 -8.75,-27.66 z m 85.06,-41.72 v 85.94 h 11.56 l 45.16,-67.5 v 67.5 h 10.94 v -85.94 h -11.72 l -45.16,67.5 v -67.5 z m 108.54,0 v 75.78 h -28.28 v 10.16 h 68.12 v -10.16 h -28.44 v -75.78 z m 51.58,0 v 85.94 h 38.12 c 7.71,0 13.55,-0.78 17.5,-2.34 3.96,-1.57 7.14,-4.33 9.54,-8.28 2.39,-3.86 3.59,-8.13 3.59,-12.82 0,-6.15 -1.98,-11.3 -5.94,-15.47 -3.96,-4.16 -10.05,-6.82 -18.28,-7.96 3.02,-1.47 5.31,-2.87 6.88,-4.22 3.33,-3.03 6.45,-6.83 9.37,-11.41 l 15,-23.44 h -14.37 l -11.25,17.82 c -3.34,5.2 -6.1,9.16 -8.29,11.87 -2.08,2.71 -4.01,4.58 -5.78,5.63 -1.66,1.14 -3.38,1.97 -5.15,2.5 -1.25,0.2 -3.34,0.31 -6.25,0.31 h -13.28 v -38.13 z m 11.41,47.97 h 24.53 c 5.1,0 9.11,0.52 12.03,1.56 3.02,1.15 5.26,2.87 6.72,5.16 1.56,2.4 2.34,5 2.34,7.81 0,4.07 -1.51,7.4 -4.53,10 -2.92,2.6 -7.55,3.91 -13.91,3.91 h -27.18 z m 71.66,-6.09 c 0,14.27 3.8,25.41 11.4,33.44 7.71,8.12 17.61,12.18 29.69,12.18 8.02,0 15.21,-1.93 21.56,-5.78 6.36,-3.75 11.2,-9.01 14.53,-15.78 3.34,-6.77 5,-14.48 5,-23.12 0,-8.65 -1.77,-16.41 -5.31,-23.29 -3.54,-6.87 -8.54,-12.08 -15,-15.62 -6.35,-3.54 -13.28,-5.31 -20.78,-5.31 -8.13,0 -15.37,1.92 -21.72,5.78 -6.35,3.96 -11.2,9.27 -14.53,15.94 -3.23,6.77 -4.84,13.95 -4.84,21.56 z m 11.71,-0.16 c 0,-10.42 2.76,-18.59 8.29,-24.53 5.62,-5.94 12.65,-8.91 21.09,-8.91 8.54,0 15.57,2.97 21.09,8.91 5.52,6.04 8.28,14.63 8.28,25.78 0,6.98 -1.19,13.07 -3.59,18.28 -2.29,5.21 -5.73,9.22 -10.31,12.03 -4.59,2.92 -9.69,4.38 -15.31,4.38 -8.03,0 -14.95,-2.76 -20.79,-8.28 -5.83,-5.53 -8.75,-14.74 -8.75,-27.66 z m 84.59,-41.72 v 85.94 h 11.41 v -75.78 h 42.34 v -10.16 z m 56.12,-23.9 v 7.65 h 70 v -7.65 z m 78.45,23.9 v 85.94 h 57.97 v -10.16 h -46.56 v -26.56 h 40.31 v -10.15 h -40.31 v -39.07 z m 72.21,0 v 85.94 h 11.41 v -75.78 h 42.34 v -10.16 z m 63.77,41.88 c 0,14.27 3.8,25.41 11.41,33.44 7.71,8.12 17.6,12.18 29.68,12.18 8.03,0 15.21,-1.93 21.57,-5.78 6.35,-3.75 11.19,-9.01 14.53,-15.78 3.33,-6.77 5,-14.48 5,-23.12 0,-8.65 -1.77,-16.41 -5.31,-23.29 -3.55,-6.87 -8.55,-12.08 -15,-15.62 -6.36,-3.54 -13.29,-5.31 -20.79,-5.31 -8.12,0 -15.36,1.92 -21.71,5.78 -6.36,3.96 -11.2,9.27 -14.54,15.94 -3.22,6.77 -4.84,13.95 -4.84,21.56 z m 11.72,-0.16 c 0,-10.42 2.76,-18.59 8.28,-24.53 5.63,-5.94 12.66,-8.91 21.09,-8.91 8.55,0 15.58,2.97 21.1,8.91 5.52,6.04 8.28,14.63 8.28,25.78 0,6.98 -1.2,13.07 -3.59,18.28 -2.3,5.21 -5.73,9.22 -10.32,12.03 -4.58,2.92 -9.68,4.38 -15.31,4.38 -8.02,0 -14.95,-2.76 -20.78,-8.28 -5.83,-5.53 -8.75,-14.74 -8.75,-27.66 z m 100.06,-41.72 -22.81,85.94 h 11.71 l 13.13,-56.41 c 1.35,-5.83 2.55,-11.66 3.59,-17.5 2.19,9.17 3.49,14.48 3.91,15.94 l 16.25,57.97 h 13.75 l 12.34,-43.44 c 3.02,-10.83 5.26,-20.99 6.72,-30.47 1.04,5.42 2.45,11.67 4.22,18.75 l 13.44,55.16 h 11.4 l -23.43,-85.94 h -11.1 l -17.97,65.47 c -1.56,5.42 -2.5,8.75 -2.81,10 -0.83,-3.85 -1.66,-7.19 -2.5,-10 l -18.12,-65.47 h -11.72"
         style="fill:#000000;fill-opacity:1;fill-rule:nonzero;stroke:none"
         id="path78" /><path
         d="m 2723.71,2332.13 -1214.36,-5.71"
         style="fill:none;stroke:#000000;stroke-width:10;stroke-linecap:butt;stroke-linejoin:miter;stroke-miterlimit:1.45;stroke-dasharray:none;stroke-opacity:1"
         id="path80" /><path
         d="m 1429.35,2326.04 120.23,-49.43 -30.23,49.86 29.76,50.14 z"
         style="fill:#000000;fill-opacity:1;fill-rule:nonzero;stroke:none"
         id="path82" /><path
         d="m 1673.02,2422.59 h 806.87 v -187.01 h -806.87 v 187.01"
         style="fill:#ffffff;fill-opacity:1;fill-rule:nonzero;stroke:none"
         id="path84" /><path
         d="m 1703.8,2332.1 v 12.03 h 12.03 v -12.03 z m 0,-50.15 v 12.03 h 12.03 v -12.03 z m 33.81,0 v 85.93 h 11.25 v -85.93 z m 27.56,27.65 10.62,0.94 c 0.52,-4.38 1.72,-7.92 3.59,-10.63 1.88,-2.7 4.74,-4.95 8.6,-6.71 3.96,-1.67 8.38,-2.5 13.28,-2.5 4.27,0 8.07,0.62 11.41,1.87 3.33,1.36 5.78,3.13 7.34,5.31 1.67,2.3 2.5,4.74 2.5,7.35 0,2.7 -0.78,5.05 -2.34,7.03 -1.57,2.08 -4.12,3.8 -7.66,5.15 -2.4,0.94 -7.55,2.35 -15.47,4.22 -7.81,1.88 -13.28,3.65 -16.41,5.32 -4.16,2.18 -7.24,4.84 -9.21,7.96 -1.98,3.23 -2.97,6.83 -2.97,10.79 0,4.26 1.19,8.28 3.59,12.03 2.5,3.85 6.09,6.72 10.78,8.59 4.79,1.98 10.05,2.97 15.78,2.97 6.36,0 11.98,-1.04 16.88,-3.13 4.89,-1.98 8.64,-5 11.25,-9.06 2.6,-3.96 4.01,-8.44 4.22,-13.44 l -10.94,-0.78 c -0.63,5.42 -2.66,9.48 -6.09,12.19 -3.34,2.81 -8.29,4.22 -14.85,4.22 -6.87,0 -11.87,-1.25 -15,-3.75 -3.12,-2.5 -4.69,-5.52 -4.69,-9.06 0,-3.13 1.1,-5.68 3.29,-7.66 2.18,-1.98 7.86,-4.01 17.03,-6.09 9.27,-2.09 15.62,-3.91 19.06,-5.47 5,-2.4 8.7,-5.37 11.09,-8.91 2.4,-3.44 3.6,-7.5 3.6,-12.19 0,-4.58 -1.31,-8.9 -3.91,-12.96 -2.6,-3.96 -6.35,-7.09 -11.25,-9.38 -4.9,-2.19 -10.42,-3.28 -16.56,-3.28 -7.81,0 -14.38,1.09 -19.69,3.28 -5.21,2.29 -9.32,5.73 -12.34,10.31 -2.92,4.58 -4.43,9.74 -4.53,15.47 z m 72.69,-51.56 v 7.66 h 70 v -7.66 z m 77.83,23.91 v 85.93 h 32.5 c 5.63,0 9.95,-0.26 12.97,-0.78 4.27,-0.73 7.81,-2.08 10.63,-4.06 2.91,-1.98 5.2,-4.74 6.87,-8.28 1.77,-3.55 2.66,-7.45 2.66,-11.72 0,-7.29 -2.35,-13.49 -7.03,-18.59 -4.59,-5 -12.97,-7.5 -25.16,-7.5 h -22.03 v -35 z m 11.41,45 h 22.19 c 7.39,0 12.6,1.35 15.62,4.06 3.13,2.81 4.69,6.72 4.69,11.72 0,3.54 -0.94,6.56 -2.81,9.06 -1.77,2.6 -4.12,4.32 -7.03,5.16 -1.98,0.51 -5.53,0.78 -10.63,0.78 h -22.03 z m 59.26,-45 32.97,85.93 h 12.18 l 35.16,-85.93 h -12.81 l -10.16,26.09 h -35.78 l -9.53,-26.09 z m 24.84,35.31 h 29.06 l -8.9,23.75 c -2.82,7.19 -4.85,13.12 -6.1,17.81 -1.14,-5.52 -2.71,-10.99 -4.68,-16.41 z m 64.73,-35.31 v 85.93 h 38.12 c 7.71,0 13.54,-0.78 17.5,-2.34 3.96,-1.56 7.14,-4.33 9.53,-8.28 2.4,-3.86 3.6,-8.13 3.6,-12.81 0,-6.15 -1.98,-11.31 -5.94,-15.47 -3.96,-4.17 -10.05,-6.83 -18.28,-7.97 3.02,-1.46 5.31,-2.87 6.87,-4.22 3.34,-3.02 6.46,-6.83 9.38,-11.41 l 15,-23.43 h -14.38 l -11.25,17.81 c -3.33,5.2 -6.09,9.17 -8.28,11.87 -2.08,2.71 -4.01,4.58 -5.78,5.63 -1.67,1.14 -3.38,1.98 -5.16,2.5 -1.25,0.2 -3.33,0.31 -6.25,0.31 h -13.28 v -38.12 z m 11.4,47.96 h 24.53 c 5.11,0 9.12,0.52 12.04,1.57 3.02,1.14 5.26,2.86 6.71,5.15 1.57,2.4 2.35,5 2.35,7.82 0,4.06 -1.51,7.39 -4.53,10 -2.92,2.6 -7.55,3.9 -13.91,3.9 h -27.19 z m 96.98,-47.96 v 75.78 h -28.29 v 10.15 h 68.13 v -10.15 h -28.44 v -75.78 z m 40.33,-23.91 v 7.66 h 70 v -7.66 z m 74.39,65.78 c 0,14.27 3.8,25.42 11.41,33.44 7.71,8.12 17.6,12.19 29.69,12.19 8.02,0 15.2,-1.93 21.56,-5.79 6.35,-3.75 11.2,-9.01 14.53,-15.78 3.33,-6.77 5,-14.48 5,-23.12 0,-8.65 -1.77,-16.41 -5.31,-23.28 -3.54,-6.88 -8.54,-12.09 -15,-15.63 -6.36,-3.54 -13.28,-5.31 -20.78,-5.31 -8.13,0 -15.37,1.92 -21.72,5.78 -6.36,3.96 -11.2,9.27 -14.53,15.94 -3.23,6.77 -4.85,13.95 -4.85,21.56 z m 11.72,-0.16 c 0,-10.41 2.76,-18.59 8.28,-24.53 5.63,-5.93 12.66,-8.9 21.1,-8.9 8.54,0 15.57,2.97 21.09,8.9 5.52,6.05 8.28,14.64 8.28,25.78 0,6.98 -1.2,13.08 -3.59,18.29 -2.29,5.2 -5.73,9.21 -10.31,12.03 -4.59,2.91 -9.69,4.37 -15.32,4.37 -8.02,0 -14.95,-2.76 -20.78,-8.28 -5.83,-5.52 -8.75,-14.74 -8.75,-27.66 z m 85.68,-41.71 v 85.93 h 57.97 v -10.15 h -46.56 v -26.57 h 40.31 v -10.15 h -40.31 v -39.06 h -11.41"
         style="fill:#000000;fill-opacity:1;fill-rule:nonzero;stroke:none"
         id="path86" /><path
         d="M 5567.9,2003.62 V 195.789 c 0,-22.09 17.91,-40 40,-40 h 1190 c 22.09,0 40,17.91 40,40 V 2003.62 c 0,22.09 -17.91,40 -40,40 h -1190 c -22.09,0 -40,-17.91 -40,-40"
         style="fill:#ffffff;fill-opacity:1;fill-rule:nonzero;stroke:none"
         id="path88" /><path
         d="M 5567.9,2003.62 V 195.789 c 0,-22.09 17.91,-40 40,-40 h 1190 c 22.09,0 40,17.91 40,40 V 2003.62 c 0,22.09 -17.91,40 -40,40 h -1190 c -22.09,0 -40,-17.91 -40,-40 z"
         style="fill:none;stroke:#000000;stroke-width:10;stroke-linecap:butt;stroke-linejoin:miter;stroke-miterlimit:1.45;stroke-dasharray:none;stroke-opacity:1"
         id="path90" /><path
         d="m 5673.63,1102.72 v 12.03 h 12.03 v -12.03 z m 0,-50.16 v 12.04 h 12.03 v -12.04 z m 28.02,27.66 10.63,0.94 c 0.52,-4.38 1.72,-7.92 3.59,-10.63 1.88,-2.71 4.74,-4.94 8.6,-6.72 3.95,-1.66 8.38,-2.5 13.28,-2.5 4.27,0 8.07,0.63 11.4,1.88 3.34,1.35 5.78,3.12 7.35,5.31 1.66,2.29 2.5,4.74 2.5,7.35 0,2.7 -0.78,5.05 -2.35,7.03 -1.56,2.08 -4.11,3.8 -7.65,5.15 -2.4,0.94 -7.56,2.35 -15.47,4.22 -7.81,1.88 -13.28,3.65 -16.41,5.31 -4.17,2.19 -7.24,4.85 -9.22,7.97 -1.98,3.23 -2.97,6.83 -2.97,10.78 0,4.28 1.2,8.29 3.6,12.04 2.5,3.85 6.09,6.71 10.78,8.59 4.79,1.98 10.05,2.97 15.78,2.97 6.35,0 11.98,-1.04 16.88,-3.13 4.89,-1.98 8.64,-5 11.25,-9.06 2.6,-3.96 4.01,-8.44 4.21,-13.44 l -10.93,-0.78 c -0.63,5.42 -2.66,9.48 -6.1,12.19 -3.33,2.81 -8.28,4.22 -14.84,4.22 -6.88,0 -11.88,-1.25 -15,-3.75 -3.13,-2.5 -4.69,-5.52 -4.69,-9.06 0,-3.13 1.1,-5.68 3.28,-7.66 2.19,-1.98 7.87,-4.01 17.03,-6.09 9.27,-2.09 15.63,-3.91 19.07,-5.47 5,-2.4 8.69,-5.37 11.09,-8.91 2.4,-3.44 3.59,-7.5 3.59,-12.19 0,-4.58 -1.3,-8.9 -3.9,-12.97 -2.61,-3.95 -6.36,-7.08 -11.25,-9.37 -4.9,-2.19 -10.42,-3.28 -16.56,-3.28 -7.82,0 -14.38,1.09 -19.69,3.28 -5.21,2.29 -9.33,5.73 -12.35,10.31 -2.91,4.59 -4.42,9.74 -4.53,15.47 z m 105.67,-27.66 v 75.79 h -28.28 v 10.15 h 68.12 v -10.15 h -28.44 v -75.79 z m 51.11,0 v 85.94 h 17.19 l 20.31,-60.78 c 1.88,-5.73 3.23,-10 4.06,-12.81 0.94,3.12 2.45,7.71 4.53,13.75 l 20.63,59.84 h 15.31 v -85.94 h -10.94 v 71.88 l -25,-71.88 h -10.31 l -24.84,73.13 v -73.13 z m 101.84,50.16 v 12.03 h 12.03 v -12.03 z m 0,-50.16 v 12.04 h 12.03 v -12.04 z m 32.24,0 v 85.94 h 11.25 v -35.31 h 44.69 v 35.31 h 11.41 v -85.94 h -11.41 v 40.47 h -44.69 v -40.47 z m 110.41,0 v 36.41 l -33.12,49.53 h 13.9 l 16.88,-25.94 c 3.12,-4.79 6.04,-9.63 8.75,-14.53 2.6,4.48 5.73,9.53 9.37,15.16 l 16.72,25.31 h 13.13 l -34.22,-49.53 v -36.41 z m 55.82,0 v 85.94 h 32.5 c 5.63,0 9.95,-0.26 12.97,-0.78 4.27,-0.73 7.81,-2.08 10.63,-4.06 2.91,-1.98 5.2,-4.74 6.87,-8.28 1.77,-3.54 2.66,-7.45 2.66,-11.72 0,-7.29 -2.35,-13.49 -7.03,-18.6 -4.59,-5 -12.97,-7.5 -25.16,-7.5 h -22.03 v -35 z m 11.41,45 h 22.19 c 7.39,0 12.6,1.36 15.62,4.07 3.13,2.81 4.69,6.72 4.69,11.72 0,3.54 -0.94,6.56 -2.81,9.06 -1.77,2.6 -4.12,4.32 -7.03,5.15 -1.98,0.53 -5.53,0.79 -10.63,0.79 h -22.03 z m 68.94,-45 v 85.94 h 62.04 v -10.15 h -50.63 v -26.25 h 47.5 v -10.16 h -47.5 v -29.22 h 52.66 v -10.16 z m 79.89,0 v 85.94 h 38.12 c 7.71,0 13.54,-0.78 17.5,-2.34 3.96,-1.56 7.14,-4.32 9.53,-8.28 2.4,-3.86 3.6,-8.13 3.6,-12.82 0,-6.14 -1.98,-11.3 -5.94,-15.46 -3.96,-4.17 -10.05,-6.83 -18.28,-7.97 3.02,-1.46 5.31,-2.87 6.87,-4.22 3.34,-3.02 6.46,-6.82 9.38,-11.41 l 15,-23.44 h -14.38 l -11.25,17.82 c -3.33,5.21 -6.09,9.16 -8.28,11.87 -2.08,2.71 -4.01,4.59 -5.78,5.63 -1.67,1.14 -3.38,1.98 -5.16,2.5 -1.25,0.21 -3.33,0.31 -6.25,0.31 h -13.28 v -38.13 z m 11.4,47.97 h 24.53 c 5.11,0 9.12,0.52 12.04,1.57 3.02,1.14 5.26,2.86 6.71,5.15 1.57,2.4 2.35,5 2.35,7.81 0,4.07 -1.51,7.4 -4.53,10 -2.92,2.61 -7.56,3.91 -13.91,3.91 h -27.19 z m 75.1,-47.97 v 85.94 h 11.56 l 45.16,-67.5 v 67.5 h 10.94 v -85.94 h -11.72 l -45.16,67.5 v -67.5 z m 83.22,41.88 c 0,14.27 3.81,25.42 11.41,33.44 7.71,8.12 17.6,12.18 29.69,12.18 8.02,0 15.21,-1.92 21.56,-5.78 6.35,-3.75 11.2,-9.01 14.53,-15.78 3.33,-6.77 5,-14.48 5,-23.12 0,-8.65 -1.77,-16.41 -5.31,-23.28 -3.54,-6.88 -8.54,-12.09 -15,-15.63 -6.36,-3.54 -13.28,-5.31 -20.78,-5.31 -8.13,0 -15.37,1.93 -21.72,5.78 -6.36,3.96 -11.2,9.27 -14.53,15.94 -3.23,6.77 -4.85,13.96 -4.85,21.56 z m 11.72,-0.16 c 0,-10.41 2.76,-18.59 8.28,-24.53 5.63,-5.94 12.66,-8.9 21.1,-8.9 8.54,0 15.57,2.96 21.09,8.9 5.52,6.04 8.28,14.64 8.28,25.78 0,6.98 -1.2,13.08 -3.59,18.28 -2.29,5.21 -5.73,9.22 -10.31,12.04 -4.59,2.91 -9.69,4.37 -15.32,4.37 -8.02,0 -14.94,-2.76 -20.78,-8.28 -5.83,-5.52 -8.75,-14.74 -8.75,-27.66 z m 85.06,-41.72 v 85.94 h 29.69 c 6.67,0 11.77,-0.41 15.31,-1.25 4.9,-1.14 9.06,-3.18 12.5,-6.09 4.58,-3.86 7.97,-8.8 10.16,-14.85 2.29,-5.93 3.43,-12.7 3.43,-20.31 0,-6.56 -0.78,-12.34 -2.34,-17.34 -1.46,-5 -3.38,-9.17 -5.78,-12.5 -2.4,-3.34 -5.05,-5.94 -7.97,-7.81 -2.81,-1.88 -6.2,-3.34 -10.16,-4.38 -3.95,-0.94 -8.54,-1.41 -13.75,-1.41 z m 11.41,10.16 h 18.28 c 5.73,0 10.21,0.52 13.44,1.56 3.23,1.04 5.78,2.56 7.65,4.53 2.71,2.61 4.79,6.2 6.25,10.79 1.56,4.58 2.35,10.1 2.35,16.56 0,8.96 -1.51,15.83 -4.54,20.62 -2.91,4.9 -6.45,8.18 -10.62,9.85 -3.13,1.14 -8.02,1.72 -14.69,1.72 h -18.12 z m 75.56,-10.16 v 85.94 h 62.03 v -10.15 h -50.62 v -26.25 h 47.5 v -10.16 h -47.5 v -29.22 h 52.66 v -10.16 h -64.07"
         style="fill:#000000;fill-opacity:1;fill-rule:nonzero;stroke:none"
         id="path92" /><path
         d="M 4223.26,1819.08 H 5488.1"
         style="fill:none;stroke:#000000;stroke-width:10;stroke-linecap:butt;stroke-linejoin:miter;stroke-miterlimit:1.45;stroke-dasharray:none;stroke-opacity:1"
         id="path94" /><path
         d="m 4143.26,1819.08 120,-50 -30,50 30,50 z"
         style="fill:#000000;fill-opacity:1;fill-rule:nonzero;stroke:none"
         id="path96" /><path
         d="m 5568.1,1819.08 -120,50 30,-50 -30,-50 z"
         style="fill:#000000;fill-opacity:1;fill-rule:nonzero;stroke:none"
         id="path98" /><path
         d="m 4455.74,1912.59 h 800.02 v -187.02 h -800.02 v 187.02"
         style="fill:#ffffff;fill-opacity:1;fill-rule:nonzero;stroke:none"
         id="path100" /><path
         d="m 4486.52,1822.1 v 12.03 h 12.04 v -12.03 z m 0,-50.16 v 12.03 h 12.04 v -12.03 z m 53.66,0 v 75.78 h -28.28 v 10.16 h 68.12 v -10.16 h -28.44 v -75.78 z m 51.58,0 v 85.94 h 38.12 c 7.71,0 13.55,-0.78 17.5,-2.35 3.96,-1.56 7.14,-4.32 9.54,-8.28 2.39,-3.85 3.59,-8.12 3.59,-12.81 0,-6.15 -1.98,-11.3 -5.94,-15.47 -3.96,-4.16 -10.05,-6.82 -18.28,-7.97 3.02,-1.46 5.31,-2.86 6.88,-4.22 3.33,-3.02 6.45,-6.82 9.37,-11.4 l 15,-23.44 h -14.37 l -11.25,17.81 c -3.34,5.21 -6.1,9.17 -8.29,11.88 -2.08,2.71 -4.01,4.58 -5.78,5.62 -1.66,1.15 -3.38,1.98 -5.15,2.5 -1.25,0.21 -3.34,0.32 -6.25,0.32 h -13.28 v -38.13 z m 11.41,47.97 h 24.53 c 5.1,0 9.11,0.52 12.03,1.56 3.02,1.15 5.26,2.87 6.72,5.16 1.56,2.39 2.34,5 2.34,7.81 0,4.06 -1.51,7.4 -4.53,10 -2.92,2.6 -7.55,3.91 -13.91,3.91 h -27.18 z m 65.72,-47.97 32.97,85.94 h 12.18 l 35.16,-85.94 h -12.81 l -10.16,26.09 h -35.78 l -9.53,-26.09 z m 24.84,35.31 h 29.06 l -8.9,23.75 c -2.81,7.19 -4.85,13.13 -6.1,17.82 -1.14,-5.53 -2.7,-10.99 -4.68,-16.41 z m 64.57,-35.31 v 85.94 h 11.56 l 45.16,-67.5 v 67.5 h 10.94 v -85.94 h -11.72 l -45.16,67.5 v -67.5 z m 82.91,27.66 10.63,0.93 c 0.52,-4.37 1.72,-7.91 3.59,-10.62 1.88,-2.71 4.74,-4.95 8.59,-6.72 3.96,-1.67 8.39,-2.5 13.29,-2.5 4.27,0 8.07,0.63 11.4,1.88 3.34,1.35 5.78,3.12 7.35,5.31 1.66,2.29 2.5,4.74 2.5,7.34 0,2.71 -0.79,5.05 -2.35,7.03 -1.56,2.09 -4.11,3.81 -7.65,5.16 -2.4,0.94 -7.56,2.34 -15.47,4.22 -7.82,1.87 -13.28,3.64 -16.41,5.31 -4.17,2.19 -7.24,4.84 -9.22,7.97 -1.98,3.23 -2.97,6.82 -2.97,10.78 0,4.27 1.2,8.28 3.6,12.03 2.5,3.86 6.09,6.72 10.78,8.6 4.79,1.97 10.05,2.96 15.78,2.96 6.35,0 11.98,-1.04 16.87,-3.12 4.9,-1.98 8.65,-5 11.25,-9.06 2.61,-3.96 4.02,-8.44 4.22,-13.44 l -10.93,-0.78 c -0.63,5.41 -2.66,9.48 -6.1,12.19 -3.33,2.81 -8.28,4.21 -14.84,4.21 -6.88,0 -11.88,-1.25 -15,-3.75 -3.13,-2.5 -4.69,-5.52 -4.69,-9.06 0,-3.12 1.09,-5.68 3.28,-7.65 2.19,-1.98 7.87,-4.01 17.03,-6.1 9.27,-2.08 15.63,-3.9 19.07,-5.47 5,-2.39 8.69,-5.36 11.09,-8.9 2.4,-3.44 3.59,-7.5 3.59,-12.19 0,-4.58 -1.3,-8.91 -3.9,-12.97 -2.61,-3.96 -6.36,-7.08 -11.25,-9.37 -4.9,-2.19 -10.42,-3.29 -16.57,-3.29 -7.81,0 -14.37,1.1 -19.68,3.29 -5.21,2.29 -9.33,5.72 -12.35,10.31 -2.91,4.58 -4.42,9.74 -4.53,15.47 z m 85.82,-27.66 v 85.94 h 11.25 v -85.94 z m 53.19,0 v 75.78 h -28.29 v 10.16 h 68.13 v -10.16 h -28.44 v -75.78 z m 53.45,0 v 85.94 h 11.25 v -85.94 z m 27.87,41.88 c 0,14.27 3.81,25.41 11.41,33.43 7.71,8.13 17.6,12.19 29.69,12.19 8.02,0 15.21,-1.93 21.56,-5.78 6.35,-3.75 11.2,-9.01 14.53,-15.78 3.34,-6.77 5,-14.48 5,-23.13 0,-8.64 -1.77,-16.4 -5.31,-23.28 -3.54,-6.87 -8.54,-12.08 -15,-15.62 -6.35,-3.54 -13.28,-5.32 -20.78,-5.32 -8.13,0 -15.37,1.93 -21.72,5.79 -6.35,3.95 -11.2,9.27 -14.53,15.93 -3.23,6.77 -4.85,13.96 -4.85,21.57 z m 11.72,-0.16 c 0,-10.42 2.76,-18.59 8.28,-24.53 5.63,-5.94 12.66,-8.91 21.1,-8.91 8.54,0 15.57,2.97 21.09,8.91 5.52,6.04 8.28,14.63 8.28,25.78 0,6.98 -1.19,13.07 -3.59,18.28 -2.29,5.21 -5.73,9.22 -10.31,12.03 -4.59,2.92 -9.69,4.38 -15.32,4.38 -8.02,0 -14.94,-2.76 -20.78,-8.28 -5.83,-5.53 -8.75,-14.74 -8.75,-27.66 z m 85.06,-41.72 v 85.94 h 11.56 l 45.16,-67.5 v 67.5 h 10.94 v -85.94 h -11.72 l -45.16,67.5 v -67.5 h -10.78"
         style="fill:#000000;fill-opacity:1;fill-rule:nonzero;stroke:none"
         id="path102" /><path
         d="M 4223.67,1302.7 H 5487.93"
         style="fill:none;stroke:#000000;stroke-width:10;stroke-linecap:butt;stroke-linejoin:miter;stroke-miterlimit:1.45;stroke-dasharray:none;stroke-opacity:1"
         id="path104" /><path
         d="m 4143.67,1302.7 120,-50 -30,50 30,50 z"
         style="fill:#000000;fill-opacity:1;fill-rule:nonzero;stroke:none"
         id="path106" /><path
         d="m 5567.93,1302.7 -120,50 30,-50 -30,-50 z"
         style="fill:#000000;fill-opacity:1;fill-rule:nonzero;stroke:none"
         id="path108" /><path
         d="m 4455.74,1396.2 h 800.02 v -187.01 h -800.02 v 187.01"
         style="fill:#ffffff;fill-opacity:1;fill-rule:nonzero;stroke:none"
         id="path110" /><path
         d="m 4486.52,1305.72 v 12.03 h 12.04 v -12.03 z m 0,-50.16 v 12.03 h 12.04 v -12.03 z m 53.66,0 v 75.78 h -28.28 v 10.16 h 68.12 v -10.16 h -28.44 v -75.78 z m 51.58,0 v 85.94 h 38.12 c 7.71,0 13.55,-0.78 17.5,-2.35 3.96,-1.56 7.14,-4.32 9.54,-8.28 2.39,-3.85 3.59,-8.12 3.59,-12.81 0,-6.15 -1.98,-11.3 -5.94,-15.47 -3.96,-4.17 -10.05,-6.82 -18.28,-7.97 3.02,-1.46 5.31,-2.86 6.88,-4.22 3.33,-3.02 6.45,-6.82 9.37,-11.4 l 15,-23.44 h -14.37 l -11.25,17.81 c -3.34,5.21 -6.1,9.17 -8.29,11.88 -2.08,2.71 -4.01,4.58 -5.78,5.62 -1.66,1.15 -3.38,1.98 -5.15,2.5 -1.25,0.21 -3.34,0.31 -6.25,0.31 h -13.28 v -38.12 z m 11.41,47.97 h 24.53 c 5.1,0 9.11,0.52 12.03,1.56 3.02,1.15 5.26,2.87 6.72,5.16 1.56,2.39 2.34,5 2.34,7.81 0,4.06 -1.51,7.4 -4.53,10 -2.92,2.6 -7.55,3.91 -13.91,3.91 h -27.18 z m 65.72,-47.97 32.97,85.94 h 12.18 l 35.16,-85.94 h -12.81 l -10.16,26.09 h -35.78 l -9.53,-26.09 z m 24.84,35.31 h 29.06 l -8.9,23.75 c -2.81,7.19 -4.85,13.13 -6.1,17.81 -1.14,-5.52 -2.7,-10.98 -4.68,-16.4 z m 64.57,-35.31 v 85.94 h 11.56 l 45.16,-67.5 v 67.5 h 10.94 v -85.94 h -11.72 l -45.16,67.5 v -67.5 z m 82.91,27.66 10.63,0.93 c 0.52,-4.37 1.72,-7.91 3.59,-10.62 1.88,-2.71 4.74,-4.95 8.59,-6.72 3.96,-1.67 8.39,-2.5 13.29,-2.5 4.27,0 8.07,0.62 11.4,1.87 3.34,1.36 5.78,3.13 7.35,5.32 1.66,2.29 2.5,4.74 2.5,7.34 0,2.71 -0.79,5.05 -2.35,7.03 -1.56,2.09 -4.11,3.8 -7.65,5.16 -2.4,0.94 -7.56,2.34 -15.47,4.22 -7.82,1.87 -13.28,3.64 -16.41,5.31 -4.17,2.19 -7.24,4.84 -9.22,7.97 -1.98,3.23 -2.97,6.82 -2.97,10.78 0,4.27 1.2,8.28 3.6,12.03 2.5,3.86 6.09,6.72 10.78,8.59 4.79,1.98 10.05,2.97 15.78,2.97 6.35,0 11.98,-1.04 16.87,-3.12 4.9,-1.98 8.65,-5 11.25,-9.06 2.61,-3.96 4.02,-8.44 4.22,-13.44 l -10.93,-0.78 c -0.63,5.41 -2.66,9.48 -6.1,12.18 -3.33,2.82 -8.28,4.22 -14.84,4.22 -6.88,0 -11.88,-1.25 -15,-3.75 -3.13,-2.5 -4.69,-5.52 -4.69,-9.06 0,-3.12 1.09,-5.68 3.28,-7.66 2.19,-1.97 7.87,-4.01 17.03,-6.09 9.27,-2.08 15.63,-3.91 19.07,-5.47 5,-2.39 8.69,-5.36 11.09,-8.9 2.4,-3.44 3.59,-7.5 3.59,-12.19 0,-4.58 -1.3,-8.91 -3.9,-12.97 -2.61,-3.96 -6.36,-7.08 -11.25,-9.38 -4.9,-2.18 -10.42,-3.28 -16.57,-3.28 -7.81,0 -14.37,1.1 -19.68,3.28 -5.21,2.3 -9.33,5.73 -12.35,10.32 -2.91,4.58 -4.42,9.74 -4.53,15.47 z m 85.82,-27.66 v 85.94 h 11.25 v -85.94 z m 53.19,0 v 75.78 h -28.29 v 10.16 h 68.13 v -10.16 h -28.44 v -75.78 z m 53.45,0 v 85.94 h 11.25 v -85.94 z m 27.87,41.87 c 0,14.28 3.81,25.42 11.41,33.44 7.71,8.13 17.6,12.19 29.69,12.19 8.02,0 15.21,-1.93 21.56,-5.78 6.35,-3.75 11.2,-9.01 14.53,-15.78 3.34,-6.77 5,-14.48 5,-23.13 0,-8.64 -1.77,-16.4 -5.31,-23.28 -3.54,-6.87 -8.54,-12.08 -15,-15.62 -6.35,-3.55 -13.28,-5.32 -20.78,-5.32 -8.13,0 -15.37,1.93 -21.72,5.78 -6.35,3.96 -11.2,9.28 -14.53,15.94 -3.23,6.77 -4.85,13.96 -4.85,21.56 z m 11.72,-0.15 c 0,-10.42 2.76,-18.6 8.28,-24.53 5.63,-5.94 12.66,-8.91 21.1,-8.91 8.54,0 15.57,2.97 21.09,8.91 5.52,6.04 8.28,14.63 8.28,25.78 0,6.98 -1.19,13.07 -3.59,18.28 -2.29,5.21 -5.73,9.22 -10.31,12.03 -4.59,2.92 -9.69,4.38 -15.32,4.38 -8.02,0 -14.94,-2.76 -20.78,-8.29 -5.83,-5.52 -8.75,-14.73 -8.75,-27.65 z m 85.06,-41.72 v 85.94 h 11.56 l 45.16,-67.5 v 67.5 h 10.94 v -85.94 h -11.72 l -45.16,67.5 v -67.5 h -10.78"
         style="fill:#000000;fill-opacity:1;fill-rule:nonzero;stroke:none"
         id="path112" /><path
         d="M 1509.37,846.109 H 5488.19"
         style="fill:none;stroke:#000000;stroke-width:10;stroke-linecap:butt;stroke-linejoin:miter;stroke-miterlimit:1.45;stroke-dasharray:none;stroke-opacity:1"
         id="path114" /><path
         d="m 1429.37,846.109 120,-50 -30,50 30,50 z"
         style="fill:#000000;fill-opacity:1;fill-rule:nonzero;stroke:none"
         id="path116" /><path
         d="m 5568.19,846.109 -120,50 30,-50 -30,-50 z"
         style="fill:#000000;fill-opacity:1;fill-rule:nonzero;stroke:none"
         id="path118" /><path
         d="m 3098.59,939.621 h 800.02 V 752.609 h -800.02 v 187.012"
         style="fill:#ffffff;fill-opacity:1;fill-rule:nonzero;stroke:none"
         id="path120" /><path
         d="m 3129.38,849.129 v 12.031 h 12.03 v -12.031 z m 0,-50.16 V 811 h 12.03 v -12.031 z m 53.65,0 v 75.781 h -28.28 v 10.16 h 68.12 v -10.16 h -28.44 v -75.781 z m 51.58,0 v 85.941 h 38.12 c 7.71,0 13.55,-0.781 17.5,-2.34 3.96,-1.57 7.14,-4.332 9.54,-8.281 2.39,-3.859 3.59,-8.129 3.59,-12.82 0,-6.137 -1.98,-11.297 -5.94,-15.469 -3.96,-4.16 -10.05,-6.82 -18.28,-7.961 3.02,-1.457 5.31,-2.867 6.88,-4.219 3.33,-3.019 6.45,-6.832 9.37,-11.41 l 15,-23.441 h -14.37 l -11.25,17.82 c -3.34,5.199 -6.1,9.16 -8.29,11.871 -2.08,2.711 -4.01,4.578 -5.78,5.629 -1.66,1.141 -3.38,1.973 -5.15,2.5 -1.25,0.199 -3.34,0.313 -6.25,0.313 h -13.28 v -38.133 z m 11.41,47.972 h 24.53 c 5.1,0 9.11,0.52 12.03,1.559 3.02,1.148 5.26,2.871 6.72,5.16 1.56,2.399 2.34,5 2.34,7.809 0,4.07 -1.51,7.402 -4.53,10 -2.92,2.613 -7.55,3.91 -13.91,3.91 h -27.18 z m 65.72,-47.972 32.97,85.941 h 12.19 l 35.15,-85.941 h -12.81 l -10.16,26.101 h -35.78 l -9.53,-26.101 z m 24.84,35.32 h 29.07 l -8.91,23.75 c -2.81,7.18 -4.84,13.121 -6.09,17.813 -1.15,-5.52 -2.71,-10.993 -4.69,-16.411 z m 64.57,-35.32 v 85.941 h 11.57 l 45.15,-67.5 v 67.5 h 10.94 v -85.941 h -11.72 l -45.16,67.5 v -67.5 z m 82.91,27.66 10.63,0.941 c 0.52,-4.379 1.72,-7.922 3.59,-10.629 1.88,-2.711 4.74,-4.953 8.6,-6.722 3.95,-1.66 8.38,-2.5 13.28,-2.5 4.27,0 8.07,0.633 11.4,1.883 3.34,1.347 5.78,3.117 7.35,5.308 1.66,2.289 2.5,4.738 2.5,7.34 0,2.711 -0.78,5.059 -2.35,7.039 -1.56,2.082 -4.11,3.801 -7.65,5.152 -2.4,0.938 -7.56,2.348 -15.47,4.219 -7.81,1.879 -13.28,3.649 -16.41,5.309 -4.16,2.191 -7.24,4.851 -9.22,7.972 -1.98,3.231 -2.97,6.821 -2.97,10.778 0,4.269 1.2,8.281 3.6,12.031 2.5,3.859 6.09,6.719 10.78,8.602 4.79,1.98 10.05,2.968 15.78,2.968 6.35,0 11.98,-1.039 16.88,-3.129 4.89,-1.98 8.64,-5 11.25,-9.062 2.6,-3.957 4.01,-8.438 4.21,-13.438 l -10.93,-0.781 c -0.63,5.422 -2.66,9.481 -6.1,12.192 -3.33,2.808 -8.28,4.218 -14.84,4.218 -6.88,0 -11.88,-1.25 -15,-3.75 -3.13,-2.5 -4.69,-5.519 -4.69,-9.07 0,-3.121 1.1,-5.668 3.28,-7.648 2.19,-1.981 7.87,-4.012 17.03,-6.102 9.28,-2.078 15.63,-3.898 19.07,-5.461 5,-2.398 8.69,-5.367 11.09,-8.91 2.4,-3.438 3.59,-7.5 3.59,-12.188 0,-4.582 -1.3,-8.902 -3.9,-12.972 -2.61,-3.957 -6.36,-7.078 -11.25,-9.367 -4.9,-2.192 -10.42,-3.282 -16.56,-3.282 -7.82,0 -14.38,1.09 -19.69,3.282 -5.21,2.289 -9.32,5.73 -12.35,10.308 -2.91,4.578 -4.42,9.738 -4.53,15.469 z m 85.82,-27.66 v 85.941 h 11.25 v -85.941 z m 53.19,0 v 75.781 h -28.28 v 10.16 h 68.12 v -10.16 h -28.44 v -75.781 z m 53.45,0 v 85.941 h 11.25 v -85.941 z m 27.88,41.883 c 0,14.269 3.8,25.41 11.4,33.437 7.71,8.121 17.61,12.18 29.69,12.18 8.02,0 15.21,-1.918 21.56,-5.778 6.36,-3.75 11.2,-9.011 14.53,-15.781 3.34,-6.769 5,-14.48 5,-23.121 0,-8.648 -1.77,-16.41 -5.31,-23.289 -3.54,-6.871 -8.54,-12.078 -15,-15.621 -6.35,-3.539 -13.28,-5.309 -20.78,-5.309 -8.13,0 -15.37,1.918 -21.72,5.782 -6.35,3.957 -11.2,9.269 -14.53,15.937 -3.23,6.77 -4.84,13.949 -4.84,21.563 z m 11.71,-0.161 c 0,-10.41 2.76,-18.589 8.29,-24.531 5.62,-5.941 12.65,-8.91 21.09,-8.91 8.54,0 15.57,2.969 21.09,8.91 5.52,6.039 8.28,14.641 8.28,25.781 0,6.981 -1.19,13.071 -3.59,18.278 -2.29,5.211 -5.73,9.222 -10.31,12.031 -4.59,2.922 -9.69,4.379 -15.31,4.379 -8.03,0 -14.95,-2.758 -20.79,-8.277 -5.83,-5.52 -8.75,-14.743 -8.75,-27.661 z m 85.06,-41.722 v 85.941 h 11.56 l 45.16,-67.5 v 67.5 h 10.94 v -85.941 h -11.72 l -45.16,67.5 v -67.5 h -10.78"
         style="fill:#000000;fill-opacity:1;fill-rule:nonzero;stroke:none"
         id="path122" /><path
         d="M 4143.43,380.328 H 5487.9"
         style="fill:none;stroke:#000000;stroke-width:10;stroke-linecap:butt;stroke-linejoin:miter;stroke-miterlimit:1.45;stroke-dasharray:none;stroke-opacity:1"
         id="path124" /><path
         d="m 5567.9,380.328 -120,50 30,-50 -30,-50 z"
         style="fill:#000000;fill-opacity:1;fill-rule:nonzero;stroke:none"
         id="path126" /><path
         d="m 4505.72,473.832 h 700.06 V 286.82 h -700.06 v 187.012"
         style="fill:#ffffff;fill-opacity:1;fill-rule:nonzero;stroke:none"
         id="path128" /><path
         d="m 4536.51,383.34 v 12.039 h 12.03 V 383.34 Z m 0,-50.149 v 12.028 h 12.03 v -12.028 z m 53.65,0 v 75.778 h -28.28 v 10.16 H 4630 v -10.16 h -28.44 v -75.778 z m 51.58,0 v 85.938 h 38.12 c 7.71,0 13.55,-0.789 17.5,-2.348 3.96,-1.562 7.14,-4.32 9.54,-8.281 2.39,-3.852 3.59,-8.121 3.59,-12.809 0,-6.152 -1.98,-11.3 -5.94,-15.472 -3.96,-4.168 -10.05,-6.821 -18.28,-7.969 3.02,-1.461 5.31,-2.859 6.88,-4.219 3.33,-3.019 6.45,-6.82 9.37,-11.402 l 15,-23.438 h -14.37 L 4691.9,351 c -3.34,5.211 -6.1,9.172 -8.29,11.879 -2.08,2.703 -4.01,4.582 -5.78,5.621 -1.66,1.148 -3.38,1.98 -5.15,2.5 -1.25,0.211 -3.34,0.309 -6.25,0.309 h -13.28 v -38.118 z m 11.41,47.969 h 24.53 c 5.1,0 9.11,0.52 12.03,1.559 3.02,1.14 5.26,2.863 6.72,5.16 1.56,2.391 2.34,5 2.34,7.812 0,4.059 -1.51,7.391 -4.53,10 -2.92,2.598 -7.55,3.899 -13.91,3.899 h -27.18 z m 77.12,-47.969 v 85.938 h 11.25 v -85.938 z m 71.63,33.75 v 10 l 36.25,0.149 v -31.871 c -5.53,-4.481 -11.25,-7.867 -17.19,-10.16 -5.94,-2.18 -12.03,-3.278 -18.28,-3.278 -8.44,0 -16.15,1.77 -23.13,5.309 -6.87,3.648 -12.08,8.859 -15.62,15.629 -3.44,6.871 -5.16,14.531 -5.16,22.972 0,8.438 1.72,16.25 5.16,23.438 3.54,7.293 8.59,12.652 15.15,16.09 6.57,3.543 14.12,5.312 22.66,5.312 6.25,0 11.87,-0.992 16.87,-2.972 5,-1.977 8.91,-4.789 11.72,-8.43 2.92,-3.547 5.11,-8.231 6.57,-14.07 l -10.16,-2.809 c -1.35,4.379 -3.02,7.809 -5,10.309 -1.88,2.5 -4.58,4.48 -8.13,5.941 -3.54,1.559 -7.44,2.34 -11.71,2.34 -5.21,0 -9.74,-0.781 -13.6,-2.34 -3.75,-1.559 -6.82,-3.648 -9.22,-6.25 -2.29,-2.602 -4.06,-5.469 -5.31,-8.59 -2.19,-5.32 -3.28,-11.051 -3.28,-17.191 0,-7.707 1.3,-14.168 3.91,-19.379 2.7,-5.102 6.56,-8.899 11.56,-11.399 5,-2.5 10.36,-3.75 16.09,-3.75 4.9,0 9.69,0.938 14.38,2.809 4.68,1.98 8.23,4.012 10.62,6.09 v 16.101 z m 93.34,0 v 10 l 36.25,0.149 v -31.871 c -5.53,-4.481 -11.25,-7.867 -17.19,-10.16 -5.94,-2.18 -12.03,-3.278 -18.28,-3.278 -8.44,0 -16.15,1.77 -23.13,5.309 -6.87,3.648 -12.08,8.859 -15.62,15.629 -3.44,6.871 -5.16,14.531 -5.16,22.972 0,8.438 1.72,16.25 5.16,23.438 3.54,7.293 8.59,12.652 15.15,16.09 6.57,3.543 14.12,5.312 22.66,5.312 6.25,0 11.87,-0.992 16.87,-2.972 5,-1.977 8.91,-4.789 11.72,-8.43 2.92,-3.547 5.11,-8.231 6.57,-14.07 l -10.16,-2.809 c -1.35,4.379 -3.02,7.809 -5,10.309 -1.88,2.5 -4.58,4.48 -8.13,5.941 -3.54,1.559 -7.44,2.34 -11.71,2.34 -5.21,0 -9.74,-0.781 -13.6,-2.34 -3.75,-1.559 -6.82,-3.648 -9.22,-6.25 -2.29,-2.602 -4.06,-5.469 -5.31,-8.59 -2.19,-5.32 -3.28,-11.051 -3.28,-17.191 0,-7.707 1.3,-14.168 3.91,-19.379 2.7,-5.102 6.56,-8.899 11.56,-11.399 5,-2.5 10.36,-3.75 16.09,-3.75 4.9,0 9.69,0.938 14.38,2.809 4.68,1.98 8.23,4.012 10.62,6.09 v 16.101 z m 53.34,-33.75 v 85.938 h 62.03 v -10.16 h -50.63 v -26.25 h 47.5 v -10.16 h -47.5 V 343.34 h 52.66 v -10.149 z m 79.88,0 v 85.938 h 38.12 c 7.71,0 13.54,-0.789 17.5,-2.348 3.96,-1.562 7.14,-4.32 9.53,-8.281 2.4,-3.852 3.6,-8.121 3.6,-12.809 0,-6.152 -1.98,-11.3 -5.94,-15.472 -3.96,-4.168 -10.05,-6.821 -18.28,-7.969 3.02,-1.461 5.31,-2.859 6.87,-4.219 3.34,-3.019 6.46,-6.82 9.38,-11.402 l 15,-23.438 h -14.38 L 5078.61,351 c -3.33,5.211 -6.09,9.172 -8.28,11.879 -2.08,2.703 -4.01,4.582 -5.78,5.621 -1.66,1.148 -3.38,1.98 -5.15,2.5 -1.25,0.211 -3.34,0.309 -6.25,0.309 h -13.29 v -38.118 z m 11.4,47.969 h 24.54 c 5.1,0 9.11,0.52 12.03,1.559 3.02,1.14 5.26,2.863 6.72,5.16 1.56,2.391 2.34,5 2.34,7.812 0,4.059 -1.51,7.391 -4.53,10 -2.92,2.598 -7.55,3.899 -13.91,3.899 h -27.19 z m 71.35,-20.32 10.63,0.941 c 0.52,-4.371 1.72,-7.922 3.59,-10.621 1.88,-2.711 4.74,-4.949 8.59,-6.719 3.96,-1.671 8.39,-2.5 13.29,-2.5 4.27,0 8.07,0.618 11.4,1.868 3.34,1.363 5.78,3.132 7.35,5.32 1.66,2.293 2.5,4.73 2.5,7.34 0,2.711 -0.79,5.051 -2.35,7.031 -1.56,2.082 -4.11,3.801 -7.65,5.16 -2.4,0.93 -7.56,2.34 -15.47,4.219 -7.82,1.871 -13.28,3.641 -16.41,5.312 -4.17,2.188 -7.24,4.84 -9.22,7.969 -1.98,3.231 -2.97,6.82 -2.97,10.781 0,4.27 1.2,8.278 3.6,12.028 2.5,3.851 6.09,6.722 10.78,8.59 4.79,1.98 10.05,2.972 15.78,2.972 6.35,0 11.98,-1.043 16.87,-3.121 4.9,-1.98 8.65,-5 11.25,-9.07 2.61,-3.949 4.02,-8.43 4.22,-13.43 l -10.93,-0.781 c -0.63,5.41 -2.66,9.473 -6.1,12.18 -3.33,2.82 -8.28,4.222 -14.84,4.222 -6.88,0 -11.88,-1.25 -15,-3.75 -3.13,-2.5 -4.69,-5.519 -4.69,-9.062 0,-3.129 1.09,-5.68 3.28,-7.66 2.19,-1.977 7.87,-4.008 17.03,-6.09 9.27,-2.078 15.63,-3.91 19.07,-5.469 5,-2.398 8.69,-5.359 11.09,-8.91 2.4,-3.43 3.59,-7.5 3.59,-12.18 0,-4.59 -1.3,-8.91 -3.9,-12.969 -2.61,-3.961 -6.36,-7.089 -11.25,-9.382 -4.9,-2.18 -10.42,-3.278 -16.57,-3.278 -7.81,0 -14.37,1.098 -19.68,3.278 -5.21,2.293 -9.33,5.73 -12.35,10.32 -2.91,4.582 -4.42,9.73 -4.53,15.461"
         style="fill:#000000;fill-opacity:1;fill-rule:nonzero;stroke:none"
         id="path130" /></g></g></svg>
