<?xml version="1.0" encoding="UTF-8" standalone="no"?>
<!-- Created with Inkscape (http://www.inkscape.org/) -->

<svg
   version="1.1"
   id="svg2"
   xml:space="preserve"
   width="944"
   height="600"
   viewBox="0 0 944 600"
   sodipodi:docname="sysml_str_graphschema.svg"
   inkscape:version="1.1.2 (b8e25be833, 2022-02-05)"
   xmlns:inkscape="http://www.inkscape.org/namespaces/inkscape"
   xmlns:sodipodi="http://sodipodi.sourceforge.net/DTD/sodipodi-0.dtd"
   xmlns="http://www.w3.org/2000/svg"
   xmlns:svg="http://www.w3.org/2000/svg"><defs
     id="defs6" /><sodipodi:namedview
     id="namedview4"
     pagecolor="#ffffff"
     bordercolor="#666666"
     borderopacity="1.0"
     inkscape:pageshadow="2"
     inkscape:pageopacity="0.0"
     inkscape:pagecheckerboard="0"
     showgrid="false"
     inkscape:zoom="0.62870763"
     inkscape:cx="729.2738"
     inkscape:cy="394.45998"
     inkscape:window-width="1920"
     inkscape:window-height="1017"
     inkscape:window-x="-1928"
     inkscape:window-y="-8"
     inkscape:window-maximized="1"
     inkscape:current-layer="g8" /><g
     id="g8"
     inkscape:groupmode="layer"
     inkscape:label="ink_ext_XXXXXX"
     transform="matrix(1.3333333,0,0,-1.3333333,0,600)"><g
       id="g10"
       transform="scale(0.1)"><path
         d="M 0,4500 H 7080 V 0 H 0 v 4500"
         style="fill:#ffffff;fill-opacity:1;fill-rule:nonzero;stroke:none"
         id="path12" /><path
         d="M 0,4500 H 7080 V 0 H 0 v 4500"
         style="fill:#ffffff;fill-opacity:1;fill-rule:nonzero;stroke:none"
         id="path14" /><path
         d="M 0,4500 H 7080 V 0 H 0 v 4500"
         style="fill:#ffffff;fill-opacity:1;fill-rule:nonzero;stroke:none"
         id="path16" /><path
         d="M 910,3660 V 2470 c 0,-22.09 17.91,-40 40,-40 h 1190 c 22.09,0 40,17.91 40,40 v 1190 c 0,22.09 -17.91,40 -40,40 H 950 c -22.09,0 -40,-17.91 -40,-40"
         style="fill:#ffffff;fill-opacity:1;fill-rule:nonzero;stroke:none"
         id="path18" /><path
         d="M 910,3660 V 2470 c 0,-22.09 17.91,-40 40,-40 h 1190 c 22.09,0 40,17.91 40,40 v 1190 c 0,22.09 -17.91,40 -40,40 H 950 c -22.09,0 -40,-17.91 -40,-40 z"
         style="fill:none;stroke:#000000;stroke-width:10;stroke-linecap:butt;stroke-linejoin:miter;stroke-miterlimit:1.45;stroke-dasharray:none;stroke-opacity:1"
         id="path20" /><path
         d="m 1335.7,3068.02 v 12.03 h 12.03 v -12.03 z m 0,-50.16 v 12.03 h 12.03 v -12.03 z m 31.31,0 v 85.94 h 32.35 c 6.56,0 11.82,-0.89 15.78,-2.66 3.96,-1.77 7.03,-4.48 9.22,-8.12 2.29,-3.54 3.43,-7.29 3.43,-11.25 0,-3.65 -0.99,-7.09 -2.97,-10.31 -1.97,-3.23 -5,-5.84 -9.06,-7.82 5.21,-1.56 9.17,-4.22 11.88,-7.97 2.81,-3.64 4.22,-7.96 4.22,-12.96 0,-3.96 -0.84,-7.71 -2.5,-11.25 -1.67,-3.44 -3.75,-6.1 -6.25,-7.97 -2.5,-1.88 -5.68,-3.28 -9.54,-4.22 -3.75,-0.94 -8.33,-1.41 -13.75,-1.41 z m 11.41,49.85 h 18.59 c 5,0 8.6,0.31 10.78,0.93 2.92,0.84 5.11,2.24 6.57,4.22 1.45,2.08 2.18,4.64 2.18,7.66 0,2.81 -0.67,5.31 -2.03,7.5 -1.35,2.19 -3.33,3.64 -5.94,4.37 -2.5,0.84 -6.82,1.25 -12.96,1.25 h -17.19 z m 0,-39.69 h 21.4 c 3.65,0 6.2,0.15 7.66,0.47 2.71,0.41 4.9,1.14 6.56,2.18 1.77,1.15 3.23,2.76 4.38,4.85 1.14,2.08 1.72,4.48 1.72,7.19 0,3.22 -0.84,6.04 -2.5,8.43 -1.57,2.4 -3.81,4.07 -6.72,5 -2.92,0.94 -7.14,1.41 -12.66,1.41 h -19.84 z m 68.63,-10.16 v 85.94 h 11.41 v -75.78 h 42.34 v -10.16 z m 63.77,41.88 c 0,14.27 3.8,25.41 11.41,33.43 7.7,8.13 17.6,12.19 29.68,12.19 8.02,0 15.21,-1.93 21.57,-5.78 6.35,-3.75 11.19,-9.01 14.53,-15.78 3.33,-6.77 5,-14.48 5,-23.13 0,-8.64 -1.77,-16.4 -5.31,-23.28 -3.55,-6.87 -8.55,-12.08 -15,-15.62 -6.36,-3.54 -13.29,-5.31 -20.79,-5.31 -8.12,0 -15.36,1.92 -21.71,5.78 -6.36,3.95 -11.2,9.27 -14.54,15.93 -3.23,6.77 -4.84,13.96 -4.84,21.57 z m 11.72,-0.16 c 0,-10.42 2.76,-18.59 8.28,-24.53 5.63,-5.94 12.66,-8.91 21.09,-8.91 8.55,0 15.58,2.97 21.1,8.91 5.52,6.04 8.28,14.63 8.28,25.78 0,6.98 -1.2,13.07 -3.59,18.28 -2.3,5.21 -5.73,9.22 -10.32,12.03 -4.58,2.92 -9.68,4.38 -15.31,4.38 -8.02,0 -14.95,-2.76 -20.78,-8.28 -5.83,-5.52 -8.75,-14.74 -8.75,-27.66 z m 146.46,-11.56 11.25,-2.97 c -2.39,-9.27 -6.66,-16.36 -12.81,-21.25 -6.14,-4.9 -13.7,-7.34 -22.65,-7.34 -9.28,0 -16.83,1.87 -22.66,5.62 -5.83,3.75 -10.26,9.17 -13.28,16.25 -3.02,7.19 -4.53,14.9 -4.53,23.13 0,8.95 1.72,16.77 5.15,23.43 3.44,6.67 8.28,11.72 14.53,15.16 6.36,3.44 13.34,5.16 20.94,5.16 8.54,0 15.73,-2.19 21.56,-6.57 5.94,-4.37 10.06,-10.52 12.35,-18.43 l -11.25,-2.66 c -1.98,6.25 -4.9,10.78 -8.75,13.59 -3.75,2.92 -8.49,4.38 -14.22,4.38 -6.56,0 -12.08,-1.62 -16.56,-4.85 -4.38,-3.12 -7.5,-7.34 -9.38,-12.65 -1.77,-5.31 -2.65,-10.84 -2.65,-16.56 0,-7.3 1.04,-13.65 3.12,-19.07 2.19,-5.41 5.52,-9.48 10,-12.18 4.48,-2.71 9.38,-4.07 14.69,-4.07 6.35,0 11.72,1.83 16.09,5.47 4.48,3.65 7.5,9.12 9.06,16.41 z m 24.79,-30.16 v 85.94 h 11.41 v -42.66 l 42.65,42.66 h 15.47 l -36.09,-34.84 37.65,-51.1 h -15 l -30.62,43.44 -14.06,-13.59 v -29.85 h -11.41"
         style="fill:#000000;fill-opacity:1;fill-rule:nonzero;stroke:none"
         id="path22" /><path
         d="m 3599.49,3345 v -560 c 0,-22.09 17.91,-40 40,-40 h 1190 c 22.09,0 40,17.91 40,40 v 560 c 0,22.09 -17.91,40 -40,40 h -1190 c -22.09,0 -40,-17.91 -40,-40"
         style="fill:#ffffff;fill-opacity:1;fill-rule:nonzero;stroke:none"
         id="path24" /><path
         d="m 3599.49,3345 v -560 c 0,-22.09 17.91,-40 40,-40 h 1190 c 22.09,0 40,17.91 40,40 v 560 c 0,22.09 -17.91,40 -40,40 h -1190 c -22.09,0 -40,-17.91 -40,-40 z"
         style="fill:none;stroke:#000000;stroke-width:10;stroke-linecap:butt;stroke-linejoin:miter;stroke-miterlimit:1.45;stroke-dasharray:none;stroke-opacity:1"
         id="path26" /><path
         d="m 3688.48,3068.02 v 12.03 h 12.03 v -12.03 z m 0,-50.16 v 12.03 h 12.03 v -12.03 z m 31.31,0 v 85.94 h 32.34 c 6.57,0 11.83,-0.89 15.78,-2.66 3.96,-1.77 7.04,-4.48 9.22,-8.12 2.29,-3.54 3.44,-7.29 3.44,-11.25 0,-3.65 -0.99,-7.09 -2.97,-10.31 -1.98,-3.23 -5,-5.84 -9.06,-7.82 5.21,-1.56 9.17,-4.22 11.87,-7.97 2.82,-3.64 4.22,-7.96 4.22,-12.96 0,-3.96 -0.83,-7.71 -2.5,-11.25 -1.66,-3.44 -3.75,-6.1 -6.25,-7.97 -2.5,-1.88 -5.67,-3.28 -9.53,-4.22 -3.75,-0.94 -8.33,-1.41 -13.75,-1.41 z m 11.41,49.85 h 18.59 c 5,0 8.59,0.31 10.78,0.93 2.92,0.84 5.1,2.24 6.56,4.22 1.46,2.08 2.19,4.64 2.19,7.66 0,2.81 -0.68,5.31 -2.03,7.5 -1.35,2.19 -3.33,3.64 -5.94,4.37 -2.5,0.84 -6.82,1.25 -12.97,1.25 h -17.18 z m 0,-39.69 h 21.4 c 3.65,0 6.2,0.15 7.66,0.47 2.71,0.41 4.89,1.14 6.56,2.18 1.77,1.15 3.23,2.76 4.38,4.85 1.14,2.08 1.71,4.48 1.71,7.19 0,3.22 -0.83,6.04 -2.5,8.43 -1.56,2.4 -3.8,4.07 -6.71,5 -2.92,0.94 -7.14,1.41 -12.66,1.41 h -19.84 z m 68.63,-10.16 v 85.94 h 11.4 v -75.78 h 42.35 v -10.16 z m 63.77,41.88 c 0,14.27 3.8,25.41 11.4,33.43 7.71,8.13 17.61,12.19 29.69,12.19 8.02,0 15.21,-1.93 21.56,-5.78 6.36,-3.75 11.2,-9.01 14.54,-15.78 3.33,-6.77 5,-14.48 5,-23.13 0,-8.64 -1.78,-16.4 -5.32,-23.28 -3.54,-6.87 -8.54,-12.08 -15,-15.62 -6.35,-3.54 -13.28,-5.31 -20.78,-5.31 -8.12,0 -15.36,1.92 -21.72,5.78 -6.35,3.95 -11.19,9.27 -14.53,15.93 -3.23,6.77 -4.84,13.96 -4.84,21.57 z m 11.72,-0.16 c 0,-10.42 2.76,-18.59 8.28,-24.53 5.62,-5.94 12.65,-8.91 21.09,-8.91 8.54,0 15.57,2.97 21.1,8.91 5.52,6.04 8.28,14.63 8.28,25.78 0,6.98 -1.2,13.07 -3.6,18.28 -2.29,5.21 -5.73,9.22 -10.31,12.03 -4.58,2.92 -9.69,4.38 -15.31,4.38 -8.02,0 -14.95,-2.76 -20.78,-8.28 -5.84,-5.52 -8.75,-14.74 -8.75,-27.66 z m 146.46,-11.56 11.25,-2.97 c -2.39,-9.27 -6.67,-16.36 -12.81,-21.25 -6.15,-4.9 -13.7,-7.34 -22.66,-7.34 -9.27,0 -16.82,1.87 -22.65,5.62 -5.84,3.75 -10.26,9.17 -13.28,16.25 -3.03,7.19 -4.54,14.9 -4.54,23.13 0,8.95 1.72,16.77 5.16,23.43 3.44,6.67 8.28,11.72 14.53,15.16 6.36,3.44 13.33,5.16 20.94,5.16 8.54,0 15.73,-2.19 21.56,-6.57 5.94,-4.37 10.05,-10.52 12.35,-18.43 l -11.25,-2.66 c -1.98,6.25 -4.9,10.78 -8.75,13.59 -3.75,2.92 -8.49,4.38 -14.22,4.38 -6.57,0 -12.09,-1.62 -16.57,-4.85 -4.37,-3.12 -7.5,-7.34 -9.37,-12.65 -1.77,-5.31 -2.66,-10.84 -2.66,-16.56 0,-7.3 1.04,-13.65 3.13,-19.07 2.19,-5.41 5.52,-9.48 10,-12.18 4.48,-2.71 9.37,-4.07 14.69,-4.07 6.35,0 11.71,1.83 16.09,5.47 4.48,3.65 7.5,9.12 9.06,16.41 z m 24.79,-30.16 v 85.94 h 11.4 v -42.66 l 42.66,42.66 h 15.47 l -36.1,-34.84 37.66,-51.1 h -15 l -30.62,43.44 -14.07,-13.59 v -29.85 z m 115.41,50.16 v 12.03 h 12.03 v -12.03 z m 0,-50.16 v 12.03 h 12.03 v -12.03 z m 33.81,0 v 85.94 h 11.25 v -85.94 z m 31.3,0 v 85.94 h 11.57 l 45.15,-67.5 v 67.5 h 10.94 v -85.94 h -11.72 l -45.15,67.5 v -67.5 z m 82.91,27.66 10.63,0.94 c 0.52,-4.38 1.72,-7.92 3.59,-10.63 1.88,-2.71 4.74,-4.95 8.6,-6.72 3.96,-1.67 8.38,-2.5 13.28,-2.5 4.27,0 8.07,0.63 11.4,1.88 3.34,1.35 5.79,3.12 7.35,5.31 1.66,2.29 2.5,4.74 2.5,7.34 0,2.71 -0.78,5.05 -2.35,7.03 -1.56,2.09 -4.11,3.81 -7.65,5.16 -2.4,0.94 -7.55,2.34 -15.47,4.22 -7.81,1.87 -13.28,3.64 -16.41,5.31 -4.16,2.19 -7.24,4.85 -9.22,7.97 -1.97,3.23 -2.96,6.82 -2.96,10.78 0,4.27 1.19,8.28 3.59,12.03 2.5,3.86 6.09,6.72 10.78,8.6 4.79,1.98 10.05,2.97 15.78,2.97 6.36,0 11.98,-1.05 16.88,-3.13 4.89,-1.98 8.64,-5 11.25,-9.06 2.6,-3.96 4.01,-8.44 4.22,-13.44 l -10.94,-0.78 c -0.63,5.42 -2.66,9.48 -6.1,12.19 -3.33,2.81 -8.28,4.22 -14.84,4.22 -6.87,0 -11.87,-1.25 -15,-3.75 -3.12,-2.5 -4.69,-5.53 -4.69,-9.07 0,-3.12 1.1,-5.67 3.28,-7.65 2.19,-1.98 7.87,-4.01 17.04,-6.1 9.27,-2.08 15.62,-3.9 19.06,-5.47 5,-2.39 8.7,-5.36 11.09,-8.9 2.4,-3.44 3.6,-7.5 3.6,-12.19 0,-4.58 -1.31,-8.91 -3.91,-12.97 -2.6,-3.96 -6.35,-7.08 -11.25,-9.37 -4.9,-2.19 -10.42,-3.28 -16.56,-3.28 -7.82,0 -14.38,1.09 -19.69,3.28 -5.21,2.29 -9.32,5.73 -12.34,10.31 -2.92,4.58 -4.43,9.74 -4.54,15.47 z m 105.67,-27.66 v 75.78 h -28.28 v 10.16 h 68.12 v -10.16 h -28.44 v -75.78 z m 42.05,0 32.97,85.94 h 12.19 l 35.15,-85.94 h -12.81 l -10.16,26.1 h -35.78 l -9.53,-26.1 z m 24.84,35.31 h 29.07 l -8.91,23.75 c -2.81,7.19 -4.84,13.13 -6.09,17.82 -1.15,-5.52 -2.71,-10.99 -4.69,-16.41 z m 64.57,-35.31 v 85.94 h 11.57 l 45.15,-67.5 v 67.5 h 10.94 v -85.94 h -11.72 l -45.16,67.5 v -67.5 z m 148.07,30.16 11.25,-2.97 c -2.4,-9.27 -6.67,-16.36 -12.81,-21.25 -6.15,-4.9 -13.7,-7.34 -22.66,-7.34 -9.27,0 -16.82,1.87 -22.66,5.62 -5.83,3.75 -10.26,9.17 -13.28,16.25 -3.02,7.19 -4.53,14.9 -4.53,23.13 0,8.95 1.72,16.77 5.16,23.43 3.44,6.67 8.28,11.72 14.53,15.16 6.35,3.44 13.33,5.16 20.94,5.16 8.54,0 15.73,-2.19 21.56,-6.57 5.94,-4.37 10.05,-10.52 12.34,-18.43 l -11.25,-2.66 c -1.98,6.25 -4.89,10.78 -8.75,13.59 -3.75,2.92 -8.49,4.38 -14.22,4.38 -6.56,0 -12.08,-1.62 -16.56,-4.85 -4.37,-3.12 -7.5,-7.34 -9.37,-12.65 -1.77,-5.31 -2.66,-10.84 -2.66,-16.56 0,-7.3 1.04,-13.65 3.13,-19.07 2.18,-5.41 5.52,-9.48 10,-12.18 4.48,-2.71 9.37,-4.07 14.68,-4.07 6.36,0 11.72,1.83 16.1,5.47 4.48,3.65 7.5,9.12 9.06,16.41 z m 25.57,-30.16 v 85.94 h 62.03 v -10.16 h -50.63 v -26.25 h 47.5 v -10.15 h -47.5 v -29.22 h 52.66 v -10.16 h -64.06"
         style="fill:#000000;fill-opacity:1;fill-rule:nonzero;stroke:none"
         id="path28" /><path
         d="m 910,1857.02 v -1190 c 0,-22.098 17.91,-40 40,-40 h 1190 c 22.09,0 40,17.902 40,40 v 1190 c 0,22.09 -17.91,40 -40,40 H 950 c -22.09,0 -40,-17.91 -40,-40"
         style="fill:#ffffff;fill-opacity:1;fill-rule:nonzero;stroke:none"
         id="path30" /><path
         d="m 910,1857.02 v -1190 c 0,-22.098 17.91,-40 40,-40 h 1190 c 22.09,0 40,17.902 40,40 v 1190 c 0,22.09 -17.91,40 -40,40 H 950 c -22.09,0 -40,-17.91 -40,-40 z"
         style="fill:none;stroke:#000000;stroke-width:10;stroke-linecap:butt;stroke-linejoin:miter;stroke-miterlimit:1.45;stroke-dasharray:none;stroke-opacity:1"
         id="path32" /><path
         d="m 1372.44,1265.03 v 12.03 h 12.03 v -12.03 z m 0,-50.15 v 12.03 h 12.03 v -12.03 z m 31.78,0 v 85.93 h 32.5 c 5.62,0 9.95,-0.26 12.97,-0.78 4.27,-0.73 7.81,-2.08 10.62,-4.06 2.92,-1.98 5.21,-4.74 6.88,-8.28 1.77,-3.54 2.65,-7.45 2.65,-11.72 0,-7.29 -2.34,-13.49 -7.03,-18.59 -4.58,-5 -12.97,-7.5 -25.15,-7.5 h -22.04 v -35 z m 11.4,45 h 22.19 c 7.4,0 12.61,1.35 15.63,4.06 3.12,2.81 4.68,6.72 4.68,11.72 0,3.54 -0.93,6.56 -2.81,9.06 -1.77,2.61 -4.11,4.32 -7.03,5.16 -1.98,0.52 -5.52,0.78 -10.62,0.78 h -22.04 z m 65.2,-3.13 c 0,14.27 3.8,25.42 11.41,33.44 7.7,8.12 17.6,12.19 29.68,12.19 8.02,0 15.21,-1.93 21.57,-5.78 6.35,-3.75 11.19,-9.01 14.53,-15.79 3.33,-6.77 5,-14.47 5,-23.12 0,-8.65 -1.77,-16.41 -5.31,-23.28 -3.55,-6.88 -8.55,-12.08 -15,-15.63 -6.36,-3.54 -13.29,-5.31 -20.79,-5.31 -8.12,0 -15.36,1.93 -21.71,5.78 -6.36,3.96 -11.2,9.27 -14.54,15.94 -3.23,6.77 -4.84,13.96 -4.84,21.56 z m 11.72,-0.15 c 0,-10.42 2.76,-18.6 8.28,-24.54 5.63,-5.93 12.66,-8.9 21.09,-8.9 8.55,0 15.58,2.97 21.1,8.9 5.52,6.05 8.28,14.64 8.28,25.79 0,6.98 -1.2,13.07 -3.59,18.28 -2.3,5.21 -5.73,9.22 -10.32,12.03 -4.58,2.92 -9.68,4.37 -15.31,4.37 -8.02,0 -14.95,-2.76 -20.78,-8.28 -5.83,-5.52 -8.75,-14.74 -8.75,-27.65 z m 85.21,-41.72 v 85.93 h 38.13 c 7.71,0 13.54,-0.78 17.5,-2.34 3.96,-1.56 7.13,-4.32 9.53,-8.28 2.4,-3.85 3.59,-8.13 3.59,-12.81 0,-6.15 -1.98,-11.3 -5.93,-15.47 -3.96,-4.17 -10.06,-6.82 -18.28,-7.97 3.02,-1.46 5.31,-2.86 6.87,-4.22 3.33,-3.02 6.46,-6.82 9.38,-11.41 l 15,-23.43 h -14.38 l -11.25,17.81 c -3.33,5.21 -6.09,9.17 -8.28,11.87 -2.08,2.71 -4.01,4.59 -5.78,5.63 -1.67,1.15 -3.39,1.98 -5.16,2.5 -1.25,0.21 -3.33,0.31 -6.25,0.31 h -13.28 v -38.12 z m 11.41,47.97 h 24.53 c 5.11,0 9.12,0.52 12.03,1.56 3.02,1.14 5.26,2.86 6.72,5.15 1.56,2.4 2.35,5 2.35,7.82 0,4.06 -1.52,7.39 -4.54,10 -2.91,2.6 -7.55,3.9 -13.9,3.9 h -27.19 z m 96.97,-47.97 v 75.78 h -28.28 v 10.15 h 68.13 v -10.15 h -28.44 v -75.78 h -11.41"
         style="fill:#000000;fill-opacity:1;fill-rule:nonzero;stroke:none"
         id="path34" /><path
         d="m 3599.49,1542.02 v -560 c 0,-22.098 17.91,-40 40,-40 h 1190 c 22.09,0 40,17.902 40,40 v 560 c 0,22.09 -17.91,40 -40,40 h -1190 c -22.09,0 -40,-17.91 -40,-40"
         style="fill:#ffffff;fill-opacity:1;fill-rule:nonzero;stroke:none"
         id="path36" /><path
         d="m 3599.49,1542.02 v -560 c 0,-22.098 17.91,-40 40,-40 h 1190 c 22.09,0 40,17.902 40,40 v 560 c 0,22.09 -17.91,40 -40,40 h -1190 c -22.09,0 -40,-17.91 -40,-40 z"
         style="fill:none;stroke:#000000;stroke-width:10;stroke-linecap:butt;stroke-linejoin:miter;stroke-miterlimit:1.45;stroke-dasharray:none;stroke-opacity:1"
         id="path38" /><path
         d="m 3725.22,1265.03 v 12.03 h 12.03 v -12.03 z m 0,-50.15 v 12.03 h 12.03 v -12.03 z m 31.78,0 v 85.93 h 32.5 c 5.62,0 9.94,-0.26 12.97,-0.78 4.27,-0.73 7.81,-2.08 10.62,-4.06 2.92,-1.98 5.21,-4.74 6.88,-8.28 1.77,-3.54 2.65,-7.45 2.65,-11.72 0,-7.29 -2.34,-13.49 -7.03,-18.59 -4.58,-5 -12.97,-7.5 -25.16,-7.5 h -22.03 v -35 z m 11.4,45 h 22.19 c 7.4,0 12.6,1.35 15.63,4.06 3.12,2.81 4.68,6.72 4.68,11.72 0,3.54 -0.93,6.56 -2.81,9.06 -1.77,2.61 -4.11,4.32 -7.03,5.16 -1.98,0.52 -5.52,0.78 -10.63,0.78 h -22.03 z m 65.2,-3.13 c 0,14.27 3.8,25.42 11.4,33.44 7.71,8.12 17.61,12.19 29.69,12.19 8.02,0 15.21,-1.93 21.56,-5.78 6.36,-3.75 11.2,-9.01 14.54,-15.79 3.33,-6.77 5,-14.47 5,-23.12 0,-8.65 -1.78,-16.41 -5.32,-23.28 -3.54,-6.88 -8.54,-12.08 -15,-15.63 -6.35,-3.54 -13.28,-5.31 -20.78,-5.31 -8.12,0 -15.36,1.93 -21.72,5.78 -6.35,3.96 -11.19,9.27 -14.53,15.94 -3.23,6.77 -4.84,13.96 -4.84,21.56 z m 11.72,-0.15 c 0,-10.42 2.76,-18.6 8.28,-24.54 5.62,-5.93 12.65,-8.9 21.09,-8.9 8.54,0 15.57,2.97 21.1,8.9 5.52,6.05 8.28,14.64 8.28,25.79 0,6.98 -1.2,13.07 -3.6,18.28 -2.29,5.21 -5.73,9.22 -10.31,12.03 -4.58,2.92 -9.69,4.37 -15.31,4.37 -8.02,0 -14.95,-2.76 -20.78,-8.28 -5.84,-5.52 -8.75,-14.74 -8.75,-27.65 z m 85.21,-41.72 v 85.93 h 38.13 c 7.7,0 13.54,-0.78 17.5,-2.34 3.95,-1.56 7.13,-4.32 9.53,-8.28 2.39,-3.85 3.59,-8.13 3.59,-12.81 0,-6.15 -1.98,-11.3 -5.94,-15.47 -3.95,-4.17 -10.05,-6.82 -18.28,-7.97 3.02,-1.46 5.32,-2.86 6.88,-4.22 3.33,-3.02 6.46,-6.82 9.37,-11.41 l 15,-23.43 h -14.37 l -11.25,17.81 c -3.34,5.21 -6.1,9.17 -8.28,11.87 -2.09,2.71 -4.01,4.59 -5.78,5.63 -1.67,1.15 -3.39,1.98 -5.16,2.5 -1.25,0.21 -3.33,0.31 -6.25,0.31 h -13.28 v -38.12 z m 11.41,47.97 h 24.53 c 5.1,0 9.11,0.52 12.03,1.56 3.02,1.14 5.26,2.86 6.72,5.15 1.56,2.4 2.34,5 2.34,7.82 0,4.06 -1.51,7.39 -4.53,10 -2.92,2.6 -7.55,3.9 -13.9,3.9 h -27.19 z m 96.97,-47.97 v 75.78 h -28.28 v 10.15 h 68.12 v -10.15 h -28.43 v -75.78 z m 86.33,50.15 v 12.03 h 12.03 v -12.03 z m 0,-50.15 v 12.03 h 12.03 v -12.03 z m 33.81,0 v 85.93 h 11.25 v -85.93 z m 31.31,0 v 85.93 h 11.56 l 45.15,-67.5 v 67.5 h 10.94 v -85.93 h -11.72 l -45.15,67.5 v -67.5 z m 82.91,27.65 10.62,0.94 c 0.52,-4.37 1.72,-7.92 3.59,-10.62 1.88,-2.71 4.74,-4.95 8.6,-6.72 3.96,-1.67 8.38,-2.5 13.28,-2.5 4.27,0 8.07,0.62 11.41,1.87 3.33,1.36 5.78,3.13 7.34,5.31 1.67,2.3 2.5,4.74 2.5,7.35 0,2.71 -0.78,5.05 -2.34,7.03 -1.57,2.08 -4.12,3.8 -7.66,5.16 -2.4,0.93 -7.55,2.34 -15.47,4.21 -7.81,1.88 -13.28,3.65 -16.41,5.32 -4.16,2.18 -7.23,4.84 -9.21,7.97 -1.98,3.23 -2.97,6.82 -2.97,10.78 0,4.27 1.2,8.28 3.59,12.03 2.5,3.85 6.09,6.72 10.78,8.59 4.79,1.98 10.05,2.97 15.78,2.97 6.36,0 11.98,-1.04 16.88,-3.12 4.89,-1.98 8.64,-5 11.25,-9.07 2.6,-3.95 4.01,-8.43 4.22,-13.43 l -10.94,-0.79 c -0.63,5.42 -2.66,9.48 -6.09,12.19 -3.34,2.81 -8.29,4.22 -14.85,4.22 -6.87,0 -11.87,-1.25 -15,-3.75 -3.12,-2.5 -4.69,-5.52 -4.69,-9.06 0,-3.13 1.1,-5.68 3.29,-7.66 2.18,-1.98 7.86,-4.01 17.03,-6.09 9.27,-2.08 15.62,-3.91 19.06,-5.47 5,-2.4 8.7,-5.36 11.09,-8.91 2.4,-3.43 3.6,-7.5 3.6,-12.18 0,-4.59 -1.3,-8.91 -3.91,-12.97 -2.6,-3.96 -6.35,-7.09 -11.25,-9.38 -4.89,-2.19 -10.42,-3.28 -16.56,-3.28 -7.81,0 -14.38,1.09 -19.69,3.28 -5.21,2.29 -9.32,5.73 -12.34,10.31 -2.92,4.59 -4.43,9.74 -4.53,15.47 z m 105.66,-27.65 v 75.78 h -28.28 v 10.15 h 68.12 v -10.15 h -28.43 v -75.78 z m 42.05,0 32.97,85.93 h 12.19 l 35.15,-85.93 h -12.81 l -10.16,26.09 h -35.78 l -9.53,-26.09 z m 24.84,35.31 h 29.07 l -8.91,23.75 c -2.81,7.19 -4.84,13.12 -6.09,17.81 -1.15,-5.52 -2.71,-10.99 -4.69,-16.4 z m 64.57,-35.31 v 85.93 h 11.57 l 45.15,-67.5 v 67.5 h 10.94 v -85.93 h -11.72 l -45.15,67.5 v -67.5 z m 148.07,30.15 11.25,-2.97 c -2.39,-9.27 -6.67,-16.35 -12.81,-21.25 -6.15,-4.89 -13.7,-7.34 -22.66,-7.34 -9.27,0 -16.82,1.88 -22.65,5.63 -5.84,3.75 -10.26,9.16 -13.28,16.25 -3.03,7.18 -4.54,14.89 -4.54,23.12 0,8.96 1.72,16.77 5.16,23.44 3.44,6.67 8.28,11.72 14.53,15.15 6.36,3.44 13.33,5.16 20.94,5.16 8.54,0 15.73,-2.19 21.56,-6.56 5.94,-4.38 10.05,-10.52 12.35,-18.44 l -11.25,-2.66 c -1.98,6.25 -4.9,10.79 -8.75,13.6 -3.75,2.92 -8.49,4.37 -14.22,4.37 -6.57,0 -12.09,-1.61 -16.57,-4.84 -4.37,-3.13 -7.5,-7.34 -9.37,-12.66 -1.77,-5.31 -2.66,-10.83 -2.66,-16.56 0,-7.29 1.04,-13.64 3.13,-19.06 2.19,-5.42 5.52,-9.48 10,-12.19 4.48,-2.71 9.37,-4.06 14.69,-4.06 6.35,0 11.71,1.82 16.09,5.47 4.48,3.64 7.5,9.11 9.06,16.4 z m 25.57,-30.15 v 85.93 h 62.03 v -10.15 h -50.63 v -26.25 h 47.5 v -10.16 h -47.5 v -29.22 h 52.66 v -10.15 h -64.06"
         style="fill:#000000;fill-opacity:1;fill-rule:nonzero;stroke:none"
         id="path40" /><path
         d="m 5777.78,3345 v -560 c 0,-22.09 17.9,-40 40,-40 h 1190 c 22.09,0 40,17.91 40,40 v 560 c 0,22.09 -17.91,40 -40,40 h -1190 c -22.1,0 -40,-17.91 -40,-40"
         style="fill:#ffffff;fill-opacity:1;fill-rule:nonzero;stroke:none"
         id="path42" /><path
         d="m 5777.78,3345 v -560 c 0,-22.09 17.9,-40 40,-40 h 1190 c 22.09,0 40,17.91 40,40 v 560 c 0,22.09 -17.91,40 -40,40 h -1190 c -22.1,0 -40,-17.91 -40,-40 z"
         style="fill:none;stroke:#000000;stroke-width:10;stroke-linecap:butt;stroke-linejoin:miter;stroke-miterlimit:1.45;stroke-dasharray:none;stroke-opacity:1"
         id="path44" /><path
         d="m 5853.5,3068.02 v 12.03 h 12.03 v -12.03 z m 0,-50.16 v 12.03 h 12.03 v -12.03 z m 32.4,0 v 85.94 h 57.97 v -10.16 h -46.56 v -26.56 h 40.31 v -10.16 h -40.31 v -39.06 z m 72.21,0 v 85.94 h 11.4 v -75.78 h 42.35 v -10.16 z m 63.77,41.88 c 0,14.27 3.8,25.41 11.4,33.43 7.71,8.13 17.61,12.19 29.69,12.19 8.02,0 15.21,-1.93 21.56,-5.78 6.36,-3.75 11.2,-9.01 14.53,-15.78 3.34,-6.77 5,-14.48 5,-23.13 0,-8.64 -1.77,-16.4 -5.31,-23.28 -3.54,-6.87 -8.54,-12.08 -15,-15.62 -6.35,-3.54 -13.28,-5.31 -20.78,-5.31 -8.12,0 -15.36,1.92 -21.72,5.78 -6.35,3.95 -11.2,9.27 -14.53,15.93 -3.23,6.77 -4.84,13.96 -4.84,21.57 z m 11.72,-0.16 c 0,-10.42 2.76,-18.59 8.28,-24.53 5.62,-5.94 12.65,-8.91 21.09,-8.91 8.54,0 15.57,2.97 21.09,8.91 5.53,6.04 8.29,14.63 8.29,25.78 0,6.98 -1.2,13.07 -3.6,18.28 -2.29,5.21 -5.73,9.22 -10.31,12.03 -4.58,2.92 -9.69,4.38 -15.31,4.38 -8.02,0 -14.95,-2.76 -20.78,-8.28 -5.84,-5.52 -8.75,-14.74 -8.75,-27.66 z m 100.05,-41.72 -22.81,85.94 h 11.72 l 13.13,-56.41 c 1.35,-5.83 2.55,-11.66 3.59,-17.5 2.19,9.17 3.49,14.48 3.91,15.94 l 16.25,57.97 h 13.75 l 12.34,-43.44 c 3.02,-10.83 5.26,-20.99 6.72,-30.47 1.04,5.42 2.45,11.67 4.22,18.75 l 13.43,55.16 h 11.41 l -23.44,-85.94 h -11.09 l -17.97,65.47 c -1.56,5.42 -2.5,8.75 -2.81,10 -0.84,-3.85 -1.67,-7.19 -2.5,-10 l -18.13,-65.47 z m 100.3,0 v 85.94 h 11.25 v -85.94 z m 53.18,0 v 75.78 h -28.28 v 10.16 h 68.12 v -10.16 h -28.43 v -75.78 z m 51.74,0 v 85.94 h 62.03 v -10.16 h -50.62 v -26.25 h 47.5 v -10.15 h -47.5 v -29.22 h 52.65 v -10.16 z m 79.41,0 v 85.94 h 17.19 l 20.31,-60.78 c 1.88,-5.73 3.23,-10 4.07,-12.81 0.93,3.12 2.44,7.7 4.53,13.75 l 20.62,59.84 h 15.31 v -85.94 h -10.93 v 71.88 l -25,-71.88 h -10.32 l -24.84,73.13 v -73.13 z m 135.18,50.16 v 12.03 h 12.03 v -12.03 z m 0,-50.16 v 12.03 h 12.03 v -12.03 z m 31.31,0 v 85.94 h 32.34 c 6.56,0 11.82,-0.89 15.78,-2.66 3.96,-1.77 7.03,-4.48 9.22,-8.12 2.29,-3.54 3.44,-7.29 3.44,-11.25 0,-3.65 -0.99,-7.09 -2.97,-10.31 -1.98,-3.23 -5,-5.84 -9.06,-7.82 5.21,-1.56 9.16,-4.22 11.87,-7.97 2.81,-3.64 4.22,-7.96 4.22,-12.96 0,-3.96 -0.83,-7.71 -2.5,-11.25 -1.67,-3.44 -3.75,-6.1 -6.25,-7.97 -2.5,-1.88 -5.68,-3.28 -9.53,-4.22 -3.75,-0.94 -8.33,-1.41 -13.75,-1.41 z m 11.4,49.85 h 18.6 c 5,0 8.59,0.31 10.78,0.93 2.92,0.84 5.1,2.24 6.56,4.22 1.46,2.08 2.19,4.64 2.19,7.66 0,2.81 -0.68,5.31 -2.03,7.5 -1.36,2.19 -3.34,3.64 -5.94,4.37 -2.5,0.84 -6.82,1.25 -12.97,1.25 h -17.19 z m 0,-39.69 h 21.41 c 3.65,0 6.2,0.15 7.66,0.47 2.7,0.41 4.89,1.14 6.56,2.18 1.77,1.15 3.23,2.76 4.37,4.85 1.15,2.08 1.72,4.48 1.72,7.19 0,3.22 -0.83,6.04 -2.5,8.43 -1.56,2.4 -3.8,4.07 -6.72,5 -2.91,0.94 -7.13,1.41 -12.65,1.41 h -19.85 z m 68.64,-10.16 v 85.94 h 11.4 v -75.78 h 42.35 v -10.16 z m 63.77,41.88 c 0,14.27 3.8,25.41 11.4,33.43 7.71,8.13 17.61,12.19 29.69,12.19 8.02,0 15.21,-1.93 21.56,-5.78 6.36,-3.75 11.2,-9.01 14.53,-15.78 3.34,-6.77 5,-14.48 5,-23.13 0,-8.64 -1.77,-16.4 -5.31,-23.28 -3.54,-6.87 -8.54,-12.08 -15,-15.62 -6.35,-3.54 -13.28,-5.31 -20.78,-5.31 -8.13,0 -15.36,1.92 -21.72,5.78 -6.35,3.95 -11.2,9.27 -14.53,15.93 -3.23,6.77 -4.84,13.96 -4.84,21.57 z m 11.71,-0.16 c 0,-10.42 2.77,-18.59 8.29,-24.53 5.62,-5.94 12.65,-8.91 21.09,-8.91 8.54,0 15.57,2.97 21.09,8.91 5.52,6.04 8.28,14.63 8.28,25.78 0,6.98 -1.19,13.07 -3.59,18.28 -2.29,5.21 -5.73,9.22 -10.31,12.03 -4.58,2.92 -9.69,4.38 -15.31,4.38 -8.02,0 -14.95,-2.76 -20.79,-8.28 -5.83,-5.52 -8.75,-14.74 -8.75,-27.66 z m 146.47,-11.56 11.25,-2.97 c -2.4,-9.27 -6.67,-16.36 -12.81,-21.25 -6.15,-4.9 -13.7,-7.34 -22.66,-7.34 -9.27,0 -16.82,1.87 -22.66,5.62 -5.83,3.75 -10.26,9.17 -13.28,16.25 -3.02,7.19 -4.53,14.9 -4.53,23.13 0,8.95 1.72,16.77 5.16,23.43 3.44,6.67 8.28,11.72 14.53,15.16 6.35,3.44 13.33,5.16 20.94,5.16 8.54,0 15.73,-2.19 21.56,-6.57 5.94,-4.37 10.05,-10.52 12.34,-18.43 l -11.25,-2.66 c -1.98,6.25 -4.89,10.78 -8.75,13.59 -3.75,2.92 -8.49,4.38 -14.22,4.38 -6.56,0 -12.08,-1.62 -16.56,-4.85 -4.37,-3.12 -7.5,-7.34 -9.37,-12.65 -1.77,-5.31 -2.66,-10.84 -2.66,-16.56 0,-7.3 1.04,-13.65 3.13,-19.07 2.18,-5.41 5.52,-9.48 10,-12.18 4.48,-2.71 9.37,-4.07 14.68,-4.07 6.36,0 11.72,1.83 16.1,5.47 4.48,3.65 7.5,9.12 9.06,16.41 z m 24.78,-30.16 v 85.94 h 11.41 v -42.66 l 42.66,42.66 h 15.47 l -36.1,-34.84 37.66,-51.1 h -15 l -30.63,43.44 -14.06,-13.59 v -29.85 h -11.41"
         style="fill:#000000;fill-opacity:1;fill-rule:nonzero;stroke:none"
         id="path46" /><path
         d="m 5777.78,1542.02 v -560 c 0,-22.098 17.9,-40 40,-40 h 1190 c 22.09,0 40,17.902 40,40 v 560 c 0,22.09 -17.91,40 -40,40 h -1190 c -22.1,0 -40,-17.91 -40,-40"
         style="fill:#ffffff;fill-opacity:1;fill-rule:nonzero;stroke:none"
         id="path48" /><path
         d="m 5777.78,1542.02 v -560 c 0,-22.098 17.9,-40 40,-40 h 1190 c 22.09,0 40,17.902 40,40 v 560 c 0,22.09 -17.91,40 -40,40 h -1190 c -22.1,0 -40,-17.91 -40,-40 z"
         style="fill:none;stroke:#000000;stroke-width:10;stroke-linecap:butt;stroke-linejoin:miter;stroke-miterlimit:1.45;stroke-dasharray:none;stroke-opacity:1"
         id="path50" /><path
         d="m 6026.82,1265.03 v 12.03 h 12.03 v -12.03 z m 0,-50.15 v 12.03 h 12.03 v -12.03 z m 32.24,0 v 85.93 h 11.25 V 1265.5 H 6115 v 35.31 h 11.41 v -85.93 H 6115 v 40.47 h -44.69 v -40.47 z m 110.41,0 v 36.4 l -33.12,49.53 h 13.91 l 16.87,-25.93 c 3.13,-4.79 6.04,-9.64 8.75,-14.53 2.6,4.48 5.73,9.53 9.38,15.15 l 16.71,25.31 h 13.13 l -34.22,-49.53 v -36.4 z m 55.82,0 v 85.93 h 32.5 c 5.63,0 9.95,-0.26 12.97,-0.78 4.27,-0.73 7.82,-2.08 10.63,-4.06 2.92,-1.98 5.21,-4.74 6.87,-8.28 1.77,-3.54 2.66,-7.45 2.66,-11.72 0,-7.29 -2.34,-13.49 -7.03,-18.59 -4.58,-5 -12.97,-7.5 -25.16,-7.5 h -22.03 v -35 z m 11.41,45 h 22.19 c 7.39,0 12.6,1.35 15.62,4.06 3.13,2.81 4.69,6.72 4.69,11.72 0,3.54 -0.94,6.56 -2.81,9.06 -1.77,2.61 -4.12,4.32 -7.03,5.16 -1.98,0.52 -5.52,0.78 -10.63,0.78 h -22.03 z m 68.95,-45 v 85.93 h 62.03 v -10.15 h -50.63 v -26.25 h 47.5 v -10.16 h -47.5 v -29.22 h 52.66 v -10.15 z m 79.88,0 v 85.93 h 38.12 c 7.71,0 13.55,-0.78 17.5,-2.34 3.96,-1.56 7.14,-4.32 9.54,-8.28 2.39,-3.85 3.59,-8.13 3.59,-12.81 0,-6.15 -1.98,-11.3 -5.94,-15.47 -3.96,-4.17 -10.05,-6.82 -18.28,-7.97 3.02,-1.46 5.31,-2.86 6.88,-4.22 3.33,-3.02 6.45,-6.82 9.37,-11.41 l 15,-23.43 h -14.37 l -11.25,17.81 c -3.34,5.21 -6.1,9.17 -8.29,11.87 -2.08,2.71 -4.01,4.59 -5.78,5.63 -1.66,1.15 -3.38,1.98 -5.15,2.5 -1.25,0.21 -3.34,0.31 -6.25,0.31 h -13.28 v -38.12 z m 11.41,47.97 h 24.53 c 5.1,0 9.11,0.52 12.03,1.56 3.02,1.14 5.26,2.86 6.72,5.15 1.56,2.4 2.34,5 2.34,7.82 0,4.06 -1.51,7.39 -4.53,10 -2.92,2.6 -7.55,3.9 -13.91,3.9 h -27.18 z m 75.09,-47.97 v 85.93 h 11.57 l 45.15,-67.5 v 67.5 h 10.94 v -85.93 h -11.72 l -45.16,67.5 v -67.5 z m 83.23,41.87 c 0,14.27 3.8,25.42 11.4,33.44 7.71,8.12 17.61,12.19 29.69,12.19 8.02,0 15.21,-1.93 21.56,-5.78 6.36,-3.75 11.2,-9.01 14.53,-15.79 3.34,-6.77 5,-14.47 5,-23.12 0,-8.65 -1.77,-16.41 -5.31,-23.28 -3.54,-6.88 -8.54,-12.08 -15,-15.63 -6.35,-3.54 -13.28,-5.31 -20.78,-5.31 -8.13,0 -15.37,1.93 -21.72,5.78 -6.35,3.96 -11.2,9.27 -14.53,15.94 -3.23,6.77 -4.84,13.96 -4.84,21.56 z m 11.71,-0.15 c 0,-10.42 2.76,-18.6 8.29,-24.54 5.62,-5.93 12.65,-8.9 21.09,-8.9 8.54,0 15.57,2.97 21.09,8.9 5.52,6.05 8.28,14.64 8.28,25.79 0,6.98 -1.19,13.07 -3.59,18.28 -2.29,5.21 -5.73,9.22 -10.31,12.03 -4.59,2.92 -9.69,4.37 -15.31,4.37 -8.03,0 -14.95,-2.76 -20.79,-8.28 -5.83,-5.52 -8.75,-14.74 -8.75,-27.65 z m 85.06,-41.72 v 85.93 h 29.69 c 6.67,0 11.77,-0.41 15.31,-1.25 4.9,-1.14 9.07,-3.17 12.5,-6.09 4.59,-3.85 7.97,-8.8 10.16,-14.84 2.29,-5.94 3.44,-12.71 3.44,-20.32 0,-6.56 -0.78,-12.34 -2.35,-17.34 -1.46,-5 -3.38,-9.17 -5.78,-12.5 -2.39,-3.33 -5.05,-5.94 -7.97,-7.81 -2.81,-1.88 -6.19,-3.33 -10.15,-4.38 -3.96,-0.93 -8.54,-1.4 -13.75,-1.4 z m 11.41,10.15 h 18.28 c 5.73,0 10.21,0.52 13.44,1.57 3.23,1.04 5.78,2.55 7.65,4.53 2.71,2.6 4.8,6.2 6.25,10.78 1.57,4.58 2.35,10.1 2.35,16.56 0,8.96 -1.51,15.83 -4.53,20.63 -2.92,4.89 -6.46,8.17 -10.63,9.84 -3.12,1.15 -8.02,1.72 -14.69,1.72 h -18.12 z m 75.57,-10.15 v 85.93 h 62.03 v -10.15 h -50.63 v -26.25 h 47.5 v -10.16 h -47.5 v -29.22 h 52.66 v -10.15 h -64.06"
         style="fill:#000000;fill-opacity:1;fill-rule:nonzero;stroke:none"
         id="path52" /><path
         d="m 2045.27,3700.37 -8.42,32.77 -17.32,47.32 -21.69,45.02 -25.79,42.46 -29.65,39.65 -33.24,36.57 -36.57,33.24 -39.65,29.65 -42.46,25.79 -45.02,21.69 -47.31,17.32 -49.36,12.69 -51.13,7.8 -52.66,2.66 -52.66,-2.66 -51.13,-7.8 -49.36,-12.69 -47.31,-17.32 -45.02,-21.69 -42.46,-25.79 -39.65,-29.65 -36.57,-33.24 -33.24,-36.57 -29.65,-39.65 -25.79,-42.46 -21.69,-45.02 -1.42,-3.88 -0.25,-0.97"
         style="fill:none;stroke:#000000;stroke-width:10;stroke-linecap:butt;stroke-linejoin:miter;stroke-miterlimit:1.45;stroke-dasharray:none;stroke-opacity:1"
         id="path54" /><path
         d="m 1044.42,3699.42 84.19,99.05 -56.76,-13.33 -38.48,43.81 z"
         style="fill:#000000;fill-opacity:1;fill-rule:nonzero;stroke:none"
         id="path56" /><path
         d="m 1141.56,4188.51 h 806.88 v -187.02 h -806.88 v 187.02"
         style="fill:#ffffff;fill-opacity:1;fill-rule:nonzero;stroke:none"
         id="path58" /><path
         d="m 1172.34,4098.02 v 12.03 h 12.04 v -12.03 z m 0,-50.16 v 12.03 h 12.04 v -12.03 z m 33.81,0 v 85.94 h 11.25 v -85.94 z m 27.56,27.66 10.63,0.93 c 0.52,-4.37 1.71,-7.91 3.59,-10.62 1.87,-2.71 4.74,-4.95 8.59,-6.72 3.96,-1.66 8.39,-2.5 13.28,-2.5 4.28,0 8.08,0.62 11.41,1.87 3.33,1.36 5.78,3.13 7.34,5.32 1.67,2.29 2.5,4.74 2.5,7.34 0,2.71 -0.78,5.06 -2.34,7.04 -1.56,2.08 -4.11,3.8 -7.66,5.15 -2.39,0.94 -7.55,2.35 -15.46,4.22 -7.82,1.88 -13.29,3.65 -16.41,5.31 -4.17,2.19 -7.24,4.84 -9.22,7.97 -1.98,3.23 -2.97,6.82 -2.97,10.78 0,4.27 1.2,8.28 3.6,12.03 2.5,3.86 6.09,6.72 10.78,8.59 4.79,1.98 10.05,2.98 15.78,2.98 6.35,0 11.98,-1.05 16.87,-3.13 4.9,-1.98 8.65,-5 11.25,-9.06 2.61,-3.96 4.01,-8.44 4.22,-13.44 l -10.94,-0.78 c -0.62,5.41 -2.65,9.48 -6.09,12.18 -3.33,2.82 -8.28,4.23 -14.84,4.23 -6.88,0 -11.88,-1.25 -15,-3.75 -3.13,-2.5 -4.69,-5.53 -4.69,-9.07 0,-3.12 1.09,-5.68 3.28,-7.66 2.19,-1.97 7.87,-4 17.03,-6.09 9.27,-2.08 15.63,-3.91 19.06,-5.46 5,-2.4 8.7,-5.37 11.1,-8.91 2.39,-3.44 3.59,-7.5 3.59,-12.19 0,-4.58 -1.3,-8.9 -3.9,-12.97 -2.61,-3.96 -6.36,-7.08 -11.25,-9.38 -4.9,-2.18 -10.42,-3.28 -16.57,-3.28 -7.81,0 -14.37,1.1 -19.68,3.28 -5.21,2.3 -9.33,5.73 -12.35,10.32 -2.91,4.58 -4.42,9.74 -4.53,15.47 z m 72.7,-51.57 v 7.66 h 70 v -7.66 z m 77.83,23.91 v 85.94 h 32.5 c 5.62,0 9.95,-0.26 12.97,-0.78 4.27,-0.73 7.81,-2.09 10.62,-4.06 2.92,-1.98 5.21,-4.75 6.88,-8.29 1.77,-3.54 2.65,-7.44 2.65,-11.71 0,-7.3 -2.34,-13.5 -7.03,-18.6 -4.58,-5 -12.97,-7.5 -25.15,-7.5 h -22.04 v -35 z m 11.4,45 h 22.19 c 7.4,0 12.61,1.35 15.63,4.07 3.12,2.8 4.68,6.71 4.68,11.71 0,3.54 -0.93,6.57 -2.81,9.07 -1.77,2.6 -4.11,4.32 -7.03,5.15 -1.98,0.52 -5.52,0.78 -10.62,0.78 h -22.04 z m 59.26,-45 32.97,85.94 h 12.19 l 35.15,-85.94 h -12.81 l -10.15,26.09 h -35.79 l -9.53,-26.09 z m 24.85,35.32 h 29.06 l -8.91,23.74 c -2.81,7.19 -4.84,13.13 -6.09,17.81 -1.15,-5.52 -2.71,-10.98 -4.69,-16.4 z m 64.72,-35.32 v 85.94 h 38.13 c 7.71,0 13.54,-0.78 17.5,-2.34 3.96,-1.57 7.13,-4.33 9.53,-8.29 2.39,-3.85 3.59,-8.12 3.59,-12.81 0,-6.15 -1.98,-11.3 -5.93,-15.47 -3.96,-4.16 -10.06,-6.82 -18.29,-7.96 3.02,-1.47 5.32,-2.87 6.88,-4.23 3.33,-3.02 6.46,-6.82 9.37,-11.4 l 15,-23.44 h -14.37 l -11.25,17.82 c -3.33,5.2 -6.09,9.16 -8.28,11.87 -2.09,2.71 -4.01,4.58 -5.78,5.63 -1.67,1.14 -3.39,1.97 -5.16,2.5 -1.25,0.2 -3.33,0.3 -6.25,0.3 h -13.28 v -38.12 z m 11.41,47.97 h 24.53 c 5.1,0 9.11,0.52 12.03,1.56 3.02,1.15 5.26,2.87 6.72,5.16 1.56,2.4 2.34,5 2.34,7.81 0,4.06 -1.51,7.4 -4.53,10 -2.91,2.6 -7.55,3.91 -13.9,3.91 h -27.19 z m 96.97,-47.97 v 75.78 h -28.28 v 10.16 h 68.13 v -10.16 h -28.44 v -75.78 z m 40.33,-23.91 v 7.66 h 70 v -7.66 z m 74.4,65.78 c 0,14.28 3.8,25.42 11.4,33.44 7.71,8.13 17.61,12.19 29.69,12.19 8.02,0 15.21,-1.93 21.56,-5.78 6.36,-3.75 11.2,-9.01 14.54,-15.78 3.33,-6.77 5,-14.48 5,-23.12 0,-8.65 -1.78,-16.41 -5.32,-23.29 -3.54,-6.87 -8.54,-12.08 -15,-15.62 -6.35,-3.54 -13.28,-5.32 -20.78,-5.32 -8.12,0 -15.36,1.93 -21.72,5.78 -6.35,3.97 -11.19,9.28 -14.53,15.95 -3.23,6.77 -4.84,13.95 -4.84,21.55 z m 11.72,-0.15 c 0,-10.42 2.76,-18.6 8.28,-24.53 5.62,-5.94 12.65,-8.91 21.09,-8.91 8.54,0 15.57,2.97 21.1,8.91 5.52,6.04 8.28,14.63 8.28,25.78 0,6.98 -1.2,13.07 -3.6,18.28 -2.29,5.21 -5.73,9.22 -10.31,12.03 -4.58,2.92 -9.69,4.38 -15.31,4.38 -8.02,0 -14.95,-2.76 -20.78,-8.29 -5.84,-5.52 -8.75,-14.73 -8.75,-27.65 z m 85.68,-41.72 v 85.94 h 57.97 v -10.16 h -46.56 v -26.56 h 40.31 v -10.15 h -40.31 v -39.07 h -11.41"
         style="fill:#000000;fill-opacity:1;fill-rule:nonzero;stroke:none"
         id="path60" /><path
         d="m 910.238,3584.55 -2.047,-0.32 -50.8,-13.06 -48.692,-17.82 -46.328,-22.32 -43.699,-26.55 -40.801,-30.51 -37.641,-34.2 -34.199,-37.64 -30.511,-40.8 -26.551,-43.7 -22.321,-46.33 -17.82,-48.69 -13.058,-50.8 -8.032,-52.62 L 485,3065 l 2.738,-54.19 8.032,-52.62 13.058,-50.8 17.82,-48.69 22.321,-46.33 26.551,-43.7 30.511,-40.8 34.199,-37.64 37.641,-34.2 40.801,-30.51 43.699,-26.55 46.328,-22.32 24.672,-9.03 0.969,-0.25"
         style="fill:none;stroke:#000000;stroke-width:10;stroke-linecap:butt;stroke-linejoin:miter;stroke-miterlimit:1.45;stroke-dasharray:none;stroke-opacity:1"
         id="path62" /><path
         d="m 911.199,2545.18 -101.41,81.33 14.949,-56.36 -42.699,-39.71 z"
         style="fill:#000000;fill-opacity:1;fill-rule:nonzero;stroke:none"
         id="path64" /><path
         d="M 84.8711,3158.51 H 885.129 V 2971.49 H 84.8711 v 187.02"
         style="fill:#ffffff;fill-opacity:1;fill-rule:nonzero;stroke:none"
         id="path66" /><path
         d="m 115.648,3068.02 v 12.03 h 12.043 v -12.03 z m 0,-50.16 v 12.03 h 12.043 v -12.03 z m 33.813,0 v 85.94 h 11.25 v -85.94 z m 27.559,27.66 10.628,0.94 c 0.524,-4.38 1.723,-7.92 3.59,-10.63 1.883,-2.71 4.742,-4.95 8.594,-6.72 3.957,-1.67 8.387,-2.5 13.289,-2.5 4.27,0 8.07,0.63 11.399,1.88 3.332,1.35 5.781,3.12 7.351,5.31 1.66,2.29 2.5,4.74 2.5,7.34 0,2.71 -0.789,5.05 -2.351,7.03 -1.559,2.09 -4.11,3.81 -7.649,5.16 -2.402,0.94 -7.562,2.34 -15.473,4.22 -7.816,1.87 -13.277,3.64 -16.41,5.31 -4.168,2.19 -7.238,4.85 -9.218,7.97 -1.981,3.23 -2.969,6.82 -2.969,10.78 0,4.27 1.199,8.28 3.597,12.03 2.5,3.86 6.09,6.72 10.782,8.6 4.789,1.98 10.05,2.97 15.781,2.97 6.348,0 11.98,-1.05 16.871,-3.13 4.898,-1.98 8.648,-5 11.25,-9.06 2.609,-3.96 4.008,-8.44 4.219,-13.44 l -10.93,-0.78 c -0.633,5.42 -2.66,9.48 -6.101,12.19 -3.329,2.81 -8.282,4.22 -14.84,4.22 -6.879,0 -11.879,-1.25 -15,-3.75 -3.129,-2.5 -4.692,-5.53 -4.692,-9.07 0,-3.12 1.094,-5.67 3.282,-7.65 2.191,-1.98 7.871,-4.01 17.031,-6.1 9.269,-2.08 15.629,-3.9 19.07,-5.47 5,-2.39 8.688,-5.36 11.09,-8.9 2.391,-3.44 3.59,-7.5 3.59,-12.19 0,-4.58 -1.301,-8.91 -3.903,-12.97 -2.609,-3.96 -6.359,-7.08 -11.25,-9.37 -4.898,-2.19 -10.418,-3.28 -16.566,-3.28 -7.812,0 -14.371,1.09 -19.684,3.28 -5.207,2.29 -9.328,5.73 -12.347,10.31 -2.91,4.58 -4.422,9.74 -4.531,15.47 z m 72.699,-51.56 v 7.65 h 70 v -7.65 z m 74.39,65.78 c 0,14.27 3.801,25.41 11.411,33.43 7.71,8.13 17.601,12.19 29.691,12.19 8.019,0 15.199,-1.93 21.559,-5.78 6.351,-3.75 11.199,-9.01 14.531,-15.78 3.328,-6.77 5,-14.48 5,-23.13 0,-8.64 -1.77,-16.4 -5.313,-23.28 -3.547,-6.87 -8.547,-12.08 -15,-15.62 -6.359,-3.54 -13.277,-5.31 -20.777,-5.31 -8.133,0 -15.371,1.92 -21.723,5.78 -6.359,3.95 -11.199,9.27 -14.527,15.93 -3.231,6.77 -4.852,13.96 -4.852,21.57 z m 11.719,-0.16 c 0,-10.42 2.762,-18.59 8.281,-24.53 5.629,-5.94 12.661,-8.91 21.102,-8.91 8.539,0 15.57,2.97 21.09,8.91 5.519,6.04 8.277,14.63 8.277,25.78 0,6.98 -1.199,13.07 -3.59,18.28 -2.297,5.21 -5.726,9.22 -10.316,12.03 -4.582,2.92 -9.684,4.38 -15.313,4.38 -8.019,0 -14.949,-2.76 -20.781,-8.28 -5.828,-5.52 -8.75,-14.74 -8.75,-27.66 z m 85.684,-41.72 v 85.94 h 57.968 v -10.16 h -46.558 v -26.56 h 40.308 v -10.16 h -40.308 v -39.06 z m 61.59,-23.9 v 7.65 h 70 v -7.65 z m 99.699,23.9 v 75.78 H 554.52 v 10.16 h 68.128 v -10.16 h -28.437 v -75.78 z m 75.648,0 v 36.41 l -33.129,49.53 h 13.91 l 16.872,-25.94 c 3.128,-4.79 6.046,-9.63 8.75,-14.53 2.609,4.48 5.73,9.53 9.378,15.16 l 16.719,25.31 h 13.121 l -34.218,-49.53 v -36.41 z m 55.821,0 v 85.94 h 32.5 c 5.621,0 9.949,-0.26 12.968,-0.78 4.274,-0.73 7.813,-2.09 10.621,-4.06 2.922,-1.98 5.211,-4.74 6.879,-8.29 1.774,-3.54 2.653,-7.44 2.653,-11.71 0,-7.3 -2.34,-13.49 -7.032,-18.6 -4.578,-5 -12.968,-7.5 -25.148,-7.5 h -22.039 v -35 z m 11.402,45 h 22.187 c 7.403,0 12.61,1.36 15.629,4.06 3.121,2.82 4.684,6.72 4.684,11.72 0,3.54 -0.934,6.57 -2.813,9.07 -1.769,2.6 -4.109,4.32 -7.031,5.15 -1.976,0.52 -5.519,0.78 -10.617,0.78 h -22.039 z m 68.949,-45 v 85.94 h 62.027 v -10.16 h -50.617 v -26.25 h 47.5 v -10.15 h -47.5 v -29.22 h 52.649 v -10.16 h -64.059"
         style="fill:#000000;fill-opacity:1;fill-rule:nonzero;stroke:none"
         id="path68" /><path
         d="m 2180.04,3569.63 4.2,16.37 9.89,64.79 3.37,66.71 -3.37,66.71 -9.89,64.79 -16.08,62.54 -21.94,59.94 -27.47,57.04 -32.69,53.8 -37.56,50.23 -42.11,46.34 -46.34,42.11 -50.23,37.56 -53.8,32.69 -57.04,27.47 -59.95,21.94 -62.53,16.08 -64.79,9.89 -66.71,3.37 -66.71,-3.37 -64.79,-9.89 -62.53,-16.08 -59.95,-21.94 -57.04,-27.47 -53.8,-32.69 -50.23,-37.56 -46.34,-42.11 -42.11,-46.34 -37.56,-50.23 -32.69,-53.8 -27.469,-57.04 -21.941,-59.94 -16.078,-62.54 -9.891,-64.79 -3.371,-66.71 3.371,-66.71 0.359,-2.34 0.25,-0.97"
         style="fill:none;stroke:#000000;stroke-width:10;stroke-linecap:butt;stroke-linejoin:miter;stroke-miterlimit:1.45;stroke-dasharray:none;stroke-opacity:1"
         id="path70" /><path
         d="m 910.129,3568.65 28.781,126.78 -44.14,-38.1 -54.391,21.02 z"
         style="fill:#000000;fill-opacity:1;fill-rule:nonzero;stroke:none"
         id="path72" /><path
         d="M 861.539,4463.51 H 2228.46 V 4276.49 H 861.539 v 187.02"
         style="fill:#ffffff;fill-opacity:1;fill-rule:nonzero;stroke:none"
         id="path74" /><path
         d="m 892.789,4322.86 v 85.94 h 11.25 v -85.94 z m 27.563,27.66 10.628,0.93 c 0.52,-4.37 1.719,-7.91 3.59,-10.62 1.879,-2.71 4.739,-4.95 8.59,-6.72 3.961,-1.66 8.391,-2.5 13.289,-2.5 4.27,0 8.071,0.62 11.403,1.87 3.328,1.36 5.777,3.13 7.347,5.32 1.66,2.29 2.5,4.74 2.5,7.34 0,2.71 -0.789,5.06 -2.347,7.04 -1.563,2.08 -4.114,3.8 -7.653,5.15 -2.398,0.94 -7.558,2.35 -15.469,4.22 -7.82,1.88 -13.281,3.65 -16.41,5.31 -4.172,2.19 -7.238,4.84 -9.218,7.97 -1.981,3.23 -2.973,6.82 -2.973,10.78 0,4.27 1.203,8.28 3.601,12.03 2.5,3.86 6.09,6.72 10.782,8.59 4.789,1.98 10.047,2.97 15.777,2.97 6.352,0 11.981,-1.04 16.871,-3.12 4.899,-1.98 8.649,-5 11.25,-9.06 2.61,-3.96 4.012,-8.44 4.219,-13.44 l -10.93,-0.78 c -0.629,5.41 -2.66,9.48 -6.097,12.18 -3.332,2.82 -8.282,4.22 -14.84,4.22 -6.883,0 -11.883,-1.25 -15,-3.75 -3.133,-2.5 -4.692,-5.52 -4.692,-9.06 0,-3.12 1.09,-5.68 3.282,-7.66 2.187,-1.97 7.867,-4 17.027,-6.09 9.269,-2.08 15.633,-3.91 19.07,-5.46 5,-2.4 8.692,-5.37 11.09,-8.91 2.391,-3.44 3.59,-7.5 3.59,-12.19 0,-4.58 -1.297,-8.9 -3.899,-12.97 -2.609,-3.96 -6.359,-7.08 -11.25,-9.38 -4.898,-2.18 -10.421,-3.28 -16.57,-3.28 -7.808,0 -14.371,1.1 -19.68,3.28 -5.21,2.3 -9.332,5.73 -12.351,10.32 -2.91,4.58 -4.418,9.74 -4.527,15.47 z m 72.699,-51.56 v 7.65 h 69.999 v -7.65 z m 68.449,23.9 32.97,85.94 h 12.19 l 35.16,-85.94 H 1129 l -10.15,26.09 h -35.78 l -9.53,-26.09 z m 24.85,35.32 h 29.06 l -8.91,23.75 c -2.81,7.18 -4.84,13.12 -6.09,17.8 -1.15,-5.52 -2.71,-10.98 -4.69,-16.4 z m 60.82,-7.66 10.62,0.93 c 0.52,-4.37 1.72,-7.91 3.6,-10.62 1.87,-2.71 4.74,-4.95 8.59,-6.72 3.96,-1.66 8.39,-2.5 13.28,-2.5 4.27,0 8.07,0.62 11.41,1.87 3.33,1.36 5.78,3.13 7.34,5.32 1.67,2.29 2.5,4.74 2.5,7.34 0,2.71 -0.78,5.06 -2.34,7.04 -1.56,2.08 -4.12,3.8 -7.66,5.15 -2.39,0.94 -7.55,2.35 -15.47,4.22 -7.81,1.88 -13.28,3.65 -16.4,5.31 -4.17,2.19 -7.24,4.84 -9.22,7.97 -1.98,3.23 -2.97,6.82 -2.97,10.78 0,4.27 1.2,8.28 3.59,12.03 2.5,3.86 6.1,6.72 10.78,8.59 4.8,1.98 10.06,2.97 15.79,2.97 6.35,0 11.97,-1.04 16.87,-3.12 4.9,-1.98 8.65,-5 11.25,-9.06 2.6,-3.96 4.01,-8.44 4.22,-13.44 l -10.94,-0.78 c -0.62,5.41 -2.65,9.48 -6.09,12.18 -3.34,2.82 -8.28,4.22 -14.85,4.22 -6.87,0 -11.87,-1.25 -15,-3.75 -3.12,-2.5 -4.68,-5.52 -4.68,-9.06 0,-3.12 1.09,-5.68 3.28,-7.66 2.19,-1.97 7.86,-4 17.03,-6.09 9.27,-2.08 15.62,-3.91 19.06,-5.46 5,-2.4 8.7,-5.37 11.1,-8.91 2.39,-3.44 3.59,-7.5 3.59,-12.19 0,-4.58 -1.3,-8.9 -3.91,-12.97 -2.6,-3.96 -6.35,-7.08 -11.25,-9.38 -4.89,-2.18 -10.41,-3.28 -16.56,-3.28 -7.81,0 -14.37,1.1 -19.69,3.28 -5.21,2.3 -9.32,5.73 -12.34,10.32 -2.92,4.58 -4.43,9.74 -4.53,15.47 z m 80.04,0 10.62,0.93 c 0.52,-4.37 1.72,-7.91 3.6,-10.62 1.87,-2.71 4.74,-4.95 8.59,-6.72 3.96,-1.66 8.38,-2.5 13.28,-2.5 4.27,0 8.07,0.62 11.41,1.87 3.33,1.36 5.78,3.13 7.34,5.32 1.67,2.29 2.5,4.74 2.5,7.34 0,2.71 -0.78,5.06 -2.34,7.04 -1.57,2.08 -4.12,3.8 -7.66,5.15 -2.4,0.94 -7.55,2.35 -15.47,4.22 -7.81,1.88 -13.28,3.65 -16.4,5.31 -4.17,2.19 -7.24,4.84 -9.22,7.97 -1.98,3.23 -2.97,6.82 -2.97,10.78 0,4.27 1.2,8.28 3.59,12.03 2.5,3.86 6.1,6.72 10.78,8.59 4.79,1.98 10.06,2.97 15.78,2.97 6.36,0 11.98,-1.04 16.88,-3.12 4.9,-1.98 8.65,-5 11.25,-9.06 2.6,-3.96 4.01,-8.44 4.22,-13.44 l -10.94,-0.78 c -0.62,5.41 -2.66,9.48 -6.09,12.18 -3.34,2.82 -8.28,4.22 -14.85,4.22 -6.87,0 -11.87,-1.25 -15,-3.75 -3.12,-2.5 -4.68,-5.52 -4.68,-9.06 0,-3.12 1.09,-5.68 3.28,-7.66 2.18,-1.97 7.86,-4 17.03,-6.09 9.27,-2.08 15.62,-3.91 19.06,-5.46 5,-2.4 8.7,-5.37 11.09,-8.91 2.4,-3.44 3.6,-7.5 3.6,-12.19 0,-4.58 -1.3,-8.9 -3.91,-12.97 -2.6,-3.96 -6.35,-7.08 -11.25,-9.38 -4.89,-2.18 -10.41,-3.28 -16.56,-3.28 -7.81,0 -14.38,1.1 -19.69,3.28 -5.21,2.3 -9.32,5.73 -12.34,10.32 -2.92,4.58 -4.43,9.74 -4.53,15.47 z m 80.35,14.21 c 0,14.28 3.8,25.42 11.4,33.45 7.71,8.12 17.61,12.18 29.69,12.18 8.02,0 15.21,-1.93 21.56,-5.78 6.36,-3.75 11.2,-9.01 14.54,-15.78 3.33,-6.77 5,-14.48 5,-23.12 0,-8.65 -1.77,-16.41 -5.32,-23.29 -3.54,-6.87 -8.54,-12.08 -15,-15.62 -6.35,-3.54 -13.28,-5.32 -20.78,-5.32 -8.12,0 -15.36,1.93 -21.72,5.78 -6.35,3.97 -11.19,9.28 -14.53,15.95 -3.23,6.77 -4.84,13.95 -4.84,21.55 z m 11.72,-0.15 c 0,-10.42 2.76,-18.6 8.28,-24.53 5.62,-5.94 12.65,-8.91 21.09,-8.91 8.54,0 15.58,2.97 21.1,8.91 5.52,6.04 8.28,14.63 8.28,25.78 0,6.98 -1.2,13.07 -3.6,18.28 -2.29,5.21 -5.73,9.22 -10.31,12.03 -4.58,2.92 -9.69,4.38 -15.31,4.38 -8.02,0 -14.95,-2.76 -20.78,-8.29 -5.84,-5.52 -8.75,-14.73 -8.75,-27.65 z m 146.46,-11.56 11.25,-2.97 c -2.39,-9.27 -6.66,-16.35 -12.81,-21.25 -6.15,-4.9 -13.7,-7.35 -22.66,-7.35 -9.27,0 -16.82,1.88 -22.65,5.63 -5.84,3.75 -10.26,9.17 -13.28,16.25 -3.02,7.19 -4.54,14.9 -4.54,23.12 0,8.96 1.72,16.78 5.16,23.44 3.44,6.67 8.28,11.72 14.53,15.16 6.36,3.43 13.34,5.15 20.94,5.15 8.54,0 15.73,-2.18 21.56,-6.56 5.94,-4.37 10.05,-10.52 12.35,-18.44 l -11.25,-2.65 c -1.98,6.25 -4.9,10.78 -8.75,13.59 -3.75,2.92 -8.49,4.38 -14.22,4.38 -6.57,0 -12.09,-1.62 -16.57,-4.84 -4.37,-3.13 -7.5,-7.35 -9.37,-12.66 -1.77,-5.32 -2.66,-10.84 -2.66,-16.57 0,-7.29 1.05,-13.64 3.13,-19.06 2.19,-5.41 5.52,-9.48 10,-12.19 4.48,-2.7 9.37,-4.06 14.69,-4.06 6.35,0 11.71,1.82 16.09,5.47 4.48,3.65 7.5,9.12 9.06,16.41 z m 27.29,-30.16 v 85.94 h 11.25 v -85.94 z m 21.93,0 32.97,85.94 h 12.19 l 35.15,-85.94 h -12.81 l -10.16,26.09 h -35.78 l -9.53,-26.09 z m 24.84,35.32 h 29.07 l -8.91,23.75 c -2.81,7.18 -4.84,13.12 -6.09,17.8 -1.15,-5.52 -2.71,-10.98 -4.69,-16.4 z m 86.45,-35.32 v 75.78 h -28.28 v 10.16 h 68.12 v -10.16 h -28.43 v -75.78 z m 51.74,0 v 85.94 h 62.03 v -10.16 h -50.63 v -26.25 h 47.5 v -10.16 h -47.5 v -29.21 h 52.66 v -10.16 z m 79.72,0 v 85.94 h 29.69 c 6.67,0 11.77,-0.42 15.31,-1.25 4.9,-1.15 9.07,-3.18 12.5,-6.1 4.59,-3.85 7.97,-8.8 10.16,-14.84 2.29,-5.93 3.44,-12.71 3.44,-20.31 0,-6.57 -0.78,-12.35 -2.35,-17.35 -1.45,-5 -3.38,-9.16 -5.78,-12.5 -2.39,-3.33 -5.05,-5.93 -7.97,-7.81 -2.81,-1.87 -6.19,-3.33 -10.15,-4.37 -3.96,-0.94 -8.54,-1.41 -13.75,-1.41 z m 11.41,10.16 h 18.28 c 5.73,0 10.21,0.52 13.44,1.56 3.23,1.04 5.78,2.55 7.66,4.53 2.7,2.6 4.79,6.2 6.25,10.78 1.56,4.59 2.34,10.11 2.34,16.56 0,8.96 -1.51,15.84 -4.53,20.63 -2.92,4.9 -6.46,8.18 -10.63,9.85 -3.12,1.14 -8.02,1.71 -14.68,1.71 h -18.13 z m 64.16,-34.06 v 7.65 h 70 v -7.65 z m 92.83,23.9 -22.81,85.94 h 11.72 l 13.12,-56.41 c 1.36,-5.83 2.56,-11.66 3.6,-17.5 2.19,9.17 3.49,14.48 3.9,15.94 l 16.25,57.97 h 13.75 l 12.35,-43.44 c 3.02,-10.83 5.26,-20.99 6.72,-30.47 1.04,5.42 2.44,11.67 4.22,18.75 l 13.43,55.16 h 11.41 l -23.44,-85.94 h -11.09 l -17.97,65.47 c -1.56,5.42 -2.5,8.75 -2.81,10 -0.84,-3.85 -1.67,-7.19 -2.5,-10 l -18.13,-65.47 z m 100.3,0 v 85.94 h 11.25 v -85.94 z m 53.18,0 v 75.78 h -28.28 v 10.16 h 68.12 v -10.16 H 2091 v -75.78 z m 51.89,0 v 85.94 h 11.25 v -35.32 h 44.69 v 35.32 h 11.41 v -85.94 h -11.41 v 40.47 h -44.69 v -40.47 h -11.25"
         style="fill:#000000;fill-opacity:1;fill-rule:nonzero;stroke:none"
         id="path76" /><path
         d="M 3599.21,3065 H 2260.17"
         style="fill:none;stroke:#000000;stroke-width:10;stroke-linecap:butt;stroke-linejoin:miter;stroke-miterlimit:1.45;stroke-dasharray:none;stroke-opacity:1"
         id="path78" /><path
         d="m 2180.17,3065 120,-50 -30,50 30,50 z"
         style="fill:#000000;fill-opacity:1;fill-rule:nonzero;stroke:none"
         id="path80" /><path
         d="M 2342.96,3158.51 H 3436.53 V 2971.49 H 2342.96 v 187.02"
         style="fill:#ffffff;fill-opacity:1;fill-rule:nonzero;stroke:none"
         id="path82" /><path
         d="m 2373.74,3068.02 v 12.03 h 12.03 v -12.03 z m 0,-50.16 v 12.03 h 12.03 v -12.03 z m 33.81,0 v 85.94 h 11.25 v -85.94 z m 27.55,27.66 10.63,0.94 c 0.52,-4.38 1.72,-7.92 3.59,-10.63 1.88,-2.71 4.74,-4.95 8.6,-6.72 3.96,-1.67 8.38,-2.5 13.28,-2.5 4.27,0 8.07,0.63 11.4,1.88 3.34,1.35 5.79,3.12 7.35,5.31 1.67,2.29 2.5,4.74 2.5,7.34 0,2.71 -0.78,5.05 -2.35,7.03 -1.56,2.09 -4.11,3.81 -7.65,5.16 -2.4,0.94 -7.55,2.34 -15.47,4.22 -7.81,1.87 -13.28,3.64 -16.41,5.31 -4.16,2.19 -7.24,4.85 -9.22,7.97 -1.97,3.23 -2.96,6.82 -2.96,10.78 0,4.27 1.19,8.28 3.59,12.03 2.5,3.86 6.09,6.72 10.78,8.6 4.79,1.98 10.05,2.97 15.78,2.97 6.36,0 11.98,-1.05 16.88,-3.13 4.89,-1.98 8.64,-5 11.25,-9.06 2.6,-3.96 4.01,-8.44 4.22,-13.44 l -10.94,-0.78 c -0.63,5.42 -2.66,9.48 -6.1,12.19 -3.33,2.81 -8.28,4.22 -14.84,4.22 -6.87,0 -11.87,-1.25 -15,-3.75 -3.12,-2.5 -4.69,-5.53 -4.69,-9.07 0,-3.12 1.1,-5.67 3.28,-7.65 2.19,-1.98 7.87,-4.01 17.04,-6.1 9.27,-2.08 15.62,-3.9 19.06,-5.47 5,-2.39 8.7,-5.36 11.09,-8.9 2.4,-3.44 3.6,-7.5 3.6,-12.19 0,-4.58 -1.31,-8.91 -3.91,-12.97 -2.6,-3.96 -6.35,-7.08 -11.25,-9.37 -4.9,-2.19 -10.42,-3.28 -16.56,-3.28 -7.82,0 -14.38,1.09 -19.69,3.28 -5.21,2.29 -9.32,5.73 -12.34,10.31 -2.92,4.58 -4.43,9.74 -4.54,15.47 z m 72.7,-51.56 v 7.65 h 70 v -7.65 z m 79.86,23.9 v 85.94 h 11.25 v -85.94 z m 31.31,0 v 85.94 h 11.56 l 45.16,-67.5 v 67.5 h 10.94 v -85.94 h -11.72 l -45.16,67.5 v -67.5 z m 82.91,27.66 10.63,0.94 c 0.52,-4.38 1.72,-7.92 3.59,-10.63 1.88,-2.71 4.74,-4.95 8.59,-6.72 3.96,-1.67 8.39,-2.5 13.29,-2.5 4.27,0 8.07,0.63 11.4,1.88 3.34,1.35 5.78,3.12 7.35,5.31 1.66,2.29 2.5,4.74 2.5,7.34 0,2.71 -0.79,5.05 -2.35,7.03 -1.56,2.09 -4.11,3.81 -7.65,5.16 -2.4,0.94 -7.56,2.34 -15.47,4.22 -7.82,1.87 -13.28,3.64 -16.41,5.31 -4.17,2.19 -7.24,4.85 -9.22,7.97 -1.98,3.23 -2.97,6.82 -2.97,10.78 0,4.27 1.2,8.28 3.6,12.03 2.5,3.86 6.09,6.72 10.78,8.6 4.79,1.98 10.05,2.97 15.78,2.97 6.35,0 11.98,-1.05 16.87,-3.13 4.9,-1.98 8.65,-5 11.25,-9.06 2.61,-3.96 4.01,-8.44 4.22,-13.44 l -10.93,-0.78 c -0.63,5.42 -2.66,9.48 -6.1,12.19 -3.33,2.81 -8.28,4.22 -14.84,4.22 -6.88,0 -11.88,-1.25 -15,-3.75 -3.13,-2.5 -4.69,-5.53 -4.69,-9.07 0,-3.12 1.09,-5.67 3.28,-7.65 2.19,-1.98 7.87,-4.01 17.03,-6.1 9.27,-2.08 15.63,-3.9 19.07,-5.47 5,-2.39 8.69,-5.36 11.09,-8.9 2.4,-3.44 3.59,-7.5 3.59,-12.19 0,-4.58 -1.3,-8.91 -3.9,-12.97 -2.61,-3.96 -6.36,-7.08 -11.25,-9.37 -4.9,-2.19 -10.42,-3.28 -16.57,-3.28 -7.81,0 -14.37,1.09 -19.68,3.28 -5.21,2.29 -9.33,5.73 -12.35,10.31 -2.91,4.58 -4.42,9.74 -4.53,15.47 z m 105.67,-27.66 v 75.78 h -28.29 v 10.16 h 68.13 v -10.16 h -28.44 v -75.78 z m 42.05,0 32.97,85.94 h 12.18 l 35.16,-85.94 h -12.81 l -10.16,26.1 h -35.78 l -9.53,-26.1 z m 24.84,35.31 h 29.06 l -8.9,23.75 c -2.82,7.19 -4.85,13.13 -6.1,17.82 -1.14,-5.52 -2.71,-10.99 -4.68,-16.41 z m 64.57,-35.31 v 85.94 h 11.56 l 45.16,-67.5 v 67.5 h 10.94 v -85.94 h -11.72 l -45.16,67.5 v -67.5 z m 148.07,30.16 11.25,-2.97 c -2.4,-9.27 -6.67,-16.36 -12.82,-21.25 -6.14,-4.9 -13.69,-7.34 -22.65,-7.34 -9.27,0 -16.82,1.87 -22.66,5.62 -5.83,3.75 -10.26,9.17 -13.28,16.25 -3.02,7.19 -4.53,14.9 -4.53,23.13 0,8.95 1.72,16.77 5.16,23.43 3.43,6.67 8.28,11.72 14.53,15.16 6.35,3.44 13.33,5.16 20.93,5.16 8.55,0 15.73,-2.19 21.57,-6.57 5.93,-4.37 10.05,-10.52 12.34,-18.43 l -11.25,-2.66 c -1.98,6.25 -4.89,10.78 -8.75,13.59 -3.75,2.92 -8.49,4.38 -14.22,4.38 -6.56,0 -12.08,-1.62 -16.56,-4.85 -4.38,-3.12 -7.5,-7.34 -9.38,-12.65 -1.77,-5.31 -2.65,-10.84 -2.65,-16.56 0,-7.3 1.04,-13.65 3.12,-19.07 2.19,-5.41 5.52,-9.48 10,-12.18 4.48,-2.71 9.38,-4.07 14.69,-4.07 6.36,0 11.72,1.83 16.09,5.47 4.48,3.65 7.5,9.12 9.07,16.41 z m 25.56,-30.16 v 85.94 h 62.03 v -10.16 h -50.62 v -26.25 h 47.5 v -10.15 h -47.5 v -29.22 h 52.66 v -10.16 z m 68.64,-23.9 v 7.65 h 70 v -7.65 z m 74.39,65.78 c 0,14.27 3.8,25.41 11.41,33.43 7.71,8.13 17.6,12.19 29.68,12.19 8.03,0 15.21,-1.93 21.57,-5.78 6.35,-3.75 11.2,-9.01 14.53,-15.78 3.33,-6.77 5,-14.48 5,-23.13 0,-8.64 -1.77,-16.4 -5.31,-23.28 -3.55,-6.87 -8.55,-12.08 -15,-15.62 -6.36,-3.54 -13.29,-5.31 -20.79,-5.31 -8.12,0 -15.36,1.92 -21.71,5.78 -6.36,3.95 -11.2,9.27 -14.54,15.93 -3.22,6.77 -4.84,13.96 -4.84,21.57 z m 11.72,-0.16 c 0,-10.42 2.76,-18.59 8.28,-24.53 5.63,-5.94 12.66,-8.91 21.09,-8.91 8.55,0 15.58,2.97 21.1,8.91 5.52,6.04 8.28,14.63 8.28,25.78 0,6.98 -1.2,13.07 -3.59,18.28 -2.3,5.21 -5.73,9.22 -10.32,12.03 -4.58,2.92 -9.68,4.38 -15.31,4.38 -8.02,0 -14.95,-2.76 -20.78,-8.28 -5.83,-5.52 -8.75,-14.74 -8.75,-27.66 z m 85.68,-41.72 v 85.94 h 57.97 v -10.16 h -46.56 v -26.56 h 40.31 v -10.16 h -40.31 v -39.06 h -11.41"
         style="fill:#000000;fill-opacity:1;fill-rule:nonzero;stroke:none"
         id="path84" /><path
         d="m 910.32,1809.02 -30.488,-4.65 -53.051,-13.64 -50.871,-18.62 -48.39,-23.31 -45.641,-27.73 -42.617,-31.87 -39.313,-35.73 -35.73,-39.31 -31.867,-42.62 -27.731,-45.65 -23.32,-48.39 -18.61,-50.86 -13.64,-53.05 -8.391,-54.97 -2.859,-56.6 2.859,-56.61 8.391,-54.96 13.64,-53.06 18.61,-50.86 23.32,-48.389 27.731,-45.653 31.867,-42.617 35.73,-39.312 39.313,-35.727 42.617,-31.871 45.641,-27.731 48.39,-23.308 50.871,-18.621 5.348,-1.371 0.992,-0.149"
         style="fill:none;stroke:#000000;stroke-width:10;stroke-linecap:butt;stroke-linejoin:miter;stroke-miterlimit:1.45;stroke-dasharray:none;stroke-opacity:1"
         id="path86" /><path
         d="m 911.301,714.801 -106.66,74.328 18.711,-55.231 -39.93,-42.488 z"
         style="fill:#000000;fill-opacity:1;fill-rule:nonzero;stroke:none"
         id="path88" /><path
         d="M 37.6719,1355.52 H 837.93 V 1168.51 H 37.6719 v 187.01"
         style="fill:#ffffff;fill-opacity:1;fill-rule:nonzero;stroke:none"
         id="path90" /><path
         d="m 68.4492,1265.03 v 12.03 h 12.0391 v -12.03 z m 0,-50.15 v 12.03 h 12.0391 v -12.03 z m 33.8128,0 v 85.93 h 11.25 v -85.93 z m 27.558,27.65 10.629,0.94 c 0.52,-4.37 1.723,-7.92 3.59,-10.62 1.883,-2.71 4.742,-4.95 8.59,-6.72 3.961,-1.67 8.391,-2.5 13.293,-2.5 4.269,0 8.066,0.62 11.398,1.87 3.328,1.36 5.782,3.13 7.352,5.31 1.656,2.3 2.5,4.74 2.5,7.35 0,2.71 -0.793,5.05 -2.352,7.03 -1.558,2.08 -4.109,3.8 -7.648,5.16 -2.402,0.93 -7.563,2.34 -15.473,4.21 -7.82,1.88 -13.277,3.65 -16.41,5.32 -4.168,2.18 -7.238,4.84 -9.219,7.97 -1.98,3.23 -2.968,6.82 -2.968,10.78 0,4.27 1.199,8.28 3.597,12.03 2.5,3.85 6.09,6.72 10.781,8.59 4.79,1.98 10.051,2.97 15.782,2.97 6.347,0 11.976,-1.04 16.867,-3.12 4.902,-1.98 8.652,-5 11.25,-9.07 2.609,-3.95 4.012,-8.43 4.223,-13.43 l -10.93,-0.79 c -0.633,5.42 -2.66,9.48 -6.102,12.19 -3.332,2.81 -8.281,4.22 -14.84,4.22 -6.878,0 -11.878,-1.25 -15,-3.75 -3.128,-2.5 -4.691,-5.52 -4.691,-9.06 0,-3.13 1.09,-5.68 3.281,-7.66 2.192,-1.98 7.871,-4.01 17.032,-6.09 9.269,-2.08 15.628,-3.91 19.07,-5.47 5,-2.4 8.687,-5.36 11.09,-8.91 2.386,-3.43 3.59,-7.5 3.59,-12.18 0,-4.59 -1.301,-8.91 -3.903,-12.97 -2.609,-3.96 -6.359,-7.09 -11.25,-9.38 -4.898,-2.19 -10.418,-3.28 -16.57,-3.28 -7.809,0 -14.367,1.09 -19.68,3.28 -5.211,2.29 -9.328,5.73 -12.347,10.31 -2.911,4.59 -4.422,9.74 -4.532,15.47 z m 72.7,-51.56 v 7.66 h 70 v -7.66 z m 74.39,65.78 c 0,14.27 3.801,25.42 11.41,33.44 7.711,8.12 17.602,12.19 29.692,12.19 8.019,0 15.199,-1.93 21.558,-5.78 6.352,-3.75 11.2,-9.01 14.532,-15.79 3.328,-6.77 5,-14.47 5,-23.12 0,-8.65 -1.77,-16.41 -5.313,-23.28 -3.551,-6.88 -8.551,-12.08 -15,-15.63 -6.359,-3.54 -13.277,-5.31 -20.777,-5.31 -8.133,0 -15.371,1.93 -21.723,5.78 -6.359,3.96 -11.199,9.27 -14.527,15.94 -3.231,6.77 -4.852,13.96 -4.852,21.56 z m 11.719,-0.15 c 0,-10.42 2.762,-18.6 8.281,-24.54 5.629,-5.93 12.66,-8.9 21.102,-8.9 8.539,0 15.57,2.97 21.09,8.9 5.519,6.05 8.277,14.64 8.277,25.79 0,6.98 -1.199,13.07 -3.59,18.28 -2.301,5.21 -5.73,9.22 -10.32,12.03 -4.578,2.92 -9.68,4.37 -15.309,4.37 -8.019,0 -14.949,-2.76 -20.781,-8.28 -5.828,-5.52 -8.75,-14.74 -8.75,-27.65 z m 85.68,-41.72 v 85.93 h 57.972 v -10.15 h -46.562 v -26.56 h 40.312 v -10.16 h -40.312 v -39.06 z m 61.589,-23.91 v 7.66 h 70 v -7.66 z m 99.704,23.91 v 75.78 H 507.32 v 10.15 h 68.129 v -10.15 h -28.437 v -75.78 z m 75.648,0 v 36.4 l -33.129,49.53 h 13.91 l 16.867,-25.93 c 3.133,-4.79 6.051,-9.64 8.75,-14.53 2.614,4.48 5.731,9.53 9.383,15.15 l 16.719,25.31 h 13.121 l -34.223,-49.53 v -36.4 z m 55.82,0 v 85.93 h 32.5 c 5.621,0 9.95,-0.26 12.969,-0.78 4.27,-0.73 7.813,-2.08 10.621,-4.06 2.922,-1.98 5.211,-4.74 6.879,-8.28 1.77,-3.54 2.652,-7.45 2.652,-11.72 0,-7.29 -2.339,-13.49 -7.031,-18.59 -4.578,-5 -12.969,-7.5 -25.148,-7.5 h -22.043 v -35 z m 11.399,45 h 22.191 c 7.399,0 12.61,1.35 15.629,4.06 3.121,2.81 4.68,6.72 4.68,11.72 0,3.54 -0.93,6.56 -2.809,9.06 -1.769,2.61 -4.109,4.32 -7.031,5.16 -1.981,0.52 -5.52,0.78 -10.617,0.78 h -22.043 z m 68.953,-45 v 85.93 h 62.027 v -10.15 h -50.617 v -26.25 h 47.5 v -10.16 h -47.5 v -29.22 h 52.648 v -10.15 h -64.058"
         style="fill:#000000;fill-opacity:1;fill-rule:nonzero;stroke:none"
         id="path92" /><path
         d="m 982.469,626.93 7.051,-46.18 13.97,-54.34 19.07,-52.101 23.87,-49.559 28.4,-46.75 32.65,-43.648 36.59,-40.262 40.27,-36.602 43.64,-32.636 46.75,-28.403 49.57,-23.879 52.09,-19.058 54.34,-13.973 56.3,-8.598 57.97,-2.921 57.97,2.921 56.3,8.598 54.34,13.973 52.09,19.058 49.57,23.879 46.75,28.403 43.64,32.636 40.27,36.602 36.59,40.262 32.65,43.648 28.4,46.75 23.87,49.559 19.07,52.101 5.66,22.012 0.15,0.976"
         style="fill:none;stroke:#000000;stroke-width:10;stroke-linecap:butt;stroke-linejoin:miter;stroke-miterlimit:1.45;stroke-dasharray:none;stroke-opacity:1"
         id="path94" /><path
         d="m 2107.72,627.91 -72.17,-108.129 54.84,19.809 43.29,-39.059 z"
         style="fill:#000000;fill-opacity:1;fill-rule:nonzero;stroke:none"
         id="path96" /><path
         d="m 1141.56,221.52 h 806.88 V 34.5117 H 1141.56 V 221.52"
         style="fill:#ffffff;fill-opacity:1;fill-rule:nonzero;stroke:none"
         id="path98" /><path
         d="m 1172.34,131.031 v 12.028 h 12.04 v -12.028 z m 0,-50.1521 v 12.0313 h 12.04 V 80.8789 Z m 33.81,0 v 85.9301 h 11.25 V 80.8789 Z m 27.56,27.6521 10.63,0.938 c 0.52,-4.367 1.71,-7.918 3.59,-10.6174 1.87,-2.711 4.74,-4.9493 8.59,-6.7227 3.96,-1.668 8.39,-2.5 13.28,-2.5 4.28,0 8.08,0.6211 11.41,1.8711 3.33,1.3594 5.78,3.1289 7.34,5.3086 1.67,2.3008 2.5,4.7424 2.5,7.3514 0,2.711 -0.78,5.051 -2.34,7.031 -1.56,2.079 -4.11,3.797 -7.66,5.161 -2.39,0.929 -7.55,2.339 -15.46,4.207 -7.82,1.882 -13.29,3.652 -16.41,5.32 -4.17,2.18 -7.24,4.84 -9.22,7.973 -1.98,3.23 -2.97,6.82 -2.97,10.777 0,4.269 1.2,8.281 3.6,12.031 2.5,3.852 6.09,6.719 10.78,8.59 4.79,1.98 10.05,2.969 15.78,2.969 6.35,0 11.98,-1.039 16.87,-3.117 4.9,-1.981 8.65,-5 11.25,-9.071 2.61,-3.949 4.01,-8.429 4.22,-13.429 l -10.94,-0.793 c -0.62,5.421 -2.65,9.48 -6.09,12.191 -3.33,2.809 -8.28,4.219 -14.84,4.219 -6.88,0 -11.88,-1.25 -15,-3.75 -3.13,-2.5 -4.69,-5.52 -4.69,-9.059 0,-3.129 1.09,-5.68 3.28,-7.66 2.19,-1.98 7.87,-4.012 17.03,-6.09 9.27,-2.078 15.63,-3.91 19.06,-5.469 5,-2.402 8.7,-5.359 11.1,-8.91 2.39,-3.429 3.59,-7.5 3.59,-12.179 0,-4.59 -1.3,-8.9106 -3.9,-12.9731 -2.61,-3.957 -6.36,-7.0898 -11.25,-9.3789 -4.9,-2.1914 -10.42,-3.2812 -16.57,-3.2812 -7.81,0 -14.37,1.0898 -19.68,3.2812 -5.21,2.2891 -9.33,5.7305 -12.35,10.3086 -2.91,4.5937 -4.42,9.7424 -4.53,15.4724 z m 72.7,-51.5622 v 7.6601 h 70 v -7.6601 z m 77.83,23.9101 v 85.9301 h 32.5 c 5.62,0 9.95,-0.258 12.97,-0.778 4.27,-0.73 7.81,-2.082 10.62,-4.062 2.92,-1.981 5.21,-4.739 6.88,-8.278 1.77,-3.543 2.65,-7.453 2.65,-11.722 0,-7.289 -2.34,-13.489 -7.03,-18.59 -4.58,-5 -12.97,-7.5 -25.15,-7.5 h -22.04 V 80.8789 Z m 11.4,45.0001 h 22.19 c 7.4,0 12.61,1.351 15.63,4.062 3.12,2.809 4.68,6.719 4.68,11.719 0,3.539 -0.93,6.559 -2.81,9.059 -1.77,2.613 -4.11,4.32 -7.03,5.16 -1.98,0.519 -5.52,0.781 -10.62,0.781 h -22.04 z m 59.26,-45.0001 32.97,85.9301 h 12.19 l 35.15,-85.9301 h -12.81 l -10.15,26.0901 h -35.79 l -9.53,-26.0901 z m 24.85,35.3121 h 29.06 l -8.91,23.75 c -2.81,7.188 -4.84,13.118 -6.09,17.809 -1.15,-5.52 -2.71,-10.988 -4.69,-16.398 z m 64.72,-35.3121 v 85.9301 h 38.13 c 7.71,0 13.54,-0.778 17.5,-2.34 3.96,-1.559 7.13,-4.321 9.53,-8.278 2.39,-3.851 3.59,-8.132 3.59,-12.812 0,-6.149 -1.98,-11.297 -5.93,-15.469 -3.96,-4.172 -10.06,-6.82 -18.29,-7.969 3.02,-1.461 5.32,-2.859 6.88,-4.222 3.33,-3.02 6.46,-6.821 9.37,-11.41 l 15,-23.4301 h -14.37 l -11.25,17.8125 c -3.33,5.2106 -6.09,9.1676 -8.28,11.8676 -2.09,2.711 -4.01,4.589 -5.78,5.632 -1.67,1.149 -3.39,1.981 -5.16,2.5 -1.25,0.207 -3.33,0.309 -6.25,0.309 h -13.28 V 80.8789 Z m 11.41,47.9731 h 24.53 c 5.1,0 9.11,0.519 12.03,1.558 3.02,1.141 5.26,2.86 6.72,5.149 1.56,2.402 2.34,5 2.34,7.82 0,4.062 -1.51,7.391 -4.53,10 -2.91,2.601 -7.55,3.902 -13.9,3.902 h -27.19 z m 96.97,-47.9731 V 156.66 h -28.28 v 10.149 h 68.13 V 156.66 h -28.44 V 80.8789 Z m 40.33,-23.9101 v 7.6601 h 70 v -7.6601 z m 74.4,65.7812 c 0,14.27 3.8,25.422 11.4,33.441 7.71,8.118 17.61,12.188 29.69,12.188 8.02,0 15.21,-1.93 21.56,-5.777 6.36,-3.75 11.2,-9.012 14.54,-15.793 3.33,-6.77 5,-14.469 5,-23.118 0,-8.652 -1.78,-16.41 -5.32,-23.281 -3.54,-6.8787 -8.54,-12.078 -15,-15.6287 -6.35,-3.543 -13.28,-5.3125 -20.78,-5.3125 -8.12,0 -15.36,1.9335 -21.72,5.7812 -6.35,3.9609 -11.19,9.2695 -14.53,15.941 -3.23,6.77 -4.84,13.957 -4.84,21.559 z m 11.72,-0.148 c 0,-10.422 2.76,-18.602 8.28,-24.5434 5.62,-5.9297 12.65,-8.8984 21.09,-8.8984 8.54,0 15.57,2.9687 21.1,8.8984 5.52,6.0504 8.28,14.6404 8.28,25.7934 0,6.98 -1.2,13.07 -3.6,18.277 -2.29,5.211 -5.73,9.223 -10.31,12.031 -4.58,2.922 -9.69,4.371 -15.31,4.371 -8.02,0 -14.95,-2.761 -20.78,-8.281 -5.84,-5.52 -8.75,-14.738 -8.75,-27.648 z m 85.68,-41.7231 v 85.9301 h 57.97 V 156.66 h -46.56 v -26.558 h 40.31 v -10.161 h -40.31 V 80.8789 h -11.41"
         style="fill:#000000;fill-opacity:1;fill-rule:nonzero;stroke:none"
         id="path100" /><path
         d="m 1090,1896.72 v 453.27"
         style="fill:none;stroke:#000000;stroke-width:10;stroke-linecap:butt;stroke-linejoin:miter;stroke-miterlimit:1.45;stroke-dasharray:none;stroke-opacity:1"
         id="path102" /><path
         d="m 1090,2429.99 -50,-120 50,30 50,-30 z"
         style="fill:#000000;fill-opacity:1;fill-rule:nonzero;stroke:none"
         id="path104" /><path
         d="M 686.559,2257.01 H 1493.44 V 2070 H 686.559 v 187.01"
         style="fill:#ffffff;fill-opacity:1;fill-rule:nonzero;stroke:none"
         id="path106" /><path
         d="m 717.34,2166.53 v 12.03 h 12.039 v -12.03 z m 0,-50.16 v 12.03 h 12.039 v -12.03 z m 33.808,0 v 85.94 h 11.25 v -85.94 z m 27.563,27.66 10.629,0.93 c 0.519,-4.37 1.711,-7.91 3.59,-10.62 1.871,-2.71 4.742,-4.95 8.59,-6.72 3.96,-1.67 8.39,-2.5 13.281,-2.5 4.281,0 8.078,0.62 11.41,1.87 3.328,1.36 5.777,3.13 7.34,5.32 1.668,2.29 2.5,4.74 2.5,7.34 0,2.71 -0.781,5.05 -2.34,7.03 -1.563,2.09 -4.109,3.8 -7.66,5.16 -2.391,0.94 -7.551,2.34 -15.461,4.22 -7.82,1.87 -13.289,3.64 -16.41,5.31 -4.168,2.19 -7.239,4.84 -9.219,7.97 -1.981,3.23 -2.973,6.82 -2.973,10.78 0,4.27 1.203,8.28 3.602,12.03 2.5,3.85 6.09,6.72 10.781,8.59 4.789,1.98 10.051,2.97 15.777,2.97 6.352,0 11.981,-1.04 16.872,-3.12 4.902,-1.98 8.652,-5 11.25,-9.06 2.609,-3.96 4.011,-8.44 4.218,-13.44 l -10.937,-0.78 c -0.621,5.41 -2.653,9.48 -6.09,12.18 -3.332,2.82 -8.281,4.22 -14.84,4.22 -6.883,0 -11.883,-1.25 -15,-3.75 -3.133,-2.5 -4.691,-5.52 -4.691,-9.06 0,-3.12 1.09,-5.68 3.281,-7.66 2.187,-1.97 7.871,-4.01 17.027,-6.09 9.274,-2.08 15.633,-3.91 19.063,-5.47 5,-2.39 8.699,-5.36 11.097,-8.9 2.391,-3.44 3.59,-7.5 3.59,-12.19 0,-4.59 -1.297,-8.91 -3.898,-12.97 -2.61,-3.96 -6.36,-7.08 -11.25,-9.38 -4.899,-2.18 -10.418,-3.28 -16.57,-3.28 -7.809,0 -14.372,1.1 -19.68,3.28 -5.211,2.3 -9.328,5.73 -12.352,10.32 -2.906,4.58 -4.418,9.74 -4.527,15.47 z m 72.699,-51.57 v 7.66 h 70 v -7.66 z m 77.828,23.91 v 85.94 h 32.5 c 5.621,0 9.953,-0.26 12.973,-0.78 4.269,-0.73 7.809,-2.09 10.621,-4.07 2.918,-1.98 5.207,-4.74 6.879,-8.28 1.769,-3.54 2.648,-7.45 2.648,-11.72 0,-7.29 -2.339,-13.49 -7.027,-18.59 -4.582,-5 -12.973,-7.5 -25.152,-7.5 h -22.039 v -35 z m 11.403,45 h 22.191 c 7.398,0 12.609,1.35 15.629,4.06 3.121,2.81 4.68,6.72 4.68,11.72 0,3.54 -0.93,6.56 -2.809,9.06 -1.773,2.61 -4.113,4.33 -7.031,5.16 -1.981,0.52 -5.52,0.78 -10.621,0.78 h -22.039 z m 59.257,-45 32.972,85.94 h 12.19 l 35.15,-85.94 h -12.81 l -10.15,26.09 h -35.79 l -9.53,-26.09 z m 24.852,35.31 h 29.06 l -8.91,23.75 c -2.81,7.19 -4.84,13.13 -6.09,17.81 -1.15,-5.52 -2.71,-10.99 -4.69,-16.4 z m 64.72,-35.31 v 85.94 h 38.13 c 7.71,0 13.54,-0.78 17.5,-2.35 3.96,-1.56 7.13,-4.32 9.53,-8.28 2.39,-3.85 3.59,-8.12 3.59,-12.81 0,-6.15 -1.98,-11.3 -5.93,-15.47 -3.96,-4.17 -10.06,-6.82 -18.29,-7.97 3.02,-1.46 5.32,-2.86 6.88,-4.22 3.33,-3.02 6.46,-6.82 9.37,-11.4 l 15,-23.44 h -14.37 l -11.25,17.81 c -3.33,5.21 -6.09,9.17 -8.28,11.88 -2.09,2.71 -4.01,4.58 -5.78,5.62 -1.67,1.15 -3.39,1.98 -5.16,2.5 -1.25,0.21 -3.33,0.31 -6.25,0.31 h -13.28 v -38.12 z m 11.41,47.97 h 24.53 c 5.1,0 9.11,0.52 12.03,1.56 3.02,1.15 5.26,2.87 6.72,5.16 1.56,2.39 2.34,5 2.34,7.81 0,4.06 -1.51,7.4 -4.53,10 -2.91,2.6 -7.55,3.91 -13.9,3.91 h -27.19 z m 96.97,-47.97 v 75.78 h -28.28 v 10.16 h 68.13 v -10.16 h -28.44 v -75.78 z m 40.33,-23.91 v 7.66 h 70 v -7.66 z m 74.4,65.78 c 0,14.28 3.8,25.42 11.4,33.44 7.71,8.13 17.61,12.19 29.69,12.19 8.02,0 15.21,-1.93 21.56,-5.78 6.36,-3.75 11.2,-9.01 14.54,-15.78 3.33,-6.77 5,-14.48 5,-23.13 0,-8.64 -1.78,-16.4 -5.32,-23.28 -3.54,-6.87 -8.54,-12.08 -15,-15.62 -6.35,-3.55 -13.28,-5.32 -20.78,-5.32 -8.12,0 -15.36,1.93 -21.72,5.78 -6.35,3.96 -11.19,9.28 -14.53,15.94 -3.23,6.77 -4.84,13.96 -4.84,21.56 z m 11.72,-0.15 c 0,-10.42 2.76,-18.6 8.28,-24.53 5.62,-5.94 12.65,-8.91 21.09,-8.91 8.54,0 15.57,2.97 21.1,8.91 5.52,6.04 8.28,14.63 8.28,25.78 0,6.98 -1.2,13.07 -3.6,18.28 -2.29,5.21 -5.73,9.22 -10.31,12.03 -4.58,2.92 -9.69,4.38 -15.31,4.38 -8.02,0 -14.95,-2.76 -20.78,-8.29 -5.84,-5.52 -8.75,-14.74 -8.75,-27.65 z m 85.68,-41.72 v 85.94 h 57.97 v -10.16 h -46.56 v -26.56 h 40.31 v -10.16 h -40.31 v -39.06 h -11.41"
         style="fill:#000000;fill-opacity:1;fill-rule:nonzero;stroke:none"
         id="path108" /><path
         d="m 1990,1896.76 v 453.2"
         style="fill:none;stroke:#000000;stroke-width:10;stroke-linecap:butt;stroke-linejoin:miter;stroke-miterlimit:1.45;stroke-dasharray:none;stroke-opacity:1"
         id="path110" /><path
         d="m 1990,2429.96 -50,-120 50,30 50,-30 z"
         style="fill:#000000;fill-opacity:1;fill-rule:nonzero;stroke:none"
         id="path112" /><path
         d="m 1589.87,2257.01 h 800.26 V 2070 h -800.26 v 187.01"
         style="fill:#ffffff;fill-opacity:1;fill-rule:nonzero;stroke:none"
         id="path114" /><path
         d="m 1620.65,2166.53 v 12.03 h 12.04 v -12.03 z m 0,-50.16 v 12.03 h 12.04 v -12.03 z m 33.81,0 v 85.94 h 11.25 v -85.94 z m 27.56,27.66 10.63,0.93 c 0.52,-4.37 1.72,-7.91 3.59,-10.62 1.88,-2.71 4.74,-4.95 8.59,-6.72 3.96,-1.67 8.39,-2.5 13.29,-2.5 4.27,0 8.07,0.62 11.4,1.87 3.33,1.36 5.78,3.13 7.35,5.32 1.66,2.29 2.5,4.74 2.5,7.34 0,2.71 -0.79,5.05 -2.35,7.03 -1.56,2.09 -4.11,3.8 -7.65,5.16 -2.4,0.94 -7.56,2.34 -15.47,4.22 -7.82,1.87 -13.28,3.64 -16.41,5.31 -4.17,2.19 -7.24,4.84 -9.22,7.97 -1.98,3.23 -2.97,6.82 -2.97,10.78 0,4.27 1.2,8.28 3.6,12.03 2.5,3.85 6.09,6.72 10.78,8.59 4.79,1.98 10.05,2.97 15.78,2.97 6.35,0 11.98,-1.04 16.87,-3.12 4.9,-1.98 8.65,-5 11.25,-9.06 2.61,-3.96 4.01,-8.44 4.22,-13.44 l -10.93,-0.78 c -0.63,5.41 -2.66,9.48 -6.1,12.18 -3.33,2.82 -8.28,4.22 -14.84,4.22 -6.88,0 -11.88,-1.25 -15,-3.75 -3.13,-2.5 -4.69,-5.52 -4.69,-9.06 0,-3.12 1.09,-5.68 3.28,-7.66 2.19,-1.97 7.87,-4.01 17.03,-6.09 9.27,-2.08 15.63,-3.91 19.07,-5.47 5,-2.39 8.69,-5.36 11.09,-8.9 2.39,-3.44 3.59,-7.5 3.59,-12.19 0,-4.59 -1.3,-8.91 -3.9,-12.97 -2.61,-3.96 -6.36,-7.08 -11.25,-9.38 -4.9,-2.18 -10.42,-3.28 -16.57,-3.28 -7.81,0 -14.37,1.1 -19.68,3.28 -5.21,2.3 -9.33,5.73 -12.35,10.32 -2.91,4.58 -4.42,9.74 -4.53,15.47 z m 72.7,-51.57 v 7.66 h 70 v -7.66 z m 74.39,65.78 c 0,14.28 3.8,25.42 11.41,33.44 7.71,8.13 17.6,12.19 29.69,12.19 8.02,0 15.2,-1.93 21.56,-5.78 6.35,-3.75 11.2,-9.01 14.53,-15.78 3.33,-6.77 5,-14.48 5,-23.13 0,-8.64 -1.77,-16.4 -5.31,-23.28 -3.55,-6.87 -8.55,-12.08 -15,-15.62 -6.36,-3.55 -13.28,-5.32 -20.78,-5.32 -8.13,0 -15.37,1.93 -21.72,5.78 -6.36,3.96 -11.2,9.28 -14.53,15.94 -3.23,6.77 -4.85,13.96 -4.85,21.56 z m 11.72,-0.15 c 0,-10.42 2.76,-18.6 8.28,-24.53 5.63,-5.94 12.66,-8.91 21.1,-8.91 8.54,0 15.57,2.97 21.09,8.91 5.52,6.04 8.28,14.63 8.28,25.78 0,6.98 -1.2,13.07 -3.59,18.28 -2.3,5.21 -5.73,9.22 -10.32,12.03 -4.58,2.92 -9.68,4.38 -15.31,4.38 -8.02,0 -14.95,-2.76 -20.78,-8.29 -5.83,-5.52 -8.75,-14.74 -8.75,-27.65 z m 85.68,-41.72 v 85.94 h 57.97 v -10.16 h -46.56 v -26.56 h 40.31 v -10.16 h -40.31 v -39.06 z m 61.59,-23.91 v 7.66 h 70 v -7.66 z m 99.7,23.91 v 75.78 h -28.28 v 10.16 h 68.13 v -10.16 h -28.44 v -75.78 z m 75.65,0 v 36.41 l -33.13,49.53 h 13.91 l 16.87,-25.94 c 3.13,-4.79 6.05,-9.64 8.75,-14.53 2.61,4.48 5.73,9.53 9.38,15.15 l 16.72,25.32 h 13.12 l -34.22,-49.53 v -36.41 z m 55.82,0 v 85.94 h 32.5 c 5.62,0 9.95,-0.26 12.97,-0.78 4.27,-0.73 7.81,-2.09 10.62,-4.07 2.92,-1.98 5.21,-4.74 6.88,-8.28 1.77,-3.54 2.65,-7.45 2.65,-11.72 0,-7.29 -2.34,-13.49 -7.03,-18.59 -4.58,-5 -12.97,-7.5 -25.15,-7.5 h -22.04 v -35 z m 11.4,45 h 22.19 c 7.4,0 12.61,1.35 15.63,4.06 3.12,2.81 4.68,6.72 4.68,11.72 0,3.54 -0.93,6.56 -2.81,9.06 -1.77,2.61 -4.11,4.33 -7.03,5.16 -1.98,0.52 -5.52,0.78 -10.62,0.78 h -22.04 z m 68.95,-45 v 85.94 h 62.03 v -10.16 h -50.62 v -26.25 h 47.5 v -10.16 h -47.5 v -29.21 h 52.65 v -10.16 h -64.06"
         style="fill:#000000;fill-opacity:1;fill-rule:nonzero;stroke:none"
         id="path116" /><path
         d="m 3757.51,942.148 -2.15,-35.398 1.77,-48.5 6.4,-47.93 10.92,-47.031 15.36,-45.758 19.68,-44.172 23.92,-42.23 28.06,-39.938 32.1,-37.3 36.04,-34.34 39.89,-31.012 43.64,-27.348 46.17,-22.82 47.32,-17.699 48.13,-12.692 48.6,-7.781 48.72,-2.949 48.5,1.77 47.93,6.402 47.02,10.918 45.77,15.351 44.17,19.688 42.23,23.922 39.93,28.058 37.31,32.102 34.34,36.039 31.01,39.891 27.35,43.629 22.82,46.171 17.7,47.329 12.69,48.128 7.77,48.602 1.03,16.84 -0.04,1"
         style="fill:none;stroke:#000000;stroke-width:10;stroke-linecap:butt;stroke-linejoin:miter;stroke-miterlimit:1.45;stroke-dasharray:none;stroke-opacity:1"
         id="path118" /><path
         d="m 4759.82,943.09 -50.32,-119.871 50.08,29.871 49.92,-30.141 z"
         style="fill:#000000;fill-opacity:1;fill-rule:nonzero;stroke:none"
         id="path120" /><path
         d="m 3876.22,535.762 h 806.87 V 348.75 h -806.87 v 187.012"
         style="fill:#ffffff;fill-opacity:1;fill-rule:nonzero;stroke:none"
         id="path122" /><path
         d="m 3907,445.281 v 12.028 h 12.03 v -12.028 z m 0,-50.16 v 12.027 h 12.03 v -12.027 z m 33.81,0 v 85.938 h 11.25 v -85.938 z m 27.55,27.66 10.63,0.93 c 0.52,-4.371 1.72,-7.91 3.59,-10.621 1.88,-2.711 4.74,-4.949 8.6,-6.719 3.96,-1.672 8.38,-2.5 13.28,-2.5 4.27,0 8.07,0.617 11.4,1.867 3.34,1.364 5.79,3.133 7.35,5.321 1.67,2.293 2.5,4.742 2.5,7.339 0,2.711 -0.78,5.051 -2.35,7.032 -1.56,2.082 -4.11,3.8 -7.65,5.16 -2.4,0.941 -7.55,2.34 -15.47,4.219 -7.81,1.871 -13.28,3.64 -16.41,5.312 -4.16,2.188 -7.24,4.84 -9.22,7.969 -1.97,3.23 -2.96,6.82 -2.96,10.781 0,4.27 1.19,8.277 3.59,12.027 2.5,3.852 6.09,6.723 10.78,8.59 4.79,1.981 10.05,2.973 15.78,2.973 6.36,0 11.98,-1.039 16.88,-3.121 4.89,-1.981 8.64,-5 11.25,-9.059 2.6,-3.961 4.01,-8.441 4.22,-13.441 l -10.94,-0.781 c -0.63,5.41 -2.66,9.48 -6.1,12.179 -3.33,2.821 -8.28,4.223 -14.84,4.223 -6.87,0 -11.87,-1.25 -15,-3.75 -3.12,-2.5 -4.69,-5.52 -4.69,-9.063 0,-3.117 1.1,-5.679 3.28,-7.66 2.19,-1.976 7.87,-4.008 17.04,-6.09 9.27,-2.078 15.62,-3.91 19.06,-5.468 5,-2.391 8.7,-5.36 11.09,-8.899 2.4,-3.441 3.6,-7.5 3.6,-12.191 0,-4.59 -1.31,-8.91 -3.91,-12.969 -2.6,-3.961 -6.35,-7.082 -11.25,-9.383 -4.9,-2.179 -10.42,-3.277 -16.56,-3.277 -7.82,0 -14.38,1.098 -19.69,3.277 -5.21,2.301 -9.32,5.731 -12.34,10.321 -2.92,4.582 -4.43,9.742 -4.54,15.472 z m 72.7,-51.57 v 7.66 h 70 v -7.66 z m 77.83,23.91 v 85.938 h 32.5 c 5.63,0 9.95,-0.258 12.97,-0.778 4.27,-0.73 7.81,-2.09 10.63,-4.07 2.91,-1.981 5.2,-4.742 6.87,-8.281 1.77,-3.539 2.66,-7.45 2.66,-11.719 0,-7.289 -2.35,-13.492 -7.03,-18.59 -4.59,-5 -12.97,-7.5 -25.16,-7.5 h -22.03 v -35 z m 11.41,45 h 22.19 c 7.39,0 12.6,1.348 15.62,4.059 3.13,2.808 4.69,6.718 4.69,11.718 0,3.543 -0.94,6.563 -2.81,9.063 -1.77,2.609 -4.12,4.328 -7.04,5.16 -1.97,0.52 -5.52,0.777 -10.62,0.777 h -22.03 z m 59.26,-45 32.97,85.938 h 12.18 l 35.16,-85.938 h -12.81 l -10.16,26.09 h -35.78 l -9.53,-26.09 z m 24.84,35.309 h 29.06 l -8.9,23.75 c -2.82,7.191 -4.85,13.129 -6.1,17.808 -1.14,-5.519 -2.71,-10.988 -4.68,-16.398 z m 64.73,-35.309 v 85.938 h 38.12 c 7.71,0 13.54,-0.778 17.5,-2.348 3.96,-1.563 7.14,-4.32 9.53,-8.281 2.4,-3.852 3.6,-8.121 3.6,-12.809 0,-6.152 -1.98,-11.301 -5.94,-15.473 -3.96,-4.168 -10.05,-6.82 -18.28,-7.968 3.02,-1.461 5.31,-2.86 6.87,-4.219 3.34,-3.02 6.46,-6.82 9.38,-11.402 l 15,-23.438 h -14.38 l -11.25,17.809 c -3.33,5.211 -6.09,9.172 -8.28,11.879 -2.08,2.703 -4.01,4.582 -5.78,5.621 -1.67,1.148 -3.39,1.98 -5.16,2.5 -1.25,0.211 -3.33,0.308 -6.25,0.308 h -13.28 v -38.117 z m 11.4,47.969 h 24.53 c 5.11,0 9.12,0.519 12.04,1.558 3.02,1.153 5.26,2.864 6.71,5.161 1.57,2.39 2.35,5 2.35,7.812 0,4.059 -1.51,7.391 -4.53,10 -2.92,2.598 -7.56,3.91 -13.91,3.91 h -27.19 z m 96.98,-47.969 v 75.777 h -28.29 v 10.161 h 68.13 v -10.161 h -28.44 v -75.777 z m 40.33,-23.91 v 7.66 h 70 v -7.66 z m 74.39,65.777 c 0,14.274 3.8,25.422 11.41,33.442 7.71,8.129 17.6,12.191 29.69,12.191 8.02,0 15.2,-1.93 21.56,-5.781 6.35,-3.75 11.2,-9.012 14.53,-15.781 3.33,-6.77 5,-14.481 5,-23.129 0,-8.641 -1.77,-16.399 -5.31,-23.282 -3.54,-6.867 -8.54,-12.078 -15,-15.617 -6.36,-3.551 -13.28,-5.32 -20.78,-5.32 -8.13,0 -15.37,1.93 -21.72,5.777 -6.36,3.961 -11.2,9.274 -14.53,15.942 -3.23,6.769 -4.85,13.961 -4.85,21.558 z m 11.72,-0.148 c 0,-10.418 2.76,-18.602 8.28,-24.531 5.63,-5.938 12.66,-8.911 21.1,-8.911 8.54,0 15.57,2.973 21.09,8.911 5.52,6.043 8.28,14.632 8.28,25.781 0,6.98 -1.2,13.07 -3.59,18.281 -2.29,5.207 -5.73,9.219 -10.32,12.027 -4.58,2.922 -9.68,4.383 -15.31,4.383 -8.02,0 -14.95,-2.769 -20.78,-8.293 -5.83,-5.519 -8.75,-14.738 -8.75,-27.648 z m 85.68,-41.719 v 85.938 h 57.97 v -10.161 h -46.56 V 444.34 h 40.31 v -10.16 h -40.31 v -39.059 h -11.41"
         style="fill:#000000;fill-opacity:1;fill-rule:nonzero;stroke:none"
         id="path124" /><path
         d="M 3599.37,1262.02 H 2260.22"
         style="fill:none;stroke:#000000;stroke-width:10;stroke-linecap:butt;stroke-linejoin:miter;stroke-miterlimit:1.45;stroke-dasharray:none;stroke-opacity:1"
         id="path126" /><path
         d="m 2180.22,1262.02 120,-50 -30,50 30,50 z"
         style="fill:#000000;fill-opacity:1;fill-rule:nonzero;stroke:none"
         id="path128" /><path
         d="M 2342.96,1355.52 H 3436.53 V 1168.51 H 2342.96 v 187.01"
         style="fill:#ffffff;fill-opacity:1;fill-rule:nonzero;stroke:none"
         id="path130" /><path
         d="m 2373.74,1265.03 v 12.03 h 12.03 v -12.03 z m 0,-50.15 v 12.03 h 12.03 v -12.03 z m 33.81,0 v 85.93 h 11.25 v -85.93 z m 27.55,27.65 10.63,0.94 c 0.52,-4.37 1.72,-7.92 3.59,-10.62 1.88,-2.71 4.74,-4.95 8.6,-6.72 3.96,-1.67 8.38,-2.5 13.28,-2.5 4.27,0 8.07,0.62 11.4,1.87 3.34,1.36 5.79,3.13 7.35,5.31 1.67,2.3 2.5,4.74 2.5,7.35 0,2.71 -0.78,5.05 -2.35,7.03 -1.56,2.08 -4.11,3.8 -7.65,5.16 -2.4,0.93 -7.55,2.34 -15.47,4.21 -7.81,1.88 -13.28,3.65 -16.41,5.32 -4.16,2.18 -7.24,4.84 -9.22,7.97 -1.97,3.23 -2.96,6.82 -2.96,10.78 0,4.27 1.19,8.28 3.59,12.03 2.5,3.85 6.09,6.72 10.78,8.59 4.79,1.98 10.05,2.97 15.78,2.97 6.36,0 11.98,-1.04 16.88,-3.12 4.89,-1.98 8.64,-5 11.25,-9.07 2.6,-3.95 4.01,-8.43 4.22,-13.43 l -10.94,-0.79 c -0.63,5.42 -2.66,9.48 -6.1,12.19 -3.33,2.81 -8.28,4.22 -14.84,4.22 -6.87,0 -11.87,-1.25 -15,-3.75 -3.12,-2.5 -4.69,-5.52 -4.69,-9.06 0,-3.13 1.1,-5.68 3.28,-7.66 2.19,-1.98 7.87,-4.01 17.04,-6.09 9.27,-2.08 15.62,-3.91 19.06,-5.47 5,-2.4 8.7,-5.36 11.09,-8.91 2.4,-3.43 3.6,-7.5 3.6,-12.18 0,-4.59 -1.31,-8.91 -3.91,-12.97 -2.6,-3.96 -6.35,-7.09 -11.25,-9.38 -4.9,-2.19 -10.42,-3.28 -16.56,-3.28 -7.82,0 -14.38,1.09 -19.69,3.28 -5.21,2.29 -9.32,5.73 -12.34,10.31 -2.92,4.59 -4.43,9.74 -4.54,15.47 z m 72.7,-51.56 v 7.66 h 70 v -7.66 z m 79.86,23.91 v 85.93 h 11.25 v -85.93 z m 31.31,0 v 85.93 h 11.56 l 45.16,-67.5 v 67.5 h 10.94 v -85.93 h -11.72 l -45.16,67.5 v -67.5 z m 82.91,27.65 10.63,0.94 c 0.52,-4.37 1.72,-7.92 3.59,-10.62 1.88,-2.71 4.74,-4.95 8.59,-6.72 3.96,-1.67 8.39,-2.5 13.29,-2.5 4.27,0 8.07,0.62 11.4,1.87 3.34,1.36 5.78,3.13 7.35,5.31 1.66,2.3 2.5,4.74 2.5,7.35 0,2.71 -0.79,5.05 -2.35,7.03 -1.56,2.08 -4.11,3.8 -7.65,5.16 -2.4,0.93 -7.56,2.34 -15.47,4.21 -7.82,1.88 -13.28,3.65 -16.41,5.32 -4.17,2.18 -7.24,4.84 -9.22,7.97 -1.98,3.23 -2.97,6.82 -2.97,10.78 0,4.27 1.2,8.28 3.6,12.03 2.5,3.85 6.09,6.72 10.78,8.59 4.79,1.98 10.05,2.97 15.78,2.97 6.35,0 11.98,-1.04 16.87,-3.12 4.9,-1.98 8.65,-5 11.25,-9.07 2.61,-3.95 4.01,-8.43 4.22,-13.43 l -10.93,-0.79 c -0.63,5.42 -2.66,9.48 -6.1,12.19 -3.33,2.81 -8.28,4.22 -14.84,4.22 -6.88,0 -11.88,-1.25 -15,-3.75 -3.13,-2.5 -4.69,-5.52 -4.69,-9.06 0,-3.13 1.09,-5.68 3.28,-7.66 2.19,-1.98 7.87,-4.01 17.03,-6.09 9.27,-2.08 15.63,-3.91 19.07,-5.47 5,-2.4 8.69,-5.36 11.09,-8.91 2.4,-3.43 3.59,-7.5 3.59,-12.18 0,-4.59 -1.3,-8.91 -3.9,-12.97 -2.61,-3.96 -6.36,-7.09 -11.25,-9.38 -4.9,-2.19 -10.42,-3.28 -16.57,-3.28 -7.81,0 -14.37,1.09 -19.68,3.28 -5.21,2.29 -9.33,5.73 -12.35,10.31 -2.91,4.59 -4.42,9.74 -4.53,15.47 z m 105.67,-27.65 v 75.78 h -28.29 v 10.15 h 68.13 v -10.15 h -28.44 v -75.78 z m 42.05,0 32.97,85.93 h 12.18 l 35.16,-85.93 h -12.81 l -10.16,26.09 h -35.78 l -9.53,-26.09 z m 24.84,35.31 h 29.06 l -8.9,23.75 c -2.82,7.19 -4.85,13.12 -6.1,17.81 -1.14,-5.52 -2.71,-10.99 -4.68,-16.4 z m 64.57,-35.31 v 85.93 h 11.56 l 45.16,-67.5 v 67.5 h 10.94 v -85.93 h -11.72 l -45.16,67.5 v -67.5 z m 148.07,30.15 11.25,-2.97 c -2.4,-9.27 -6.67,-16.35 -12.82,-21.25 -6.14,-4.89 -13.69,-7.34 -22.65,-7.34 -9.27,0 -16.82,1.88 -22.66,5.63 -5.83,3.75 -10.26,9.16 -13.28,16.25 -3.02,7.18 -4.53,14.89 -4.53,23.12 0,8.96 1.72,16.77 5.16,23.44 3.43,6.67 8.28,11.72 14.53,15.15 6.35,3.44 13.33,5.16 20.93,5.16 8.55,0 15.73,-2.19 21.57,-6.56 5.93,-4.38 10.05,-10.52 12.34,-18.44 l -11.25,-2.66 c -1.98,6.25 -4.89,10.79 -8.75,13.6 -3.75,2.92 -8.49,4.37 -14.22,4.37 -6.56,0 -12.08,-1.61 -16.56,-4.84 -4.38,-3.13 -7.5,-7.34 -9.38,-12.66 -1.77,-5.31 -2.65,-10.83 -2.65,-16.56 0,-7.29 1.04,-13.64 3.12,-19.06 2.19,-5.42 5.52,-9.48 10,-12.19 4.48,-2.71 9.38,-4.06 14.69,-4.06 6.36,0 11.72,1.82 16.09,5.47 4.48,3.64 7.5,9.11 9.07,16.4 z m 25.56,-30.15 v 85.93 h 62.03 v -10.15 h -50.62 v -26.25 h 47.5 v -10.16 h -47.5 v -29.22 h 52.66 v -10.15 z m 68.64,-23.91 v 7.66 h 70 v -7.66 z m 74.39,65.78 c 0,14.27 3.8,25.42 11.41,33.44 7.71,8.12 17.6,12.19 29.68,12.19 8.03,0 15.21,-1.93 21.57,-5.78 6.35,-3.75 11.2,-9.01 14.53,-15.79 3.33,-6.77 5,-14.47 5,-23.12 0,-8.65 -1.77,-16.41 -5.31,-23.28 -3.55,-6.88 -8.55,-12.08 -15,-15.63 -6.36,-3.54 -13.29,-5.31 -20.79,-5.31 -8.12,0 -15.36,1.93 -21.71,5.78 -6.36,3.96 -11.2,9.27 -14.54,15.94 -3.22,6.77 -4.84,13.96 -4.84,21.56 z m 11.72,-0.15 c 0,-10.42 2.76,-18.6 8.28,-24.54 5.63,-5.93 12.66,-8.9 21.09,-8.9 8.55,0 15.58,2.97 21.1,8.9 5.52,6.05 8.28,14.64 8.28,25.79 0,6.98 -1.2,13.07 -3.59,18.28 -2.3,5.21 -5.73,9.22 -10.32,12.03 -4.58,2.92 -9.68,4.37 -15.31,4.37 -8.02,0 -14.95,-2.76 -20.78,-8.28 -5.83,-5.52 -8.75,-14.74 -8.75,-27.65 z m 85.68,-41.72 v 85.93 h 57.97 v -10.15 h -46.56 v -26.56 h 40.31 v -10.16 h -40.31 v -39.06 h -11.41"
         style="fill:#000000;fill-opacity:1;fill-rule:nonzero;stroke:none"
         id="path132" /><path
         d="M 4234.49,1582.03 V 2665.31"
         style="fill:none;stroke:#000000;stroke-width:10;stroke-linecap:butt;stroke-linejoin:miter;stroke-miterlimit:1.45;stroke-dasharray:none;stroke-opacity:1"
         id="path134" /><path
         d="m 4234.49,2745.31 -50,-120 50,30 50,-30 z"
         style="fill:#000000;fill-opacity:1;fill-rule:nonzero;stroke:none"
         id="path136" /><path
         d="m 3831.05,2257.01 h 806.87 V 2070 h -806.87 v 187.01"
         style="fill:#ffffff;fill-opacity:1;fill-rule:nonzero;stroke:none"
         id="path138" /><path
         d="m 3861.83,2166.53 v 12.03 h 12.03 v -12.03 z m 0,-50.16 v 12.03 h 12.03 v -12.03 z m 33.81,0 v 85.94 h 11.25 v -85.94 z m 27.56,27.66 10.62,0.93 c 0.52,-4.37 1.72,-7.91 3.6,-10.62 1.87,-2.71 4.74,-4.95 8.59,-6.72 3.96,-1.67 8.39,-2.5 13.28,-2.5 4.27,0 8.07,0.62 11.41,1.87 3.33,1.36 5.78,3.13 7.34,5.32 1.67,2.29 2.5,4.74 2.5,7.34 0,2.71 -0.78,5.05 -2.34,7.03 -1.56,2.09 -4.12,3.8 -7.66,5.16 -2.39,0.94 -7.55,2.34 -15.47,4.22 -7.81,1.87 -13.28,3.64 -16.4,5.31 -4.17,2.19 -7.24,4.84 -9.22,7.97 -1.98,3.23 -2.97,6.82 -2.97,10.78 0,4.27 1.2,8.28 3.59,12.03 2.5,3.85 6.1,6.72 10.78,8.59 4.8,1.98 10.06,2.97 15.79,2.97 6.35,0 11.97,-1.04 16.87,-3.12 4.9,-1.98 8.65,-5 11.25,-9.06 2.6,-3.96 4.01,-8.44 4.22,-13.44 l -10.94,-0.78 c -0.62,5.41 -2.65,9.48 -6.09,12.18 -3.34,2.82 -8.28,4.22 -14.85,4.22 -6.87,0 -11.87,-1.25 -15,-3.75 -3.12,-2.5 -4.68,-5.52 -4.68,-9.06 0,-3.12 1.09,-5.68 3.28,-7.66 2.19,-1.97 7.86,-4.01 17.03,-6.09 9.27,-2.08 15.62,-3.91 19.06,-5.47 5,-2.39 8.7,-5.36 11.1,-8.9 2.39,-3.44 3.59,-7.5 3.59,-12.19 0,-4.59 -1.3,-8.91 -3.91,-12.97 -2.6,-3.96 -6.35,-7.08 -11.25,-9.38 -4.89,-2.18 -10.41,-3.28 -16.56,-3.28 -7.81,0 -14.37,1.1 -19.69,3.28 -5.21,2.3 -9.32,5.73 -12.34,10.32 -2.92,4.58 -4.43,9.74 -4.53,15.47 z m 72.69,-51.57 v 7.66 h 70 v -7.66 z m 77.83,23.91 v 85.94 h 32.5 c 5.63,0 9.95,-0.26 12.97,-0.78 4.27,-0.73 7.82,-2.09 10.63,-4.07 2.92,-1.98 5.21,-4.74 6.87,-8.28 1.77,-3.54 2.66,-7.45 2.66,-11.72 0,-7.29 -2.34,-13.49 -7.03,-18.59 -4.58,-5 -12.97,-7.5 -25.16,-7.5 h -22.03 v -35 z m 11.41,45 h 22.19 c 7.39,0 12.6,1.35 15.62,4.06 3.13,2.81 4.69,6.72 4.69,11.72 0,3.54 -0.94,6.56 -2.81,9.06 -1.77,2.61 -4.12,4.33 -7.03,5.16 -1.98,0.52 -5.52,0.78 -10.63,0.78 h -22.03 z m 59.26,-45 32.97,85.94 h 12.19 l 35.15,-85.94 h -12.81 l -10.16,26.09 h -35.78 l -9.53,-26.09 z m 24.84,35.31 h 29.07 l -8.91,23.75 c -2.81,7.19 -4.84,13.13 -6.09,17.81 -1.15,-5.52 -2.71,-10.99 -4.69,-16.4 z m 64.73,-35.31 v 85.94 h 38.12 c 7.71,0 13.55,-0.78 17.5,-2.35 3.96,-1.56 7.14,-4.32 9.54,-8.28 2.39,-3.85 3.59,-8.12 3.59,-12.81 0,-6.15 -1.98,-11.3 -5.94,-15.47 -3.96,-4.17 -10.05,-6.82 -18.28,-7.97 3.02,-1.46 5.31,-2.86 6.88,-4.22 3.33,-3.02 6.45,-6.82 9.37,-11.4 l 15,-23.44 h -14.37 l -11.25,17.81 c -3.34,5.21 -6.1,9.17 -8.29,11.88 -2.08,2.71 -4.01,4.58 -5.78,5.62 -1.66,1.15 -3.38,1.98 -5.15,2.5 -1.25,0.21 -3.34,0.31 -6.25,0.31 h -13.28 v -38.12 z m 11.41,47.97 h 24.53 c 5.1,0 9.11,0.52 12.03,1.56 3.02,1.15 5.26,2.87 6.72,5.16 1.56,2.39 2.34,5 2.34,7.81 0,4.06 -1.51,7.4 -4.53,10 -2.92,2.6 -7.55,3.91 -13.91,3.91 h -27.18 z m 96.97,-47.97 v 75.78 h -28.28 v 10.16 h 68.12 v -10.16 h -28.44 v -75.78 z m 40.33,-23.91 v 7.66 h 70 v -7.66 z m 74.39,65.78 c 0,14.28 3.81,25.42 11.41,33.44 7.71,8.13 17.61,12.19 29.69,12.19 8.02,0 15.21,-1.93 21.56,-5.78 6.36,-3.75 11.2,-9.01 14.53,-15.78 3.34,-6.77 5,-14.48 5,-23.13 0,-8.64 -1.77,-16.4 -5.31,-23.28 -3.54,-6.87 -8.54,-12.08 -15,-15.62 -6.35,-3.55 -13.28,-5.32 -20.78,-5.32 -8.13,0 -15.37,1.93 -21.72,5.78 -6.35,3.96 -11.2,9.28 -14.53,15.94 -3.23,6.77 -4.85,13.96 -4.85,21.56 z m 11.72,-0.15 c 0,-10.42 2.76,-18.6 8.28,-24.53 5.63,-5.94 12.66,-8.91 21.1,-8.91 8.54,0 15.57,2.97 21.09,8.91 5.52,6.04 8.28,14.63 8.28,25.78 0,6.98 -1.19,13.07 -3.59,18.28 -2.29,5.21 -5.73,9.22 -10.31,12.03 -4.59,2.92 -9.69,4.38 -15.32,4.38 -8.02,0 -14.94,-2.76 -20.78,-8.29 -5.83,-5.52 -8.75,-14.74 -8.75,-27.65 z m 85.69,-41.72 v 85.94 h 57.97 v -10.16 h -46.57 v -26.56 h 40.32 v -10.16 h -40.32 v -39.06 h -11.4"
         style="fill:#000000;fill-opacity:1;fill-rule:nonzero;stroke:none"
         id="path140" /><path
         d="M 4949.73,1262.02 H 5698"
         style="fill:none;stroke:#000000;stroke-width:10;stroke-linecap:butt;stroke-linejoin:miter;stroke-miterlimit:1.45;stroke-dasharray:none;stroke-opacity:1"
         id="path142" /><path
         d="m 4869.73,1262.02 120,-50 -30,50 30,50 z"
         style="fill:#000000;fill-opacity:1;fill-rule:nonzero;stroke:none"
         id="path144" /><path
         d="m 5778,1262.02 -120,50 30,-50 -30,-50 z"
         style="fill:#000000;fill-opacity:1;fill-rule:nonzero;stroke:none"
         id="path146" /><path
         d="m 5073.62,1355.52 h 500.02 v -187.01 h -500.02 v 187.01"
         style="fill:#ffffff;fill-opacity:1;fill-rule:nonzero;stroke:none"
         id="path148" /><path
         d="m 5104.4,1265.03 v 12.03 h 12.03 v -12.03 z m 0,-50.15 v 12.03 h 12.03 v -12.03 z m 32.4,0 v 85.93 h 57.97 v -10.15 h -46.56 v -26.56 h 40.31 v -10.16 h -40.31 v -39.06 z m 72.21,0 v 85.93 h 11.41 v -75.78 h 42.34 v -10.15 z m 63.77,41.87 c 0,14.27 3.8,25.42 11.41,33.44 7.71,8.12 17.6,12.19 29.69,12.19 8.02,0 15.2,-1.93 21.56,-5.78 6.35,-3.75 11.2,-9.01 14.53,-15.79 3.33,-6.77 5,-14.47 5,-23.12 0,-8.65 -1.77,-16.41 -5.31,-23.28 -3.55,-6.88 -8.55,-12.08 -15,-15.63 -6.36,-3.54 -13.28,-5.31 -20.78,-5.31 -8.13,0 -15.37,1.93 -21.72,5.78 -6.36,3.96 -11.2,9.27 -14.53,15.94 -3.23,6.77 -4.85,13.96 -4.85,21.56 z m 11.72,-0.15 c 0,-10.42 2.76,-18.6 8.28,-24.54 5.63,-5.93 12.66,-8.9 21.1,-8.9 8.54,0 15.57,2.97 21.09,8.9 5.52,6.05 8.28,14.64 8.28,25.79 0,6.98 -1.2,13.07 -3.59,18.28 -2.3,5.21 -5.73,9.22 -10.32,12.03 -4.58,2.92 -9.68,4.37 -15.31,4.37 -8.02,0 -14.95,-2.76 -20.78,-8.28 -5.83,-5.52 -8.75,-14.74 -8.75,-27.65 z m 100.06,-41.72 -22.81,85.93 h 11.71 l 13.13,-56.4 c 1.35,-5.83 2.55,-11.67 3.59,-17.5 2.19,9.17 3.49,14.48 3.91,15.94 l 16.25,57.96 h 13.75 l 12.34,-43.43 c 3.02,-10.84 5.26,-20.99 6.72,-30.47 1.04,5.42 2.45,11.67 4.22,18.75 l 13.44,55.15 h 11.4 l -23.43,-85.93 h -11.1 l -17.97,65.47 c -1.56,5.41 -2.5,8.75 -2.81,10 -0.83,-3.86 -1.66,-7.19 -2.5,-10 l -18.12,-65.47 z m 94.51,27.65 10.63,0.94 c 0.52,-4.37 1.71,-7.92 3.59,-10.62 1.87,-2.71 4.74,-4.95 8.59,-6.72 3.96,-1.67 8.39,-2.5 13.28,-2.5 4.28,0 8.08,0.62 11.41,1.87 3.33,1.36 5.78,3.13 7.34,5.31 1.67,2.3 2.5,4.74 2.5,7.35 0,2.71 -0.78,5.05 -2.34,7.03 -1.56,2.08 -4.11,3.8 -7.66,5.16 -2.39,0.93 -7.55,2.34 -15.46,4.21 -7.82,1.88 -13.29,3.65 -16.41,5.32 -4.17,2.18 -7.24,4.84 -9.22,7.97 -1.98,3.23 -2.97,6.82 -2.97,10.78 0,4.27 1.2,8.28 3.6,12.03 2.5,3.85 6.09,6.72 10.78,8.59 4.79,1.98 10.05,2.97 15.78,2.97 6.35,0 11.98,-1.04 16.87,-3.12 4.9,-1.98 8.65,-5 11.25,-9.07 2.61,-3.95 4.01,-8.43 4.22,-13.43 l -10.94,-0.79 c -0.62,5.42 -2.65,9.48 -6.09,12.19 -3.33,2.81 -8.28,4.22 -14.84,4.22 -6.88,0 -11.88,-1.25 -15,-3.75 -3.13,-2.5 -4.69,-5.52 -4.69,-9.06 0,-3.13 1.09,-5.68 3.28,-7.66 2.19,-1.98 7.87,-4.01 17.03,-6.09 9.27,-2.08 15.63,-3.91 19.06,-5.47 5,-2.4 8.7,-5.36 11.1,-8.91 2.39,-3.43 3.59,-7.5 3.59,-12.18 0,-4.59 -1.3,-8.91 -3.9,-12.97 -2.61,-3.96 -6.36,-7.09 -11.25,-9.38 -4.9,-2.19 -10.42,-3.28 -16.57,-3.28 -7.81,0 -14.37,1.09 -19.68,3.28 -5.21,2.29 -9.33,5.73 -12.35,10.31 -2.91,4.59 -4.43,9.74 -4.53,15.47"
         style="fill:#000000;fill-opacity:1;fill-rule:nonzero;stroke:none"
         id="path150" /><path
         d="M 6412.78,2744.99 V 1661.71"
         style="fill:none;stroke:#000000;stroke-width:10;stroke-linecap:butt;stroke-linejoin:miter;stroke-miterlimit:1.45;stroke-dasharray:none;stroke-opacity:1"
         id="path152" /><path
         d="m 6412.78,1581.71 50,120 -50,-30 -50,30 z"
         style="fill:#000000;fill-opacity:1;fill-rule:nonzero;stroke:none"
         id="path154" /><path
         d="m 6069.4,2257.01 h 686.75 V 2070 H 6069.4 v 187.01"
         style="fill:#ffffff;fill-opacity:1;fill-rule:nonzero;stroke:none"
         id="path156" /><path
         d="m 6100.18,2166.53 v 12.03 h 12.03 v -12.03 z m 0,-50.16 v 12.03 h 12.03 v -12.03 z m 32.4,0 v 85.94 h 57.97 v -10.16 h -46.56 v -26.56 h 40.31 v -10.16 h -40.31 v -39.06 z m 72.21,0 v 85.94 h 11.4 v -75.78 h 42.35 v -10.16 z m 63.77,41.87 c 0,14.28 3.8,25.42 11.4,33.44 7.71,8.13 17.61,12.19 29.69,12.19 8.02,0 15.21,-1.93 21.56,-5.78 6.36,-3.75 11.2,-9.01 14.53,-15.78 3.34,-6.77 5,-14.48 5,-23.13 0,-8.64 -1.77,-16.4 -5.31,-23.28 -3.54,-6.87 -8.54,-12.08 -15,-15.62 -6.35,-3.55 -13.28,-5.32 -20.78,-5.32 -8.12,0 -15.36,1.93 -21.72,5.78 -6.35,3.96 -11.2,9.28 -14.53,15.94 -3.23,6.77 -4.84,13.96 -4.84,21.56 z m 11.72,-0.15 c 0,-10.42 2.76,-18.6 8.28,-24.53 5.62,-5.94 12.65,-8.91 21.09,-8.91 8.54,0 15.57,2.97 21.09,8.91 5.52,6.04 8.29,14.63 8.29,25.78 0,6.98 -1.2,13.07 -3.6,18.28 -2.29,5.21 -5.73,9.22 -10.31,12.03 -4.58,2.92 -9.69,4.38 -15.31,4.38 -8.02,0 -14.95,-2.76 -20.78,-8.29 -5.84,-5.52 -8.75,-14.74 -8.75,-27.65 z m 100.05,-41.72 -22.81,85.94 h 11.72 l 13.13,-56.41 c 1.35,-5.83 2.55,-11.67 3.59,-17.5 2.19,9.17 3.49,14.48 3.91,15.94 l 16.25,57.97 h 13.75 l 12.34,-43.44 c 3.02,-10.83 5.26,-20.99 6.72,-30.47 1.04,5.42 2.45,11.67 4.22,18.75 l 13.43,55.16 h 11.41 l -23.44,-85.94 h -11.09 l -17.97,65.47 c -1.56,5.41 -2.5,8.75 -2.81,10 -0.84,-3.86 -1.67,-7.19 -2.5,-10 l -18.13,-65.47 z m 94.52,27.66 10.62,0.93 c 0.52,-4.37 1.72,-7.91 3.59,-10.62 1.88,-2.71 4.74,-4.95 8.6,-6.72 3.96,-1.67 8.38,-2.5 13.28,-2.5 4.27,0 8.07,0.62 11.41,1.87 3.33,1.36 5.78,3.13 7.34,5.32 1.67,2.29 2.5,4.74 2.5,7.34 0,2.71 -0.78,5.05 -2.34,7.03 -1.57,2.09 -4.12,3.8 -7.66,5.16 -2.4,0.94 -7.55,2.34 -15.47,4.22 -7.81,1.87 -13.28,3.64 -16.41,5.31 -4.16,2.19 -7.24,4.84 -9.21,7.97 -1.98,3.23 -2.97,6.82 -2.97,10.78 0,4.27 1.19,8.28 3.59,12.03 2.5,3.85 6.09,6.72 10.78,8.59 4.79,1.98 10.05,2.97 15.78,2.97 6.36,0 11.98,-1.04 16.88,-3.12 4.89,-1.98 8.64,-5 11.25,-9.06 2.6,-3.96 4.01,-8.44 4.22,-13.44 l -10.94,-0.78 c -0.63,5.41 -2.66,9.48 -6.09,12.18 -3.34,2.82 -8.29,4.22 -14.85,4.22 -6.87,0 -11.87,-1.25 -15,-3.75 -3.12,-2.5 -4.69,-5.52 -4.69,-9.06 0,-3.12 1.1,-5.68 3.29,-7.66 2.18,-1.97 7.86,-4.01 17.03,-6.09 9.27,-2.08 15.62,-3.91 19.06,-5.47 5,-2.39 8.7,-5.36 11.09,-8.9 2.4,-3.44 3.6,-7.5 3.6,-12.19 0,-4.59 -1.31,-8.91 -3.91,-12.97 -2.6,-3.96 -6.35,-7.08 -11.25,-9.38 -4.9,-2.18 -10.42,-3.28 -16.56,-3.28 -7.81,0 -14.38,1.1 -19.69,3.28 -5.21,2.3 -9.32,5.73 -12.34,10.32 -2.92,4.58 -4.43,9.74 -4.53,15.47 z m 72.69,-51.57 v 7.66 h 70 v -7.66 z m 79.86,23.91 v 85.94 h 11.25 v -85.94 z m 31.31,0 v 85.94 h 11.57 l 45.15,-67.5 v 67.5 h 10.94 v -85.94 h -11.72 l -45.16,67.5 v -67.5 h -10.78"
         style="fill:#000000;fill-opacity:1;fill-rule:nonzero;stroke:none"
         id="path158" /></g></g></svg>
