<?xml version="1.0" encoding="UTF-8" standalone="no"?>
<!-- Created with Inkscape (http://www.inkscape.org/) -->

<svg
   version="1.1"
   id="svg2"
   xml:space="preserve"
   width="577.33331"
   height="322.66666"
   viewBox="0 0 577.33331 322.66666"
   sodipodi:docname="info_general_graph_schema.svg"
   inkscape:version="1.1.2 (b8e25be833, 2022-02-05)"
   xmlns:inkscape="http://www.inkscape.org/namespaces/inkscape"
   xmlns:sodipodi="http://sodipodi.sourceforge.net/DTD/sodipodi-0.dtd"
   xmlns="http://www.w3.org/2000/svg"
   xmlns:svg="http://www.w3.org/2000/svg"><defs
     id="defs6" /><sodipodi:namedview
     id="namedview4"
     pagecolor="#ffffff"
     bordercolor="#666666"
     borderopacity="1.0"
     inkscape:pageshadow="2"
     inkscape:pageopacity="0.0"
     inkscape:pagecheckerboard="0"
     showgrid="false"
     inkscape:zoom="2.0560047"
     inkscape:cx="288.66666"
     inkscape:cy="161.47823"
     inkscape:window-width="1920"
     inkscape:window-height="1017"
     inkscape:window-x="-1928"
     inkscape:window-y="-8"
     inkscape:window-maximized="1"
     inkscape:current-layer="g8" /><g
     id="g8"
     inkscape:groupmode="layer"
     inkscape:label="ink_ext_XXXXXX"
     transform="matrix(1.3333333,0,0,-1.3333333,0,322.66667)"><g
       id="g10"
       transform="scale(0.1)"><path
         d="M 0,2420 H 4330 V 0 H 0 v 2420"
         style="fill:#ffffff;fill-opacity:1;fill-rule:nonzero;stroke:none"
         id="path12" /><path
         d="M 0,2420 H 4330 V 0 H 0 v 2420"
         style="fill:#ffffff;fill-opacity:1;fill-rule:nonzero;stroke:none"
         id="path14" /><path
         d="M 0,2420 H 4330 V 0 H 0 v 2420"
         style="fill:#ffffff;fill-opacity:1;fill-rule:nonzero;stroke:none"
         id="path16" /><path
         d="M 34.3008,2342.64 V 1149.56 c 0,-22.09 17.9101,-40 40,-40 H 1414.3 c 22.1,0 40,17.91 40,40 v 1193.08 c 0,22.09 -17.9,40 -40,40 H 74.3008 c -22.0899,0 -40,-17.91 -40,-40"
         style="fill:#ffffff;fill-opacity:1;fill-rule:nonzero;stroke:none"
         id="path18" /><path
         d="M 34.3008,2342.64 V 1149.56 c 0,-22.09 17.9101,-40 40,-40 H 1414.3 c 22.1,0 40,17.91 40,40 v 1193.08 c 0,22.09 -17.9,40 -40,40 H 74.3008 c -22.0899,0 -40,-17.91 -40,-40 z"
         style="fill:none;stroke:#000000;stroke-width:10;stroke-linecap:butt;stroke-linejoin:miter;stroke-miterlimit:1.45;stroke-dasharray:none;stroke-opacity:1"
         id="path20" /><path
         d="m 595.102,1749.11 v 12.04 h 12.027 v -12.04 z m 0,-50.15 v 12.03 h 12.027 v -12.03 z m 33.796,0 v 85.94 h 11.25 v -85.94 z m 31.313,0 v 85.94 h 11.57 l 45.149,-67.5 v 67.5 h 10.941 v -85.94 h -11.723 l -45.16,67.5 v -67.5 z m 87.289,0 v 85.94 h 57.969 v -10.16 h -46.571 v -26.56 h 40.321 v -10.16 h -40.321 v -39.06 z m 69.242,41.87 c 0,14.27 3.797,25.42 11.399,33.44 7.711,8.13 17.609,12.19 29.687,12.19 8.024,0 15.211,-1.93 21.563,-5.78 6.359,-3.75 11.199,-9.01 14.531,-15.78 3.34,-6.77 5,-14.48 5,-23.13 0,-8.64 -1.774,-16.41 -5.313,-23.28 -3.539,-6.88 -8.539,-12.08 -15,-15.63 -6.347,-3.54 -13.281,-5.31 -20.781,-5.31 -8.117,0 -15.359,1.93 -21.719,5.78 -6.347,3.96 -11.199,9.27 -14.531,15.94 -3.226,6.77 -4.836,13.96 -4.836,21.56 z m 11.719,-0.15 c 0,-10.42 2.758,-18.6 8.281,-24.53 5.617,-5.94 12.649,-8.91 21.086,-8.91 8.543,0 15.57,2.97 21.094,8.91 5.519,6.04 8.289,14.63 8.289,25.78 0,6.98 -1.199,13.07 -3.602,18.28 -2.289,5.21 -5.73,9.22 -10.308,12.03 -4.582,2.92 -9.692,4.37 -15.309,4.37 -8.023,0 -14.953,-2.76 -20.781,-8.28 -5.84,-5.52 -8.75,-14.74 -8.75,-27.65"
         style="fill:#000000;fill-opacity:1;fill-rule:nonzero;stroke:none"
         id="path22" /><path
         d="M 2874.3,2342.64 V 1149.56 c 0,-22.09 17.91,-40 40,-40 h 1340 c 22.1,0 40,17.91 40,40 v 1193.08 c 0,22.09 -17.9,40 -40,40 h -1340 c -22.09,0 -40,-17.91 -40,-40"
         style="fill:#ffffff;fill-opacity:1;fill-rule:nonzero;stroke:none"
         id="path24" /><path
         d="M 2874.3,2342.64 V 1149.56 c 0,-22.09 17.91,-40 40,-40 h 1340 c 22.1,0 40,17.91 40,40 v 1193.08 c 0,22.09 -17.9,40 -40,40 h -1340 c -22.09,0 -40,-17.91 -40,-40 z"
         style="fill:none;stroke:#000000;stroke-width:10;stroke-linecap:butt;stroke-linejoin:miter;stroke-miterlimit:1.45;stroke-dasharray:none;stroke-opacity:1"
         id="path26" /><path
         d="m 3435.1,1749.11 v 12.04 h 12.03 v -12.04 z m 0,-50.15 v 12.03 h 12.03 v -12.03 z m 33.8,0 v 85.94 h 11.25 v -85.94 z m 31.31,0 v 85.94 h 11.57 l 45.15,-67.5 v 67.5 h 10.94 v -85.94 h -11.72 l -45.16,67.5 v -67.5 z m 87.29,0 v 85.94 h 57.97 v -10.16 h -46.57 v -26.56 h 40.32 v -10.16 h -40.32 v -39.06 z m 69.24,41.87 c 0,14.27 3.8,25.42 11.4,33.44 7.71,8.13 17.61,12.19 29.69,12.19 8.02,0 15.21,-1.93 21.56,-5.78 6.36,-3.75 11.2,-9.01 14.53,-15.78 3.34,-6.77 5,-14.48 5,-23.13 0,-8.64 -1.77,-16.41 -5.31,-23.28 -3.54,-6.88 -8.54,-12.08 -15,-15.63 -6.35,-3.54 -13.28,-5.31 -20.78,-5.31 -8.12,0 -15.36,1.93 -21.72,5.78 -6.35,3.96 -11.2,9.27 -14.53,15.94 -3.23,6.77 -4.84,13.96 -4.84,21.56 z m 11.72,-0.15 c 0,-10.42 2.76,-18.6 8.28,-24.53 5.62,-5.94 12.65,-8.91 21.09,-8.91 8.54,0 15.57,2.97 21.09,8.91 5.52,6.04 8.29,14.63 8.29,25.78 0,6.98 -1.2,13.07 -3.6,18.28 -2.29,5.21 -5.73,9.22 -10.31,12.03 -4.58,2.92 -9.69,4.37 -15.31,4.37 -8.02,0 -14.95,-2.76 -20.78,-8.28 -5.84,-5.52 -8.75,-14.74 -8.75,-27.65"
         style="fill:#000000;fill-opacity:1;fill-rule:nonzero;stroke:none"
         id="path28" /><path
         d="M 34.3008,426.48 V 73.4023 c 0,-22.0937 17.9101,-40 40,-40 H 1414.3 c 22.1,0 40,17.9063 40,40 V 426.48 c 0,22.09 -17.9,40 -40,40 H 74.3008 c -22.0899,0 -40,-17.91 -40,-40"
         style="fill:#ffffff;fill-opacity:1;fill-rule:nonzero;stroke:none"
         id="path30" /><path
         d="M 34.3008,426.48 V 73.4023 c 0,-22.0937 17.9101,-40 40,-40 H 1414.3 c 22.1,0 40,17.9063 40,40 V 426.48 c 0,22.09 -17.9,40 -40,40 H 74.3008 c -22.0899,0 -40,-17.91 -40,-40 z"
         style="fill:none;stroke:#000000;stroke-width:10;stroke-linecap:butt;stroke-linejoin:miter;stroke-miterlimit:1.45;stroke-dasharray:none;stroke-opacity:1"
         id="path32" /><path
         d="m 618.422,252.961 v 12.031 h 12.027 v -12.031 z m 0,-50.16 v 12.027 h 12.027 v -12.027 z m 53.648,0 v 75.777 h -28.281 v 10.164 h 68.121 v -10.164 h -28.441 v -75.777 z m 51.739,0 v 85.941 h 62.031 v -10.164 h -50.629 v -26.25 h 47.5 V 242.18 h -47.5 v -29.219 h 52.66 v -10.16 z m 141.132,30.16 11.25,-2.969 c -2.402,-9.273 -6.671,-16.363 -12.812,-21.25 -6.149,-4.902 -13.699,-7.351 -22.66,-7.351 -9.27,0 -16.821,1.879 -22.66,5.629 -5.829,3.75 -10.258,9.171 -13.278,16.25 -3.019,7.191 -4.531,14.89 -4.531,23.121 0,8.961 1.719,16.769 5.16,23.437 3.442,6.672 8.281,11.723 14.531,15.164 6.348,3.438 13.329,5.149 20.938,5.149 8.543,0 15.73,-2.18 21.562,-6.563 5.938,-4.367 10.047,-10.515 12.34,-18.437 l -11.25,-2.649 c -1.98,6.25 -4.89,10.778 -8.75,13.586 -3.75,2.922 -8.492,4.383 -14.222,4.383 -6.559,0 -12.079,-1.621 -16.559,-4.852 -4.371,-3.117 -7.5,-7.339 -9.371,-12.648 -1.77,-5.32 -2.66,-10.84 -2.66,-16.57 0,-7.289 1.043,-13.641 3.133,-19.063 2.179,-5.418 5.519,-9.476 10,-12.187 4.468,-2.7 9.367,-4.063 14.679,-4.063 6.36,0 11.719,1.82 16.098,5.473 4.48,3.648 7.5,9.109 9.062,16.41"
         style="fill:#000000;fill-opacity:1;fill-rule:nonzero;stroke:none"
         id="path34" /><path
         d="M 1453.96,1746.1 H 2794.1"
         style="fill:none;stroke:#000000;stroke-width:10;stroke-linecap:butt;stroke-linejoin:miter;stroke-miterlimit:1.45;stroke-dasharray:none;stroke-opacity:1"
         id="path36" /><path
         d="m 2874.1,1746.1 -120,50 30,-50 -30,-50 z"
         style="fill:#000000;fill-opacity:1;fill-rule:nonzero;stroke:none"
         id="path38" /><path
         d="m 1810.96,1839.6 h 706.68 v -187.01 h -706.68 v 187.01"
         style="fill:#ffffff;fill-opacity:1;fill-rule:nonzero;stroke:none"
         id="path40" /><path
         d="m 1841.75,1749.11 v 12.04 h 12.03 v -12.04 z m 0,-50.15 v 12.03 h 12.03 v -12.03 z m 31.46,0 v 85.94 h 17.19 l 20.31,-60.79 c 1.88,-5.72 3.23,-10 4.06,-12.81 0.94,3.13 2.45,7.71 4.53,13.75 l 20.63,59.85 h 15.31 v -85.94 h -10.94 v 71.87 l -25,-71.87 h -10.31 l -24.84,73.12 v -73.12 z m 100.59,0 v 85.94 h 62.03 v -10.16 h -50.63 v -26.25 h 47.5 v -10.16 h -47.5 v -29.22 h 52.66 v -10.15 z m 79.72,0 v 85.94 h 11.57 l 45.15,-67.5 v 67.5 h 10.94 v -85.94 h -11.72 l -45.16,67.5 v -67.5 z m 108.54,0 v 75.78 h -28.28 v 10.16 h 68.12 v -10.16 h -28.44 v -75.78 z m 53.46,0 v 85.94 h 11.25 v -85.94 z m 27.87,41.87 c 0,14.27 3.8,25.42 11.4,33.44 7.71,8.13 17.61,12.19 29.69,12.19 8.02,0 15.21,-1.93 21.56,-5.78 6.36,-3.75 11.2,-9.01 14.53,-15.78 3.34,-6.77 5,-14.48 5,-23.13 0,-8.64 -1.77,-16.41 -5.31,-23.28 -3.54,-6.88 -8.54,-12.08 -15,-15.63 -6.35,-3.54 -13.28,-5.31 -20.78,-5.31 -8.12,0 -15.36,1.93 -21.72,5.78 -6.35,3.96 -11.2,9.27 -14.53,15.94 -3.23,6.77 -4.84,13.96 -4.84,21.56 z m 11.72,-0.15 c 0,-10.42 2.76,-18.6 8.28,-24.53 5.62,-5.94 12.65,-8.91 21.09,-8.91 8.54,0 15.57,2.97 21.09,8.91 5.53,6.04 8.29,14.63 8.29,25.78 0,6.98 -1.2,13.07 -3.6,18.28 -2.29,5.21 -5.73,9.22 -10.31,12.03 -4.58,2.92 -9.69,4.37 -15.31,4.37 -8.02,0 -14.95,-2.76 -20.78,-8.28 -5.84,-5.52 -8.75,-14.74 -8.75,-27.65 z m 85.05,-41.72 v 85.94 h 11.57 l 45.15,-67.5 v 67.5 h 10.94 v -85.94 h -11.72 l -45.15,67.5 v -67.5 z m 82.91,27.65 10.63,0.94 c 0.52,-4.37 1.72,-7.91 3.59,-10.62 1.88,-2.71 4.74,-4.95 8.6,-6.72 3.96,-1.67 8.38,-2.5 13.28,-2.5 4.27,0 8.07,0.62 11.4,1.87 3.34,1.36 5.79,3.13 7.35,5.32 1.66,2.29 2.5,4.74 2.5,7.34 0,2.71 -0.78,5.05 -2.35,7.03 -1.56,2.08 -4.11,3.8 -7.65,5.16 -2.4,0.93 -7.55,2.34 -15.47,4.22 -7.81,1.87 -13.28,3.64 -16.41,5.31 -4.16,2.19 -7.24,4.84 -9.22,7.97 -1.97,3.23 -2.96,6.82 -2.96,10.78 0,4.27 1.19,8.28 3.59,12.03 2.5,3.85 6.09,6.72 10.78,8.59 4.79,1.98 10.05,2.97 15.78,2.97 6.36,0 11.98,-1.04 16.88,-3.12 4.89,-1.98 8.64,-5 11.25,-9.07 2.6,-3.95 4.01,-8.43 4.22,-13.43 l -10.94,-0.78 c -0.63,5.41 -2.66,9.48 -6.1,12.18 -3.33,2.82 -8.28,4.22 -14.84,4.22 -6.87,0 -11.87,-1.25 -15,-3.75 -3.12,-2.5 -4.69,-5.52 -4.69,-9.06 0,-3.13 1.1,-5.68 3.28,-7.66 2.19,-1.98 7.87,-4.01 17.04,-6.09 9.27,-2.08 15.62,-3.91 19.06,-5.47 5,-2.39 8.7,-5.36 11.09,-8.91 2.4,-3.43 3.6,-7.5 3.6,-12.18 0,-4.59 -1.31,-8.91 -3.91,-12.97 -2.6,-3.96 -6.35,-7.08 -11.25,-9.38 -4.9,-2.18 -10.42,-3.28 -16.56,-3.28 -7.82,0 -14.38,1.1 -19.69,3.28 -5.21,2.3 -9.32,5.73 -12.34,10.32 -2.92,4.58 -4.43,9.74 -4.54,15.46"
         style="fill:#000000;fill-opacity:1;fill-rule:nonzero;stroke:none"
         id="path42" /><path
         d="m 1454.61,2099.57 h 1339.6"
         style="fill:none;stroke:#000000;stroke-width:10;stroke-linecap:butt;stroke-linejoin:miter;stroke-miterlimit:1.45;stroke-dasharray:none;stroke-opacity:1"
         id="path44" /><path
         d="m 2874.21,2099.57 -120,50 30,-50 -30,-50 z"
         style="fill:#000000;fill-opacity:1;fill-rule:nonzero;stroke:none"
         id="path46" /><path
         d="m 1724.72,2193.08 h 806.87 v -187.02 h -806.87 v 187.02"
         style="fill:#ffffff;fill-opacity:1;fill-rule:nonzero;stroke:none"
         id="path48" /><path
         d="m 1755.5,2102.59 v 12.03 h 12.03 v -12.03 z m 0,-50.16 v 12.03 h 12.03 v -12.03 z m 33.81,0 v 85.94 h 11.25 v -85.94 z m 27.55,27.66 10.63,0.93 c 0.52,-4.37 1.72,-7.91 3.59,-10.62 1.88,-2.71 4.74,-4.95 8.6,-6.72 3.95,-1.67 8.38,-2.5 13.28,-2.5 4.27,0 8.07,0.63 11.4,1.88 3.34,1.35 5.78,3.12 7.35,5.31 1.66,2.29 2.5,4.74 2.5,7.34 0,2.71 -0.78,5.05 -2.35,7.03 -1.56,2.09 -4.11,3.81 -7.65,5.16 -2.4,0.94 -7.55,2.34 -15.47,4.22 -7.81,1.87 -13.28,3.64 -16.41,5.31 -4.16,2.19 -7.24,4.84 -9.22,7.97 -1.98,3.23 -2.97,6.82 -2.97,10.78 0,4.27 1.2,8.28 3.6,12.03 2.5,3.86 6.09,6.72 10.78,8.6 4.79,1.98 10.05,2.96 15.78,2.96 6.36,0 11.98,-1.04 16.88,-3.12 4.89,-1.98 8.64,-5 11.25,-9.06 2.6,-3.96 4.01,-8.44 4.21,-13.44 l -10.93,-0.78 c -0.63,5.42 -2.66,9.48 -6.1,12.19 -3.33,2.81 -8.28,4.21 -14.84,4.21 -6.88,0 -11.88,-1.25 -15,-3.75 -3.13,-2.5 -4.69,-5.52 -4.69,-9.06 0,-3.12 1.1,-5.67 3.28,-7.65 2.19,-1.98 7.87,-4.01 17.03,-6.1 9.28,-2.08 15.63,-3.9 19.07,-5.47 5,-2.39 8.7,-5.36 11.09,-8.9 2.4,-3.44 3.59,-7.5 3.59,-12.19 0,-4.58 -1.3,-8.91 -3.9,-12.97 -2.61,-3.96 -6.36,-7.08 -11.25,-9.37 -4.9,-2.19 -10.42,-3.29 -16.56,-3.29 -7.82,0 -14.38,1.1 -19.69,3.29 -5.21,2.29 -9.32,5.73 -12.35,10.31 -2.91,4.58 -4.42,9.74 -4.53,15.47 z m 72.7,-51.57 v 7.66 h 70 v -7.66 z m 77.83,23.91 v 85.94 h 32.5 c 5.63,0 9.95,-0.26 12.97,-0.78 4.27,-0.73 7.81,-2.09 10.62,-4.07 2.92,-1.97 5.21,-4.73 6.88,-8.28 1.77,-3.54 2.66,-7.44 2.66,-11.72 0,-7.29 -2.35,-13.48 -7.04,-18.59 -4.58,-5 -12.96,-7.5 -25.15,-7.5 h -22.03 v -35 z m 11.41,45 h 22.18 c 7.4,0 12.61,1.36 15.63,4.06 3.12,2.82 4.69,6.72 4.69,11.72 0,3.54 -0.94,6.56 -2.82,9.06 -1.77,2.61 -4.11,4.33 -7.03,5.16 -1.98,0.52 -5.52,0.78 -10.62,0.78 h -22.03 z m 59.26,-45 32.96,85.94 h 12.19 l 35.16,-85.94 h -12.81 l -10.16,26.09 h -35.78 l -9.53,-26.09 z m 24.84,35.31 h 29.06 l -8.9,23.75 c -2.82,7.19 -4.85,13.13 -6.1,17.82 -1.14,-5.52 -2.71,-10.99 -4.69,-16.41 z m 64.73,-35.31 v 85.94 h 38.12 c 7.71,0 13.54,-0.78 17.5,-2.35 3.96,-1.56 7.14,-4.32 9.53,-8.28 2.4,-3.85 3.6,-8.12 3.6,-12.81 0,-6.14 -1.98,-11.3 -5.94,-15.47 -3.96,-4.16 -10.05,-6.82 -18.28,-7.97 3.02,-1.45 5.31,-2.86 6.87,-4.22 3.34,-3.02 6.46,-6.82 9.38,-11.4 l 15,-23.44 h -14.38 l -11.25,17.81 c -3.33,5.21 -6.09,9.17 -8.28,11.88 -2.08,2.71 -4.01,4.58 -5.78,5.62 -1.67,1.15 -3.39,1.98 -5.16,2.5 -1.25,0.21 -3.33,0.32 -6.25,0.32 h -13.28 v -38.13 z m 11.4,47.97 h 24.53 c 5.11,0 9.12,0.52 12.03,1.56 3.03,1.15 5.26,2.87 6.72,5.16 1.57,2.39 2.35,5 2.35,7.81 0,4.06 -1.51,7.4 -4.53,10 -2.92,2.61 -7.56,3.91 -13.91,3.91 h -27.19 z m 96.97,-47.97 v 75.78 h -28.28 v 10.16 h 68.13 v -10.16 h -28.44 v -75.78 z m 40.34,-23.91 v 7.66 h 70 v -7.66 z m 74.39,65.79 c 0,14.27 3.8,25.41 11.41,33.43 7.71,8.13 17.6,12.19 29.68,12.19 8.03,0 15.21,-1.93 21.57,-5.78 6.35,-3.75 11.2,-9.01 14.53,-15.78 3.33,-6.77 5,-14.48 5,-23.13 0,-8.64 -1.77,-16.4 -5.31,-23.28 -3.55,-6.87 -8.55,-12.08 -15,-15.62 -6.36,-3.54 -13.29,-5.32 -20.79,-5.32 -8.12,0 -15.36,1.93 -21.71,5.79 -6.36,3.95 -11.2,9.27 -14.54,15.93 -3.22,6.77 -4.84,13.96 -4.84,21.57 z m 11.72,-0.16 c 0,-10.42 2.76,-18.59 8.28,-24.53 5.63,-5.94 12.66,-8.91 21.09,-8.91 8.55,0 15.58,2.97 21.1,8.91 5.52,6.04 8.28,14.63 8.28,25.78 0,6.98 -1.2,13.07 -3.59,18.28 -2.3,5.21 -5.73,9.22 -10.32,12.03 -4.58,2.92 -9.68,4.38 -15.31,4.38 -8.02,0 -14.95,-2.76 -20.78,-8.28 -5.83,-5.52 -8.75,-14.74 -8.75,-27.66 z m 85.68,-41.72 v 85.94 h 57.97 v -10.16 h -46.56 v -26.56 h 40.31 v -10.16 h -40.31 v -39.06 h -11.41"
         style="fill:#000000;fill-opacity:1;fill-rule:nonzero;stroke:none"
         id="path50" /><path
         d="M 1454.59,1395 H 2794.43"
         style="fill:none;stroke:#000000;stroke-width:10;stroke-linecap:butt;stroke-linejoin:miter;stroke-miterlimit:1.45;stroke-dasharray:none;stroke-opacity:1"
         id="path52" /><path
         d="m 2874.43,1395 -120,50 30,-50 -30,-50 z"
         style="fill:#000000;fill-opacity:1;fill-rule:nonzero;stroke:none"
         id="path54" /><path
         d="m 1834.26,1488.51 h 660.09 v -187.02 h -660.09 v 187.02"
         style="fill:#ffffff;fill-opacity:1;fill-rule:nonzero;stroke:none"
         id="path56" /><path
         d="m 1865.04,1398.02 v 12.03 h 12.03 v -12.03 z m 0,-50.16 v 12.03 h 12.03 v -12.03 z m 32.4,0 v 85.94 h 57.97 v -10.16 h -46.56 v -26.56 h 40.31 v -10.16 h -40.31 v -39.06 z m 69.24,41.88 c 0,14.27 3.8,25.41 11.4,33.43 7.71,8.13 17.61,12.19 29.69,12.19 8.02,0 15.21,-1.93 21.56,-5.78 6.36,-3.75 11.2,-9.01 14.54,-15.78 3.33,-6.77 5,-14.48 5,-23.13 0,-8.64 -1.78,-16.4 -5.32,-23.28 -3.54,-6.87 -8.54,-12.08 -15,-15.62 -6.35,-3.54 -13.28,-5.31 -20.78,-5.31 -8.12,0 -15.36,1.92 -21.72,5.78 -6.35,3.95 -11.2,9.27 -14.53,15.93 -3.23,6.77 -4.84,13.96 -4.84,21.57 z m 11.72,-0.16 c 0,-10.42 2.76,-18.59 8.28,-24.53 5.62,-5.94 12.65,-8.91 21.09,-8.91 8.54,0 15.57,2.97 21.1,8.91 5.52,6.04 8.28,14.63 8.28,25.78 0,6.98 -1.2,13.07 -3.6,18.28 -2.29,5.21 -5.73,9.22 -10.31,12.03 -4.58,2.92 -9.69,4.38 -15.31,4.38 -8.02,0 -14.95,-2.76 -20.78,-8.28 -5.84,-5.52 -8.75,-14.74 -8.75,-27.66 z m 84.59,-41.72 v 85.94 h 11.4 v -75.78 h 42.35 v -10.16 z m 66.73,0 v 85.94 h 11.41 v -75.78 h 42.34 v -10.16 z m 63.77,41.88 c 0,14.27 3.81,25.41 11.41,33.43 7.71,8.13 17.6,12.19 29.69,12.19 8.02,0 15.21,-1.93 21.56,-5.78 6.35,-3.75 11.2,-9.01 14.53,-15.78 3.34,-6.77 5,-14.48 5,-23.13 0,-8.64 -1.77,-16.4 -5.31,-23.28 -3.54,-6.87 -8.54,-12.08 -15,-15.62 -6.35,-3.54 -13.28,-5.31 -20.78,-5.31 -8.13,0 -15.37,1.92 -21.72,5.78 -6.35,3.95 -11.2,9.27 -14.53,15.93 -3.23,6.77 -4.85,13.96 -4.85,21.57 z m 11.72,-0.16 c 0,-10.42 2.76,-18.59 8.28,-24.53 5.63,-5.94 12.66,-8.91 21.1,-8.91 8.54,0 15.57,2.97 21.09,8.91 5.52,6.04 8.28,14.63 8.28,25.78 0,6.98 -1.19,13.07 -3.59,18.28 -2.29,5.21 -5.73,9.22 -10.31,12.03 -4.59,2.92 -9.69,4.38 -15.32,4.38 -8.02,0 -14.94,-2.76 -20.78,-8.28 -5.83,-5.52 -8.75,-14.74 -8.75,-27.66 z m 100.06,-41.72 -22.81,85.94 h 11.72 l 13.12,-56.41 c 1.36,-5.83 2.55,-11.66 3.6,-17.5 2.18,9.17 3.49,14.48 3.9,15.94 l 16.25,57.97 h 13.75 l 12.35,-43.44 c 3.02,-10.83 5.26,-20.99 6.72,-30.47 1.04,5.42 2.44,11.67 4.21,18.75 l 13.44,55.16 h 11.41 l -23.44,-85.94 h -11.09 l -17.97,65.47 c -1.56,5.42 -2.5,8.75 -2.81,10 -0.84,-3.85 -1.67,-7.19 -2.5,-10 l -18.13,-65.47 z m 94.51,27.66 10.63,0.94 c 0.52,-4.38 1.72,-7.92 3.59,-10.63 1.88,-2.71 4.74,-4.95 8.6,-6.72 3.95,-1.67 8.38,-2.5 13.28,-2.5 4.27,0 8.07,0.63 11.4,1.88 3.34,1.35 5.78,3.12 7.35,5.31 1.66,2.29 2.5,4.74 2.5,7.34 0,2.71 -0.78,5.05 -2.35,7.03 -1.56,2.09 -4.11,3.81 -7.65,5.16 -2.4,0.94 -7.56,2.34 -15.47,4.22 -7.81,1.87 -13.28,3.64 -16.41,5.31 -4.16,2.19 -7.24,4.85 -9.22,7.97 -1.98,3.23 -2.97,6.82 -2.97,10.78 0,4.27 1.2,8.28 3.6,12.03 2.5,3.86 6.09,6.72 10.78,8.6 4.79,1.98 10.05,2.97 15.78,2.97 6.35,0 11.98,-1.05 16.88,-3.13 4.89,-1.98 8.64,-5 11.25,-9.06 2.6,-3.96 4.01,-8.44 4.21,-13.44 l -10.93,-0.78 c -0.63,5.42 -2.66,9.48 -6.1,12.19 -3.33,2.81 -8.28,4.22 -14.84,4.22 -6.88,0 -11.88,-1.25 -15,-3.75 -3.13,-2.5 -4.69,-5.53 -4.69,-9.07 0,-3.12 1.1,-5.67 3.28,-7.65 2.19,-1.98 7.87,-4.01 17.03,-6.1 9.28,-2.08 15.63,-3.9 19.07,-5.47 5,-2.39 8.69,-5.36 11.09,-8.9 2.4,-3.44 3.59,-7.5 3.59,-12.19 0,-4.58 -1.3,-8.91 -3.9,-12.97 -2.61,-3.96 -6.36,-7.08 -11.25,-9.37 -4.9,-2.19 -10.42,-3.28 -16.56,-3.28 -7.82,0 -14.38,1.09 -19.69,3.28 -5.21,2.29 -9.32,5.73 -12.35,10.31 -2.91,4.58 -4.42,9.74 -4.53,15.47"
         style="fill:#000000;fill-opacity:1;fill-rule:nonzero;stroke:none"
         id="path58" /><path
         d="M 744.301,1109.43 V 546.07"
         style="fill:none;stroke:#000000;stroke-width:10;stroke-linecap:butt;stroke-linejoin:miter;stroke-miterlimit:1.45;stroke-dasharray:none;stroke-opacity:1"
         id="path60" /><path
         d="m 744.301,466.07 50,120 -50,-30 -50,30 z"
         style="fill:#000000;fill-opacity:1;fill-rule:nonzero;stroke:none"
         id="path62" /><path
         d="M 390.961,881.52 H 1097.64 V 694.512 H 390.961 V 881.52"
         style="fill:#ffffff;fill-opacity:1;fill-rule:nonzero;stroke:none"
         id="path64" /><path
         d="m 421.75,791.039 v 12.031 h 12.031 v -12.031 z m 0,-50.16 v 12.031 h 12.031 v -12.031 z m 31.461,0 v 85.941 h 17.187 l 20.313,-60.781 c 1.879,-5.73 3.23,-10 4.059,-12.82 0.941,3.133 2.449,7.711 4.531,13.75 l 20.629,59.851 h 15.308 v -85.941 h -10.937 v 71.871 l -25,-71.871 H 488.988 L 464.148,814 v -73.121 z m 100.59,0 v 85.941 h 62.031 v -10.16 h -50.633 v -26.25 h 47.5 v -10.16 h -47.5 v -29.211 h 52.66 v -10.16 z m 79.719,0 v 85.941 h 11.57 l 45.148,-67.5 v 67.5 h 10.942 v -85.941 h -11.719 l -45.16,67.5 v -67.5 z m 108.539,0 v 75.781 h -28.278 v 10.16 h 68.117 v -10.16 h -28.437 v -75.781 z m 53.461,0 v 85.941 h 11.25 v -85.941 z m 27.871,41.871 c 0,14.281 3.8,25.422 11.398,33.441 7.711,8.129 17.609,12.188 29.691,12.188 8.02,0 15.211,-1.93 21.559,-5.777 6.359,-3.75 11.199,-9.012 14.531,-15.782 3.34,-6.769 5,-14.48 5,-23.129 0,-8.64 -1.769,-16.402 -5.308,-23.281 -3.543,-6.871 -8.543,-12.078 -15,-15.621 -6.352,-3.547 -13.282,-5.32 -20.782,-5.32 -8.121,0 -15.359,1.933 -21.718,5.781 -6.352,3.961 -11.203,9.281 -14.532,15.941 -3.23,6.77 -4.839,13.961 -4.839,21.559 z m 11.718,-0.148 c 0,-10.422 2.762,-18.602 8.282,-24.532 5.621,-5.941 12.648,-8.91 21.089,-8.91 8.54,0 15.571,2.969 21.09,8.91 5.532,6.039 8.289,14.629 8.289,25.782 0,6.98 -1.199,13.07 -3.597,18.277 -2.293,5.211 -5.731,9.223 -10.313,12.031 -4.578,2.922 -9.687,4.379 -15.308,4.379 -8.02,0 -14.95,-2.758 -20.782,-8.289 -5.839,-5.52 -8.75,-14.738 -8.75,-27.648 z m 85.051,-41.723 v 85.941 h 11.57 l 45.149,-67.5 v 67.5 h 10.941 v -85.941 h -11.718 l -45.153,67.5 v -67.5 z m 82.91,27.66 10.63,0.93 c 0.52,-4.367 1.72,-7.91 3.59,-10.617 1.88,-2.711 4.74,-4.95 8.6,-6.723 3.96,-1.668 8.38,-2.5 13.28,-2.5 4.27,0 8.07,0.621 11.4,1.871 3.34,1.359 5.79,3.129 7.35,5.32 1.66,2.289 2.5,4.739 2.5,7.34 0,2.711 -0.78,5.051 -2.35,7.031 -1.56,2.09 -4.11,3.801 -7.65,5.161 -2.4,0.937 -7.55,2.339 -15.47,4.218 -7.81,1.871 -13.28,3.641 -16.41,5.309 -4.16,2.191 -7.24,4.84 -9.22,7.973 -1.97,3.23 -2.96,6.82 -2.96,10.777 0,4.273 1.19,8.281 3.59,12.031 2.5,3.852 6.09,6.719 10.78,8.59 4.79,1.98 10.05,2.969 15.78,2.969 6.36,0 11.98,-1.039 16.88,-3.117 4.89,-1.981 8.64,-5 11.25,-9.063 2.6,-3.957 4.01,-8.437 4.22,-13.437 l -10.94,-0.782 c -0.63,5.41 -2.66,9.481 -6.1,12.18 -3.33,2.82 -8.28,4.219 -14.84,4.219 -6.87,0 -11.87,-1.25 -15,-3.75 -3.12,-2.5 -4.69,-5.52 -4.69,-9.059 0,-3.121 1.1,-5.68 3.28,-7.66 2.19,-1.969 7.87,-4.008 17.04,-6.09 9.27,-2.078 15.62,-3.91 19.06,-5.469 5,-2.39 8.7,-5.359 11.09,-8.902 2.4,-3.437 3.6,-7.5 3.6,-12.187 0,-4.59 -1.31,-8.911 -3.91,-12.973 -2.6,-3.957 -6.35,-7.078 -11.25,-9.379 -4.9,-2.18 -10.42,-3.281 -16.56,-3.281 -7.82,0 -14.38,1.101 -19.69,3.281 -5.21,2.301 -9.32,5.73 -12.34,10.32 -2.92,4.582 -4.43,9.739 -4.54,15.469"
         style="fill:#000000;fill-opacity:1;fill-rule:nonzero;stroke:none"
         id="path66" /></g></g></svg>
