<?xml version="1.0" encoding="UTF-8" standalone="no"?>
<!-- Created with Inkscape (http://www.inkscape.org/) -->

<svg
   version="1.1"
   id="svg2"
   xml:space="preserve"
   width="577.33331"
   height="497.33334"
   viewBox="0 0 577.33331 497.33334"
   sodipodi:docname="info_slack_graph_schema.svg"
   inkscape:version="1.1.2 (b8e25be833, 2022-02-05)"
   xmlns:inkscape="http://www.inkscape.org/namespaces/inkscape"
   xmlns:sodipodi="http://sodipodi.sourceforge.net/DTD/sodipodi-0.dtd"
   xmlns="http://www.w3.org/2000/svg"
   xmlns:svg="http://www.w3.org/2000/svg"><defs
     id="defs6" /><sodipodi:namedview
     id="namedview4"
     pagecolor="#ffffff"
     bordercolor="#666666"
     borderopacity="1.0"
     inkscape:pageshadow="2"
     inkscape:pageopacity="0.0"
     inkscape:pagecheckerboard="0"
     showgrid="false"
     inkscape:zoom="1.7231903"
     inkscape:cx="288.70868"
     inkscape:cy="248.95683"
     inkscape:window-width="1920"
     inkscape:window-height="1017"
     inkscape:window-x="-1928"
     inkscape:window-y="-8"
     inkscape:window-maximized="1"
     inkscape:current-layer="g8" /><g
     id="g8"
     inkscape:groupmode="layer"
     inkscape:label="ink_ext_XXXXXX"
     transform="matrix(1.3333333,0,0,-1.3333333,0,497.33333)"><g
       id="g10"
       transform="scale(0.1)"><path
         d="M 0,3730 H 4330 V 0 H 0 v 3730"
         style="fill:#ffffff;fill-opacity:1;fill-rule:nonzero;stroke:none"
         id="path12" /><path
         d="M 0,3730 H 4330 V 0 H 0 v 3730"
         style="fill:#ffffff;fill-opacity:1;fill-rule:nonzero;stroke:none"
         id="path14" /><path
         d="M 0,3730 H 4330 V 0 H 0 v 3730"
         style="fill:#ffffff;fill-opacity:1;fill-rule:nonzero;stroke:none"
         id="path16" /><path
         d="m 34.3008,3652.64 v -353.08 c 0,-22.09 17.9101,-40 40,-40 H 1414.3 c 22.1,0 40,17.91 40,40 v 353.08 c 0,22.09 -17.9,40 -40,40 H 74.3008 c -22.0899,0 -40,-17.91 -40,-40"
         style="fill:#ffffff;fill-opacity:1;fill-rule:nonzero;stroke:none"
         id="path18" /><path
         d="m 34.3008,3652.64 v -353.08 c 0,-22.09 17.9101,-40 40,-40 H 1414.3 c 22.1,0 40,17.91 40,40 v 353.08 c 0,22.09 -17.9,40 -40,40 H 74.3008 c -22.0899,0 -40,-17.91 -40,-40 z"
         style="fill:none;stroke:#000000;stroke-width:10;stroke-linecap:butt;stroke-linejoin:miter;stroke-miterlimit:1.45;stroke-dasharray:none;stroke-opacity:1"
         id="path20" /><path
         d="m 595.102,3479.11 v 12.04 h 12.027 v -12.04 z m 0,-50.15 v 12.03 h 12.027 v -12.03 z m 33.796,0 v 85.94 h 11.25 v -85.94 z m 31.313,0 v 85.94 h 11.57 l 45.149,-67.5 v 67.5 h 10.941 v -85.94 h -11.723 l -45.16,67.5 v -67.5 z m 87.289,0 v 85.94 h 57.969 v -10.16 h -46.571 v -26.56 h 40.321 v -10.16 h -40.321 v -39.06 z m 69.242,41.87 c 0,14.27 3.797,25.42 11.399,33.44 7.711,8.13 17.609,12.19 29.687,12.19 8.024,0 15.211,-1.93 21.563,-5.78 6.359,-3.75 11.199,-9.01 14.531,-15.78 3.34,-6.77 5,-14.48 5,-23.13 0,-8.64 -1.774,-16.41 -5.313,-23.28 -3.539,-6.88 -8.539,-12.08 -15,-15.63 -6.347,-3.54 -13.281,-5.31 -20.781,-5.31 -8.117,0 -15.359,1.93 -21.719,5.78 -6.347,3.96 -11.199,9.27 -14.531,15.94 -3.226,6.77 -4.836,13.96 -4.836,21.56 z m 11.719,-0.15 c 0,-10.42 2.758,-18.6 8.281,-24.53 5.617,-5.94 12.649,-8.91 21.086,-8.91 8.543,0 15.57,2.97 21.094,8.91 5.519,6.04 8.289,14.63 8.289,25.78 0,6.98 -1.199,13.07 -3.602,18.28 -2.289,5.21 -5.73,9.22 -10.308,12.03 -4.582,2.92 -9.692,4.37 -15.309,4.37 -8.023,0 -14.953,-2.76 -20.781,-8.28 -5.84,-5.52 -8.75,-14.74 -8.75,-27.65"
         style="fill:#000000;fill-opacity:1;fill-rule:nonzero;stroke:none"
         id="path22" /><path
         d="M 34.3008,2576.48 V 2223.4 c 0,-22.09 17.9101,-40 40,-40 H 1414.3 c 22.1,0 40,17.91 40,40 v 353.08 c 0,22.09 -17.9,40 -40,40 H 74.3008 c -22.0899,0 -40,-17.91 -40,-40"
         style="fill:#ffffff;fill-opacity:1;fill-rule:nonzero;stroke:none"
         id="path24" /><path
         d="M 34.3008,2576.48 V 2223.4 c 0,-22.09 17.9101,-40 40,-40 H 1414.3 c 22.1,0 40,17.91 40,40 v 353.08 c 0,22.09 -17.9,40 -40,40 H 74.3008 c -22.0899,0 -40,-17.91 -40,-40 z"
         style="fill:none;stroke:#000000;stroke-width:10;stroke-linecap:butt;stroke-linejoin:miter;stroke-miterlimit:1.45;stroke-dasharray:none;stroke-opacity:1"
         id="path26" /><path
         d="m 68.25,2402.96 v 12.03 h 12.0313 v -12.03 z m 0,-50.16 v 12.03 h 12.0313 v -12.03 z m 33.809,0 v 85.94 h 11.25 v -85.94 z m 31.312,0 v 85.94 h 11.559 l 45.16,-67.5 v 67.5 h 10.93 v -85.94 h -11.719 l -45.153,67.5 v -67.5 z m 87.277,0 v 85.94 h 57.973 v -10.16 h -46.562 v -26.56 h 40.312 v -10.16 h -40.312 v -39.06 z m 69.243,41.88 c 0,14.27 3.8,25.41 11.41,33.43 7.711,8.13 17.597,12.19 29.679,12.19 8.032,0 15.211,-1.93 21.571,-5.78 6.347,-3.75 11.187,-9.01 14.531,-15.78 3.328,-6.77 5,-14.48 5,-23.13 0,-8.64 -1.773,-16.4 -5.312,-23.28 -3.551,-6.87 -8.551,-12.08 -15,-15.62 -6.36,-3.55 -13.29,-5.32 -20.79,-5.32 -8.121,0 -15.359,1.93 -21.71,5.79 -6.36,3.95 -11.2,9.27 -14.54,15.93 -3.218,6.77 -4.839,13.96 -4.839,21.57 z m 11.718,-0.16 c 0,-10.42 2.762,-18.59 8.282,-24.53 5.629,-5.94 12.66,-8.91 21.089,-8.91 8.551,0 15.579,2.97 21.102,8.91 5.52,6.04 8.277,14.63 8.277,25.78 0,6.98 -1.199,13.07 -3.589,18.28 -2.301,5.21 -5.731,9.22 -10.321,12.03 -4.578,2.92 -9.679,4.38 -15.308,4.38 -8.02,0 -14.95,-2.76 -20.782,-8.28 -5.828,-5.53 -8.75,-14.74 -8.75,-27.66 z m 86.621,8.44 v 12.03 h 12.032 v -12.03 z m 0,-50.16 v 12.03 h 12.032 v -12.03 z m 28.032,27.66 10.617,0.93 c 0.519,-4.37 1.723,-7.91 3.601,-10.62 1.872,-2.71 4.739,-4.95 8.59,-6.72 3.961,-1.67 8.391,-2.5 13.282,-2.5 4.269,0 8.07,0.63 11.41,1.88 3.328,1.35 5.777,3.12 7.34,5.31 1.668,2.29 2.5,4.74 2.5,7.34 0,2.71 -0.782,5.05 -2.34,7.03 -1.563,2.09 -4.121,3.8 -7.66,5.16 -2.391,0.94 -7.551,2.34 -15.473,4.22 -7.809,1.87 -13.277,3.64 -16.399,5.31 -4.171,2.19 -7.242,4.84 -9.218,7.97 -1.981,3.23 -2.973,6.82 -2.973,10.78 0,4.27 1.199,8.28 3.59,12.03 2.5,3.86 6.101,6.72 10.781,8.6 4.801,1.97 10.059,2.96 15.789,2.96 6.352,0 11.973,-1.04 16.871,-3.12 4.899,-1.98 8.649,-5 11.25,-9.06 2.602,-3.96 4.012,-8.44 4.219,-13.44 l -10.937,-0.78 c -0.622,5.41 -2.653,9.48 -6.09,12.19 -3.34,2.81 -8.282,4.21 -14.852,4.21 -6.871,0 -11.871,-1.25 -15,-3.75 -3.121,-2.5 -4.68,-5.52 -4.68,-9.06 0,-3.12 1.09,-5.68 3.282,-7.65 2.187,-1.98 7.859,-4.02 17.027,-6.1 9.27,-2.08 15.621,-3.9 19.063,-5.47 5,-2.39 8.699,-5.36 11.097,-8.9 2.391,-3.44 3.59,-7.5 3.59,-12.19 0,-4.58 -1.301,-8.91 -3.91,-12.97 -2.598,-3.96 -6.348,-7.08 -11.25,-9.37 -4.891,-2.19 -10.41,-3.29 -16.559,-3.29 -7.808,0 -14.371,1.1 -19.691,3.29 -5.207,2.29 -9.32,5.72 -12.34,10.31 -2.918,4.58 -4.43,9.74 -4.527,15.47 z m 83.32,-27.66 v 85.94 h 11.398 v -75.78 h 42.352 v -10.16 z m 57.828,0 32.969,85.94 h 12.191 l 35.149,-85.94 H 624.91 l -10.16,26.09 h -35.781 l -9.528,-26.09 z m 24.84,35.31 h 29.07 l -8.91,23.75 c -2.808,7.19 -4.84,13.13 -6.09,17.82 -1.148,-5.53 -2.711,-10.99 -4.691,-16.41 z m 125.98,-5.15 11.25,-2.97 c -2.398,-9.27 -6.671,-16.36 -12.808,-21.25 -6.152,-4.9 -13.703,-7.35 -22.66,-7.35 -9.274,0 -16.821,1.88 -22.653,5.63 -5.839,3.75 -10.257,9.17 -13.289,16.25 -3.019,7.19 -4.531,14.89 -4.531,23.12 0,8.96 1.723,16.77 5.16,23.44 3.442,6.67 8.281,11.72 14.531,15.16 6.352,3.44 13.329,5.15 20.942,5.15 8.539,0 15.726,-2.18 21.558,-6.56 5.942,-4.37 10.051,-10.52 12.34,-18.44 l -11.25,-2.65 c -1.968,6.25 -4.89,10.78 -8.75,13.59 -3.75,2.92 -8.488,4.38 -14.211,4.38 -6.57,0 -12.089,-1.62 -16.57,-4.85 -4.367,-3.12 -7.5,-7.34 -9.367,-12.65 -1.774,-5.32 -2.66,-10.84 -2.66,-16.57 0,-7.29 1.039,-13.64 3.129,-19.06 2.179,-5.42 5.519,-9.48 10,-12.19 4.48,-2.7 9.371,-4.06 14.679,-4.06 6.36,0 11.719,1.82 16.102,5.47 4.476,3.65 7.5,9.11 9.058,16.41 z m 24.79,-30.16 v 85.94 h 11.402 v -42.66 l 42.66,42.66 h 15.469 l -36.102,-34.85 37.66,-51.09 h -15 l -30.629,43.44 -14.058,-13.6 v -29.84 z m 82.07,50.16 v 12.03 h 12.031 v -12.03 z m 0,-50.16 v 12.03 h 12.031 v -12.03 z m 31.461,0 v 85.94 h 17.187 l 20.313,-60.78 c 1.879,-5.73 3.23,-10 4.058,-12.82 0.942,3.13 2.45,7.71 4.532,13.75 l 20.629,59.85 h 15.312 v -85.94 h -10.941 v 71.88 l -25,-71.88 h -10.309 l -24.844,73.13 v -73.13 z m 100.59,0 v 85.94 h 62.029 v -10.16 h -50.631 v -26.25 h 47.501 v -10.15 h -47.501 v -29.22 h 52.661 v -10.16 z m 75.969,27.66 10.63,0.93 c 0.52,-4.37 1.72,-7.91 3.59,-10.62 1.88,-2.71 4.74,-4.95 8.6,-6.72 3.95,-1.67 8.38,-2.5 13.28,-2.5 4.27,0 8.07,0.63 11.4,1.88 3.34,1.35 5.78,3.12 7.35,5.31 1.66,2.29 2.5,4.74 2.5,7.34 0,2.71 -0.78,5.05 -2.35,7.03 -1.56,2.09 -4.11,3.8 -7.65,5.16 -2.4,0.94 -7.55,2.34 -15.47,4.22 -7.81,1.87 -13.28,3.64 -16.41,5.31 -4.16,2.19 -7.24,4.84 -9.22,7.97 -1.98,3.23 -2.97,6.82 -2.97,10.78 0,4.27 1.2,8.28 3.6,12.03 2.5,3.86 6.09,6.72 10.78,8.6 4.79,1.97 10.05,2.96 15.78,2.96 6.36,0 11.98,-1.04 16.88,-3.12 4.89,-1.98 8.64,-5 11.25,-9.06 2.6,-3.96 4.01,-8.44 4.21,-13.44 l -10.93,-0.78 c -0.63,5.41 -2.66,9.48 -6.1,12.19 -3.33,2.81 -8.28,4.21 -14.84,4.21 -6.88,0 -11.88,-1.25 -15,-3.75 -3.13,-2.5 -4.69,-5.52 -4.69,-9.06 0,-3.12 1.1,-5.68 3.28,-7.65 2.19,-1.98 7.87,-4.02 17.03,-6.1 9.28,-2.08 15.63,-3.9 19.07,-5.47 5,-2.39 8.7,-5.36 11.09,-8.9 2.4,-3.44 3.59,-7.5 3.59,-12.19 0,-4.58 -1.3,-8.91 -3.9,-12.97 -2.61,-3.96 -6.36,-7.08 -11.25,-9.37 -4.9,-2.19 -10.42,-3.29 -16.56,-3.29 -7.82,0 -14.38,1.1 -19.69,3.29 -5.21,2.29 -9.32,5.72 -12.35,10.31 -2.91,4.58 -4.42,9.74 -4.53,15.47 z m 80.04,0 10.63,0.93 c 0.52,-4.37 1.72,-7.91 3.59,-10.62 1.88,-2.71 4.74,-4.95 8.59,-6.72 3.96,-1.67 8.39,-2.5 13.29,-2.5 4.27,0 8.07,0.63 11.4,1.88 3.34,1.35 5.78,3.12 7.35,5.31 1.66,2.29 2.5,4.74 2.5,7.34 0,2.71 -0.79,5.05 -2.35,7.03 -1.56,2.09 -4.11,3.8 -7.65,5.16 -2.4,0.94 -7.56,2.34 -15.47,4.22 -7.82,1.87 -13.28,3.64 -16.41,5.31 -4.17,2.19 -7.24,4.84 -9.22,7.97 -1.98,3.23 -2.97,6.82 -2.97,10.78 0,4.27 1.2,8.28 3.6,12.03 2.5,3.86 6.09,6.72 10.78,8.6 4.79,1.97 10.05,2.96 15.78,2.96 6.35,0 11.98,-1.04 16.87,-3.12 4.9,-1.98 8.65,-5 11.25,-9.06 2.61,-3.96 4.02,-8.44 4.22,-13.44 l -10.93,-0.78 c -0.63,5.41 -2.66,9.48 -6.1,12.19 -3.33,2.81 -8.28,4.21 -14.84,4.21 -6.88,0 -11.88,-1.25 -15,-3.75 -3.13,-2.5 -4.69,-5.52 -4.69,-9.06 0,-3.12 1.09,-5.68 3.28,-7.65 2.19,-1.98 7.87,-4.02 17.03,-6.1 9.27,-2.08 15.63,-3.9 19.07,-5.47 5,-2.39 8.69,-5.36 11.09,-8.9 2.4,-3.44 3.59,-7.5 3.59,-12.19 0,-4.58 -1.3,-8.91 -3.9,-12.97 -2.61,-3.96 -6.36,-7.08 -11.25,-9.37 -4.9,-2.19 -10.42,-3.29 -16.57,-3.29 -7.81,0 -14.37,1.1 -19.68,3.29 -5.21,2.29 -9.33,5.72 -12.35,10.31 -2.91,4.58 -4.42,9.74 -4.53,15.47 z m 74.42,-27.66 32.97,85.94 h 12.18 l 35.16,-85.94 h -12.81 l -10.16,26.09 h -35.78 l -9.53,-26.09 z m 24.84,35.31 h 29.06 l -8.9,23.75 c -2.82,7.19 -4.85,13.13 -6.1,17.82 -1.14,-5.53 -2.71,-10.99 -4.68,-16.41 z m 104.88,-1.56 v 10 l 36.25,0.16 v -31.88 c -5.52,-4.48 -11.25,-7.86 -17.18,-10.15 -5.94,-2.19 -12.04,-3.29 -18.29,-3.29 -8.43,0 -16.14,1.77 -23.12,5.32 -6.88,3.64 -12.08,8.85 -15.63,15.62 -3.43,6.88 -5.15,14.53 -5.15,22.97 0,8.44 1.72,16.25 5.15,23.44 3.55,7.29 8.6,12.65 15.16,16.09 6.56,3.54 14.12,5.31 22.66,5.31 6.25,0 11.87,-0.99 16.87,-2.96 5,-1.98 8.91,-4.8 11.72,-8.44 2.92,-3.54 5.1,-8.23 6.56,-14.06 l -10.15,-2.82 c -1.36,4.38 -3.02,7.82 -5,10.32 -1.88,2.5 -4.59,4.47 -8.13,5.93 -3.54,1.57 -7.45,2.35 -11.72,2.35 -5.21,0 -9.74,-0.78 -13.59,-2.35 -3.75,-1.56 -6.82,-3.64 -9.22,-6.25 -2.29,-2.6 -4.06,-5.47 -5.31,-8.59 -2.19,-5.31 -3.28,-11.04 -3.28,-17.19 0,-7.71 1.3,-14.17 3.9,-19.37 2.71,-5.11 6.57,-8.91 11.57,-11.41 5,-2.5 10.36,-3.75 16.09,-3.75 4.9,0 9.69,0.94 14.37,2.81 4.69,1.98 8.23,4.01 10.63,6.1 v 16.09 z m 53.34,-33.75 v 85.94 h 62.03 v -10.16 h -50.62 v -26.25 h 47.5 v -10.15 h -47.5 v -29.22 h 52.66 v -10.16 h -64.07"
         style="fill:#000000;fill-opacity:1;fill-rule:nonzero;stroke:none"
         id="path28" /><path
         d="M 2874.3,2576.48 V 2223.4 c 0,-22.09 17.91,-40 40,-40 h 1340 c 22.1,0 40,17.91 40,40 v 353.08 c 0,22.09 -17.9,40 -40,40 h -1340 c -22.09,0 -40,-17.91 -40,-40"
         style="fill:#ffffff;fill-opacity:1;fill-rule:nonzero;stroke:none"
         id="path30" /><path
         d="M 2874.3,2576.48 V 2223.4 c 0,-22.09 17.91,-40 40,-40 h 1340 c 22.1,0 40,17.91 40,40 v 353.08 c 0,22.09 -17.9,40 -40,40 h -1340 c -22.09,0 -40,-17.91 -40,-40 z"
         style="fill:none;stroke:#000000;stroke-width:10;stroke-linecap:butt;stroke-linejoin:miter;stroke-miterlimit:1.45;stroke-dasharray:none;stroke-opacity:1"
         id="path32" /><path
         d="m 2908.25,2402.96 v 12.03 h 12.03 v -12.03 z m 0,-50.16 v 12.03 h 12.03 v -12.03 z m 33.81,0 v 85.94 h 11.25 v -85.94 z m 31.31,0 v 85.94 h 11.56 l 45.16,-67.5 v 67.5 h 10.93 v -85.94 h -11.72 l -45.15,67.5 v -67.5 z m 87.28,0 v 85.94 h 57.97 v -10.16 h -46.56 v -26.56 h 40.31 v -10.16 h -40.31 v -39.06 z m 69.24,41.88 c 0,14.27 3.8,25.41 11.41,33.43 7.71,8.13 17.6,12.19 29.68,12.19 8.03,0 15.21,-1.93 21.57,-5.78 6.35,-3.75 11.19,-9.01 14.53,-15.78 3.33,-6.77 5,-14.48 5,-23.13 0,-8.64 -1.77,-16.4 -5.31,-23.28 -3.55,-6.87 -8.55,-12.08 -15,-15.62 -6.36,-3.55 -13.29,-5.32 -20.79,-5.32 -8.12,0 -15.36,1.93 -21.71,5.79 -6.36,3.95 -11.2,9.27 -14.54,15.93 -3.22,6.77 -4.84,13.96 -4.84,21.57 z m 11.72,-0.16 c 0,-10.42 2.76,-18.59 8.28,-24.53 5.63,-5.94 12.66,-8.91 21.09,-8.91 8.55,0 15.58,2.97 21.1,8.91 5.52,6.04 8.28,14.63 8.28,25.78 0,6.98 -1.2,13.07 -3.59,18.28 -2.3,5.21 -5.73,9.22 -10.32,12.03 -4.58,2.92 -9.68,4.38 -15.31,4.38 -8.02,0 -14.95,-2.76 -20.78,-8.28 -5.83,-5.53 -8.75,-14.74 -8.75,-27.66 z m 86.62,8.44 v 12.03 h 12.03 v -12.03 z m 0,-50.16 v 12.03 h 12.03 v -12.03 z m 28.03,27.66 10.62,0.93 c 0.52,-4.37 1.72,-7.91 3.6,-10.62 1.87,-2.71 4.74,-4.95 8.59,-6.72 3.96,-1.67 8.39,-2.5 13.28,-2.5 4.27,0 8.07,0.63 11.41,1.88 3.33,1.35 5.78,3.12 7.34,5.31 1.67,2.29 2.5,4.74 2.5,7.34 0,2.71 -0.78,5.05 -2.34,7.03 -1.56,2.09 -4.12,3.8 -7.66,5.16 -2.39,0.94 -7.55,2.34 -15.47,4.22 -7.81,1.87 -13.28,3.64 -16.4,5.31 -4.17,2.19 -7.24,4.84 -9.22,7.97 -1.98,3.23 -2.97,6.82 -2.97,10.78 0,4.27 1.2,8.28 3.59,12.03 2.5,3.86 6.1,6.72 10.78,8.6 4.8,1.97 10.06,2.96 15.79,2.96 6.35,0 11.97,-1.04 16.87,-3.12 4.9,-1.98 8.65,-5 11.25,-9.06 2.6,-3.96 4.01,-8.44 4.22,-13.44 l -10.94,-0.78 c -0.62,5.41 -2.65,9.48 -6.09,12.19 -3.34,2.81 -8.28,4.21 -14.85,4.21 -6.87,0 -11.87,-1.25 -15,-3.75 -3.12,-2.5 -4.68,-5.52 -4.68,-9.06 0,-3.12 1.09,-5.68 3.28,-7.65 2.19,-1.98 7.86,-4.02 17.03,-6.1 9.27,-2.08 15.62,-3.9 19.06,-5.47 5,-2.39 8.7,-5.36 11.1,-8.9 2.39,-3.44 3.59,-7.5 3.59,-12.19 0,-4.58 -1.3,-8.91 -3.91,-12.97 -2.6,-3.96 -6.35,-7.08 -11.25,-9.37 -4.89,-2.19 -10.41,-3.29 -16.56,-3.29 -7.81,0 -14.37,1.1 -19.69,3.29 -5.21,2.29 -9.32,5.72 -12.34,10.31 -2.92,4.58 -4.43,9.74 -4.53,15.47 z m 83.32,-27.66 v 85.94 h 11.4 v -75.78 h 42.35 v -10.16 z m 57.83,0 32.97,85.94 h 12.19 l 35.15,-85.94 h -12.81 l -10.16,26.09 h -35.78 l -9.53,-26.09 z m 24.84,35.31 h 29.07 l -8.91,23.75 c -2.81,7.19 -4.84,13.13 -6.09,17.82 -1.15,-5.53 -2.71,-10.99 -4.69,-16.41 z m 125.98,-5.15 11.25,-2.97 c -2.4,-9.27 -6.67,-16.36 -12.81,-21.25 -6.15,-4.9 -13.7,-7.35 -22.66,-7.35 -9.27,0 -16.82,1.88 -22.65,5.63 -5.84,3.75 -10.26,9.17 -13.29,16.25 -3.02,7.19 -4.53,14.89 -4.53,23.12 0,8.96 1.72,16.77 5.16,23.44 3.44,6.67 8.28,11.72 14.53,15.16 6.35,3.44 13.33,5.15 20.94,5.15 8.54,0 15.73,-2.18 21.56,-6.56 5.94,-4.37 10.05,-10.52 12.34,-18.44 l -11.25,-2.65 c -1.97,6.25 -4.89,10.78 -8.75,13.59 -3.75,2.92 -8.49,4.38 -14.21,4.38 -6.57,0 -12.09,-1.62 -16.57,-4.85 -4.37,-3.12 -7.5,-7.34 -9.37,-12.65 -1.77,-5.32 -2.66,-10.84 -2.66,-16.57 0,-7.29 1.04,-13.64 3.13,-19.06 2.18,-5.42 5.52,-9.48 10,-12.19 4.48,-2.7 9.37,-4.06 14.68,-4.06 6.36,0 11.72,1.82 16.1,5.47 4.48,3.65 7.5,9.11 9.06,16.41 z m 24.79,-30.16 v 85.94 h 11.4 v -42.66 l 42.66,42.66 h 15.47 l -36.1,-34.85 37.66,-51.09 h -15 l -30.63,43.44 -14.06,-13.6 v -29.84 z m 82.07,50.16 v 12.03 h 12.03 v -12.03 z m 0,-50.16 v 12.03 h 12.03 v -12.03 z m 31.46,0 v 85.94 h 17.19 l 20.31,-60.78 c 1.88,-5.73 3.23,-10 4.06,-12.82 0.94,3.13 2.45,7.71 4.53,13.75 l 20.63,59.85 h 15.31 v -85.94 h -10.94 v 71.88 l -25,-71.88 h -10.31 l -24.84,73.13 v -73.13 z m 100.59,0 v 85.94 h 62.03 v -10.16 h -50.63 v -26.25 h 47.5 v -10.15 h -47.5 v -29.22 h 52.66 v -10.16 z m 75.97,27.66 10.63,0.93 c 0.52,-4.37 1.72,-7.91 3.59,-10.62 1.88,-2.71 4.74,-4.95 8.6,-6.72 3.95,-1.67 8.38,-2.5 13.28,-2.5 4.27,0 8.07,0.63 11.4,1.88 3.34,1.35 5.78,3.12 7.35,5.31 1.66,2.29 2.5,4.74 2.5,7.34 0,2.71 -0.78,5.05 -2.35,7.03 -1.56,2.09 -4.11,3.8 -7.65,5.16 -2.4,0.94 -7.55,2.34 -15.47,4.22 -7.81,1.87 -13.28,3.64 -16.41,5.31 -4.16,2.19 -7.24,4.84 -9.22,7.97 -1.98,3.23 -2.97,6.82 -2.97,10.78 0,4.27 1.2,8.28 3.6,12.03 2.5,3.86 6.09,6.72 10.78,8.6 4.79,1.97 10.05,2.96 15.78,2.96 6.36,0 11.98,-1.04 16.88,-3.12 4.89,-1.98 8.64,-5 11.25,-9.06 2.6,-3.96 4.01,-8.44 4.21,-13.44 l -10.93,-0.78 c -0.63,5.41 -2.66,9.48 -6.1,12.19 -3.33,2.81 -8.28,4.21 -14.84,4.21 -6.88,0 -11.88,-1.25 -15,-3.75 -3.13,-2.5 -4.69,-5.52 -4.69,-9.06 0,-3.12 1.1,-5.68 3.28,-7.65 2.19,-1.98 7.87,-4.02 17.03,-6.1 9.28,-2.08 15.63,-3.9 19.07,-5.47 5,-2.39 8.7,-5.36 11.09,-8.9 2.4,-3.44 3.59,-7.5 3.59,-12.19 0,-4.58 -1.3,-8.91 -3.9,-12.97 -2.61,-3.96 -6.36,-7.08 -11.25,-9.37 -4.9,-2.19 -10.42,-3.29 -16.56,-3.29 -7.82,0 -14.38,1.1 -19.69,3.29 -5.21,2.29 -9.32,5.72 -12.35,10.31 -2.91,4.58 -4.42,9.74 -4.53,15.47 z m 80.04,0 10.63,0.93 c 0.52,-4.37 1.72,-7.91 3.59,-10.62 1.88,-2.71 4.74,-4.95 8.59,-6.72 3.96,-1.67 8.39,-2.5 13.29,-2.5 4.27,0 8.07,0.63 11.4,1.88 3.34,1.35 5.78,3.12 7.35,5.31 1.66,2.29 2.5,4.74 2.5,7.34 0,2.71 -0.79,5.05 -2.35,7.03 -1.56,2.09 -4.11,3.8 -7.65,5.16 -2.4,0.94 -7.56,2.34 -15.47,4.22 -7.82,1.87 -13.28,3.64 -16.41,5.31 -4.17,2.19 -7.24,4.84 -9.22,7.97 -1.98,3.23 -2.97,6.82 -2.97,10.78 0,4.27 1.2,8.28 3.6,12.03 2.5,3.86 6.09,6.72 10.78,8.6 4.79,1.97 10.05,2.96 15.78,2.96 6.35,0 11.98,-1.04 16.87,-3.12 4.9,-1.98 8.65,-5 11.25,-9.06 2.61,-3.96 4.02,-8.44 4.22,-13.44 l -10.93,-0.78 c -0.63,5.41 -2.66,9.48 -6.1,12.19 -3.33,2.81 -8.28,4.21 -14.84,4.21 -6.88,0 -11.88,-1.25 -15,-3.75 -3.13,-2.5 -4.69,-5.52 -4.69,-9.06 0,-3.12 1.09,-5.68 3.28,-7.65 2.19,-1.98 7.87,-4.02 17.03,-6.1 9.27,-2.08 15.63,-3.9 19.07,-5.47 5,-2.39 8.69,-5.36 11.09,-8.9 2.4,-3.44 3.59,-7.5 3.59,-12.19 0,-4.58 -1.3,-8.91 -3.9,-12.97 -2.61,-3.96 -6.36,-7.08 -11.25,-9.37 -4.9,-2.19 -10.42,-3.29 -16.57,-3.29 -7.81,0 -14.37,1.1 -19.68,3.29 -5.21,2.29 -9.33,5.72 -12.35,10.31 -2.91,4.58 -4.42,9.74 -4.53,15.47 z m 74.42,-27.66 32.97,85.94 h 12.18 l 35.16,-85.94 h -12.81 l -10.16,26.09 h -35.78 l -9.53,-26.09 z m 24.84,35.31 h 29.06 l -8.9,23.75 c -2.82,7.19 -4.85,13.13 -6.1,17.82 -1.14,-5.53 -2.71,-10.99 -4.68,-16.41 z m 104.88,-1.56 v 10 l 36.25,0.16 v -31.88 c -5.52,-4.48 -11.25,-7.86 -17.18,-10.15 -5.94,-2.19 -12.04,-3.29 -18.29,-3.29 -8.43,0 -16.14,1.77 -23.12,5.32 -6.88,3.64 -12.08,8.85 -15.63,15.62 -3.43,6.88 -5.15,14.53 -5.15,22.97 0,8.44 1.72,16.25 5.15,23.44 3.55,7.29 8.6,12.65 15.16,16.09 6.56,3.54 14.12,5.31 22.66,5.31 6.25,0 11.87,-0.99 16.87,-2.96 5,-1.98 8.91,-4.8 11.72,-8.44 2.92,-3.54 5.1,-8.23 6.56,-14.06 l -10.15,-2.82 c -1.36,4.38 -3.02,7.82 -5,10.32 -1.88,2.5 -4.59,4.47 -8.13,5.93 -3.54,1.57 -7.45,2.35 -11.72,2.35 -5.21,0 -9.74,-0.78 -13.59,-2.35 -3.75,-1.56 -6.82,-3.64 -9.22,-6.25 -2.29,-2.6 -4.06,-5.47 -5.31,-8.59 -2.19,-5.31 -3.28,-11.04 -3.28,-17.19 0,-7.71 1.3,-14.17 3.9,-19.37 2.71,-5.11 6.57,-8.91 11.57,-11.41 5,-2.5 10.36,-3.75 16.09,-3.75 4.9,0 9.69,0.94 14.37,2.81 4.69,1.98 8.23,4.01 10.63,6.1 v 16.09 z m 53.34,-33.75 v 85.94 h 62.03 v -10.16 h -50.62 v -26.25 h 47.5 v -10.15 h -47.5 v -29.22 h 52.66 v -10.16 h -64.07"
         style="fill:#000000;fill-opacity:1;fill-rule:nonzero;stroke:none"
         id="path34" /><path
         d="m 2874.3,1500.32 v -353.08 c 0,-22.09 17.91,-40 40,-40 h 1340 c 22.1,0 40,17.91 40,40 v 353.08 c 0,22.09 -17.9,40 -40,40 h -1340 c -22.09,0 -40,-17.91 -40,-40"
         style="fill:#ffffff;fill-opacity:1;fill-rule:nonzero;stroke:none"
         id="path36" /><path
         d="m 2874.3,1500.32 v -353.08 c 0,-22.09 17.91,-40 40,-40 h 1340 c 22.1,0 40,17.91 40,40 v 353.08 c 0,22.09 -17.9,40 -40,40 h -1340 c -22.09,0 -40,-17.91 -40,-40 z"
         style="fill:none;stroke:#000000;stroke-width:10;stroke-linecap:butt;stroke-linejoin:miter;stroke-miterlimit:1.45;stroke-dasharray:none;stroke-opacity:1"
         id="path38" /><path
         d="m 2908.25,1326.8 v 12.03 h 12.03 v -12.03 z m 0,-50.16 v 12.03 h 12.03 v -12.03 z m 33.81,0 v 85.94 h 11.25 v -85.94 z m 31.31,0 v 85.94 h 11.56 l 45.16,-67.5 v 67.5 h 10.93 v -85.94 h -11.72 l -45.15,67.5 v -67.5 z m 87.28,0 v 85.94 h 57.97 v -10.16 h -46.56 v -26.56 h 40.31 v -10.16 h -40.31 v -39.06 z m 69.24,41.88 c 0,14.27 3.8,25.41 11.41,33.43 7.71,8.13 17.6,12.19 29.68,12.19 8.03,0 15.21,-1.93 21.57,-5.78 6.35,-3.75 11.19,-9.01 14.53,-15.78 3.33,-6.77 5,-14.48 5,-23.13 0,-8.64 -1.77,-16.4 -5.31,-23.28 -3.55,-6.87 -8.55,-12.08 -15,-15.62 -6.36,-3.54 -13.29,-5.32 -20.79,-5.32 -8.12,0 -15.36,1.93 -21.71,5.79 -6.36,3.95 -11.2,9.27 -14.54,15.93 -3.22,6.77 -4.84,13.96 -4.84,21.57 z m 11.72,-0.16 c 0,-10.42 2.76,-18.59 8.28,-24.53 5.63,-5.94 12.66,-8.91 21.09,-8.91 8.55,0 15.58,2.97 21.1,8.91 5.52,6.04 8.28,14.63 8.28,25.78 0,6.98 -1.2,13.07 -3.59,18.28 -2.3,5.21 -5.73,9.22 -10.32,12.03 -4.58,2.92 -9.68,4.38 -15.31,4.38 -8.02,0 -14.95,-2.76 -20.78,-8.28 -5.83,-5.52 -8.75,-14.74 -8.75,-27.66 z m 86.62,8.44 v 12.03 h 12.03 v -12.03 z m 0,-50.16 v 12.03 h 12.03 v -12.03 z m 28.03,27.66 10.62,0.93 c 0.52,-4.37 1.72,-7.91 3.6,-10.62 1.87,-2.71 4.74,-4.95 8.59,-6.72 3.96,-1.67 8.39,-2.5 13.28,-2.5 4.27,0 8.07,0.63 11.41,1.88 3.33,1.35 5.78,3.12 7.34,5.31 1.67,2.29 2.5,4.74 2.5,7.34 0,2.71 -0.78,5.05 -2.34,7.03 -1.56,2.09 -4.12,3.81 -7.66,5.16 -2.39,0.94 -7.55,2.34 -15.47,4.22 -7.81,1.87 -13.28,3.64 -16.4,5.31 -4.17,2.19 -7.24,4.84 -9.22,7.97 -1.98,3.23 -2.97,6.82 -2.97,10.78 0,4.27 1.2,8.28 3.59,12.03 2.5,3.86 6.1,6.72 10.78,8.6 4.8,1.98 10.06,2.96 15.79,2.96 6.35,0 11.97,-1.04 16.87,-3.12 4.9,-1.98 8.65,-5 11.25,-9.06 2.6,-3.96 4.01,-8.44 4.22,-13.44 l -10.94,-0.78 c -0.62,5.42 -2.65,9.48 -6.09,12.19 -3.34,2.81 -8.28,4.21 -14.85,4.21 -6.87,0 -11.87,-1.25 -15,-3.75 -3.12,-2.5 -4.68,-5.52 -4.68,-9.06 0,-3.12 1.09,-5.67 3.28,-7.65 2.19,-1.98 7.86,-4.01 17.03,-6.1 9.27,-2.08 15.62,-3.9 19.06,-5.47 5,-2.39 8.7,-5.36 11.1,-8.9 2.39,-3.44 3.59,-7.5 3.59,-12.19 0,-4.58 -1.3,-8.91 -3.91,-12.97 -2.6,-3.96 -6.35,-7.08 -11.25,-9.37 -4.89,-2.19 -10.41,-3.29 -16.56,-3.29 -7.81,0 -14.37,1.1 -19.69,3.29 -5.21,2.29 -9.32,5.73 -12.34,10.31 -2.92,4.58 -4.43,9.74 -4.53,15.47 z m 83.32,-27.66 v 85.94 h 11.4 v -75.78 h 42.35 v -10.16 z m 57.83,0 32.97,85.94 h 12.19 l 35.15,-85.94 h -12.81 l -10.16,26.09 h -35.78 l -9.53,-26.09 z m 24.84,35.31 h 29.07 l -8.91,23.75 c -2.81,7.19 -4.84,13.13 -6.09,17.82 -1.15,-5.52 -2.71,-10.99 -4.69,-16.41 z m 125.98,-5.15 11.25,-2.97 c -2.4,-9.27 -6.67,-16.36 -12.81,-21.25 -6.15,-4.9 -13.7,-7.35 -22.66,-7.35 -9.27,0 -16.82,1.88 -22.65,5.63 -5.84,3.75 -10.26,9.17 -13.29,16.25 -3.02,7.19 -4.53,14.9 -4.53,23.12 0,8.96 1.72,16.78 5.16,23.44 3.44,6.67 8.28,11.72 14.53,15.16 6.35,3.44 13.33,5.15 20.94,5.15 8.54,0 15.73,-2.18 21.56,-6.56 5.94,-4.37 10.05,-10.52 12.34,-18.44 l -11.25,-2.65 c -1.97,6.25 -4.89,10.78 -8.75,13.59 -3.75,2.92 -8.49,4.38 -14.21,4.38 -6.57,0 -12.09,-1.62 -16.57,-4.85 -4.37,-3.12 -7.5,-7.34 -9.37,-12.65 -1.77,-5.32 -2.66,-10.84 -2.66,-16.57 0,-7.29 1.04,-13.64 3.13,-19.06 2.18,-5.41 5.52,-9.48 10,-12.19 4.48,-2.7 9.37,-4.06 14.68,-4.06 6.36,0 11.72,1.83 16.1,5.47 4.48,3.65 7.5,9.12 9.06,16.41 z m 24.79,-30.16 v 85.94 h 11.4 v -42.66 l 42.66,42.66 h 15.47 l -36.1,-34.85 37.66,-51.09 h -15 l -30.63,43.44 -14.06,-13.6 v -29.84 z m 82.07,50.16 v 12.03 h 12.03 v -12.03 z m 0,-50.16 v 12.03 h 12.03 v -12.03 z m 31.46,0 v 85.94 h 17.19 l 20.31,-60.78 c 1.88,-5.73 3.23,-10 4.06,-12.82 0.94,3.13 2.45,7.71 4.53,13.75 l 20.63,59.85 h 15.31 v -85.94 h -10.94 v 71.88 l -25,-71.88 h -10.31 l -24.84,73.13 v -73.13 z m 100.59,0 v 85.94 h 62.03 v -10.16 h -50.63 v -26.25 h 47.5 v -10.15 h -47.5 v -29.22 h 52.66 v -10.16 z m 75.97,27.66 10.63,0.93 c 0.52,-4.37 1.72,-7.91 3.59,-10.62 1.88,-2.71 4.74,-4.95 8.6,-6.72 3.95,-1.67 8.38,-2.5 13.28,-2.5 4.27,0 8.07,0.63 11.4,1.88 3.34,1.35 5.78,3.12 7.35,5.31 1.66,2.29 2.5,4.74 2.5,7.34 0,2.71 -0.78,5.05 -2.35,7.03 -1.56,2.09 -4.11,3.81 -7.65,5.16 -2.4,0.94 -7.55,2.34 -15.47,4.22 -7.81,1.87 -13.28,3.64 -16.41,5.31 -4.16,2.19 -7.24,4.84 -9.22,7.97 -1.98,3.23 -2.97,6.82 -2.97,10.78 0,4.27 1.2,8.28 3.6,12.03 2.5,3.86 6.09,6.72 10.78,8.6 4.79,1.98 10.05,2.96 15.78,2.96 6.36,0 11.98,-1.04 16.88,-3.12 4.89,-1.98 8.64,-5 11.25,-9.06 2.6,-3.96 4.01,-8.44 4.21,-13.44 l -10.93,-0.78 c -0.63,5.42 -2.66,9.48 -6.1,12.19 -3.33,2.81 -8.28,4.21 -14.84,4.21 -6.88,0 -11.88,-1.25 -15,-3.75 -3.13,-2.5 -4.69,-5.52 -4.69,-9.06 0,-3.12 1.1,-5.67 3.28,-7.65 2.19,-1.98 7.87,-4.01 17.03,-6.1 9.28,-2.08 15.63,-3.9 19.07,-5.47 5,-2.39 8.7,-5.36 11.09,-8.9 2.4,-3.44 3.59,-7.5 3.59,-12.19 0,-4.58 -1.3,-8.91 -3.9,-12.97 -2.61,-3.96 -6.36,-7.08 -11.25,-9.37 -4.9,-2.19 -10.42,-3.29 -16.56,-3.29 -7.82,0 -14.38,1.1 -19.69,3.29 -5.21,2.29 -9.32,5.73 -12.35,10.31 -2.91,4.58 -4.42,9.74 -4.53,15.47 z m 80.04,0 10.63,0.93 c 0.52,-4.37 1.72,-7.91 3.59,-10.62 1.88,-2.71 4.74,-4.95 8.59,-6.72 3.96,-1.67 8.39,-2.5 13.29,-2.5 4.27,0 8.07,0.63 11.4,1.88 3.34,1.35 5.78,3.12 7.35,5.31 1.66,2.29 2.5,4.74 2.5,7.34 0,2.71 -0.79,5.05 -2.35,7.03 -1.56,2.09 -4.11,3.81 -7.65,5.16 -2.4,0.94 -7.56,2.34 -15.47,4.22 -7.82,1.87 -13.28,3.64 -16.41,5.31 -4.17,2.19 -7.24,4.84 -9.22,7.97 -1.98,3.23 -2.97,6.82 -2.97,10.78 0,4.27 1.2,8.28 3.6,12.03 2.5,3.86 6.09,6.72 10.78,8.6 4.79,1.98 10.05,2.96 15.78,2.96 6.35,0 11.98,-1.04 16.87,-3.12 4.9,-1.98 8.65,-5 11.25,-9.06 2.61,-3.96 4.02,-8.44 4.22,-13.44 l -10.93,-0.78 c -0.63,5.42 -2.66,9.48 -6.1,12.19 -3.33,2.81 -8.28,4.21 -14.84,4.21 -6.88,0 -11.88,-1.25 -15,-3.75 -3.13,-2.5 -4.69,-5.52 -4.69,-9.06 0,-3.12 1.09,-5.67 3.28,-7.65 2.19,-1.98 7.87,-4.01 17.03,-6.1 9.27,-2.08 15.63,-3.9 19.07,-5.47 5,-2.39 8.69,-5.36 11.09,-8.9 2.4,-3.44 3.59,-7.5 3.59,-12.19 0,-4.58 -1.3,-8.91 -3.9,-12.97 -2.61,-3.96 -6.36,-7.08 -11.25,-9.37 -4.9,-2.19 -10.42,-3.29 -16.57,-3.29 -7.81,0 -14.37,1.1 -19.68,3.29 -5.21,2.29 -9.33,5.73 -12.35,10.31 -2.91,4.58 -4.42,9.74 -4.53,15.47 z m 74.42,-27.66 32.97,85.94 h 12.18 l 35.16,-85.94 h -12.81 l -10.16,26.09 h -35.78 l -9.53,-26.09 z m 24.84,35.31 h 29.06 l -8.9,23.75 c -2.82,7.19 -4.85,13.13 -6.1,17.82 -1.14,-5.52 -2.71,-10.99 -4.68,-16.41 z m 104.88,-1.56 v 10 l 36.25,0.16 v -31.88 c -5.52,-4.48 -11.25,-7.86 -17.18,-10.15 -5.94,-2.19 -12.04,-3.29 -18.29,-3.29 -8.43,0 -16.14,1.78 -23.12,5.32 -6.88,3.64 -12.08,8.85 -15.63,15.62 -3.43,6.88 -5.15,14.53 -5.15,22.97 0,8.44 1.72,16.25 5.15,23.44 3.55,7.29 8.6,12.65 15.16,16.09 6.56,3.54 14.12,5.31 22.66,5.31 6.25,0 11.87,-0.98 16.87,-2.96 5,-1.98 8.91,-4.8 11.72,-8.44 2.92,-3.54 5.1,-8.23 6.56,-14.06 l -10.15,-2.82 c -1.36,4.38 -3.02,7.82 -5,10.32 -1.88,2.5 -4.59,4.48 -8.13,5.93 -3.54,1.57 -7.45,2.35 -11.72,2.35 -5.21,0 -9.74,-0.78 -13.59,-2.35 -3.75,-1.56 -6.82,-3.64 -9.22,-6.25 -2.29,-2.6 -4.06,-5.47 -5.31,-8.59 -2.19,-5.31 -3.28,-11.04 -3.28,-17.19 0,-7.71 1.3,-14.16 3.9,-19.37 2.71,-5.11 6.57,-8.91 11.57,-11.41 5,-2.5 10.36,-3.75 16.09,-3.75 4.9,0 9.69,0.94 14.37,2.81 4.69,1.98 8.23,4.01 10.63,6.1 v 16.09 z m 53.34,-33.75 v 85.94 h 62.03 v -10.16 h -50.62 v -26.25 h 47.5 v -10.15 h -47.5 v -29.22 h 52.66 v -10.16 h -64.07"
         style="fill:#000000;fill-opacity:1;fill-rule:nonzero;stroke:none"
         id="path40" /><path
         d="m 34.3008,1500.32 v -353.08 c 0,-22.09 17.9101,-40 40,-40 H 1414.3 c 22.1,0 40,17.91 40,40 v 353.08 c 0,22.09 -17.9,40 -40,40 H 74.3008 c -22.0899,0 -40,-17.91 -40,-40"
         style="fill:#ffffff;fill-opacity:1;fill-rule:nonzero;stroke:none"
         id="path42" /><path
         d="m 34.3008,1500.32 v -353.08 c 0,-22.09 17.9101,-40 40,-40 H 1414.3 c 22.1,0 40,17.91 40,40 v 353.08 c 0,22.09 -17.9,40 -40,40 H 74.3008 c -22.0899,0 -40,-17.91 -40,-40 z"
         style="fill:none;stroke:#000000;stroke-width:10;stroke-linecap:butt;stroke-linejoin:miter;stroke-miterlimit:1.45;stroke-dasharray:none;stroke-opacity:1"
         id="path44" /><path
         d="m 365,1400.3 v 12.03 h 12.031 v -12.03 z m 0,-50.15 v 12.03 h 12.031 v -12.03 z m 33.809,0 v 85.93 h 11.25 v -85.93 z m 31.312,0 v 85.93 h 11.559 l 45.152,-67.5 v 67.5 h 10.938 v -85.93 h -11.719 l -45.153,67.5 v -67.5 z m 87.277,0 v 85.93 h 57.973 v -10.15 h -46.562 v -26.56 h 40.312 v -10.16 h -40.312 v -39.06 z m 69.243,41.87 c 0,14.27 3.8,25.42 11.41,33.44 7.699,8.12 17.597,12.19 29.679,12.19 8.02,0 15.211,-1.93 21.571,-5.78 6.347,-3.75 11.191,-9.01 14.531,-15.79 3.328,-6.77 5,-14.47 5,-23.12 0,-8.65 -1.773,-16.41 -5.32,-23.28 -3.543,-6.88 -8.543,-12.08 -15,-15.63 -6.352,-3.54 -13.282,-5.31 -20.782,-5.31 -8.121,0 -15.359,1.93 -21.718,5.78 -6.352,3.96 -11.192,9.27 -14.532,15.94 -3.23,6.77 -4.839,13.96 -4.839,21.56 z m 11.718,-0.15 c 0,-10.42 2.762,-18.6 8.282,-24.54 5.621,-5.93 12.66,-8.9 21.089,-8.9 8.54,0 15.579,2.97 21.102,8.9 5.52,6.05 8.277,14.64 8.277,25.79 0,6.98 -1.199,13.07 -3.597,18.28 -2.293,5.21 -5.731,9.22 -10.313,12.03 -4.578,2.92 -9.687,4.37 -15.308,4.37 -8.02,0 -14.95,-2.76 -20.782,-8.28 -5.839,-5.52 -8.75,-14.74 -8.75,-27.65 z m 86.621,8.43 v 12.03 h 12.032 v -12.03 z m 0,-50.15 v 12.03 h 12.032 v -12.03 z m 28.032,27.65 10.617,0.94 c 0.519,-4.37 1.723,-7.92 3.59,-10.62 1.883,-2.71 4.742,-4.95 8.601,-6.72 3.961,-1.67 8.379,-2.5 13.282,-2.5 4.269,0 8.07,0.62 11.41,1.87 3.328,1.36 5.777,3.13 7.34,5.31 1.668,2.3 2.5,4.74 2.5,7.35 0,2.71 -0.782,5.05 -2.34,7.03 -1.571,2.08 -4.121,3.8 -7.66,5.16 -2.403,0.93 -7.551,2.34 -15.473,4.21 -7.809,1.88 -13.277,3.65 -16.41,5.32 -4.16,2.18 -7.231,4.84 -9.207,7.97 -1.981,3.23 -2.973,6.82 -2.973,10.78 0,4.27 1.199,8.28 3.59,12.03 2.5,3.85 6.09,6.72 10.781,8.59 4.789,1.98 10.051,2.97 15.781,2.97 6.36,0 11.981,-1.04 16.879,-3.12 4.891,-1.98 8.641,-5 11.25,-9.07 2.602,-3.95 4.012,-8.43 4.219,-13.43 l -10.937,-0.79 c -0.633,5.42 -2.661,9.48 -6.09,12.19 -3.34,2.81 -8.293,4.22 -14.852,4.22 -6.871,0 -11.871,-1.25 -15,-3.75 -3.121,-2.5 -4.691,-5.52 -4.691,-9.06 0,-3.13 1.101,-5.68 3.293,-7.66 2.179,-1.98 7.859,-4.01 17.027,-6.09 9.27,-2.08 15.621,-3.91 19.063,-5.47 5,-2.4 8.699,-5.36 11.089,-8.91 2.399,-3.43 3.598,-7.5 3.598,-12.18 0,-4.59 -1.301,-8.91 -3.91,-12.97 -2.598,-3.96 -6.348,-7.09 -11.25,-9.38 -4.891,-2.19 -10.418,-3.28 -16.559,-3.28 -7.808,0 -14.379,1.09 -19.691,3.28 -5.207,2.29 -9.32,5.73 -12.34,10.31 -2.918,4.59 -4.43,9.74 -4.527,15.47 z m 83.32,-27.65 v 85.93 h 11.398 v -75.78 h 42.352 v -10.15 z m 57.828,0 32.969,85.93 h 12.18 l 35.16,-85.93 H 921.66 l -10.16,26.09 h -35.781 l -9.528,-26.09 z m 24.84,35.31 h 29.059 l -8.899,23.75 c -2.808,7.19 -4.851,13.12 -6.101,17.81 -1.137,-5.52 -2.7,-10.99 -4.68,-16.4 z m 125.98,-5.16 11.25,-2.97 c -2.4,-9.27 -6.67,-16.35 -12.81,-21.25 -6.15,-4.89 -13.701,-7.34 -22.658,-7.34 -9.274,0 -16.821,1.88 -22.66,5.63 -5.832,3.75 -10.262,9.16 -13.282,16.25 -3.019,7.18 -4.531,14.89 -4.531,23.12 0,8.96 1.723,16.77 5.16,23.44 3.43,6.67 8.281,11.72 14.531,15.15 6.352,3.44 13.329,5.16 20.942,5.16 8.539,0 15.726,-2.19 21.558,-6.56 5.94,-4.38 10.05,-10.52 12.34,-18.44 l -11.25,-2.66 c -1.98,6.25 -4.89,10.79 -8.75,13.6 -3.75,2.92 -8.488,4.37 -14.218,4.37 -6.563,0 -12.082,-1.61 -16.563,-4.84 -4.367,-3.13 -7.5,-7.34 -9.367,-12.66 -1.774,-5.31 -2.66,-10.83 -2.66,-16.56 0,-7.29 1.039,-13.64 3.117,-19.06 2.191,-5.42 5.531,-9.48 10,-12.19 4.48,-2.71 9.383,-4.06 14.691,-4.06 6.36,0 11.719,1.82 16.102,5.47 4.478,3.64 7.498,9.11 9.058,16.4 z m 24.78,-30.15 v 85.93 h 11.41 v -42.65 l 42.66,42.65 h 15.47 l -36.1,-34.84 37.66,-51.09 h -15 l -30.63,43.43 -14.06,-13.59 v -29.84 z m 82.07,50.15 v 12.03 h 12.04 v -12.03 z m 0,-50.15 v 12.03 h 12.04 v -12.03 h -12.04"
         style="fill:#000000;fill-opacity:1;fill-rule:nonzero;stroke:none"
         id="path46" /><path
         d="m 193.109,1203.14 v 85.93 h 17.192 l 20.308,-60.78 c 1.879,-5.73 3.231,-10 4.071,-12.81 0.929,3.12 2.441,7.71 4.531,13.75 l 20.621,59.84 h 15.309 v -85.93 h -10.93 v 71.87 l -25,-71.87 h -10.32 l -24.84,73.12 v -73.12 z m 100.59,0 v 85.93 h 62.031 v -10.15 h -50.621 v -26.25 h 47.5 v -10.16 h -47.5 v -29.22 h 52.653 v -10.15 z m 75.981,27.65 10.621,0.94 c 0.519,-4.38 1.719,-7.92 3.59,-10.63 1.879,-2.7 4.738,-4.94 8.597,-6.71 3.961,-1.67 8.383,-2.5 13.282,-2.5 4.269,0 8.07,0.62 11.41,1.87 3.332,1.35 5.781,3.13 7.34,5.31 1.671,2.29 2.5,4.74 2.5,7.35 0,2.7 -0.782,5.05 -2.34,7.03 -1.571,2.08 -4.121,3.8 -7.66,5.15 -2.399,0.94 -7.551,2.35 -15.469,4.22 -7.813,1.88 -13.281,3.65 -16.41,5.32 -4.161,2.18 -7.231,4.84 -9.211,7.96 -1.981,3.23 -2.969,6.83 -2.969,10.79 0,4.27 1.199,8.28 3.59,12.03 2.5,3.85 6.09,6.72 10.781,8.59 4.789,1.98 10.047,2.97 15.777,2.97 6.36,0 11.981,-1.04 16.879,-3.13 4.891,-1.98 8.641,-5 11.25,-9.06 2.602,-3.96 4.012,-8.44 4.223,-13.44 l -10.941,-0.78 c -0.629,5.42 -2.661,9.48 -6.09,12.19 -3.34,2.81 -8.289,4.22 -14.848,4.22 -6.871,0 -11.871,-1.25 -15,-3.75 -3.121,-2.5 -4.691,-5.52 -4.691,-9.06 0,-3.13 1.097,-5.68 3.289,-7.66 2.179,-1.98 7.859,-4.01 17.031,-6.09 9.269,-2.09 15.621,-3.91 19.059,-5.47 5,-2.4 8.699,-5.37 11.089,-8.91 2.403,-3.44 3.602,-7.5 3.602,-12.19 0,-4.58 -1.301,-8.9 -3.91,-12.96 -2.602,-3.96 -6.352,-7.09 -11.25,-9.38 -4.891,-2.19 -10.422,-3.28 -16.563,-3.28 -7.808,0 -14.379,1.09 -19.687,3.28 -5.211,2.29 -9.321,5.73 -12.34,10.31 -2.922,4.59 -4.43,9.74 -4.531,15.47 z m 80.031,0 10.629,0.94 c 0.519,-4.38 1.719,-7.92 3.59,-10.63 1.879,-2.7 4.742,-4.94 8.601,-6.71 3.957,-1.67 8.379,-2.5 13.278,-2.5 4.273,0 8.07,0.62 11.402,1.87 3.34,1.35 5.789,3.13 7.348,5.31 1.671,2.29 2.5,4.74 2.5,7.35 0,2.7 -0.778,5.05 -2.348,7.03 -1.563,2.08 -4.109,3.8 -7.652,5.15 -2.399,0.94 -7.547,2.35 -15.469,4.22 -7.809,1.88 -13.281,3.65 -16.41,5.32 -4.16,2.18 -7.239,4.84 -9.219,7.96 -1.973,3.23 -2.961,6.83 -2.961,10.79 0,4.27 1.191,8.28 3.59,12.03 2.5,3.85 6.09,6.72 10.781,8.59 4.789,1.98 10.051,2.97 15.777,2.97 6.364,0 11.981,-1.04 16.883,-3.13 4.891,-1.98 8.641,-5 11.25,-9.06 2.598,-3.96 4.008,-8.44 4.219,-13.44 l -10.941,-0.78 c -0.629,5.42 -2.661,9.48 -6.098,12.19 -3.332,2.81 -8.281,4.22 -14.84,4.22 -6.871,0 -11.871,-1.25 -15,-3.75 -3.121,-2.5 -4.691,-5.52 -4.691,-9.06 0,-3.13 1.101,-5.68 3.281,-7.66 2.187,-1.98 7.871,-4.01 17.039,-6.09 9.27,-2.09 15.621,-3.91 19.059,-5.47 5,-2.4 8.703,-5.37 11.089,-8.91 2.403,-3.44 3.602,-7.5 3.602,-12.19 0,-4.58 -1.309,-8.9 -3.91,-12.96 -2.602,-3.96 -6.352,-7.09 -11.25,-9.38 -4.899,-2.19 -10.418,-3.28 -16.559,-3.28 -7.82,0 -14.383,1.09 -19.691,3.28 -5.211,2.29 -9.32,5.73 -12.34,10.31 -2.918,4.59 -4.43,9.74 -4.539,15.47 z m 74.418,-27.65 32.973,85.93 h 12.187 l 35.152,-85.93 h -12.812 l -10.16,26.09 h -35.778 l -9.531,-26.09 z m 24.84,35.31 h 29.07 l -8.91,23.75 c -2.809,7.19 -4.84,13.12 -6.09,17.81 -1.148,-5.52 -2.711,-10.99 -4.687,-16.41 z m 104.89,-1.56 v 10 l 36.25,0.15 v -31.87 c -5.527,-4.48 -11.25,-7.87 -17.187,-10.16 -5.942,-2.19 -12.031,-3.28 -18.281,-3.28 -8.442,0 -16.153,1.77 -23.129,5.31 -6.871,3.65 -12.082,8.86 -15.621,15.63 -3.442,6.87 -5.161,14.53 -5.161,22.97 0,8.43 1.719,16.25 5.161,23.43 3.539,7.29 8.589,12.66 15.148,16.1 6.57,3.54 14.121,5.31 22.66,5.31 6.25,0 11.871,-0.99 16.871,-2.97 5,-1.98 8.91,-4.79 11.719,-8.44 2.922,-3.54 5.109,-8.23 6.57,-14.06 l -10.16,-2.81 c -1.347,4.37 -3.019,7.81 -5,10.31 -1.879,2.5 -4.578,4.48 -8.129,5.94 -3.539,1.56 -7.441,2.34 -11.711,2.34 -5.211,0 -9.738,-0.78 -13.597,-2.34 -3.75,-1.56 -6.821,-3.65 -9.223,-6.25 -2.289,-2.61 -4.059,-5.47 -5.309,-8.6 -2.191,-5.31 -3.281,-11.04 -3.281,-17.18 0,-7.71 1.301,-14.17 3.91,-19.38 2.7,-5.1 6.563,-8.9 11.563,-11.4 5,-2.5 10.359,-3.75 16.09,-3.75 4.898,0 9.687,0.93 14.379,2.81 4.679,1.98 8.23,4.01 10.621,6.09 v 16.1 z m 53.34,-33.75 v 85.93 h 62.031 v -10.15 h -50.628 v -26.25 h 47.5 v -10.16 h -47.5 v -29.22 h 52.66 v -10.15 z m 81.281,50.15 v 12.03 h 12.04 v -12.03 z m 0,-50.15 v 12.03 h 12.04 v -12.03 z m 53.661,0 v 75.78 h -28.282 v 10.15 h 68.121 v -10.15 h -28.441 v -75.78 z m 51.89,0 v 85.93 h 11.25 v -35.31 h 44.688 v 35.31 h 11.41 v -85.93 h -11.41 v 40.46 h -44.688 v -40.46 z m 86.348,0 v 85.93 h 38.121 c 7.71,0 13.55,-0.78 17.5,-2.34 3.96,-1.56 7.14,-4.32 9.54,-8.28 2.39,-3.86 3.59,-8.13 3.59,-12.81 0,-6.15 -1.98,-11.31 -5.94,-15.47 -3.96,-4.17 -10.05,-6.83 -18.28,-7.97 3.02,-1.46 5.31,-2.87 6.88,-4.22 3.33,-3.02 6.45,-6.82 9.37,-11.41 l 15,-23.43 h -14.37 l -11.25,17.81 c -3.34,5.21 -6.1,9.16 -8.29,11.87 -2.08,2.71 -4.01,4.59 -5.78,5.63 -1.66,1.14 -3.38,1.98 -5.15,2.5 -1.25,0.21 -3.34,0.31 -6.25,0.31 h -13.281 v -38.12 z m 11.41,47.96 h 24.531 c 5.1,0 9.11,0.52 12.03,1.57 3.02,1.14 5.26,2.86 6.72,5.15 1.56,2.4 2.34,5 2.34,7.82 0,4.06 -1.51,7.39 -4.53,10 -2.92,2.6 -7.55,3.9 -13.91,3.9 h -27.181 z m 75.411,-47.96 v 85.93 h 62.03 v -10.15 h -50.63 v -26.25 h 47.5 v -10.16 h -47.5 v -29.22 h 52.66 v -10.15 z m 70.35,0 32.97,85.93 h 12.18 l 35.16,-85.93 h -12.81 l -10.16,26.09 h -35.78 l -9.53,-26.09 z m 24.84,35.31 h 29.06 l -8.9,23.75 c -2.82,7.19 -4.85,13.12 -6.1,17.81 -1.14,-5.52 -2.71,-10.99 -4.68,-16.41 z m 64.57,-35.31 v 85.93 h 29.69 c 6.67,0 11.77,-0.41 15.31,-1.25 4.9,-1.14 9.06,-3.17 12.5,-6.09 4.58,-3.86 7.97,-8.8 10.16,-14.84 2.29,-5.94 3.43,-12.71 3.43,-20.32 0,-6.56 -0.78,-12.34 -2.34,-17.34 -1.46,-5 -3.38,-9.17 -5.78,-12.5 -2.4,-3.33 -5.05,-5.94 -7.97,-7.81 -2.81,-1.88 -6.2,-3.34 -10.16,-4.38 -3.95,-0.94 -8.54,-1.4 -13.75,-1.4 z m 11.41,10.15 h 18.28 c 5.73,0 10.21,0.52 13.44,1.56 3.23,1.05 5.78,2.56 7.65,4.54 2.71,2.6 4.79,6.19 6.25,10.78 1.56,4.58 2.35,10.1 2.35,16.56 0,8.96 -1.51,15.83 -4.54,20.62 -2.91,4.9 -6.45,8.18 -10.62,9.85 -3.13,1.14 -8.02,1.72 -14.69,1.72 h -18.12 v -65.63"
         style="fill:#000000;fill-opacity:1;fill-rule:nonzero;stroke:none"
         id="path48" /><path
         d="M 34.3008,424.16 V 71.082 c 0,-22.0898 17.9101,-40 40,-40 H 1414.3 c 22.1,0 40,17.9102 40,40 V 424.16 c 0,22.09 -17.9,40 -40,40 H 74.3008 c -22.0899,0 -40,-17.91 -40,-40"
         style="fill:#ffffff;fill-opacity:1;fill-rule:nonzero;stroke:none"
         id="path50" /><path
         d="M 34.3008,424.16 V 71.082 c 0,-22.0898 17.9101,-40 40,-40 H 1414.3 c 22.1,0 40,17.9102 40,40 V 424.16 c 0,22.09 -17.9,40 -40,40 H 74.3008 c -22.0899,0 -40,-17.91 -40,-40 z"
         style="fill:none;stroke:#000000;stroke-width:10;stroke-linecap:butt;stroke-linejoin:miter;stroke-miterlimit:1.45;stroke-dasharray:none;stroke-opacity:1"
         id="path52" /><path
         d="m 365,324.141 v 12.039 h 12.031 v -12.039 z m 0,-50.149 v 12.028 h 12.031 v -12.028 z m 33.809,0 v 85.938 h 11.25 v -85.938 z m 31.312,0 v 85.938 h 11.559 l 45.152,-67.5 v 67.5 h 10.938 v -85.938 h -11.719 l -45.153,67.5 v -67.5 z m 87.277,0 v 85.938 h 57.973 v -10.16 h -46.562 v -26.559 h 40.312 v -10.16 h -40.312 v -39.059 z m 69.243,41.867 c 0,14.27 3.8,25.422 11.41,33.442 7.699,8.129 17.597,12.191 29.679,12.191 8.02,0 15.211,-1.933 21.571,-5.781 6.347,-3.75 11.191,-9.012 14.531,-15.781 3.328,-6.77 5,-14.481 5,-23.129 0,-8.641 -1.773,-16.41 -5.32,-23.281 -3.543,-6.879 -8.543,-12.079 -15,-15.629 -6.352,-3.539 -13.282,-5.309 -20.782,-5.309 -8.121,0 -15.359,1.93 -21.718,5.777 -6.352,3.961 -11.192,9.27 -14.532,15.942 -3.23,6.769 -4.839,13.961 -4.839,21.558 z m 11.718,-0.148 c 0,-10.422 2.762,-18.602 8.282,-24.531 5.621,-5.938 12.66,-8.91 21.089,-8.91 8.54,0 15.579,2.972 21.102,8.91 5.52,6.039 8.277,14.629 8.277,25.781 0,6.98 -1.199,13.07 -3.597,18.281 -2.293,5.207 -5.731,9.219 -10.313,12.028 -4.578,2.921 -9.687,4.371 -15.308,4.371 -8.02,0 -14.95,-2.762 -20.782,-8.282 -5.839,-5.519 -8.75,-14.738 -8.75,-27.648 z m 86.621,8.43 v 12.039 h 12.032 v -12.039 z m 0,-50.149 v 12.028 h 12.032 v -12.028 z m 28.032,27.649 10.617,0.941 c 0.519,-4.371 1.723,-7.91 3.59,-10.621 1.883,-2.711 4.742,-4.949 8.601,-6.719 3.961,-1.672 8.379,-2.5 13.282,-2.5 4.269,0 8.07,0.617 11.41,1.867 3.328,1.36 5.777,3.133 7.34,5.321 1.668,2.289 2.5,4.742 2.5,7.34 0,2.71 -0.782,5.05 -2.34,7.031 -1.571,2.078 -4.121,3.801 -7.66,5.16 -2.403,0.93 -7.551,2.34 -15.473,4.219 -7.809,1.871 -13.277,3.64 -16.41,5.312 -4.16,2.188 -7.231,4.84 -9.207,7.969 -1.981,3.23 -2.973,6.82 -2.973,10.781 0,4.27 1.199,8.278 3.59,12.028 2.5,3.851 6.09,6.722 10.781,8.589 4.789,1.981 10.051,2.973 15.781,2.973 6.36,0 11.981,-1.043 16.879,-3.121 4.891,-1.981 8.641,-5 11.25,-9.07 2.602,-3.95 4.012,-8.43 4.219,-13.43 l -10.937,-0.781 c -0.633,5.41 -2.661,9.48 -6.09,12.179 -3.34,2.821 -8.293,4.223 -14.852,4.223 -6.871,0 -11.871,-1.25 -15,-3.75 -3.121,-2.5 -4.691,-5.523 -4.691,-9.062 0,-3.129 1.101,-5.68 3.293,-7.661 2.179,-1.98 7.859,-4.007 17.027,-6.089 9.27,-2.079 15.621,-3.911 19.063,-5.469 5,-2.391 8.699,-5.36 11.089,-8.91 2.399,-3.43 3.598,-7.5 3.598,-12.18 0,-4.59 -1.301,-8.91 -3.91,-12.969 -2.598,-3.961 -6.348,-7.082 -11.25,-9.383 -4.891,-2.179 -10.418,-3.277 -16.559,-3.277 -7.808,0 -14.379,1.098 -19.691,3.277 -5.207,2.301 -9.32,5.731 -12.34,10.321 -2.918,4.582 -4.43,9.742 -4.527,15.461 z m 83.32,-27.649 v 85.938 h 11.398 v -75.789 h 42.352 v -10.149 z m 57.828,0 32.969,85.938 h 12.18 l 35.16,-85.938 H 921.66 l -10.16,26.09 h -35.781 l -9.528,-26.09 z M 879,309.301 h 29.059 l -8.899,23.75 c -2.808,7.191 -4.851,13.129 -6.101,17.808 -1.137,-5.519 -2.7,-10.988 -4.68,-16.398 z m 125.98,-5.16 11.25,-2.961 c -2.4,-9.27 -6.67,-16.36 -12.81,-21.25 -6.15,-4.899 -13.701,-7.348 -22.658,-7.348 -9.274,0 -16.821,1.879 -22.66,5.629 -5.832,3.75 -10.262,9.16 -13.282,16.25 -3.019,7.18 -4.531,14.891 -4.531,23.121 0,8.957 1.723,16.77 5.16,23.438 3.43,6.671 8.281,11.722 14.531,15.16 6.352,3.429 13.329,5.152 20.942,5.152 8.539,0 15.726,-2.191 21.558,-6.562 5.94,-4.379 10.05,-10.52 12.34,-18.438 l -11.25,-2.652 c -1.98,6.25 -4.89,10.781 -8.75,13.59 -3.75,2.921 -8.488,4.371 -14.218,4.371 -6.563,0 -12.082,-1.61 -16.563,-4.84 -4.367,-3.121 -7.5,-7.34 -9.367,-12.66 -1.774,-5.309 -2.66,-10.832 -2.66,-16.559 0,-7.293 1.039,-13.641 3.117,-19.062 2.191,-5.418 5.531,-9.481 10,-12.188 4.48,-2.711 9.383,-4.062 14.691,-4.062 6.36,0 11.719,1.82 16.102,5.472 4.478,3.637 7.498,9.11 9.058,16.399 z m 24.78,-30.149 v 85.938 h 11.41 v -42.66 l 42.66,42.66 h 15.47 l -36.1,-34.848 37.66,-51.09 h -15 l -30.63,43.438 -14.06,-13.598 v -29.84 z m 82.07,50.149 v 12.039 h 12.04 v -12.039 z m 0,-50.149 v 12.028 h 12.04 v -12.028 h -12.04"
         style="fill:#000000;fill-opacity:1;fill-rule:nonzero;stroke:none"
         id="path54" /><path
         d="m 193.109,126.98 v 85.93 h 17.192 l 20.308,-60.781 c 1.879,-5.727 3.231,-10 4.071,-12.809 0.929,3.129 2.441,7.711 4.531,13.75 l 20.621,59.84 h 15.309 v -85.93 h -10.93 v 71.872 l -25,-71.872 h -10.32 l -24.84,73.122 V 126.98 Z m 100.59,0 v 85.93 h 62.031 v -10.148 h -50.621 v -26.25 h 47.5 v -10.16 h -47.5 v -29.223 h 52.653 V 126.98 Z m 75.981,27.649 10.621,0.941 c 0.519,-4.371 1.719,-7.918 3.59,-10.621 1.879,-2.707 4.738,-4.949 8.597,-6.719 3.961,-1.667 8.383,-2.5 13.282,-2.5 4.269,0 8.07,0.622 11.41,1.872 3.332,1.359 5.781,3.128 7.34,5.308 1.671,2.301 2.5,4.742 2.5,7.352 0,2.707 -0.782,5.051 -2.34,7.027 -1.571,2.082 -4.121,3.801 -7.66,5.16 -2.399,0.93 -7.551,2.34 -15.469,4.211 -7.813,1.879 -13.281,3.653 -16.41,5.32 -4.161,2.18 -7.231,4.84 -9.211,7.969 -1.981,3.223 -2.969,6.821 -2.969,10.781 0,4.27 1.199,8.282 3.59,12.032 2.5,3.847 6.09,6.718 10.781,8.59 4.789,1.98 10.047,2.968 15.777,2.968 6.36,0 11.981,-1.039 16.879,-3.121 4.891,-1.98 8.641,-5 11.25,-9.07 2.602,-3.957 4.012,-8.43 4.223,-13.43 L 424.52,187.91 c -0.629,5.422 -2.661,9.481 -6.09,12.192 -3.34,2.808 -8.289,4.218 -14.848,4.218 -6.871,0 -11.871,-1.25 -15,-3.75 -3.121,-2.5 -4.691,-5.519 -4.691,-9.058 0,-3.133 1.097,-5.68 3.289,-7.66 2.179,-1.981 7.859,-4.012 17.031,-6.09 9.269,-2.09 15.621,-3.91 19.059,-5.473 5,-2.398 8.699,-5.367 11.089,-8.91 2.403,-3.43 3.602,-7.5 3.602,-12.18 0,-4.59 -1.301,-8.91 -3.91,-12.969 -2.602,-3.96 -6.352,-7.089 -11.25,-9.378 -4.891,-2.192 -10.422,-3.282 -16.563,-3.282 -7.808,0 -14.379,1.09 -19.687,3.282 -5.211,2.289 -9.321,5.73 -12.34,10.308 -2.922,4.59 -4.43,9.742 -4.531,15.469 z m 80.031,0 10.629,0.941 c 0.519,-4.371 1.719,-7.918 3.59,-10.621 1.879,-2.707 4.742,-4.949 8.601,-6.719 3.957,-1.667 8.379,-2.5 13.278,-2.5 4.273,0 8.07,0.622 11.402,1.872 3.34,1.359 5.789,3.128 7.348,5.308 1.671,2.301 2.5,4.742 2.5,7.352 0,2.707 -0.778,5.051 -2.348,7.027 -1.563,2.082 -4.109,3.801 -7.652,5.16 -2.399,0.93 -7.547,2.34 -15.469,4.211 -7.809,1.879 -13.281,3.653 -16.41,5.32 -4.16,2.18 -7.239,4.84 -9.219,7.969 -1.973,3.223 -2.961,6.821 -2.961,10.781 0,4.27 1.191,8.282 3.59,12.032 2.5,3.847 6.09,6.718 10.781,8.59 4.789,1.98 10.051,2.968 15.777,2.968 6.364,0 11.981,-1.039 16.883,-3.121 4.891,-1.98 8.641,-5 11.25,-9.07 2.598,-3.957 4.008,-8.43 4.219,-13.43 l -10.941,-0.789 c -0.629,5.422 -2.661,9.481 -6.098,12.192 -3.332,2.808 -8.281,4.218 -14.84,4.218 -6.871,0 -11.871,-1.25 -15,-3.75 -3.121,-2.5 -4.691,-5.519 -4.691,-9.058 0,-3.133 1.101,-5.68 3.281,-7.66 2.187,-1.981 7.871,-4.012 17.039,-6.09 9.27,-2.09 15.621,-3.91 19.059,-5.473 5,-2.398 8.703,-5.367 11.089,-8.91 2.403,-3.43 3.602,-7.5 3.602,-12.18 0,-4.59 -1.309,-8.91 -3.91,-12.969 -2.602,-3.96 -6.352,-7.089 -11.25,-9.378 -4.899,-2.192 -10.418,-3.282 -16.559,-3.282 -7.82,0 -14.383,1.09 -19.691,3.282 -5.211,2.289 -9.32,5.73 -12.34,10.308 -2.918,4.59 -4.43,9.742 -4.539,15.469 z m 74.418,-27.649 32.973,85.93 h 12.187 l 35.152,-85.93 h -12.812 l -10.16,26.09 h -35.778 l -9.531,-26.09 z m 24.84,35.309 h 29.07 l -8.91,23.75 c -2.809,7.191 -4.84,13.121 -6.09,17.813 -1.148,-5.52 -2.711,-10.993 -4.687,-16.403 z m 104.89,-1.559 v 10 l 36.25,0.149 v -31.867 c -5.527,-4.481 -11.25,-7.871 -17.187,-10.16 -5.942,-2.192 -12.031,-3.282 -18.281,-3.282 -8.442,0 -16.153,1.77 -23.129,5.309 -6.871,3.652 -12.082,8.863 -15.621,15.633 -3.442,6.867 -5.161,14.527 -5.161,22.968 0,8.43 1.719,16.25 5.161,23.43 3.539,7.301 8.589,12.66 15.148,16.102 6.57,3.539 14.121,5.308 22.66,5.308 6.25,0 11.871,-0.988 16.871,-2.968 5,-1.981 8.91,-4.789 11.719,-8.442 2.922,-3.539 5.109,-8.219 6.57,-14.058 l -10.16,-2.813 c -1.347,4.371 -3.019,7.813 -5,10.313 -1.879,2.5 -4.578,4.48 -8.129,5.937 -3.539,1.563 -7.441,2.34 -11.711,2.34 -5.211,0 -9.738,-0.777 -13.597,-2.34 -3.75,-1.559 -6.821,-3.648 -9.223,-6.25 -2.289,-2.598 -4.059,-5.469 -5.309,-8.59 -2.191,-5.32 -3.281,-11.047 -3.281,-17.187 0,-7.711 1.301,-14.172 3.91,-19.383 2.7,-5.098 6.563,-8.899 11.563,-11.399 5,-2.5 10.359,-3.75 16.09,-3.75 4.898,0 9.687,0.93 14.379,2.809 4.679,1.981 8.23,4.012 10.621,6.09 v 16.101 z m 53.34,-33.75 v 85.93 h 62.031 v -10.148 h -50.628 v -26.25 h 47.5 v -10.16 h -47.5 v -29.223 h 52.66 V 126.98 Z m 81.281,50.149 v 12.031 h 12.04 v -12.031 z m 0,-50.149 v 12.032 h 12.04 V 126.98 Z m 53.661,0 v 75.782 H 813.859 V 212.91 H 881.98 V 202.762 H 853.539 V 126.98 Z m 51.89,0 v 85.93 h 11.25 v -35.308 h 44.688 v 35.308 h 11.41 v -85.93 h -11.41 v 40.469 H 905.281 V 126.98 Z m 86.348,0 v 85.93 h 38.121 c 7.71,0 13.55,-0.781 17.5,-2.34 3.96,-1.558 7.14,-4.32 9.54,-8.281 2.39,-3.848 3.59,-8.129 3.59,-12.809 0,-6.148 -1.98,-11.308 -5.94,-15.468 -3.96,-4.172 -10.05,-6.821 -18.28,-7.973 3.02,-1.457 5.31,-2.867 6.88,-4.219 3.33,-3.019 6.45,-6.82 9.37,-11.41 l 15,-23.43 h -14.37 l -11.25,17.809 c -3.34,5.211 -6.1,9.172 -8.29,11.871 -2.08,2.711 -4.01,4.59 -5.78,5.629 -1.66,1.152 -3.38,1.981 -5.15,2.5 -1.25,0.211 -3.34,0.313 -6.25,0.313 H 991.789 V 126.98 Z m 11.41,47.969 h 24.531 c 5.1,0 9.11,0.52 12.03,1.563 3.02,1.14 5.26,2.859 6.72,5.148 1.56,2.403 2.34,5 2.34,7.82 0,4.059 -1.51,7.391 -4.53,10 -2.92,2.602 -7.55,3.899 -13.91,3.899 H 991.789 Z M 1067.2,126.98 v 85.93 h 62.03 v -10.148 h -50.63 v -26.25 h 47.5 v -10.16 h -47.5 v -29.223 h 52.66 V 126.98 Z m 70.35,0 32.97,85.93 h 12.18 l 35.16,-85.93 h -12.81 l -10.16,26.09 h -35.78 l -9.53,-26.09 z m 24.84,35.309 h 29.06 l -8.9,23.75 c -2.82,7.191 -4.85,13.121 -6.1,17.813 -1.14,-5.52 -2.71,-10.993 -4.68,-16.403 z m 64.57,-35.309 v 85.93 h 29.69 c 6.67,0 11.77,-0.41 15.31,-1.25 4.9,-1.14 9.06,-3.168 12.5,-6.09 4.58,-3.851 7.97,-8.8 10.16,-14.84 2.29,-5.941 3.43,-12.71 3.43,-20.32 0,-6.558 -0.78,-12.34 -2.34,-17.34 -1.46,-5 -3.38,-9.168 -5.78,-12.5 -2.4,-3.328 -5.05,-5.941 -7.97,-7.808 -2.81,-1.883 -6.2,-3.34 -10.16,-4.383 -3.95,-0.93 -8.54,-1.399 -13.75,-1.399 z m 11.41,10.149 h 18.28 c 5.73,0 10.21,0.523 13.44,1.57 3.23,1.043 5.78,2.551 7.65,4.531 2.71,2.602 4.79,6.192 6.25,10.782 1.56,4.578 2.35,10.097 2.35,16.558 0,8.961 -1.51,15.832 -4.54,20.629 -2.91,4.891 -6.45,8.172 -10.62,9.84 -3.13,1.152 -8.02,1.723 -14.69,1.723 h -18.12 v -65.633"
         style="fill:#000000;fill-opacity:1;fill-rule:nonzero;stroke:none"
         id="path56" /><path
         d="m 2874.3,3652.64 v -353.08 c 0,-22.09 17.91,-40 40,-40 h 1340 c 22.1,0 40,17.91 40,40 v 353.08 c 0,22.09 -17.9,40 -40,40 h -1340 c -22.09,0 -40,-17.91 -40,-40"
         style="fill:#ffffff;fill-opacity:1;fill-rule:nonzero;stroke:none"
         id="path58" /><path
         d="m 2874.3,3652.64 v -353.08 c 0,-22.09 17.91,-40 40,-40 h 1340 c 22.1,0 40,17.91 40,40 v 353.08 c 0,22.09 -17.9,40 -40,40 h -1340 c -22.09,0 -40,-17.91 -40,-40 z"
         style="fill:none;stroke:#000000;stroke-width:10;stroke-linecap:butt;stroke-linejoin:miter;stroke-miterlimit:1.45;stroke-dasharray:none;stroke-opacity:1"
         id="path60" /><path
         d="m 3458.42,3479.11 v 12.04 h 12.03 v -12.04 z m 0,-50.15 v 12.03 h 12.03 v -12.03 z m 53.65,0 v 75.78 h -28.28 v 10.16 h 68.12 v -10.16 h -28.44 v -75.78 z m 51.74,0 v 85.94 h 62.03 v -10.16 h -50.63 v -26.25 h 47.5 v -10.16 h -47.5 v -29.22 h 52.66 v -10.15 z m 141.13,30.15 11.25,-2.96 c -2.4,-9.27 -6.67,-16.36 -12.81,-21.25 -6.15,-4.9 -13.7,-7.35 -22.66,-7.35 -9.27,0 -16.82,1.88 -22.66,5.63 -5.83,3.75 -10.26,9.16 -13.28,16.25 -3.02,7.18 -4.53,14.89 -4.53,23.12 0,8.96 1.72,16.77 5.16,23.44 3.44,6.67 8.28,11.72 14.53,15.16 6.35,3.43 13.33,5.15 20.94,5.15 8.54,0 15.73,-2.19 21.56,-6.56 5.94,-4.38 10.05,-10.52 12.34,-18.44 l -11.25,-2.65 c -1.98,6.25 -4.89,10.78 -8.75,13.59 -3.75,2.92 -8.49,4.37 -14.22,4.37 -6.56,0 -12.08,-1.61 -16.56,-4.84 -4.37,-3.12 -7.5,-7.34 -9.37,-12.66 -1.77,-5.31 -2.66,-10.83 -2.66,-16.56 0,-7.29 1.04,-13.64 3.13,-19.06 2.18,-5.42 5.52,-9.48 10,-12.19 4.47,-2.71 9.37,-4.06 14.68,-4.06 6.36,0 11.72,1.82 16.1,5.47 4.48,3.64 7.5,9.11 9.06,16.4"
         style="fill:#000000;fill-opacity:1;fill-rule:nonzero;stroke:none"
         id="path62" /><path
         d="m 744.301,2616.69 v 562.46"
         style="fill:none;stroke:#000000;stroke-width:10;stroke-linecap:butt;stroke-linejoin:miter;stroke-miterlimit:1.45;stroke-dasharray:none;stroke-opacity:1"
         id="path64" /><path
         d="m 744.301,3259.15 -50,-120 50,30 50,-30 z"
         style="fill:#000000;fill-opacity:1;fill-rule:nonzero;stroke:none"
         id="path66" /><path
         d="M 390.961,3031.52 H 1097.64 V 2844.51 H 390.961 v 187.01"
         style="fill:#ffffff;fill-opacity:1;fill-rule:nonzero;stroke:none"
         id="path68" /><path
         d="m 421.75,2941.04 v 12.03 h 12.031 v -12.03 z m 0,-50.16 v 12.03 h 12.031 v -12.03 z m 31.461,0 v 85.94 h 17.187 l 20.313,-60.78 c 1.879,-5.73 3.23,-10 4.059,-12.82 0.941,3.13 2.449,7.71 4.531,13.75 l 20.629,59.85 h 15.308 v -85.94 h -10.937 v 71.87 l -25,-71.87 h -10.313 l -24.84,73.12 v -73.12 z m 100.59,0 v 85.94 h 62.031 v -10.16 h -50.633 v -26.25 h 47.5 v -10.16 h -47.5 v -29.21 h 52.66 v -10.16 z m 79.719,0 v 85.94 h 11.57 l 45.148,-67.5 v 67.5 h 10.942 v -85.94 h -11.719 l -45.16,67.5 v -67.5 z m 108.539,0 v 75.78 h -28.278 v 10.16 h 68.117 v -10.16 h -28.437 v -75.78 z m 53.461,0 v 85.94 h 11.25 v -85.94 z m 27.871,41.87 c 0,14.28 3.8,25.42 11.398,33.44 7.711,8.13 17.609,12.19 29.691,12.19 8.02,0 15.211,-1.93 21.559,-5.78 6.359,-3.75 11.199,-9.01 14.531,-15.78 3.34,-6.77 5,-14.48 5,-23.13 0,-8.64 -1.769,-16.4 -5.308,-23.28 -3.543,-6.87 -8.543,-12.08 -15,-15.62 -6.352,-3.55 -13.282,-5.32 -20.782,-5.32 -8.121,0 -15.359,1.93 -21.718,5.78 -6.352,3.96 -11.203,9.28 -14.532,15.94 -3.23,6.77 -4.839,13.96 -4.839,21.56 z m 11.718,-0.15 c 0,-10.42 2.762,-18.6 8.282,-24.53 5.621,-5.94 12.648,-8.91 21.089,-8.91 8.54,0 15.571,2.97 21.09,8.91 5.532,6.04 8.289,14.63 8.289,25.78 0,6.98 -1.199,13.07 -3.597,18.28 -2.293,5.21 -5.731,9.22 -10.313,12.03 -4.578,2.92 -9.687,4.38 -15.308,4.38 -8.02,0 -14.95,-2.76 -20.782,-8.29 -5.839,-5.52 -8.75,-14.74 -8.75,-27.65 z m 85.051,-41.72 v 85.94 h 11.57 l 45.149,-67.5 v 67.5 h 10.941 v -85.94 h -11.718 l -45.153,67.5 v -67.5 z m 82.91,27.66 10.63,0.93 c 0.52,-4.37 1.72,-7.91 3.59,-10.62 1.88,-2.71 4.74,-4.95 8.6,-6.72 3.96,-1.67 8.38,-2.5 13.28,-2.5 4.27,0 8.07,0.62 11.4,1.87 3.34,1.36 5.79,3.13 7.35,5.32 1.66,2.29 2.5,4.74 2.5,7.34 0,2.71 -0.78,5.05 -2.35,7.03 -1.56,2.09 -4.11,3.8 -7.65,5.16 -2.4,0.94 -7.55,2.34 -15.47,4.22 -7.81,1.87 -13.28,3.64 -16.41,5.31 -4.16,2.19 -7.24,4.84 -9.22,7.97 -1.97,3.23 -2.96,6.82 -2.96,10.78 0,4.27 1.19,8.28 3.59,12.03 2.5,3.85 6.09,6.72 10.78,8.59 4.79,1.98 10.05,2.97 15.78,2.97 6.36,0 11.98,-1.04 16.88,-3.12 4.89,-1.98 8.64,-5 11.25,-9.06 2.6,-3.96 4.01,-8.44 4.22,-13.44 l -10.94,-0.78 c -0.63,5.41 -2.66,9.48 -6.1,12.18 -3.33,2.82 -8.28,4.22 -14.84,4.22 -6.87,0 -11.87,-1.25 -15,-3.75 -3.12,-2.5 -4.69,-5.52 -4.69,-9.06 0,-3.12 1.1,-5.68 3.28,-7.66 2.19,-1.97 7.87,-4.01 17.04,-6.09 9.27,-2.08 15.62,-3.91 19.06,-5.47 5,-2.39 8.7,-5.36 11.09,-8.9 2.4,-3.44 3.6,-7.5 3.6,-12.19 0,-4.59 -1.31,-8.91 -3.91,-12.97 -2.6,-3.96 -6.35,-7.08 -11.25,-9.38 -4.9,-2.18 -10.42,-3.28 -16.56,-3.28 -7.82,0 -14.38,1.1 -19.69,3.28 -5.21,2.3 -9.32,5.73 -12.34,10.32 -2.92,4.58 -4.43,9.74 -4.54,15.47"
         style="fill:#000000;fill-opacity:1;fill-rule:nonzero;stroke:none"
         id="path70" /><path
         d="M 1453.96,2399.94 H 2794.1"
         style="fill:none;stroke:#000000;stroke-width:10;stroke-linecap:butt;stroke-linejoin:miter;stroke-miterlimit:1.45;stroke-dasharray:none;stroke-opacity:1"
         id="path72" /><path
         d="m 2874.1,2399.94 -120,50 30,-50 -30,-50 z"
         style="fill:#000000;fill-opacity:1;fill-rule:nonzero;stroke:none"
         id="path74" /><path
         d="m 1834.26,2493.44 h 660.09 v -187.01 h -660.09 v 187.01"
         style="fill:#ffffff;fill-opacity:1;fill-rule:nonzero;stroke:none"
         id="path76" /><path
         d="m 1865.04,2402.96 v 12.03 h 12.03 v -12.03 z m 0,-50.16 v 12.03 h 12.03 v -12.03 z m 32.4,0 v 85.94 h 57.97 v -10.16 h -46.56 v -26.56 h 40.31 v -10.16 h -40.31 v -39.06 z m 69.24,41.88 c 0,14.27 3.8,25.41 11.4,33.43 7.71,8.13 17.61,12.19 29.69,12.19 8.02,0 15.21,-1.93 21.56,-5.78 6.36,-3.75 11.2,-9.01 14.54,-15.78 3.33,-6.77 5,-14.48 5,-23.13 0,-8.64 -1.78,-16.4 -5.32,-23.28 -3.54,-6.87 -8.54,-12.08 -15,-15.62 -6.35,-3.55 -13.28,-5.32 -20.78,-5.32 -8.12,0 -15.36,1.93 -21.72,5.79 -6.35,3.95 -11.2,9.27 -14.53,15.93 -3.23,6.77 -4.84,13.96 -4.84,21.57 z m 11.72,-0.16 c 0,-10.42 2.76,-18.59 8.28,-24.53 5.62,-5.94 12.65,-8.91 21.09,-8.91 8.54,0 15.57,2.97 21.1,8.91 5.52,6.04 8.28,14.63 8.28,25.78 0,6.98 -1.2,13.07 -3.6,18.28 -2.29,5.21 -5.73,9.22 -10.31,12.03 -4.58,2.92 -9.69,4.38 -15.31,4.38 -8.02,0 -14.95,-2.76 -20.78,-8.28 -5.84,-5.53 -8.75,-14.74 -8.75,-27.66 z m 84.59,-41.72 v 85.94 h 11.4 v -75.78 h 42.35 v -10.16 z m 66.73,0 v 85.94 h 11.41 v -75.78 h 42.34 v -10.16 z m 63.77,41.88 c 0,14.27 3.81,25.41 11.41,33.43 7.71,8.13 17.6,12.19 29.69,12.19 8.02,0 15.21,-1.93 21.56,-5.78 6.35,-3.75 11.2,-9.01 14.53,-15.78 3.34,-6.77 5,-14.48 5,-23.13 0,-8.64 -1.77,-16.4 -5.31,-23.28 -3.54,-6.87 -8.54,-12.08 -15,-15.62 -6.35,-3.55 -13.28,-5.32 -20.78,-5.32 -8.13,0 -15.37,1.93 -21.72,5.79 -6.35,3.95 -11.2,9.27 -14.53,15.93 -3.23,6.77 -4.85,13.96 -4.85,21.57 z m 11.72,-0.16 c 0,-10.42 2.76,-18.59 8.28,-24.53 5.63,-5.94 12.66,-8.91 21.1,-8.91 8.54,0 15.57,2.97 21.09,8.91 5.52,6.04 8.28,14.63 8.28,25.78 0,6.98 -1.19,13.07 -3.59,18.28 -2.29,5.21 -5.73,9.22 -10.31,12.03 -4.59,2.92 -9.69,4.38 -15.32,4.38 -8.02,0 -14.94,-2.76 -20.78,-8.28 -5.83,-5.53 -8.75,-14.74 -8.75,-27.66 z m 100.06,-41.72 -22.81,85.94 h 11.72 l 13.12,-56.41 c 1.36,-5.83 2.55,-11.67 3.6,-17.5 2.18,9.17 3.49,14.48 3.9,15.94 l 16.25,57.97 h 13.75 l 12.35,-43.44 c 3.02,-10.83 5.26,-20.99 6.72,-30.47 1.04,5.42 2.44,11.67 4.21,18.75 l 13.44,55.16 h 11.41 l -23.44,-85.94 h -11.09 l -17.97,65.47 c -1.56,5.42 -2.5,8.75 -2.81,10 -0.84,-3.86 -1.67,-7.19 -2.5,-10 l -18.13,-65.47 z m 94.51,27.66 10.63,0.93 c 0.52,-4.37 1.72,-7.91 3.59,-10.62 1.88,-2.71 4.74,-4.95 8.6,-6.72 3.95,-1.67 8.38,-2.5 13.28,-2.5 4.27,0 8.07,0.63 11.4,1.88 3.34,1.35 5.78,3.12 7.35,5.31 1.66,2.29 2.5,4.74 2.5,7.34 0,2.71 -0.78,5.05 -2.35,7.03 -1.56,2.09 -4.11,3.8 -7.65,5.16 -2.4,0.94 -7.56,2.34 -15.47,4.22 -7.81,1.87 -13.28,3.64 -16.41,5.31 -4.16,2.19 -7.24,4.84 -9.22,7.97 -1.98,3.23 -2.97,6.82 -2.97,10.78 0,4.27 1.2,8.28 3.6,12.03 2.5,3.86 6.09,6.72 10.78,8.6 4.79,1.97 10.05,2.96 15.78,2.96 6.35,0 11.98,-1.04 16.88,-3.12 4.89,-1.98 8.64,-5 11.25,-9.06 2.6,-3.96 4.01,-8.44 4.21,-13.44 l -10.93,-0.78 c -0.63,5.41 -2.66,9.48 -6.1,12.19 -3.33,2.81 -8.28,4.21 -14.84,4.21 -6.88,0 -11.88,-1.25 -15,-3.75 -3.13,-2.5 -4.69,-5.52 -4.69,-9.06 0,-3.12 1.1,-5.68 3.28,-7.65 2.19,-1.98 7.87,-4.02 17.03,-6.1 9.28,-2.08 15.63,-3.9 19.07,-5.47 5,-2.39 8.69,-5.36 11.09,-8.9 2.4,-3.44 3.59,-7.5 3.59,-12.19 0,-4.58 -1.3,-8.91 -3.9,-12.97 -2.61,-3.96 -6.36,-7.08 -11.25,-9.37 -4.9,-2.19 -10.42,-3.29 -16.56,-3.29 -7.82,0 -14.38,1.1 -19.69,3.29 -5.21,2.29 -9.32,5.72 -12.35,10.31 -2.91,4.58 -4.42,9.74 -4.53,15.47"
         style="fill:#000000;fill-opacity:1;fill-rule:nonzero;stroke:none"
         id="path78" /><path
         d="M 3012.63,1540.4 1390.35,2155.13"
         style="fill:none;stroke:#000000;stroke-width:10;stroke-linecap:butt;stroke-linejoin:miter;stroke-miterlimit:1.45;stroke-dasharray:none;stroke-opacity:1"
         id="path80" /><path
         d="m 1315.54,2183.48 94.5,-89.28 -10.34,57.39 45.77,36.13 z"
         style="fill:#000000;fill-opacity:1;fill-rule:nonzero;stroke:none"
         id="path82" /><path
         d="m 1834.26,1955.37 h 660.09 v -187.02 h -660.09 v 187.02"
         style="fill:#ffffff;fill-opacity:1;fill-rule:nonzero;stroke:none"
         id="path84" /><path
         d="m 1865.04,1864.88 v 12.03 h 12.03 v -12.03 z m 0,-50.16 v 12.03 h 12.03 v -12.03 z m 32.4,0 v 85.94 h 57.97 v -10.16 h -46.56 v -26.56 h 40.31 v -10.16 h -40.31 v -39.06 z m 69.24,41.88 c 0,14.27 3.8,25.41 11.4,33.43 7.71,8.13 17.61,12.19 29.69,12.19 8.02,0 15.21,-1.93 21.56,-5.78 6.36,-3.75 11.2,-9.01 14.54,-15.78 3.33,-6.77 5,-14.48 5,-23.13 0,-8.64 -1.78,-16.4 -5.32,-23.28 -3.54,-6.87 -8.54,-12.08 -15,-15.62 -6.35,-3.54 -13.28,-5.32 -20.78,-5.32 -8.12,0 -15.36,1.93 -21.72,5.79 -6.35,3.95 -11.2,9.27 -14.53,15.93 -3.23,6.77 -4.84,13.96 -4.84,21.57 z m 11.72,-0.16 c 0,-10.42 2.76,-18.59 8.28,-24.53 5.62,-5.94 12.65,-8.91 21.09,-8.91 8.54,0 15.57,2.97 21.1,8.91 5.52,6.04 8.28,14.63 8.28,25.78 0,6.98 -1.2,13.07 -3.6,18.28 -2.29,5.21 -5.73,9.22 -10.31,12.03 -4.58,2.92 -9.69,4.38 -15.31,4.38 -8.02,0 -14.95,-2.76 -20.78,-8.28 -5.84,-5.52 -8.75,-14.74 -8.75,-27.66 z m 84.59,-41.72 v 85.94 h 11.4 v -75.78 h 42.35 v -10.16 z m 66.73,0 v 85.94 h 11.41 v -75.78 h 42.34 v -10.16 z m 63.77,41.88 c 0,14.27 3.81,25.41 11.41,33.43 7.71,8.13 17.6,12.19 29.69,12.19 8.02,0 15.21,-1.93 21.56,-5.78 6.35,-3.75 11.2,-9.01 14.53,-15.78 3.34,-6.77 5,-14.48 5,-23.13 0,-8.64 -1.77,-16.4 -5.31,-23.28 -3.54,-6.87 -8.54,-12.08 -15,-15.62 -6.35,-3.54 -13.28,-5.32 -20.78,-5.32 -8.13,0 -15.37,1.93 -21.72,5.79 -6.35,3.95 -11.2,9.27 -14.53,15.93 -3.23,6.77 -4.85,13.96 -4.85,21.57 z m 11.72,-0.16 c 0,-10.42 2.76,-18.59 8.28,-24.53 5.63,-5.94 12.66,-8.91 21.1,-8.91 8.54,0 15.57,2.97 21.09,8.91 5.52,6.04 8.28,14.63 8.28,25.78 0,6.98 -1.19,13.07 -3.59,18.28 -2.29,5.21 -5.73,9.22 -10.31,12.03 -4.59,2.92 -9.69,4.38 -15.32,4.38 -8.02,0 -14.94,-2.76 -20.78,-8.28 -5.83,-5.52 -8.75,-14.74 -8.75,-27.66 z m 100.06,-41.72 -22.81,85.94 h 11.72 l 13.12,-56.41 c 1.36,-5.83 2.55,-11.66 3.6,-17.5 2.18,9.17 3.49,14.48 3.9,15.94 l 16.25,57.97 h 13.75 l 12.35,-43.44 c 3.02,-10.83 5.26,-20.99 6.72,-30.47 1.04,5.42 2.44,11.67 4.21,18.75 l 13.44,55.16 h 11.41 l -23.44,-85.94 h -11.09 l -17.97,65.47 c -1.56,5.42 -2.5,8.75 -2.81,10 -0.84,-3.85 -1.67,-7.19 -2.5,-10 l -18.13,-65.47 z m 94.51,27.66 10.63,0.93 c 0.52,-4.37 1.72,-7.91 3.59,-10.62 1.88,-2.71 4.74,-4.95 8.6,-6.72 3.95,-1.67 8.38,-2.5 13.28,-2.5 4.27,0 8.07,0.63 11.4,1.88 3.34,1.35 5.78,3.12 7.35,5.31 1.66,2.29 2.5,4.74 2.5,7.34 0,2.71 -0.78,5.05 -2.35,7.03 -1.56,2.09 -4.11,3.81 -7.65,5.16 -2.4,0.94 -7.56,2.34 -15.47,4.22 -7.81,1.87 -13.28,3.64 -16.41,5.31 -4.16,2.19 -7.24,4.84 -9.22,7.97 -1.98,3.23 -2.97,6.82 -2.97,10.78 0,4.27 1.2,8.28 3.6,12.03 2.5,3.86 6.09,6.72 10.78,8.6 4.79,1.98 10.05,2.96 15.78,2.96 6.35,0 11.98,-1.04 16.88,-3.12 4.89,-1.98 8.64,-5 11.25,-9.06 2.6,-3.96 4.01,-8.44 4.21,-13.44 l -10.93,-0.78 c -0.63,5.42 -2.66,9.48 -6.1,12.19 -3.33,2.81 -8.28,4.21 -14.84,4.21 -6.88,0 -11.88,-1.25 -15,-3.75 -3.13,-2.5 -4.69,-5.52 -4.69,-9.06 0,-3.12 1.1,-5.67 3.28,-7.65 2.19,-1.98 7.87,-4.01 17.03,-6.1 9.28,-2.08 15.63,-3.9 19.07,-5.47 5,-2.39 8.69,-5.36 11.09,-8.9 2.4,-3.44 3.59,-7.5 3.59,-12.19 0,-4.58 -1.3,-8.91 -3.9,-12.97 -2.61,-3.96 -6.36,-7.08 -11.25,-9.37 -4.9,-2.19 -10.42,-3.29 -16.56,-3.29 -7.82,0 -14.38,1.1 -19.69,3.29 -5.21,2.29 -9.32,5.73 -12.35,10.31 -2.91,4.58 -4.42,9.74 -4.53,15.47"
         style="fill:#000000;fill-opacity:1;fill-rule:nonzero;stroke:none"
         id="path86" /><path
         d="m 744.301,1540.54 v 562.45"
         style="fill:none;stroke:#000000;stroke-width:10;stroke-linecap:butt;stroke-linejoin:miter;stroke-miterlimit:1.45;stroke-dasharray:none;stroke-opacity:1"
         id="path88" /><path
         d="m 744.301,2182.99 -50,-120 50,30 50,-30 z"
         style="fill:#000000;fill-opacity:1;fill-rule:nonzero;stroke:none"
         id="path90" /><path
         d="M 414.262,1955.37 H 1074.35 V 1768.35 H 414.262 v 187.02"
         style="fill:#ffffff;fill-opacity:1;fill-rule:nonzero;stroke:none"
         id="path92" /><path
         d="m 445.039,1864.88 v 12.03 h 12.031 v -12.03 z m 0,-50.16 v 12.03 h 12.031 v -12.03 z m 32.402,0 v 85.94 h 57.969 v -10.16 h -46.558 v -26.56 h 40.308 v -10.16 h -40.308 v -39.06 z m 69.239,41.88 c 0,14.27 3.8,25.41 11.402,33.43 7.707,8.13 17.609,12.19 29.688,12.19 8.019,0 15.21,-1.93 21.562,-5.78 6.359,-3.75 11.199,-9.01 14.539,-15.78 3.328,-6.77 5,-14.48 5,-23.13 0,-8.64 -1.781,-16.4 -5.32,-23.28 -3.539,-6.87 -8.539,-12.08 -15,-15.62 -6.352,-3.54 -13.281,-5.32 -20.781,-5.32 -8.122,0 -15.36,1.93 -21.719,5.79 -6.352,3.95 -11.199,9.27 -14.531,15.93 -3.231,6.77 -4.84,13.96 -4.84,21.57 z m 11.718,-0.16 c 0,-10.42 2.762,-18.59 8.282,-24.53 5.621,-5.94 12.652,-8.91 21.09,-8.91 8.539,0 15.57,2.97 21.101,8.91 5.52,6.04 8.277,14.63 8.277,25.78 0,6.98 -1.199,13.07 -3.597,18.28 -2.289,5.21 -5.731,9.22 -10.313,12.03 -4.578,2.92 -9.687,4.38 -15.308,4.38 -8.02,0 -14.95,-2.76 -20.782,-8.28 -5.839,-5.52 -8.75,-14.74 -8.75,-27.66 z m 84.594,-41.72 v 85.94 h 11.399 v -75.78 h 42.351 v -10.16 z m 66.727,0 v 85.94 h 11.41 v -75.78 h 42.34 v -10.16 z m 63.769,41.88 c 0,14.27 3.813,25.41 11.41,33.43 7.711,8.13 17.602,12.19 29.692,12.19 8.019,0 15.211,-1.93 21.558,-5.78 6.352,-3.75 11.204,-9.01 14.532,-15.78 3.34,-6.77 5,-14.48 5,-23.13 0,-8.64 -1.77,-16.4 -5.309,-23.28 -3.539,-6.87 -8.539,-12.08 -15,-15.62 -6.351,-3.54 -13.281,-5.32 -20.781,-5.32 -8.129,0 -15.371,1.93 -21.719,5.79 -6.351,3.95 -11.199,9.27 -14.531,15.93 -3.231,6.77 -4.852,13.96 -4.852,21.57 z m 11.723,-0.16 c 0,-10.42 2.758,-18.59 8.277,-24.53 5.633,-5.94 12.66,-8.91 21.102,-8.91 8.539,0 15.57,2.97 21.09,8.91 5.519,6.04 8.281,14.63 8.281,25.78 0,6.98 -1.191,13.07 -3.59,18.28 -2.289,5.21 -5.73,9.22 -10.312,12.03 -4.59,2.92 -9.688,4.38 -15.321,4.38 -8.019,0 -14.937,-2.76 -20.777,-8.28 -5.832,-5.52 -8.75,-14.74 -8.75,-27.66 z m 100.059,-41.72 -22.809,85.94 h 11.719 l 13.121,-56.41 c 1.359,-5.83 2.551,-11.66 3.597,-17.5 2.184,9.17 3.493,14.48 3.903,15.94 l 16.25,57.97 h 13.75 l 12.347,-43.44 c 3.024,-10.83 5.262,-20.99 6.723,-30.47 1.039,5.42 2.438,11.67 4.211,18.75 l 13.438,55.16 h 11.41 l -23.442,-85.94 h -11.09 l -17.968,65.47 c -1.559,5.42 -2.5,8.75 -2.809,10 -0.84,-3.85 -1.672,-7.19 -2.5,-10 l -18.133,-65.47 z m 94.511,27.66 10.629,0.93 c 0.52,-4.37 1.719,-7.91 3.59,-10.62 1.879,-2.71 4.738,-4.95 8.6,-6.72 3.95,-1.67 8.38,-2.5 13.28,-2.5 4.27,0 8.07,0.63 11.4,1.88 3.34,1.35 5.78,3.12 7.35,5.31 1.66,2.29 2.5,4.74 2.5,7.34 0,2.71 -0.78,5.05 -2.35,7.03 -1.56,2.09 -4.11,3.81 -7.65,5.16 -2.4,0.94 -7.56,2.34 -15.47,4.22 -7.81,1.87 -13.281,3.64 -16.41,5.31 -4.16,2.19 -7.238,4.84 -9.219,7.97 -1.98,3.23 -2.972,6.82 -2.972,10.78 0,4.27 1.203,8.28 3.601,12.03 2.5,3.86 6.09,6.72 10.781,8.6 4.789,1.98 10.049,2.96 15.779,2.96 6.35,0 11.98,-1.04 16.88,-3.12 4.89,-1.98 8.64,-5 11.25,-9.06 2.6,-3.96 4.01,-8.44 4.21,-13.44 l -10.93,-0.78 c -0.63,5.42 -2.66,9.48 -6.1,12.19 -3.33,2.81 -8.28,4.21 -14.84,4.21 -6.88,0 -11.88,-1.25 -14.999,-3.75 -3.132,-2.5 -4.691,-5.52 -4.691,-9.06 0,-3.12 1.102,-5.67 3.281,-7.65 2.188,-1.98 7.869,-4.01 17.029,-6.1 9.28,-2.08 15.63,-3.9 19.07,-5.47 5,-2.39 8.69,-5.36 11.09,-8.9 2.4,-3.44 3.59,-7.5 3.59,-12.19 0,-4.58 -1.3,-8.91 -3.9,-12.97 -2.61,-3.96 -6.36,-7.08 -11.25,-9.37 -4.9,-2.19 -10.42,-3.29 -16.56,-3.29 -7.82,0 -14.38,1.1 -19.69,3.29 -5.211,2.29 -9.32,5.73 -12.351,10.31 -2.911,4.58 -4.418,9.74 -4.528,15.47"
         style="fill:#000000;fill-opacity:1;fill-rule:nonzero;stroke:none"
         id="path94" /><path
         d="M 744.301,464.379 V 1026.83"
         style="fill:none;stroke:#000000;stroke-width:10;stroke-linecap:butt;stroke-linejoin:miter;stroke-miterlimit:1.45;stroke-dasharray:none;stroke-opacity:1"
         id="path96" /><path
         d="m 744.301,1106.83 -50,-119.998 50,29.998 50,-29.998 z"
         style="fill:#000000;fill-opacity:1;fill-rule:nonzero;stroke:none"
         id="path98" /><path
         d="M 414.262,879.211 H 1074.35 V 692.191 H 414.262 v 187.02"
         style="fill:#ffffff;fill-opacity:1;fill-rule:nonzero;stroke:none"
         id="path100" /><path
         d="m 445.039,788.719 v 12.031 h 12.031 v -12.031 z m 0,-50.156 v 12.027 h 12.031 v -12.027 z m 32.402,0 V 824.5 h 57.969 v -10.16 h -46.558 v -26.559 h 40.308 v -10.16 h -40.308 v -39.058 z m 69.239,41.878 c 0,14.27 3.8,25.411 11.402,33.43 7.707,8.129 17.609,12.192 29.688,12.192 8.019,0 15.21,-1.934 21.562,-5.782 6.359,-3.75 11.199,-9.011 14.539,-15.781 3.328,-6.77 5,-14.48 5,-23.129 0,-8.641 -1.781,-16.402 -5.32,-23.281 -3.539,-6.871 -8.539,-12.078 -15,-15.621 -6.352,-3.539 -13.281,-5.309 -20.781,-5.309 -8.122,0 -15.36,1.922 -21.719,5.781 -6.352,3.961 -11.199,9.27 -14.531,15.93 -3.231,6.781 -4.84,13.961 -4.84,21.57 z m 11.718,-0.16 c 0,-10.422 2.762,-18.59 8.282,-24.531 5.621,-5.937 12.652,-8.91 21.09,-8.91 8.539,0 15.57,2.973 21.101,8.91 5.52,6.039 8.277,14.629 8.277,25.781 0,6.981 -1.199,13.071 -3.597,18.282 -2.289,5.207 -5.731,9.218 -10.313,12.027 -4.578,2.922 -9.687,4.379 -15.308,4.379 -8.02,0 -14.95,-2.758 -20.782,-8.278 -5.839,-5.519 -8.75,-14.742 -8.75,-27.66 z m 84.594,-41.718 V 824.5 h 11.399 v -75.781 h 42.351 v -10.156 z m 66.727,0 V 824.5 h 11.41 v -75.781 h 42.34 v -10.156 z m 63.769,41.878 c 0,14.27 3.813,25.411 11.41,33.43 7.711,8.129 17.602,12.192 29.692,12.192 8.019,0 15.211,-1.934 21.558,-5.782 6.352,-3.75 11.204,-9.011 14.532,-15.781 3.34,-6.77 5,-14.48 5,-23.129 0,-8.641 -1.77,-16.402 -5.309,-23.281 -3.539,-6.871 -8.539,-12.078 -15,-15.621 -6.351,-3.539 -13.281,-5.309 -20.781,-5.309 -8.129,0 -15.371,1.922 -21.719,5.781 -6.351,3.961 -11.199,9.27 -14.531,15.93 -3.231,6.781 -4.852,13.961 -4.852,21.57 z m 11.723,-0.16 c 0,-10.422 2.758,-18.59 8.277,-24.531 5.633,-5.937 12.66,-8.91 21.102,-8.91 8.539,0 15.57,2.973 21.09,8.91 5.519,6.039 8.281,14.629 8.281,25.781 0,6.981 -1.191,13.071 -3.59,18.282 -2.289,5.207 -5.73,9.218 -10.312,12.027 -4.59,2.922 -9.688,4.379 -15.321,4.379 -8.019,0 -14.937,-2.758 -20.777,-8.278 -5.832,-5.519 -8.75,-14.742 -8.75,-27.66 z M 885.27,738.563 862.461,824.5 h 11.719 l 13.121,-56.41 c 1.359,-5.828 2.551,-11.66 3.597,-17.5 2.184,9.172 3.493,14.48 3.903,15.941 l 16.25,57.969 h 13.75 l 12.347,-43.437 c 3.024,-10.833 5.262,-20.993 6.723,-30.473 1.039,5.422 2.438,11.672 4.211,18.75 l 13.438,55.16 h 11.41 l -23.442,-85.937 h -11.09 l -17.968,65.468 c -1.559,5.418 -2.5,8.75 -2.809,10 -0.84,-3.851 -1.672,-7.191 -2.5,-10 l -18.133,-65.468 z m 94.511,27.656 10.629,0.941 c 0.52,-4.379 1.719,-7.918 3.59,-10.629 1.879,-2.711 4.738,-4.949 8.6,-6.718 3.95,-1.661 8.38,-2.5 13.28,-2.5 4.27,0 8.07,0.628 11.4,1.878 3.34,1.348 5.78,3.122 7.35,5.309 1.66,2.289 2.5,4.742 2.5,7.34 0,2.711 -0.78,5.062 -2.35,7.031 -1.56,2.09 -4.11,3.809 -7.65,5.16 -2.4,0.938 -7.56,2.34 -15.47,4.219 -7.81,1.871 -13.281,3.652 -16.41,5.313 -4.16,2.187 -7.238,4.847 -9.219,7.968 -1.98,3.231 -2.972,6.821 -2.972,10.782 0,4.269 1.203,8.277 3.601,12.027 2.5,3.859 6.09,6.723 10.781,8.601 4.789,1.981 10.049,2.969 15.779,2.969 6.35,0 11.98,-1.051 16.88,-3.129 4.89,-1.98 8.64,-5 11.25,-9.062 2.6,-3.957 4.01,-8.438 4.21,-13.438 l -10.93,-0.781 c -0.63,5.422 -2.66,9.48 -6.1,12.191 -3.33,2.809 -8.28,4.219 -14.84,4.219 -6.88,0 -11.88,-1.25 -14.999,-3.75 -3.132,-2.5 -4.691,-5.531 -4.691,-9.07 0,-3.121 1.102,-5.668 3.281,-7.649 2.188,-1.98 7.869,-4.011 17.029,-6.101 9.28,-2.078 15.63,-3.899 19.07,-5.469 5,-2.391 8.69,-5.359 11.09,-8.902 2.4,-3.438 3.59,-7.5 3.59,-12.188 0,-4.582 -1.3,-8.91 -3.9,-12.968 -2.61,-3.961 -6.36,-7.083 -11.25,-9.372 -4.9,-2.191 -10.42,-3.281 -16.56,-3.281 -7.82,0 -14.38,1.09 -19.69,3.281 -5.211,2.289 -9.32,5.731 -12.351,10.309 -2.911,4.582 -4.418,9.742 -4.528,15.469"
         style="fill:#000000;fill-opacity:1;fill-rule:nonzero;stroke:none"
         id="path102" /><path
         d="m 3584.3,2616.69 v 562.46"
         style="fill:none;stroke:#000000;stroke-width:10;stroke-linecap:butt;stroke-linejoin:miter;stroke-miterlimit:1.45;stroke-dasharray:none;stroke-opacity:1"
         id="path104" /><path
         d="m 3584.3,3259.15 -50,-120 50,30 50,-30 z"
         style="fill:#000000;fill-opacity:1;fill-rule:nonzero;stroke:none"
         id="path106" /><path
         d="m 3230.96,3031.52 h 706.68 v -187.01 h -706.68 v 187.01"
         style="fill:#ffffff;fill-opacity:1;fill-rule:nonzero;stroke:none"
         id="path108" /><path
         d="m 3261.75,2941.04 v 12.03 h 12.03 v -12.03 z m 0,-50.16 v 12.03 h 12.03 v -12.03 z m 31.46,0 v 85.94 h 17.19 l 20.31,-60.78 c 1.88,-5.73 3.23,-10 4.06,-12.82 0.94,3.13 2.45,7.71 4.53,13.75 l 20.63,59.85 h 15.31 v -85.94 h -10.94 v 71.87 l -25,-71.87 h -10.31 l -24.84,73.12 v -73.12 z m 100.59,0 v 85.94 h 62.03 v -10.16 h -50.63 v -26.25 h 47.5 v -10.16 h -47.5 v -29.21 h 52.66 v -10.16 z m 79.72,0 v 85.94 h 11.57 l 45.15,-67.5 v 67.5 h 10.94 v -85.94 h -11.72 l -45.16,67.5 v -67.5 z m 108.54,0 v 75.78 h -28.28 v 10.16 h 68.12 v -10.16 h -28.44 v -75.78 z m 53.46,0 v 85.94 h 11.25 v -85.94 z m 27.87,41.87 c 0,14.28 3.8,25.42 11.4,33.44 7.71,8.13 17.61,12.19 29.69,12.19 8.02,0 15.21,-1.93 21.56,-5.78 6.36,-3.75 11.2,-9.01 14.53,-15.78 3.34,-6.77 5,-14.48 5,-23.13 0,-8.64 -1.77,-16.4 -5.31,-23.28 -3.54,-6.87 -8.54,-12.08 -15,-15.62 -6.35,-3.55 -13.28,-5.32 -20.78,-5.32 -8.12,0 -15.36,1.93 -21.72,5.78 -6.35,3.96 -11.2,9.28 -14.53,15.94 -3.23,6.77 -4.84,13.96 -4.84,21.56 z m 11.72,-0.15 c 0,-10.42 2.76,-18.6 8.28,-24.53 5.62,-5.94 12.65,-8.91 21.09,-8.91 8.54,0 15.57,2.97 21.09,8.91 5.53,6.04 8.29,14.63 8.29,25.78 0,6.98 -1.2,13.07 -3.6,18.28 -2.29,5.21 -5.73,9.22 -10.31,12.03 -4.58,2.92 -9.69,4.38 -15.31,4.38 -8.02,0 -14.95,-2.76 -20.78,-8.29 -5.84,-5.52 -8.75,-14.74 -8.75,-27.65 z m 85.05,-41.72 v 85.94 h 11.57 l 45.15,-67.5 v 67.5 h 10.94 v -85.94 h -11.72 l -45.15,67.5 v -67.5 z m 82.91,27.66 10.63,0.93 c 0.52,-4.37 1.72,-7.91 3.59,-10.62 1.88,-2.71 4.74,-4.95 8.6,-6.72 3.96,-1.67 8.38,-2.5 13.28,-2.5 4.27,0 8.07,0.62 11.4,1.87 3.34,1.36 5.79,3.13 7.35,5.32 1.66,2.29 2.5,4.74 2.5,7.34 0,2.71 -0.78,5.05 -2.35,7.03 -1.56,2.09 -4.11,3.8 -7.65,5.16 -2.4,0.94 -7.55,2.34 -15.47,4.22 -7.81,1.87 -13.28,3.64 -16.41,5.31 -4.16,2.19 -7.24,4.84 -9.22,7.97 -1.97,3.23 -2.96,6.82 -2.96,10.78 0,4.27 1.19,8.28 3.59,12.03 2.5,3.85 6.09,6.72 10.78,8.59 4.79,1.98 10.05,2.97 15.78,2.97 6.36,0 11.98,-1.04 16.88,-3.12 4.89,-1.98 8.64,-5 11.25,-9.06 2.6,-3.96 4.01,-8.44 4.22,-13.44 l -10.94,-0.78 c -0.63,5.41 -2.66,9.48 -6.1,12.18 -3.33,2.82 -8.28,4.22 -14.84,4.22 -6.87,0 -11.87,-1.25 -15,-3.75 -3.12,-2.5 -4.69,-5.52 -4.69,-9.06 0,-3.12 1.1,-5.68 3.28,-7.66 2.19,-1.97 7.87,-4.01 17.04,-6.09 9.27,-2.08 15.62,-3.91 19.06,-5.47 5,-2.39 8.7,-5.36 11.09,-8.9 2.4,-3.44 3.6,-7.5 3.6,-12.19 0,-4.59 -1.31,-8.91 -3.91,-12.97 -2.6,-3.96 -6.35,-7.08 -11.25,-9.38 -4.9,-2.18 -10.42,-3.28 -16.56,-3.28 -7.82,0 -14.38,1.1 -19.69,3.28 -5.21,2.3 -9.32,5.73 -12.34,10.32 -2.92,4.58 -4.43,9.74 -4.54,15.47"
         style="fill:#000000;fill-opacity:1;fill-rule:nonzero;stroke:none"
         id="path110" /></g></g></svg>
