<?xml version="1.0" encoding="UTF-8" standalone="no"?>
<!-- Created with Inkscape (http://www.inkscape.org/) -->

<svg
   version="1.1"
   id="svg2"
   xml:space="preserve"
   width="854.66669"
   height="277.33334"
   viewBox="0 0 854.66669 277.33334"
   sodipodi:docname="sysml_act_graphschema.svg"
   inkscape:version="1.1.2 (b8e25be833, 2022-02-05)"
   xmlns:inkscape="http://www.inkscape.org/namespaces/inkscape"
   xmlns:sodipodi="http://sodipodi.sourceforge.net/DTD/sodipodi-0.dtd"
   xmlns="http://www.w3.org/2000/svg"
   xmlns:svg="http://www.w3.org/2000/svg"><defs
     id="defs6" /><sodipodi:namedview
     id="namedview4"
     pagecolor="#ffffff"
     bordercolor="#666666"
     borderopacity="1.0"
     inkscape:pageshadow="2"
     inkscape:pageopacity="0.0"
     inkscape:pagecheckerboard="0"
     showgrid="false"
     inkscape:zoom="1.3888455"
     inkscape:cx="427.33334"
     inkscape:cy="138.96434"
     inkscape:window-width="1920"
     inkscape:window-height="1017"
     inkscape:window-x="-1928"
     inkscape:window-y="-8"
     inkscape:window-maximized="1"
     inkscape:current-layer="g8" /><g
     id="g8"
     inkscape:groupmode="layer"
     inkscape:label="ink_ext_XXXXXX"
     transform="matrix(1.3333333,0,0,-1.3333333,0,277.33333)"><g
       id="g10"
       transform="scale(0.1)"><path
         d="M 0,2080 H 6410 V 0 H 0 v 2080"
         style="fill:#ffffff;fill-opacity:1;fill-rule:nonzero;stroke:none"
         id="path12" /><path
         d="M 0,2080 H 6410 V 0 H 0 v 2080"
         style="fill:#ffffff;fill-opacity:1;fill-rule:nonzero;stroke:none"
         id="path14" /><path
         d="M 0,2080 H 6410 V 0 H 0 v 2080"
         style="fill:#ffffff;fill-opacity:1;fill-rule:nonzero;stroke:none"
         id="path16" /><path
         d="M 37.2109,1143.62 V 774.539 c 0,-22.09 17.9102,-40 40,-40 H 1267.21 c 22.09,0 40,17.91 40,40 v 369.081 c 0,22.09 -17.91,40 -40,40 H 77.2109 c -22.0898,0 -40,-17.91 -40,-40"
         style="fill:#ffffff;fill-opacity:1;fill-rule:nonzero;stroke:none"
         id="path18" /><path
         d="M 37.2109,1143.62 V 774.539 c 0,-22.09 17.9102,-40 40,-40 H 1267.21 c 22.09,0 40,17.91 40,40 v 369.081 c 0,22.09 -17.91,40 -40,40 H 77.2109 c -22.0898,0 -40,-17.91 -40,-40 z"
         style="fill:none;stroke:#000000;stroke-width:10;stroke-linecap:butt;stroke-linejoin:miter;stroke-miterlimit:1.45;stroke-dasharray:none;stroke-opacity:1"
         id="path20" /><path
         d="m 546.32,962.102 v 12.027 h 12.032 v -12.027 z m 0,-50.161 v 12.028 h 12.032 v -12.028 z m 22.399,0 32.972,85.938 h 12.188 l 35.152,-85.938 h -12.812 l -10.149,26.09 h -35.789 l -9.531,-26.09 z m 24.851,35.309 h 29.059 l -8.91,23.75 c -2.809,7.191 -4.84,13.129 -6.09,17.82 -1.149,-5.531 -2.707,-10.988 -4.688,-16.41 z m 125.969,-5.148 11.25,-2.973 c -2.391,-9.27 -6.668,-16.359 -12.809,-21.25 -6.148,-4.899 -13.699,-7.348 -22.66,-7.348 -9.269,0 -16.82,1.879 -22.648,5.629 -5.84,3.75 -10.262,9.172 -13.281,16.25 -3.032,7.192 -4.539,14.899 -4.539,23.121 0,8.957 1.718,16.778 5.16,23.438 3.437,6.672 8.277,11.722 14.527,15.16 6.359,3.441 13.332,5.152 20.941,5.152 8.54,0 15.731,-2.179 21.559,-6.562 5.941,-4.367 10.051,-10.52 12.352,-18.438 l -11.25,-2.652 c -1.981,6.25 -4.899,10.781 -8.75,13.59 -3.75,2.922 -8.493,4.383 -14.219,4.383 -6.57,0 -12.09,-1.622 -16.57,-4.852 -4.372,-3.121 -7.5,-7.34 -9.372,-12.648 -1.769,-5.321 -2.66,-10.84 -2.66,-16.571 0,-7.293 1.039,-13.64 3.129,-19.062 2.192,-5.41 5.52,-9.481 10,-12.188 4.481,-2.699 9.371,-4.062 14.692,-4.062 6.351,0 11.711,1.82 16.089,5.472 4.481,3.649 7.5,9.118 9.059,16.411 z m 47.133,-30.161 v 75.778 h -28.281 v 10.16 h 68.121 v -10.16 h -28.43 v -75.778 h -11.41"
         style="fill:#000000;fill-opacity:1;fill-rule:nonzero;stroke:none"
         id="path22" /><path
         d="M 5110,1143.62 V 774.539 c 0,-22.09 17.91,-40 40,-40 h 1190 c 22.1,0 40,17.91 40,40 v 369.081 c 0,22.09 -17.9,40 -40,40 H 5150 c -22.09,0 -40,-17.91 -40,-40"
         style="fill:#ffffff;fill-opacity:1;fill-rule:nonzero;stroke:none"
         id="path24" /><path
         d="M 5110,1143.62 V 774.539 c 0,-22.09 17.91,-40 40,-40 h 1190 c 22.1,0 40,17.91 40,40 v 369.081 c 0,22.09 -17.9,40 -40,40 H 5150 c -22.09,0 -40,-17.91 -40,-40 z"
         style="fill:none;stroke:#000000;stroke-width:10;stroke-linecap:butt;stroke-linejoin:miter;stroke-miterlimit:1.45;stroke-dasharray:none;stroke-opacity:1"
         id="path26" /><path
         d="m 5252.4,962.102 v 12.027 h 12.03 v -12.027 z m 0,-50.161 v 12.028 h 12.03 v -12.028 z m 22.4,0 32.97,85.938 h 12.19 l 35.16,-85.938 h -12.82 l -10.15,26.09 h -35.78 l -9.53,-26.09 z m 24.85,35.309 h 29.06 L 5319.8,971 c -2.81,7.191 -4.84,13.129 -6.09,17.82 -1.14,-5.531 -2.71,-10.988 -4.69,-16.41 z m 125.97,-5.148 11.26,-2.973 c -2.4,-9.27 -6.67,-16.359 -12.82,-21.25 -6.14,-4.899 -13.7,-7.348 -22.65,-7.348 -9.27,0 -16.83,1.879 -22.66,5.629 -5.83,3.75 -10.26,9.172 -13.28,16.25 -3.02,7.192 -4.53,14.899 -4.53,23.121 0,8.957 1.72,16.778 5.15,23.438 3.44,6.672 8.29,11.722 14.53,15.16 6.36,3.441 13.34,5.152 20.94,5.152 8.54,0 15.73,-2.179 21.56,-6.562 5.94,-4.367 10.06,-10.52 12.35,-18.438 l -11.25,-2.652 c -1.98,6.25 -4.9,10.781 -8.75,13.59 -3.75,2.922 -8.49,4.383 -14.22,4.383 -6.56,0 -12.08,-1.622 -16.56,-4.852 -4.38,-3.121 -7.5,-7.34 -9.38,-12.648 -1.77,-5.321 -2.65,-10.84 -2.65,-16.571 0,-7.293 1.04,-13.64 3.12,-19.062 2.19,-5.41 5.52,-9.481 10,-12.188 4.48,-2.699 9.38,-4.062 14.69,-4.062 6.35,0 11.72,1.82 16.09,5.472 4.48,3.649 7.5,9.118 9.06,16.411 z m 47.13,-30.161 v 75.778 h -28.28 v 10.16 h 68.13 v -10.16 h -28.44 v -75.778 z m 52.99,50.161 v 12.027 h 12.03 v -12.027 z m 0,-50.161 v 12.028 h 12.03 v -12.028 z m 32.09,0 v 85.938 h 62.03 v -10.16 h -50.62 v -26.25 h 47.5 V 951.32 h -47.5 v -29.218 h 52.65 v -10.161 z m 70.98,0 33.28,44.84 -29.22,41.098 h 13.44 l 15.62,-22.027 c 3.23,-4.59 5.52,-8.133 6.88,-10.633 1.98,3.133 4.27,6.41 6.87,9.851 l 17.19,22.809 h 12.34 l -30.15,-40.469 32.5,-45.469 h -14.06 l -21.57,30.629 c -1.25,1.77 -2.5,3.692 -3.75,5.782 -1.87,-3.133 -3.23,-5.262 -4.06,-6.411 l -21.56,-30 z m 89.1,0 v 85.938 h 62.03 v -10.16 h -50.62 v -26.25 h 47.5 V 951.32 h -47.5 v -29.218 h 52.65 v -10.161 z m 141.13,30.161 11.25,-2.973 c -2.39,-9.27 -6.66,-16.359 -12.81,-21.25 -6.15,-4.899 -13.7,-7.348 -22.66,-7.348 -9.27,0 -16.82,1.879 -22.65,5.629 -5.84,3.75 -10.26,9.172 -13.28,16.25 -3.02,7.192 -4.53,14.899 -4.53,23.121 0,8.957 1.71,16.778 5.15,23.438 3.44,6.672 8.28,11.722 14.53,15.16 6.36,3.441 13.34,5.152 20.94,5.152 8.54,0 15.73,-2.179 21.56,-6.562 5.94,-4.367 10.06,-10.52 12.35,-18.438 l -11.25,-2.652 c -1.98,6.25 -4.9,10.781 -8.75,13.59 -3.75,2.922 -8.49,4.383 -14.22,4.383 -6.56,0 -12.09,-1.622 -16.56,-4.852 -4.38,-3.121 -7.5,-7.34 -9.38,-12.648 -1.77,-5.321 -2.66,-10.84 -2.66,-16.571 0,-7.293 1.05,-13.64 3.13,-19.062 2.19,-5.41 5.52,-9.481 10,-12.188 4.48,-2.699 9.37,-4.062 14.69,-4.062 6.35,0 11.72,1.82 16.09,5.472 4.48,3.649 7.5,9.118 9.06,16.411 z m 81.66,55.777 h 11.41 v -49.688 c 0,-8.652 -0.99,-15.519 -2.97,-20.621 -1.98,-5 -5.52,-9.121 -10.62,-12.351 -5.11,-3.117 -11.78,-4.688 -20,-4.688 -8.03,0 -14.64,1.36 -19.85,4.071 -5.1,2.808 -8.75,6.82 -10.94,12.027 -2.18,5.312 -3.28,12.5 -3.28,21.562 v 49.688 h 11.41 v -49.527 c 0,-7.5 0.68,-13.02 2.03,-16.571 1.46,-3.543 3.85,-6.301 7.19,-8.281 3.44,-1.871 7.6,-2.809 12.5,-2.809 8.33,0 14.27,1.879 17.81,5.629 3.54,3.852 5.31,11.192 5.31,22.032 z m 52.13,-85.938 v 75.778 h -28.28 v 10.16 h 68.13 v -10.16 h -28.44 v -75.778 z m 53.46,0 v 85.938 h 11.21 v -85.938 z m 27.91,41.879 c 0,14.27 3.8,25.41 11.4,33.43 7.7,8.129 17.6,12.191 29.7,12.191 8,0 15.2,-1.929 21.5,-5.781 6.4,-3.75 11.2,-9.012 14.5,-15.781 3.4,-6.77 5,-14.481 5,-23.129 0,-8.641 -1.7,-16.398 -5.3,-23.281 -3.5,-6.867 -8.5,-12.078 -15,-15.617 -6.3,-3.543 -13.2,-5.321 -20.7,-5.321 -8.2,0 -15.4,1.93 -21.8,5.789 -6.3,3.95 -11.2,9.27 -14.5,15.93 -3.2,6.77 -4.8,13.961 -4.8,21.57 z m 11.7,-0.16 c 0,-10.422 2.7,-18.59 8.3,-24.531 5.6,-5.938 12.6,-8.91 21.1,-8.91 8.5,0 15.5,2.972 21,8.91 5.6,6.043 8.3,14.633 8.3,25.781 0,6.981 -1.2,13.07 -3.6,18.281 -2.3,5.207 -5.7,9.219 -10.3,12.028 -4.6,2.922 -9.7,4.383 -15.3,4.383 -8,0 -14.9,-2.762 -20.8,-8.282 -5.8,-5.531 -8.7,-14.738 -8.7,-27.66 z m 85,-41.719 v 85.938 h 11.6 l 45.2,-67.5 v 67.5 h 10.9 v -85.938 h -11.7 l -45.2,67.5 v -67.5 h -10.8"
         style="fill:#000000;fill-opacity:1;fill-rule:nonzero;stroke:none"
         id="path28" /><path
         d="m 2313.6,2007.24 v -369.08 c 0,-22.09 17.91,-40 40,-40 h 1190 c 22.1,0 40,17.91 40,40 v 369.08 c 0,22.09 -17.9,40 -40,40 h -1190 c -22.09,0 -40,-17.91 -40,-40"
         style="fill:#ffffff;fill-opacity:1;fill-rule:nonzero;stroke:none"
         id="path30" /><path
         d="m 2313.6,2007.24 v -369.08 c 0,-22.09 17.91,-40 40,-40 h 1190 c 22.1,0 40,17.91 40,40 v 369.08 c 0,22.09 -17.9,40 -40,40 h -1190 c -22.09,0 -40,-17.91 -40,-40 z"
         style="fill:none;stroke:#000000;stroke-width:10;stroke-linecap:butt;stroke-linejoin:miter;stroke-miterlimit:1.45;stroke-dasharray:none;stroke-opacity:1"
         id="path32" /><path
         d="m 2512.7,1825.71 v 12.04 h 12.03 v -12.04 z m 0,-50.15 v 12.03 h 12.03 v -12.03 z m 22.4,0 32.97,85.94 h 12.18 l 35.16,-85.94 h -12.81 l -10.16,26.09 h -35.78 l -9.53,-26.09 z m 24.84,35.31 H 2589 l -8.9,23.75 c -2.81,7.19 -4.85,13.13 -6.1,17.81 -1.14,-5.52 -2.7,-10.98 -4.68,-16.4 z m 125.98,-5.16 11.25,-2.96 c -2.4,-9.27 -6.67,-16.36 -12.81,-21.25 -6.15,-4.9 -13.7,-7.35 -22.66,-7.35 -9.27,0 -16.82,1.88 -22.66,5.63 -5.83,3.75 -10.26,9.17 -13.28,16.25 -3.02,7.18 -4.53,14.9 -4.53,23.12 0,8.96 1.72,16.78 5.16,23.44 3.43,6.67 8.28,11.72 14.53,15.16 6.35,3.43 13.33,5.15 20.94,5.15 8.54,0 15.73,-2.19 21.56,-6.56 5.94,-4.38 10.05,-10.52 12.34,-18.44 l -11.25,-2.65 c -1.98,6.25 -4.89,10.78 -8.75,13.59 -3.75,2.92 -8.49,4.37 -14.22,4.37 -6.56,0 -12.08,-1.61 -16.56,-4.84 -4.37,-3.12 -7.5,-7.34 -9.37,-12.66 -1.77,-5.31 -2.66,-10.83 -2.66,-16.56 0,-7.29 1.04,-13.64 3.12,-19.06 2.19,-5.41 5.53,-9.48 10,-12.19 4.48,-2.7 9.38,-4.06 14.69,-4.06 6.36,0 11.72,1.82 16.1,5.47 4.48,3.65 7.5,9.12 9.06,16.4 z m 47.13,-30.15 v 75.78 h -28.28 v 10.16 h 68.12 v -10.16 h -28.44 v -75.78 z m 52.99,50.15 v 12.04 h 12.03 v -12.04 z m 0,-50.15 v 12.03 h 12.03 v -12.03 z m 22.4,0 32.97,85.94 h 12.18 l 35.16,-85.94 h -12.81 l -10.16,26.09 H 2830 l -9.53,-26.09 z m 24.84,35.31 h 29.06 l -8.9,23.75 c -2.81,7.19 -4.85,13.13 -6.1,17.81 -1.14,-5.52 -2.7,-10.98 -4.68,-16.4 z m 125.98,-5.16 11.25,-2.96 c -2.4,-9.27 -6.67,-16.36 -12.81,-21.25 -6.15,-4.9 -13.7,-7.35 -22.66,-7.35 -9.27,0 -16.82,1.88 -22.66,5.63 -5.83,3.75 -10.26,9.17 -13.28,16.25 -3.02,7.18 -4.53,14.9 -4.53,23.12 0,8.96 1.72,16.78 5.16,23.44 3.43,6.67 8.28,11.72 14.53,15.16 6.35,3.43 13.33,5.15 20.94,5.15 8.54,0 15.73,-2.19 21.56,-6.56 5.94,-4.38 10.05,-10.52 12.34,-18.44 l -11.25,-2.65 c -1.98,6.25 -4.89,10.78 -8.75,13.59 -3.75,2.92 -8.49,4.37 -14.22,4.37 -6.56,0 -12.08,-1.61 -16.56,-4.84 -4.37,-3.12 -7.5,-7.34 -9.37,-12.66 -1.77,-5.31 -2.66,-10.83 -2.66,-16.56 0,-7.29 1.04,-13.64 3.12,-19.06 2.19,-5.41 5.53,-9.48 10,-12.19 4.48,-2.7 9.38,-4.06 14.69,-4.06 6.36,0 11.72,1.82 16.1,5.47 4.48,3.65 7.5,9.12 9.06,16.4 z m 47.13,-30.15 v 75.78 h -28.28 v 10.16 h 68.12 v -10.16 h -28.44 v -75.78 z m 51.42,0 v 85.94 h 11.57 l 45.15,-67.5 v 67.5 h 10.94 v -85.94 h -11.72 l -45.16,67.5 v -67.5 z m 83.23,41.87 c 0,14.28 3.8,25.42 11.4,33.44 7.71,8.13 17.61,12.19 29.69,12.19 8.02,0 15.21,-1.93 21.56,-5.78 6.36,-3.75 11.2,-9.01 14.53,-15.78 3.34,-6.77 5,-14.48 5,-23.13 0,-8.64 -1.77,-16.41 -5.31,-23.28 -3.54,-6.88 -8.54,-12.08 -15,-15.63 -6.35,-3.53 -13.28,-5.31 -20.78,-5.31 -8.13,0 -15.37,1.93 -21.72,5.78 -6.35,3.96 -11.2,9.28 -14.53,15.94 -3.23,6.77 -4.84,13.96 -4.84,21.56 z m 11.71,-0.15 c 0,-10.42 2.76,-18.6 8.29,-24.53 5.62,-5.94 12.65,-8.91 21.09,-8.91 8.54,0 15.57,2.97 21.09,8.91 5.52,6.04 8.28,14.63 8.28,25.78 0,6.98 -1.19,13.07 -3.59,18.28 -2.29,5.21 -5.73,9.22 -10.31,12.03 -4.59,2.92 -9.69,4.37 -15.31,4.37 -8.03,0 -14.95,-2.75 -20.79,-8.28 -5.83,-5.52 -8.75,-14.73 -8.75,-27.65 z m 85.06,-41.72 v 85.94 h 29.69 c 6.67,0 11.77,-0.42 15.31,-1.25 4.9,-1.15 9.07,-3.18 12.5,-6.1 4.59,-3.85 7.97,-8.8 10.16,-14.84 2.29,-5.94 3.44,-12.71 3.44,-20.31 0,-6.57 -0.78,-12.35 -2.35,-17.35 -1.46,-5 -3.38,-9.16 -5.78,-12.5 -2.39,-3.33 -5.05,-5.94 -7.97,-7.81 -2.81,-1.88 -6.19,-3.33 -10.15,-4.38 -3.96,-0.93 -8.54,-1.4 -13.75,-1.4 z m 11.41,10.15 h 18.28 c 5.73,0 10.21,0.53 13.44,1.57 3.23,1.04 5.78,2.55 7.65,4.53 2.71,2.6 4.8,6.2 6.25,10.78 1.57,4.59 2.35,10.11 2.35,16.56 0,8.96 -1.51,15.84 -4.53,20.63 -2.92,4.9 -6.46,8.18 -10.63,9.84 -3.12,1.15 -8.02,1.72 -14.69,1.72 h -18.12 z m 75.57,-10.15 v 85.94 h 62.03 v -10.16 h -50.63 v -26.25 h 47.5 v -10.16 h -47.5 v -29.22 h 52.66 v -10.15 h -64.06"
         style="fill:#000000;fill-opacity:1;fill-rule:nonzero;stroke:none"
         id="path34" /><path
         d="m 5110,2007.24 v -369.08 c 0,-22.09 17.91,-40 40,-40 h 1190 c 22.1,0 40,17.91 40,40 v 369.08 c 0,22.09 -17.9,40 -40,40 H 5150 c -22.09,0 -40,-17.91 -40,-40"
         style="fill:#ffffff;fill-opacity:1;fill-rule:nonzero;stroke:none"
         id="path36" /><path
         d="m 5110,2007.24 v -369.08 c 0,-22.09 17.91,-40 40,-40 h 1190 c 22.1,0 40,17.91 40,40 v 369.08 c 0,22.09 -17.9,40 -40,40 H 5150 c -22.09,0 -40,-17.91 -40,-40 z"
         style="fill:none;stroke:#000000;stroke-width:10;stroke-linecap:butt;stroke-linejoin:miter;stroke-miterlimit:1.45;stroke-dasharray:none;stroke-opacity:1"
         id="path38" /><path
         d="m 5535.7,1825.71 v 12.04 h 12.03 v -12.04 z m 0,-50.15 v 12.03 h 12.03 v -12.03 z m 31.31,0 v 85.94 h 32.35 c 6.56,0 11.82,-0.89 15.78,-2.66 3.96,-1.77 7.03,-4.48 9.22,-8.13 2.29,-3.53 3.43,-7.28 3.43,-11.25 0,-3.64 -0.99,-7.08 -2.97,-10.31 -1.97,-3.22 -5,-5.83 -9.06,-7.81 5.21,-1.56 9.17,-4.22 11.88,-7.97 2.81,-3.64 4.22,-7.97 4.22,-12.97 0,-3.95 -0.84,-7.7 -2.5,-11.25 -1.67,-3.44 -3.75,-6.09 -6.25,-7.97 -2.5,-1.87 -5.68,-3.28 -9.54,-4.22 -3.75,-0.93 -8.33,-1.4 -13.75,-1.4 z m 11.41,49.84 h 18.59 c 5,0 8.6,0.31 10.78,0.94 2.92,0.84 5.11,2.24 6.57,4.22 1.45,2.08 2.18,4.64 2.18,7.65 0,2.82 -0.67,5.32 -2.03,7.5 -1.35,2.19 -3.33,3.65 -5.94,4.38 -2.5,0.84 -6.82,1.25 -12.96,1.25 h -17.19 z m 0,-39.69 h 21.4 c 3.65,0 6.2,0.16 7.66,0.47 2.71,0.42 4.9,1.15 6.56,2.19 1.77,1.15 3.23,2.76 4.38,4.84 1.14,2.09 1.72,4.49 1.72,7.19 0,3.23 -0.84,6.05 -2.5,8.44 -1.57,2.4 -3.81,4.06 -6.72,5 -2.92,0.94 -7.14,1.41 -12.66,1.41 h -19.84 z m 68.63,-10.15 v 85.94 h 11.41 v -75.79 h 42.34 v -10.15 z m 63.77,41.87 c 0,14.28 3.8,25.42 11.41,33.44 7.7,8.13 17.6,12.19 29.68,12.19 8.02,0 15.21,-1.93 21.57,-5.78 6.35,-3.75 11.19,-9.01 14.53,-15.78 3.33,-6.77 5,-14.48 5,-23.13 0,-8.64 -1.77,-16.41 -5.31,-23.28 -3.55,-6.88 -8.55,-12.08 -15,-15.63 -6.36,-3.53 -13.29,-5.31 -20.79,-5.31 -8.12,0 -15.36,1.93 -21.71,5.78 -6.36,3.96 -11.2,9.28 -14.54,15.94 -3.23,6.77 -4.84,13.96 -4.84,21.56 z m 11.72,-0.15 c 0,-10.42 2.76,-18.6 8.28,-24.53 5.63,-5.94 12.66,-8.91 21.09,-8.91 8.55,0 15.58,2.97 21.1,8.91 5.52,6.04 8.28,14.63 8.28,25.78 0,6.98 -1.2,13.07 -3.59,18.28 -2.3,5.21 -5.73,9.22 -10.32,12.03 -4.58,2.92 -9.68,4.37 -15.31,4.37 -8.02,0 -14.95,-2.75 -20.78,-8.28 -5.83,-5.52 -8.75,-14.73 -8.75,-27.65 z m 146.46,-11.57 11.25,-2.96 c -2.39,-9.27 -6.66,-16.36 -12.81,-21.25 -6.14,-4.9 -13.7,-7.35 -22.65,-7.35 -9.28,0 -16.83,1.88 -22.66,5.63 -5.83,3.75 -10.26,9.17 -13.28,16.25 -3.02,7.18 -4.53,14.9 -4.53,23.12 0,8.96 1.72,16.78 5.15,23.44 3.44,6.67 8.28,11.72 14.53,15.16 6.36,3.43 13.34,5.15 20.94,5.15 8.54,0 15.73,-2.19 21.56,-6.56 5.94,-4.38 10.06,-10.52 12.35,-18.44 l -11.25,-2.65 c -1.98,6.25 -4.9,10.78 -8.75,13.59 -3.75,2.92 -8.49,4.37 -14.22,4.37 -6.56,0 -12.08,-1.61 -16.56,-4.84 -4.38,-3.12 -7.5,-7.34 -9.38,-12.66 -1.77,-5.31 -2.65,-10.83 -2.65,-16.56 0,-7.29 1.04,-13.64 3.12,-19.06 2.19,-5.41 5.52,-9.48 10,-12.19 4.48,-2.7 9.38,-4.06 14.69,-4.06 6.35,0 11.72,1.82 16.09,5.47 4.48,3.65 7.5,9.12 9.06,16.4 z m 24.79,-30.15 v 85.94 h 11.41 v -42.66 l 42.65,42.66 h 15.47 l -36.09,-34.85 37.65,-51.09 h -15 l -30.62,43.44 -14.06,-13.6 v -29.84 h -11.41"
         style="fill:#000000;fill-opacity:1;fill-rule:nonzero;stroke:none"
         id="path40" /><path
         d="M 2313.6,1143.62 V 774.539 c 0,-22.09 17.91,-40 40,-40 h 1190 c 22.1,0 40,17.91 40,40 v 369.081 c 0,22.09 -17.9,40 -40,40 h -1190 c -22.09,0 -40,-17.91 -40,-40"
         style="fill:#ffffff;fill-opacity:1;fill-rule:nonzero;stroke:none"
         id="path42" /><path
         d="M 2313.6,1143.62 V 774.539 c 0,-22.09 17.91,-40 40,-40 h 1190 c 22.1,0 40,17.91 40,40 v 369.081 c 0,22.09 -17.9,40 -40,40 h -1190 c -22.09,0 -40,-17.91 -40,-40 z"
         style="fill:none;stroke:#000000;stroke-width:10;stroke-linecap:butt;stroke-linejoin:miter;stroke-miterlimit:1.45;stroke-dasharray:none;stroke-opacity:1"
         id="path44" /><path
         d="m 2536.02,962.102 v 12.027 h 12.03 v -12.027 z m 0,-50.161 v 12.028 h 12.03 v -12.028 z m 22.4,0 32.97,85.938 h 12.18 l 35.16,-85.938 h -12.81 l -10.16,26.09 h -35.78 l -9.53,-26.09 z m 24.84,35.309 h 29.06 l -8.9,23.75 c -2.81,7.191 -4.85,13.129 -6.1,17.82 -1.14,-5.531 -2.7,-10.988 -4.68,-16.41 z m 125.98,-5.148 11.25,-2.973 c -2.4,-9.27 -6.67,-16.359 -12.81,-21.25 -6.15,-4.899 -13.7,-7.348 -22.66,-7.348 -9.27,0 -16.82,1.879 -22.66,5.629 -5.83,3.75 -10.26,9.172 -13.28,16.25 -3.02,7.192 -4.53,14.899 -4.53,23.121 0,8.957 1.72,16.778 5.16,23.438 3.44,6.672 8.28,11.722 14.53,15.16 6.35,3.441 13.33,5.152 20.94,5.152 8.54,0 15.73,-2.179 21.56,-6.562 5.94,-4.367 10.05,-10.52 12.34,-18.438 l -11.25,-2.652 c -1.98,6.25 -4.89,10.781 -8.75,13.59 -3.75,2.922 -8.49,4.383 -14.22,4.383 -6.56,0 -12.08,-1.622 -16.56,-4.852 -4.37,-3.121 -7.5,-7.34 -9.37,-12.648 -1.77,-5.321 -2.66,-10.84 -2.66,-16.571 0,-7.293 1.04,-13.64 3.13,-19.062 2.18,-5.41 5.52,-9.481 10,-12.188 4.47,-2.699 9.37,-4.062 14.68,-4.062 6.36,0 11.72,1.82 16.1,5.472 4.48,3.649 7.5,9.118 9.06,16.411 z m 47.13,-30.161 v 75.778 h -28.28 v 10.16 h 68.12 v -10.16 h -28.44 v -75.778 z m 52.99,50.161 v 12.027 h 12.03 v -12.027 z m 0,-50.161 v 12.028 h 12.03 v -12.028 z m 22.4,0 32.97,85.938 h 12.18 l 35.16,-85.938 h -12.81 l -10.16,26.09 h -35.78 l -9.53,-26.09 z m 24.84,35.309 h 29.06 l -8.9,23.75 c -2.81,7.191 -4.85,13.129 -6.1,17.82 -1.14,-5.531 -2.7,-10.988 -4.68,-16.41 z m 125.98,-5.148 11.25,-2.973 c -2.4,-9.27 -6.67,-16.359 -12.81,-21.25 -6.15,-4.899 -13.7,-7.348 -22.66,-7.348 -9.27,0 -16.82,1.879 -22.66,5.629 -5.83,3.75 -10.26,9.172 -13.28,16.25 -3.02,7.192 -4.53,14.899 -4.53,23.121 0,8.957 1.72,16.778 5.16,23.438 3.43,6.672 8.28,11.722 14.53,15.16 6.35,3.441 13.33,5.152 20.94,5.152 8.54,0 15.73,-2.179 21.56,-6.562 5.94,-4.367 10.05,-10.52 12.34,-18.438 l -11.25,-2.652 c -1.98,6.25 -4.89,10.781 -8.75,13.59 -3.75,2.922 -8.49,4.383 -14.22,4.383 -6.56,0 -12.08,-1.622 -16.56,-4.852 -4.37,-3.121 -7.5,-7.34 -9.37,-12.648 -1.77,-5.321 -2.66,-10.84 -2.66,-16.571 0,-7.293 1.04,-13.64 3.12,-19.062 2.19,-5.41 5.53,-9.481 10,-12.188 4.48,-2.699 9.38,-4.062 14.69,-4.062 6.36,0 11.72,1.82 16.1,5.472 4.48,3.649 7.5,9.118 9.06,16.411 z m 47.13,-30.161 v 75.778 h -28.28 v 10.16 h 68.12 v -10.16 h -28.44 v -75.778 z m 53.45,0 v 85.938 h 11.25 v -85.938 z m 55.84,0 -33.28,85.938 h 12.35 l 22.34,-62.5 c 1.77,-5 3.28,-9.688 4.53,-14.059 1.36,4.68 2.92,9.371 4.69,14.059 l 23.12,62.5 h 11.57 l -33.6,-85.938 z m 57.54,0 v 85.938 h 11.25 v -85.938 z m 53.19,0 v 75.778 h -28.28 v 10.16 h 68.12 v -10.16 h -28.44 v -75.778 z m 75.64,0 v 36.411 l -33.12,49.527 h 13.9 l 16.88,-25.938 c 3.12,-4.793 6.04,-9.632 8.75,-14.531 2.6,4.481 5.73,9.531 9.37,15.16 l 16.72,25.309 H 3371 l -34.22,-49.527 v -36.411 h -11.41"
         style="fill:#000000;fill-opacity:1;fill-rule:nonzero;stroke:none"
         id="path46" /><path
         d="m 128.719,734.719 -2.141,-9.239 -6.93,-52.8 -1.679,-53.84 3.781,-54.539 9.43,-54.922 14.91,-53.688 19.871,-50.929 24.5,-47.973 28.801,-44.801 32.769,-41.406 36.418,-37.832 39.742,-34.039 42.739,-30.031 45.402,-25.828 47.738,-21.411 49.762,-16.781 51.438,-11.9608 52.8,-6.9297 53.84,-1.6679 54.539,3.7695 54.922,9.4297 53.688,14.9102 50.933,19.867 47.969,24.504 44.789,28.797 41.42,32.769 37.83,36.422 34.03,39.739 30.04,42.742 25.82,45.398 21.42,47.742 16.78,49.758 11.96,51.442 6.92,52.8 1.68,53.84 -1.16,16.758 -0.16,0.981"
         style="fill:none;stroke:#000000;stroke-width:10;stroke-linecap:butt;stroke-linejoin:miter;stroke-miterlimit:1.45;stroke-dasharray:none;stroke-opacity:1"
         id="path48" /><path
         d="M 1195.61,735.18 1160.55,610 l 45.99,35.852 53.27,-23.711 z"
         style="fill:#000000;fill-opacity:1;fill-rule:nonzero;stroke:none"
         id="path50" /><path
         d="M 153.879,220.539 H 1227.29 V 33.5195 H 153.879 V 220.539"
         style="fill:#ffffff;fill-opacity:1;fill-rule:nonzero;stroke:none"
         id="path52" /><path
         d="m 184.66,130.051 v 12.027 h 12.031 v -12.027 z m 0,-50.1604 v 12.0313 h 12.031 V 79.8906 Z m 93.18,30.1604 11.25,-2.973 c -2.391,-9.2694 -6.66,-16.3592 -12.809,-21.2499 -6.152,-4.8984 -13.699,-7.3398 -22.66,-7.3398 -9.269,0 -16.82,1.8711 -22.652,5.6211 -5.84,3.75 -10.258,9.1719 -13.278,16.2496 -3.031,7.192 -4.543,14.903 -4.543,23.129 0,8.953 1.723,16.774 5.161,23.434 3.441,6.668 8.281,11.719 14.531,15.156 6.359,3.442 13.34,5.16 20.941,5.16 8.539,0 15.731,-2.187 21.559,-6.566 5.941,-4.371 10.051,-10.524 12.351,-18.434 l -11.25,-2.66 c -1.98,6.25 -4.902,10.781 -8.75,13.594 -3.75,2.918 -8.492,4.379 -14.222,4.379 -6.571,0 -12.09,-1.621 -16.571,-4.852 -4.367,-3.121 -7.5,-7.34 -9.367,-12.648 -1.769,-5.313 -2.66,-10.84 -2.66,-16.563 0,-7.297 1.039,-13.648 3.129,-19.066 2.191,-5.4103 5.52,-9.4806 10,-12.1837 4.48,-2.707 9.371,-4.0664 14.691,-4.0664 6.348,0 11.707,1.8281 16.09,5.4687 4.481,3.6485 7.5,9.1214 9.059,16.4104 z m 21.82,11.719 c 0,14.269 3.801,25.41 11.399,33.429 7.711,8.129 17.613,12.192 29.691,12.192 8.02,0 15.211,-1.93 21.559,-5.782 6.363,-3.75 11.203,-9.007 14.543,-15.781 3.328,-6.769 5,-14.476 5,-23.129 0,-8.64 -1.782,-16.398 -5.321,-23.2771 -3.539,-6.8711 -8.539,-12.0821 -15,-15.6211 -6.351,-3.5391 -13.281,-5.3125 -20.781,-5.3125 -8.121,0 -15.359,1.9219 -21.719,5.7812 -6.351,3.9493 -11.191,9.2696 -14.531,15.9295 -3.23,6.77 -4.84,13.961 -4.84,21.571 z m 11.719,-0.161 c 0,-10.418 2.762,-18.589 8.281,-24.5309 5.621,-5.9375 12.649,-8.9062 21.09,-8.9062 8.539,0 15.57,2.9687 21.102,8.9062 5.519,6.0429 8.277,14.6329 8.277,25.7809 0,6.981 -1.199,13.071 -3.598,18.282 -2.289,5.211 -5.73,9.218 -10.312,12.031 -4.578,2.918 -9.688,4.379 -15.309,4.379 -8.019,0 -14.949,-2.762 -20.781,-8.281 -5.84,-5.52 -8.75,-14.739 -8.75,-27.661 z M 396.441,79.8906 V 165.828 H 408 L 453.148,98.3281 V 165.828 H 464.09 V 79.8906 H 452.371 L 407.219,147.391 V 79.8906 Z m 108.528,0 v 75.7814 h -28.278 v 10.156 h 68.118 v -10.156 h -28.43 V 79.8906 Z m 51.582,0 v 85.9374 h 38.129 c 7.711,0 13.539,-0.777 17.5,-2.34 3.961,-1.566 7.129,-4.328 9.531,-8.289 2.391,-3.847 3.59,-8.121 3.59,-12.808 0,-6.141 -1.981,-11.301 -5.93,-15.469 -3.961,-4.16 -10.062,-6.82 -18.289,-7.973 3.02,-1.449 5.32,-2.859 6.879,-4.211 3.328,-3.027 6.461,-6.828 9.371,-11.41 l 15,-23.4374 h -14.371 l -11.25,17.8086 c -3.332,5.2108 -6.09,9.1718 -8.281,11.8788 -2.09,2.711 -4.008,4.582 -5.778,5.621 -1.672,1.153 -3.39,1.981 -5.164,2.5 -1.25,0.211 -3.328,0.321 -6.25,0.321 H 567.961 V 79.8906 Z m 11.41,47.9684 h 24.527 c 5.102,0 9.114,0.52 12.032,1.563 3.019,1.148 5.261,2.867 6.718,5.156 1.563,2.391 2.344,5 2.344,7.813 0,4.058 -1.512,7.398 -4.531,10 -2.91,2.609 -7.551,3.91 -13.899,3.91 h -27.191 z m 71.66,-6.089 c 0,14.269 3.801,25.41 11.41,33.429 7.699,8.129 17.598,12.192 29.68,12.192 8.019,0 15.211,-1.93 21.57,-5.782 6.348,-3.75 11.188,-9.007 14.528,-15.781 3.332,-6.769 5,-14.476 5,-23.129 0,-8.64 -1.77,-16.398 -5.321,-23.2771 -3.539,-6.8711 -8.539,-12.0821 -15,-15.6211 -6.347,-3.5391 -13.277,-5.3125 -20.777,-5.3125 -8.121,0 -15.359,1.9219 -21.723,5.7812 -6.347,3.9493 -11.187,9.2696 -14.527,15.9295 -3.231,6.77 -4.84,13.961 -4.84,21.571 z m 11.719,-0.161 c 0,-10.418 2.762,-18.589 8.281,-24.5309 5.617,-5.9375 12.66,-8.9062 21.09,-8.9062 8.539,0 15.578,2.9687 21.098,8.9062 5.523,6.0429 8.281,14.6329 8.281,25.7809 0,6.981 -1.199,13.071 -3.602,18.282 -2.289,5.211 -5.726,9.218 -10.308,12.031 -4.578,2.918 -9.692,4.379 -15.309,4.379 -8.019,0 -14.949,-2.762 -20.781,-8.281 -5.84,-5.52 -8.75,-14.739 -8.75,-27.661 z m 84.59,-41.7184 v 85.9374 h 11.402 V 90.0508 H 789.68 V 79.8906 Z m 56.109,-23.9023 v 7.6523 h 70 V 55.9883 Z M 870.5,79.8906 v 85.9374 h 57.969 v -10.156 h -46.571 v -26.563 h 40.321 v -10.16 H 881.898 V 79.8906 Z m 72.211,0 v 85.9374 h 11.398 V 90.0508 h 42.352 V 79.8906 Z m 63.759,41.8794 c 0,14.269 3.81,25.41 11.41,33.429 7.71,8.129 17.61,12.192 29.69,12.192 8.02,0 15.21,-1.93 21.56,-5.782 6.36,-3.75 11.2,-9.007 14.53,-15.781 3.34,-6.769 5,-14.476 5,-23.129 0,-8.64 -1.77,-16.398 -5.31,-23.2771 -3.54,-6.8711 -8.54,-12.0821 -15,-15.6211 -6.35,-3.5391 -13.28,-5.3125 -20.78,-5.3125 -8.13,0 -15.37,1.9219 -21.72,5.7812 -6.35,3.9493 -11.2,9.2696 -14.53,15.9295 -3.23,6.77 -4.85,13.961 -4.85,21.571 z m 11.72,-0.161 c 0,-10.418 2.76,-18.589 8.28,-24.5309 5.63,-5.9375 12.66,-8.9062 21.1,-8.9062 8.54,0 15.57,2.9687 21.09,8.9062 5.52,6.0429 8.28,14.6329 8.28,25.7809 0,6.981 -1.19,13.071 -3.59,18.282 -2.29,5.211 -5.73,9.218 -10.31,12.031 -4.59,2.918 -9.69,4.379 -15.32,4.379 -8.02,0 -14.94,-2.762 -20.78,-8.281 -5.83,-5.52 -8.75,-14.739 -8.75,-27.661 z m 100.06,-41.7184 -22.81,85.9374 h 11.72 l 13.12,-56.406 c 1.36,-5.832 2.56,-11.6603 3.6,-17.5001 2.18,9.1681 3.49,14.4761 3.9,15.9371 l 16.25,57.969 h 13.75 l 12.35,-43.437 c 3.02,-10.832 5.26,-20.993 6.72,-30.4691 1.04,5.4179 2.44,11.6681 4.21,18.7501 l 13.44,55.156 h 11.41 l -23.44,-85.9374 h -11.09 l -17.97,65.4684 c -1.56,5.422 -2.5,8.75 -2.81,10 -0.84,-3.847 -1.67,-7.187 -2.5,-10 l -18.13,-65.4684 h -11.72"
         style="fill:#000000;fill-opacity:1;fill-rule:nonzero;stroke:none"
         id="path54" /><path
         d="m 1211.79,1183.94 0.68,2.83 7.06,51.77 1.81,51.43 -3.25,50.79 -8.15,49.81 -12.85,48.5 -17.39,46.88 -21.75,44.93 -25.92,42.66 -29.94,40.05 -33.76,37.12 -37.41,33.88 -40.889,30.3 -44.179,26.4 -47.313,22.17 -50.25,17.63 -51.769,12.47 -51.758,7.05 -51.442,1.82 -50.789,-3.26 -49.812,-8.14 -48.5,-12.85 -46.879,-17.39 -44.93,-21.75 -42.648,-25.93 -40.051,-29.93 -37.129,-33.77 -33.871,-37.41 -30.301,-40.89 -26.398,-44.18 -22.18,-47.31 -17.621,-50.24 -12.481,-51.77 -7.05,-51.77 -1.809,-51.44 0.731,-11.38 0.16,-0.99"
         style="fill:none;stroke:#000000;stroke-width:10;stroke-linecap:butt;stroke-linejoin:miter;stroke-miterlimit:1.45;stroke-dasharray:none;stroke-opacity:1"
         id="path56" /><path
         d="m 190.789,1182.54 36.141,124.88 -46.301,-35.45 -53.07,24.16 z"
         style="fill:#000000;fill-opacity:1;fill-rule:nonzero;stroke:none"
         id="path58" /><path
         d="M 213.199,1884.13 H 1173.3 V 1697.12 H 213.199 v 187.01"
         style="fill:#ffffff;fill-opacity:1;fill-rule:nonzero;stroke:none"
         id="path60" /><path
         d="m 243.98,1793.64 v 12.04 h 12.032 v -12.04 z m 0,-50.15 v 12.03 h 12.032 v -12.03 z m 28.34,41.87 c 0,14.27 3.801,25.42 11.399,33.44 7.711,8.13 17.613,12.19 29.691,12.19 8.02,0 15.211,-1.93 21.559,-5.78 6.363,-3.75 11.203,-9.01 14.543,-15.78 3.328,-6.78 5,-14.48 5,-23.13 0,-8.65 -1.774,-16.41 -5.321,-23.28 -3.543,-6.88 -8.543,-12.09 -15,-15.63 -6.351,-3.54 -13.281,-5.31 -20.781,-5.31 -8.121,0 -15.359,1.93 -21.719,5.78 -6.351,3.96 -11.191,9.27 -14.531,15.94 -3.23,6.77 -4.84,13.96 -4.84,21.56 z m 11.719,-0.15 c 0,-10.42 2.762,-18.6 8.281,-24.53 5.621,-5.94 12.649,-8.91 21.09,-8.91 8.539,0 15.578,2.97 21.102,8.91 5.519,6.04 8.277,14.63 8.277,25.78 0,6.97 -1.199,13.07 -3.598,18.28 -2.293,5.21 -5.73,9.22 -10.312,12.03 -4.578,2.91 -9.688,4.37 -15.309,4.37 -8.019,0 -14.949,-2.76 -20.781,-8.28 -5.84,-5.52 -8.75,-14.73 -8.75,-27.65 z m 84.59,-41.72 v 85.94 h 32.34 c 6.562,0 11.82,-0.89 15.781,-2.66 3.961,-1.77 7.031,-4.48 9.219,-8.13 2.293,-3.54 3.441,-7.29 3.441,-11.25 0,-3.64 -0.988,-7.08 -2.969,-10.31 -1.98,-3.23 -5,-5.83 -9.062,-7.81 5.211,-1.56 9.16,-4.22 11.871,-7.97 2.809,-3.65 4.219,-7.97 4.219,-12.97 0,-3.95 -0.828,-7.7 -2.5,-11.25 -1.668,-3.44 -3.75,-6.09 -6.25,-7.97 -2.5,-1.87 -5.68,-3.28 -9.528,-4.22 -3.75,-0.93 -8.332,-1.4 -13.75,-1.4 z m 11.402,49.84 h 18.598 c 5,0 8.59,0.31 10.781,0.94 2.922,0.83 5.102,2.24 6.559,4.22 1.461,2.08 2.191,4.64 2.191,7.65 0,2.82 -0.68,5.32 -2.031,7.5 -1.359,2.19 -3.34,3.65 -5.938,4.38 -2.5,0.83 -6.82,1.25 -12.972,1.25 h -17.188 z m 0,-39.69 h 21.41 c 3.649,0 6.2,0.16 7.661,0.47 2.699,0.42 4.886,1.15 6.558,2.19 1.77,1.15 3.231,2.76 4.371,4.84 1.149,2.09 1.719,4.49 1.719,7.19 0,3.23 -0.828,6.05 -2.5,8.44 -1.559,2.39 -3.801,4.06 -6.719,5 -2.91,0.94 -7.133,1.41 -12.652,1.41 h -19.848 z m 63.321,14.22 10.32,1.41 c 0.199,-6.56 1.398,-11.04 3.59,-13.44 2.187,-2.4 5.258,-3.59 9.218,-3.59 2.809,0 5.262,0.62 7.34,1.87 2.09,1.36 3.489,3.13 4.219,5.32 0.832,2.29 1.25,5.88 1.25,10.78 v 59.22 h 11.25 v -58.6 c 0,-7.19 -0.879,-12.76 -2.648,-16.72 -1.672,-3.96 -4.379,-6.98 -8.129,-9.06 -3.75,-1.98 -8.18,-2.97 -13.282,-2.97 -7.5,0 -13.281,2.14 -17.339,6.41 -3.961,4.37 -5.891,10.83 -5.789,19.37 z m 66.097,-24.37 v 85.94 h 62.031 v -10.16 h -50.628 v -26.25 h 47.5 v -10.16 h -47.5 v -29.22 h 52.66 v -10.15 z m 141.133,30.15 11.25,-2.96 c -2.402,-9.28 -6.672,-16.36 -12.812,-21.25 -6.149,-4.9 -13.7,-7.35 -22.661,-7.35 -9.269,0 -16.82,1.88 -22.648,5.63 -5.84,3.75 -10.262,9.17 -13.289,16.25 -3.024,7.18 -4.531,14.89 -4.531,23.12 0,8.96 1.718,16.77 5.16,23.44 3.441,6.66 8.281,11.72 14.531,15.16 6.348,3.43 13.328,5.15 20.938,5.15 8.539,0 15.73,-2.19 21.562,-6.56 5.938,-4.38 10.047,-10.52 12.34,-18.44 l -11.25,-2.65 c -1.973,6.25 -4.891,10.78 -8.75,13.59 -3.75,2.91 -8.492,4.37 -14.211,4.37 -6.57,0 -12.09,-1.61 -16.57,-4.84 -4.371,-3.12 -7.5,-7.34 -9.371,-12.66 -1.77,-5.31 -2.661,-10.83 -2.661,-16.56 0,-7.29 1.039,-13.65 3.133,-19.06 2.18,-5.42 5.52,-9.48 10,-12.19 4.477,-2.7 9.367,-4.06 14.68,-4.06 6.359,0 11.719,1.82 16.098,5.47 4.48,3.64 7.5,9.11 9.062,16.4 z m 47.129,-30.15 v 75.78 H 669.43 v 10.16 h 68.121 v -10.16 h -28.43 v -75.78 z m 40.328,-23.91 v 7.66 h 70 v -7.66 z m 78.461,23.91 v 85.94 h 57.969 v -10.16 h -46.571 v -26.56 h 40.321 v -10.16 h -40.321 v -39.06 z m 72.211,0 v 85.94 h 11.398 v -75.79 h 42.352 v -10.15 z m 63.758,41.87 c 0,14.27 3.812,25.42 11.41,33.44 7.711,8.13 17.609,12.19 29.691,12.19 8.02,0 15.21,-1.93 21.56,-5.78 6.36,-3.75 11.2,-9.01 14.53,-15.78 3.34,-6.78 5,-14.48 5,-23.13 0,-8.65 -1.77,-16.41 -5.31,-23.28 -3.54,-6.88 -8.54,-12.09 -15,-15.63 -6.35,-3.54 -13.28,-5.31 -20.78,-5.31 -8.129,0 -15.371,1.93 -21.718,5.78 -6.352,3.96 -11.204,9.27 -14.532,15.94 -3.23,6.77 -4.851,13.96 -4.851,21.56 z m 11.722,-0.15 c 0,-10.42 2.758,-18.6 8.278,-24.53 5.633,-5.94 12.66,-8.91 21.101,-8.91 8.54,0 15.57,2.97 21.09,8.91 5.52,6.04 8.28,14.63 8.28,25.78 0,6.97 -1.19,13.07 -3.59,18.28 -2.29,5.21 -5.73,9.22 -10.31,12.03 -4.59,2.91 -9.688,4.37 -15.321,4.37 -8.02,0 -14.938,-2.76 -20.778,-8.28 -5.832,-5.52 -8.75,-14.73 -8.75,-27.65 z m 100.059,-41.72 -22.81,85.94 h 11.72 l 13.12,-56.41 c 1.36,-5.84 2.56,-11.67 3.6,-17.5 2.18,9.16 3.49,14.48 3.9,15.94 l 16.25,57.97 h 13.75 l 12.35,-43.44 c 3.02,-10.84 5.26,-20.99 6.72,-30.47 1.04,5.41 2.44,11.66 4.21,18.75 l 13.44,55.16 h 11.41 l -23.44,-85.94 h -11.09 l -17.97,65.47 c -1.56,5.42 -2.5,8.75 -2.81,10 -0.84,-3.86 -1.67,-7.19 -2.5,-10 l -18.13,-65.47 h -11.72"
         style="fill:#000000;fill-opacity:1;fill-rule:nonzero;stroke:none"
         id="path62" /><path
         d="M 5109.73,1822.7 H 3663.59"
         style="fill:none;stroke:#000000;stroke-width:10;stroke-linecap:butt;stroke-linejoin:miter;stroke-miterlimit:1.45;stroke-dasharray:none;stroke-opacity:1"
         id="path64" /><path
         d="m 3583.59,1822.7 120,-50 -30,50 30,50 z"
         style="fill:#000000;fill-opacity:1;fill-rule:nonzero;stroke:none"
         id="path66" /><path
         d="M 3960.01,1916.2 H 4733.6 V 1729.19 H 3960.01 V 1916.2"
         style="fill:#ffffff;fill-opacity:1;fill-rule:nonzero;stroke:none"
         id="path68" /><path
         d="m 3990.79,1825.71 v 12.04 h 12.03 v -12.04 z m 0,-50.15 v 12.03 h 12.03 v -12.03 z m 33.8,0 v 85.94 h 11.25 v -85.94 z m 27.56,27.65 10.63,0.94 c 0.52,-4.37 1.72,-7.91 3.59,-10.62 1.88,-2.71 4.74,-4.95 8.6,-6.72 3.95,-1.67 8.38,-2.5 13.28,-2.5 4.27,0 8.07,0.62 11.4,1.87 3.34,1.36 5.78,3.13 7.35,5.32 1.66,2.29 2.5,4.74 2.5,7.34 0,2.71 -0.78,5.05 -2.35,7.03 -1.56,2.09 -4.11,3.81 -7.65,5.16 -2.4,0.93 -7.56,2.34 -15.47,4.22 -7.81,1.87 -13.28,3.64 -16.41,5.31 -4.16,2.19 -7.24,4.84 -9.22,7.97 -1.98,3.23 -2.97,6.82 -2.97,10.78 0,4.27 1.2,8.28 3.6,12.03 2.5,3.86 6.09,6.72 10.78,8.59 4.79,1.98 10.05,2.97 15.78,2.97 6.35,0 11.98,-1.04 16.88,-3.12 4.89,-1.98 8.64,-5 11.25,-9.07 2.6,-3.95 4.01,-8.43 4.21,-13.43 L 4107,1836.5 c -0.63,5.41 -2.66,9.48 -6.1,12.18 -3.33,2.82 -8.28,4.22 -14.84,4.22 -6.88,0 -11.88,-1.25 -15,-3.75 -3.13,-2.5 -4.69,-5.52 -4.69,-9.06 0,-3.13 1.1,-5.68 3.28,-7.66 2.19,-1.97 7.87,-4 17.03,-6.09 9.28,-2.08 15.63,-3.91 19.07,-5.47 5,-2.39 8.69,-5.36 11.09,-8.91 2.4,-3.43 3.59,-7.5 3.59,-12.18 0,-4.58 -1.3,-8.91 -3.9,-12.97 -2.61,-3.96 -6.36,-7.08 -11.25,-9.38 -4.9,-2.18 -10.42,-3.28 -16.56,-3.28 -7.82,0 -14.38,1.1 -19.69,3.28 -5.21,2.3 -9.32,5.73 -12.35,10.32 -2.91,4.58 -4.42,9.74 -4.53,15.46 z m 72.7,-51.56 v 7.66 h 70 v -7.66 z m 134.24,109.85 h 11.4 v -49.69 c 0,-8.65 -0.99,-15.52 -2.97,-20.63 -1.97,-5 -5.52,-9.11 -10.62,-12.34 -5.1,-3.13 -11.77,-4.69 -20,-4.69 -8.02,0 -14.64,1.36 -19.84,4.06 -5.11,2.82 -8.75,6.83 -10.94,12.04 -2.19,5.31 -3.28,12.5 -3.28,21.56 v 49.69 h 11.4 v -49.54 c 0,-7.5 0.68,-13.01 2.03,-16.56 1.46,-3.54 3.86,-6.3 7.19,-8.28 3.44,-1.87 7.61,-2.81 12.5,-2.81 8.34,0 14.27,1.87 17.81,5.62 3.55,3.86 5.32,11.2 5.32,22.03 z m 26.5,-58.29 10.63,0.94 c 0.52,-4.37 1.71,-7.91 3.59,-10.62 1.87,-2.71 4.74,-4.95 8.59,-6.72 3.96,-1.67 8.39,-2.5 13.28,-2.5 4.28,0 8.08,0.62 11.41,1.87 3.33,1.36 5.78,3.13 7.34,5.32 1.67,2.29 2.5,4.74 2.5,7.34 0,2.71 -0.78,5.05 -2.34,7.03 -1.56,2.09 -4.11,3.81 -7.66,5.16 -2.39,0.93 -7.55,2.34 -15.46,4.22 -7.82,1.87 -13.29,3.64 -16.41,5.31 -4.17,2.19 -7.24,4.84 -9.22,7.97 -1.98,3.23 -2.97,6.82 -2.97,10.78 0,4.27 1.2,8.28 3.6,12.03 2.5,3.86 6.09,6.72 10.78,8.59 4.79,1.98 10.05,2.97 15.78,2.97 6.35,0 11.98,-1.04 16.87,-3.12 4.9,-1.98 8.65,-5 11.25,-9.07 2.61,-3.95 4.01,-8.43 4.22,-13.43 l -10.94,-0.78 c -0.62,5.41 -2.65,9.48 -6.09,12.18 -3.33,2.82 -8.28,4.22 -14.84,4.22 -6.88,0 -11.88,-1.25 -15,-3.75 -3.13,-2.5 -4.69,-5.52 -4.69,-9.06 0,-3.13 1.09,-5.68 3.28,-7.66 2.19,-1.97 7.87,-4 17.03,-6.09 9.27,-2.08 15.63,-3.91 19.06,-5.47 5,-2.39 8.7,-5.36 11.1,-8.91 2.39,-3.43 3.59,-7.5 3.59,-12.18 0,-4.58 -1.3,-8.91 -3.9,-12.97 -2.61,-3.96 -6.36,-7.08 -11.25,-9.38 -4.9,-2.18 -10.42,-3.28 -16.57,-3.28 -7.81,0 -14.37,1.1 -19.68,3.28 -5.21,2.3 -9.33,5.73 -12.35,10.32 -2.91,4.58 -4.43,9.74 -4.53,15.46 z m 84.1,-27.65 v 85.94 h 62.03 v -10.16 h -50.62 v -26.25 h 47.5 v -10.16 h -47.5 v -29.22 h 52.65 v -10.15 z m 79.73,0 v 85.94 h 29.69 c 6.66,0 11.77,-0.42 15.31,-1.25 4.89,-1.15 9.06,-3.18 12.5,-6.1 4.58,-3.85 7.97,-8.8 10.16,-14.84 2.29,-5.94 3.43,-12.71 3.43,-20.31 0,-6.57 -0.78,-12.35 -2.34,-17.35 -1.46,-5 -3.39,-9.16 -5.78,-12.5 -2.4,-3.33 -5.05,-5.94 -7.97,-7.81 -2.81,-1.88 -6.2,-3.33 -10.16,-4.38 -3.96,-0.93 -8.54,-1.4 -13.75,-1.4 z m 11.41,10.15 h 18.28 c 5.73,0 10.2,0.53 13.43,1.57 3.23,1.04 5.79,2.55 7.66,4.53 2.71,2.6 4.79,6.2 6.25,10.78 1.56,4.59 2.34,10.11 2.34,16.56 0,8.96 -1.51,15.84 -4.53,20.63 -2.91,4.9 -6.46,8.18 -10.62,9.84 -3.13,1.15 -8.02,1.72 -14.69,1.72 h -18.12 z m 64.16,-34.06 v 7.66 h 70 v -7.66 z m 79.86,23.91 v 85.94 h 11.25 v -85.94 z m 31.31,0 v 85.94 h 11.56 l 45.16,-67.5 v 67.5 h 10.93 v -85.94 h -11.72 l -45.15,67.5 v -67.5 h -10.78"
         style="fill:#000000;fill-opacity:1;fill-rule:nonzero;stroke:none"
         id="path70" /><path
         d="M 2948.6,1598.56 V 1263.63"
         style="fill:none;stroke:#000000;stroke-width:10;stroke-linecap:butt;stroke-linejoin:miter;stroke-miterlimit:1.45;stroke-dasharray:none;stroke-opacity:1"
         id="path72" /><path
         d="m 2948.6,1183.63 50,120 -50,-30 -50,30 z"
         style="fill:#000000;fill-opacity:1;fill-rule:nonzero;stroke:none"
         id="path74" /><path
         d="m 2545.17,1548.16 h 806.87 v -187.01 h -806.87 v 187.01"
         style="fill:#ffffff;fill-opacity:1;fill-rule:nonzero;stroke:none"
         id="path76" /><path
         d="m 2575.95,1457.67 v 12.03 h 12.03 v -12.03 z m 0,-50.16 v 12.04 h 12.03 v -12.04 z m 33.81,0 v 85.94 h 11.25 v -85.94 z m 27.56,27.66 10.62,0.94 c 0.52,-4.38 1.72,-7.92 3.59,-10.63 1.88,-2.71 4.74,-4.94 8.6,-6.72 3.96,-1.66 8.38,-2.5 13.28,-2.5 4.27,0 8.07,0.63 11.41,1.88 3.33,1.35 5.78,3.12 7.34,5.31 1.67,2.29 2.5,4.74 2.5,7.35 0,2.7 -0.78,5.05 -2.34,7.03 -1.57,2.08 -4.12,3.8 -7.66,5.15 -2.4,0.94 -7.55,2.35 -15.47,4.22 -7.81,1.88 -13.28,3.65 -16.41,5.31 -4.16,2.19 -7.24,4.85 -9.21,7.97 -1.98,3.23 -2.97,6.83 -2.97,10.78 0,4.28 1.19,8.29 3.59,12.04 2.5,3.85 6.09,6.71 10.78,8.59 4.79,1.98 10.05,2.97 15.78,2.97 6.36,0 11.98,-1.04 16.88,-3.13 4.89,-1.98 8.64,-5 11.25,-9.06 2.6,-3.96 4.01,-8.44 4.22,-13.44 l -10.94,-0.78 c -0.63,5.42 -2.66,9.48 -6.09,12.19 -3.34,2.81 -8.29,4.22 -14.85,4.22 -6.87,0 -11.87,-1.25 -15,-3.75 -3.12,-2.5 -4.69,-5.52 -4.69,-9.06 0,-3.13 1.1,-5.68 3.29,-7.66 2.18,-1.98 7.86,-4.01 17.03,-6.09 9.27,-2.09 15.62,-3.91 19.06,-5.47 5,-2.4 8.7,-5.37 11.09,-8.91 2.4,-3.44 3.6,-7.5 3.6,-12.19 0,-4.58 -1.31,-8.9 -3.91,-12.97 -2.6,-3.95 -6.35,-7.08 -11.25,-9.37 -4.9,-2.19 -10.42,-3.28 -16.56,-3.28 -7.81,0 -14.38,1.09 -19.69,3.28 -5.21,2.29 -9.32,5.73 -12.34,10.31 -2.92,4.59 -4.43,9.74 -4.53,15.47 z m 72.69,-51.56 v 7.65 h 70 v -7.65 z m 77.83,23.9 v 85.94 h 32.5 c 5.63,0 9.95,-0.26 12.97,-0.78 4.27,-0.73 7.81,-2.08 10.63,-4.06 2.91,-1.98 5.2,-4.74 6.87,-8.28 1.77,-3.54 2.66,-7.45 2.66,-11.72 0,-7.29 -2.35,-13.49 -7.03,-18.6 -4.59,-5 -12.97,-7.5 -25.16,-7.5 h -22.03 v -35 z m 11.41,45 h 22.19 c 7.39,0 12.6,1.36 15.62,4.07 3.13,2.81 4.69,6.72 4.69,11.72 0,3.54 -0.94,6.56 -2.81,9.06 -1.77,2.6 -4.12,4.32 -7.04,5.15 -1.97,0.53 -5.52,0.79 -10.62,0.79 h -22.03 z m 59.26,-45 32.97,85.94 h 12.18 l 35.16,-85.94 h -12.81 l -10.16,26.1 h -35.78 l -9.53,-26.1 z m 24.84,35.32 h 29.06 l -8.9,23.75 c -2.82,7.18 -4.85,13.12 -6.1,17.81 -1.14,-5.52 -2.71,-10.99 -4.68,-16.41 z m 64.73,-35.32 v 85.94 h 38.12 c 7.71,0 13.54,-0.78 17.5,-2.34 3.96,-1.56 7.14,-4.32 9.53,-8.28 2.4,-3.86 3.6,-8.13 3.6,-12.82 0,-6.14 -1.98,-11.3 -5.94,-15.46 -3.96,-4.17 -10.05,-6.83 -18.28,-7.97 3.02,-1.46 5.31,-2.87 6.87,-4.22 3.34,-3.02 6.46,-6.82 9.38,-11.41 l 15,-23.44 h -14.38 l -11.25,17.82 c -3.33,5.21 -6.09,9.16 -8.28,11.87 -2.08,2.71 -4.01,4.59 -5.78,5.63 -1.67,1.14 -3.38,1.98 -5.16,2.5 -1.25,0.21 -3.33,0.31 -6.25,0.31 h -13.28 v -38.13 z m 11.4,47.97 h 24.53 c 5.11,0 9.12,0.52 12.04,1.57 3.02,1.14 5.26,2.86 6.71,5.15 1.57,2.4 2.35,5 2.35,7.81 0,4.07 -1.51,7.4 -4.53,10 -2.92,2.61 -7.56,3.91 -13.91,3.91 h -27.19 z m 96.98,-47.97 v 75.79 h -28.29 v 10.15 h 68.13 v -10.15 h -28.44 v -75.79 z m 40.33,-23.9 v 7.65 h 70 v -7.65 z m 74.39,65.78 c 0,14.27 3.8,25.42 11.41,33.44 7.71,8.12 17.6,12.18 29.69,12.18 8.02,0 15.2,-1.92 21.56,-5.78 6.35,-3.75 11.2,-9.01 14.53,-15.78 3.33,-6.77 5,-14.48 5,-23.12 0,-8.65 -1.77,-16.41 -5.31,-23.28 -3.54,-6.88 -8.54,-12.09 -15,-15.63 -6.36,-3.54 -13.28,-5.31 -20.78,-5.31 -8.13,0 -15.37,1.93 -21.72,5.78 -6.36,3.96 -11.2,9.27 -14.53,15.94 -3.23,6.77 -4.85,13.96 -4.85,21.56 z m 11.72,-0.16 c 0,-10.41 2.76,-18.59 8.28,-24.53 5.63,-5.94 12.66,-8.9 21.1,-8.9 8.54,0 15.57,2.96 21.09,8.9 5.52,6.04 8.28,14.64 8.28,25.78 0,6.98 -1.2,13.08 -3.59,18.28 -2.29,5.21 -5.73,9.22 -10.32,12.04 -4.58,2.91 -9.68,4.37 -15.31,4.37 -8.02,0 -14.95,-2.76 -20.78,-8.28 -5.83,-5.52 -8.75,-14.74 -8.75,-27.66 z m 85.68,-41.72 v 85.94 h 57.97 v -10.15 h -46.56 v -26.57 h 40.31 v -10.15 h -40.31 v -39.07 h -11.41"
         style="fill:#000000;fill-opacity:1;fill-rule:nonzero;stroke:none"
         id="path78" /><path
         d="m 2404.86,734.672 -7.32,-52.223 -2.16,-53.711 3.27,-54.457 8.92,-54.902 14.41,-53.719 19.37,-51 24.02,-48.101 28.34,-44.957 32.33,-41.622 36.01,-38.082 39.36,-34.328 42.38,-30.351 45.08,-26.18 47.45,-21.801 49.51,-17.199 51.23,-12.3984 52.63,-7.3789 53.71,-2.1601 54.47,3.2773 54.89,8.9221 53.72,14.398 51.01,19.383 48.09,24.008 44.96,28.34 41.63,32.34 38.08,36.011 34.32,39.348 30.36,42.383 26.18,45.078 21.8,47.461 17.2,49.5 12.39,51.23 7.38,52.641 2.16,53.707 -1,16.582 -0.16,0.98"
         style="fill:none;stroke:#000000;stroke-width:10;stroke-linecap:butt;stroke-linejoin:miter;stroke-miterlimit:1.45;stroke-dasharray:none;stroke-opacity:1"
         id="path80" /><path
         d="m 3471.89,735.191 -36.2,-124.859 46.32,35.43 53.05,-24.192 z"
         style="fill:#000000;fill-opacity:1;fill-rule:nonzero;stroke:none"
         id="path82" /><path
         d="m 2532.99,231.711 h 806.88 V 44.6992 H 2532.99 V 231.711"
         style="fill:#ffffff;fill-opacity:1;fill-rule:nonzero;stroke:none"
         id="path84" /><path
         d="m 2563.77,141.219 v 12.031 h 12.03 v -12.031 z m 0,-50.1604 V 103.09 h 12.03 V 91.0586 Z m 33.81,0 V 177 h 11.25 V 91.0586 Z m 27.56,27.6604 10.62,0.941 c 0.52,-4.379 1.72,-7.922 3.6,-10.629 1.87,-2.711 4.74,-4.949 8.59,-6.722 3.96,-1.661 8.39,-2.5004 13.28,-2.5004 4.27,0 8.08,0.6324 11.41,1.8824 3.33,1.348 5.78,3.118 7.34,5.309 1.67,2.289 2.5,4.738 2.5,7.34 0,2.711 -0.78,5.058 -2.34,7.039 -1.56,2.082 -4.12,3.801 -7.66,5.152 -2.39,0.938 -7.55,2.348 -15.47,4.219 -7.81,1.879 -13.28,3.648 -16.4,5.309 -4.17,2.191 -7.24,4.851 -9.22,7.972 -1.98,3.231 -2.97,6.821 -2.97,10.778 0,4.273 1.2,8.281 3.59,12.031 2.5,3.859 6.1,6.719 10.78,8.601 4.8,1.981 10.06,2.969 15.79,2.969 6.35,0 11.98,-1.051 16.87,-3.129 4.9,-1.98 8.65,-5 11.25,-9.062 2.61,-3.957 4.01,-8.438 4.22,-13.438 L 2679.98,152 c -0.62,5.422 -2.65,9.48 -6.09,12.191 -3.33,2.809 -8.28,4.219 -14.85,4.219 -6.87,0 -11.87,-1.25 -15,-3.75 -3.12,-2.5 -4.68,-5.519 -4.68,-9.07 0,-3.121 1.09,-5.668 3.28,-7.649 2.19,-1.98 7.86,-4.011 17.03,-6.101 9.27,-2.078 15.62,-3.899 19.06,-5.461 5,-2.399 8.7,-5.367 11.1,-8.91 2.39,-3.438 3.59,-7.5 3.59,-12.188 0,-4.582 -1.3,-8.902 -3.91,-12.972 -2.6,-3.9574 -6.35,-7.0785 -11.25,-9.3676 -4.89,-2.1914 -10.41,-3.2812 -16.56,-3.2812 -7.81,0 -14.37,1.0898 -19.69,3.2812 -5.2,2.2891 -9.32,5.7305 -12.34,10.3086 -2.92,4.582 -4.43,9.738 -4.53,15.469 z m 72.69,-51.5588 v 7.6484 h 70 v -7.6484 z m 77.84,23.8984 V 177 h 32.5 c 5.62,0 9.94,-0.262 12.96,-0.781 4.28,-0.731 7.82,-2.078 10.63,-4.059 2.92,-1.98 5.21,-4.738 6.87,-8.281 1.78,-3.547 2.66,-7.449 2.66,-11.719 0,-7.301 -2.34,-13.488 -7.03,-18.601 -4.58,-5 -12.97,-7.5 -25.16,-7.5 h -22.03 V 91.0586 Z m 11.4,45.0004 h 22.19 c 7.4,0 12.6,1.363 15.62,4.07 3.13,2.812 4.69,6.711 4.69,11.711 0,3.551 -0.94,6.57 -2.81,9.07 -1.77,2.602 -4.11,4.32 -7.03,5.149 -1.98,0.523 -5.52,0.781 -10.63,0.781 h -22.03 z M 2846.33,91.0586 2879.3,177 h 12.19 l 35.15,-85.9414 h -12.81 l -10.16,26.1014 h -35.78 l -9.53,-26.1014 z m 24.84,35.3204 h 29.07 l -8.91,23.75 c -2.81,7.18 -4.84,13.121 -6.09,17.812 -1.15,-5.519 -2.71,-10.992 -4.69,-16.41 z M 2935.9,91.0586 V 177 h 38.13 c 7.7,0 13.54,-0.781 17.5,-2.34 3.95,-1.57 7.13,-4.328 9.53,-8.281 2.39,-3.859 3.59,-8.129 3.59,-12.82 0,-6.137 -1.98,-11.297 -5.94,-15.469 -3.96,-4.16 -10.05,-6.82 -18.28,-7.961 3.02,-1.457 5.31,-2.867 6.88,-4.219 3.33,-3.019 6.45,-6.828 9.37,-11.41 l 15,-23.4414 h -14.37 l -11.25,17.8204 c -3.34,5.203 -6.1,9.16 -8.28,11.871 -2.09,2.711 -4.02,4.582 -5.79,5.629 -1.66,1.141 -3.38,1.973 -5.15,2.5 -1.25,0.203 -3.34,0.312 -6.25,0.312 h -13.28 V 91.0586 Z m 11.41,47.9724 h 24.53 c 5.1,0 9.11,0.52 12.03,1.559 3.02,1.148 5.26,2.871 6.72,5.16 1.56,2.398 2.34,5 2.34,7.809 0,4.07 -1.51,7.402 -4.53,10 -2.92,2.613 -7.55,3.91 -13.91,3.91 h -27.18 z m 96.97,-47.9724 V 166.84 H 3016 V 177 h 68.12 v -10.16 h -28.43 V 91.0586 Z m 40.33,-23.8984 v 7.6484 h 70 v -7.6484 z m 74.4,65.7808 c 0,14.27 3.8,25.411 11.4,33.438 7.71,8.121 17.61,12.18 29.69,12.18 8.02,0 15.21,-1.918 21.56,-5.778 6.36,-3.75 11.2,-9.011 14.53,-15.781 3.34,-6.77 5,-14.48 5,-23.121 0,-8.649 -1.77,-16.41 -5.31,-23.289 -3.54,-6.871 -8.54,-12.0783 -15,-15.6212 -6.35,-3.5391 -13.28,-5.3086 -20.78,-5.3086 -8.13,0 -15.37,1.9218 -21.72,5.7812 -6.35,3.957 -11.2,9.2696 -14.53,15.9376 -3.23,6.769 -4.84,13.953 -4.84,21.562 z m 11.71,-0.16 c 0,-10.422 2.76,-18.59 8.29,-24.531 5.62,-5.941 12.65,-8.9102 21.09,-8.9102 8.54,0 15.57,2.9692 21.09,8.9102 5.52,6.039 8.28,14.641 8.28,25.781 0,6.981 -1.19,13.071 -3.59,18.278 -2.29,5.211 -5.73,9.222 -10.31,12.031 -4.59,2.922 -9.69,4.379 -15.31,4.379 -8.03,0 -14.95,-2.758 -20.79,-8.278 -5.83,-5.519 -8.75,-14.742 -8.75,-27.66 z m 85.69,-41.7224 V 177 h 57.97 v -10.16 h -46.57 v -26.559 h 40.32 v -10.152 h -40.32 V 91.0586 h -11.4"
         style="fill:#000000;fill-opacity:1;fill-rule:nonzero;stroke:none"
         id="path86" /><path
         d="m 1307.16,959.082 h 926.27"
         style="fill:none;stroke:#000000;stroke-width:10;stroke-linecap:butt;stroke-linejoin:miter;stroke-miterlimit:1.45;stroke-dasharray:none;stroke-opacity:1"
         id="path88" /><path
         d="m 2313.43,959.082 -120,49.998 30,-49.998 -30,-50 z"
         style="fill:#000000;fill-opacity:1;fill-rule:nonzero;stroke:none"
         id="path90" /><path
         d="m 1406.97,1052.59 h 806.87 V 865.57 h -806.87 v 187.02"
         style="fill:#ffffff;fill-opacity:1;fill-rule:nonzero;stroke:none"
         id="path92" /><path
         d="m 1437.75,962.102 v 12.027 h 12.03 v -12.027 z m 0,-50.161 v 12.028 h 12.03 v -12.028 z m 33.81,0 v 85.938 h 11.25 v -85.938 z m 27.56,27.661 10.62,0.929 c 0.52,-4.371 1.72,-7.91 3.6,-10.621 1.87,-2.711 4.74,-4.949 8.59,-6.719 3.96,-1.671 8.38,-2.5 13.28,-2.5 4.27,0 8.07,0.629 11.41,1.879 3.33,1.352 5.78,3.121 7.34,5.309 1.67,2.293 2.5,4.742 2.5,7.34 0,2.711 -0.78,5.051 -2.34,7.031 -1.57,2.09 -4.12,3.809 -7.66,5.16 -2.4,0.942 -7.55,2.34 -15.47,4.219 -7.81,1.871 -13.28,3.641 -16.4,5.312 -4.17,2.188 -7.24,4.84 -9.22,7.969 -1.98,3.231 -2.97,6.82 -2.97,10.781 0,4.27 1.2,8.278 3.59,12.028 2.5,3.863 6.1,6.722 10.78,8.601 4.79,1.969 10.06,2.961 15.78,2.961 6.36,0 11.98,-1.043 16.88,-3.121 4.9,-1.98 8.65,-5 11.25,-9.058 2.6,-3.961 4.01,-8.442 4.22,-13.442 l -10.94,-0.781 c -0.62,5.41 -2.66,9.48 -6.09,12.191 -3.34,2.809 -8.28,4.211 -14.85,4.211 -6.87,0 -11.87,-1.25 -15,-3.75 -3.12,-2.5 -4.68,-5.519 -4.68,-9.062 0,-3.117 1.09,-5.68 3.28,-7.649 2.18,-1.98 7.86,-4.011 17.03,-6.101 9.27,-2.078 15.62,-3.899 19.06,-5.469 5,-2.391 8.7,-5.359 11.09,-8.898 2.4,-3.442 3.6,-7.5 3.6,-12.192 0,-4.578 -1.3,-8.91 -3.91,-12.969 -2.6,-3.961 -6.35,-7.082 -11.25,-9.371 -4.89,-2.191 -10.41,-3.289 -16.56,-3.289 -7.81,0 -14.38,1.098 -19.69,3.289 -5.21,2.289 -9.32,5.719 -12.34,10.309 -2.92,4.582 -4.43,9.742 -4.53,15.473 z m 72.69,-51.571 v 7.66 h 70 v -7.66 z m 77.83,23.91 v 85.938 h 32.5 c 5.63,0 9.95,-0.258 12.97,-0.777 4.27,-0.731 7.82,-2.09 10.63,-4.071 2.91,-1.972 5.21,-4.742 6.87,-8.281 1.77,-3.539 2.66,-7.441 2.66,-11.719 0,-7.293 -2.34,-13.492 -7.03,-18.59 -4.59,-5 -12.97,-7.5 -25.16,-7.5 h -22.03 v -35 z m 11.41,45 h 22.19 c 7.39,0 12.6,1.348 15.62,4.059 3.13,2.82 4.69,6.719 4.69,11.719 0,3.543 -0.94,6.562 -2.81,9.062 -1.77,2.61 -4.12,4.328 -7.03,5.16 -1.98,0.52 -5.52,0.778 -10.63,0.778 h -22.03 z m 59.26,-45 32.97,85.938 h 12.18 l 35.16,-85.938 h -12.81 l -10.16,26.09 h -35.78 l -9.53,-26.09 z m 24.84,35.309 h 29.06 l -8.9,23.75 c -2.81,7.191 -4.85,13.129 -6.1,17.82 -1.14,-5.531 -2.7,-10.988 -4.68,-16.41 z m 64.73,-35.309 v 85.938 H 1848 c 7.71,0 13.55,-0.777 17.5,-2.348 3.96,-1.562 7.14,-4.32 9.53,-8.281 2.4,-3.852 3.6,-8.121 3.6,-12.809 0,-6.152 -1.98,-11.3 -5.94,-15.472 -3.96,-4.16 -10.05,-6.821 -18.28,-7.969 3.02,-1.461 5.31,-2.859 6.87,-4.219 3.34,-3.019 6.46,-6.82 9.38,-11.402 l 15,-23.438 h -14.38 l -11.25,17.809 c -3.33,5.211 -6.09,9.172 -8.28,11.879 -2.08,2.711 -4.01,4.582 -5.78,5.621 -1.66,1.148 -3.38,1.98 -5.15,2.5 -1.25,0.211 -3.34,0.32 -6.25,0.32 h -13.29 v -38.129 z m 11.4,47.969 h 24.54 c 5.1,0 9.11,0.52 12.03,1.559 3.02,1.152 5.26,2.871 6.72,5.16 1.56,2.391 2.34,5 2.34,7.812 0,4.059 -1.51,7.399 -4.53,10 -2.92,2.598 -7.55,3.911 -13.91,3.911 h -27.19 z m 96.98,-47.969 v 75.778 h -28.28 v 10.16 h 68.12 v -10.16 h -28.44 v -75.778 z m 40.33,-23.91 v 7.66 h 70 v -7.66 z m 74.39,65.789 c 0,14.27 3.81,25.41 11.41,33.43 7.71,8.129 17.6,12.191 29.69,12.191 8.02,0 15.21,-1.929 21.56,-5.781 6.35,-3.75 11.2,-9.012 14.53,-15.781 3.33,-6.77 5,-14.481 5,-23.129 0,-8.641 -1.77,-16.398 -5.31,-23.281 -3.54,-6.867 -8.54,-12.078 -15,-15.617 -6.36,-3.543 -13.28,-5.321 -20.78,-5.321 -8.13,0 -15.37,1.93 -21.72,5.789 -6.36,3.95 -11.2,9.27 -14.53,15.93 -3.23,6.77 -4.85,13.961 -4.85,21.57 z m 11.72,-0.16 c 0,-10.422 2.76,-18.59 8.28,-24.531 5.63,-5.938 12.66,-8.91 21.1,-8.91 8.54,0 15.57,2.972 21.09,8.91 5.52,6.043 8.28,14.633 8.28,25.781 0,6.981 -1.2,13.07 -3.59,18.281 -2.29,5.207 -5.73,9.219 -10.31,12.028 -4.59,2.922 -9.69,4.383 -15.32,4.383 -8.02,0 -14.94,-2.762 -20.78,-8.282 -5.83,-5.531 -8.75,-14.738 -8.75,-27.66 z m 85.69,-41.719 v 85.938 h 57.97 v -10.16 h -46.57 V 961.16 h 40.32 V 951 h -40.32 v -39.059 h -11.4"
         style="fill:#000000;fill-opacity:1;fill-rule:nonzero;stroke:none"
         id="path94" /><path
         d="M 5109.73,959.082 H 3663.59"
         style="fill:none;stroke:#000000;stroke-width:10;stroke-linecap:butt;stroke-linejoin:miter;stroke-miterlimit:1.45;stroke-dasharray:none;stroke-opacity:1"
         id="path96" /><path
         d="m 3583.59,959.082 120,-50 -30,50 30,49.998 z"
         style="fill:#000000;fill-opacity:1;fill-rule:nonzero;stroke:none"
         id="path98" /><path
         d="M 3753.34,1052.59 H 4940.26 V 865.57 H 3753.34 v 187.02"
         style="fill:#ffffff;fill-opacity:1;fill-rule:nonzero;stroke:none"
         id="path100" /><path
         d="m 3784.13,962.102 v 12.027 h 12.03 v -12.027 z m 0,-50.161 v 12.028 h 12.03 v -12.028 z m 33.8,0 v 85.938 h 11.25 v -85.938 z m 27.56,27.661 10.63,0.929 c 0.52,-4.371 1.72,-7.91 3.59,-10.621 1.88,-2.711 4.74,-4.949 8.6,-6.719 3.95,-1.671 8.38,-2.5 13.28,-2.5 4.27,0 8.07,0.629 11.4,1.879 3.34,1.352 5.78,3.121 7.35,5.309 1.66,2.293 2.5,4.742 2.5,7.34 0,2.711 -0.78,5.051 -2.35,7.031 -1.56,2.09 -4.11,3.809 -7.65,5.16 -2.4,0.942 -7.56,2.34 -15.47,4.219 -7.81,1.871 -13.28,3.641 -16.41,5.312 -4.16,2.188 -7.24,4.84 -9.22,7.969 -1.98,3.231 -2.97,6.82 -2.97,10.781 0,4.27 1.2,8.278 3.6,12.028 2.5,3.863 6.09,6.722 10.78,8.601 4.79,1.969 10.05,2.961 15.78,2.961 6.35,0 11.98,-1.043 16.88,-3.121 4.89,-1.98 8.64,-5 11.25,-9.058 2.6,-3.961 4.01,-8.442 4.21,-13.442 l -10.93,-0.781 c -0.63,5.41 -2.66,9.48 -6.1,12.191 -3.33,2.809 -8.28,4.211 -14.84,4.211 -6.88,0 -11.88,-1.25 -15,-3.75 -3.13,-2.5 -4.69,-5.519 -4.69,-9.062 0,-3.117 1.1,-5.68 3.28,-7.649 2.19,-1.98 7.87,-4.011 17.03,-6.101 9.28,-2.078 15.63,-3.899 19.07,-5.469 5,-2.391 8.69,-5.359 11.09,-8.898 2.4,-3.442 3.59,-7.5 3.59,-12.192 0,-4.578 -1.3,-8.91 -3.9,-12.969 -2.61,-3.961 -6.36,-7.082 -11.25,-9.371 -4.9,-2.191 -10.42,-3.289 -16.56,-3.289 -7.82,0 -14.38,1.098 -19.69,3.289 -5.21,2.289 -9.32,5.719 -12.35,10.309 -2.91,4.582 -4.42,9.742 -4.53,15.473 z m 72.7,-51.571 v 7.66 h 70 v -7.66 z m 78.14,23.91 v 85.938 h 62.03 v -10.16 h -50.62 v -26.25 h 47.5 V 951.32 h -47.5 v -29.218 h 52.66 v -10.161 z m 70.98,0 33.28,44.84 -29.22,41.098 h 13.44 l 15.62,-22.027 c 3.23,-4.59 5.53,-8.133 6.88,-10.633 1.98,3.133 4.27,6.41 6.87,9.851 l 17.19,22.809 h 12.35 l -30.16,-40.469 32.5,-45.469 H 4132 l -21.57,30.629 c -1.25,1.77 -2.5,3.692 -3.75,5.782 -1.87,-3.133 -3.22,-5.262 -4.06,-6.411 l -21.56,-30 z m 89.1,0 v 85.938 h 62.03 v -10.16 h -50.62 v -26.25 h 47.5 V 951.32 h -47.5 v -29.218 h 52.65 v -10.161 z m 141.13,30.161 11.25,-2.973 c -2.39,-9.27 -6.66,-16.359 -12.81,-21.25 -6.14,-4.899 -13.7,-7.348 -22.65,-7.348 -9.28,0 -16.83,1.879 -22.66,5.629 -5.83,3.75 -10.26,9.172 -13.28,16.25 -3.02,7.192 -4.53,14.899 -4.53,23.121 0,8.957 1.72,16.778 5.15,23.438 3.44,6.672 8.28,11.722 14.53,15.16 6.36,3.441 13.34,5.152 20.94,5.152 8.54,0 15.73,-2.179 21.56,-6.562 5.94,-4.367 10.06,-10.52 12.35,-18.438 l -11.25,-2.652 c -1.98,6.25 -4.9,10.781 -8.75,13.59 -3.75,2.922 -8.49,4.383 -14.22,4.383 -6.56,0 -12.08,-1.622 -16.56,-4.852 -4.38,-3.121 -7.5,-7.34 -9.38,-12.648 -1.77,-5.321 -2.65,-10.84 -2.65,-16.571 0,-7.293 1.04,-13.64 3.12,-19.062 2.19,-5.41 5.52,-9.481 10,-12.188 4.48,-2.699 9.38,-4.062 14.69,-4.062 6.35,0 11.72,1.82 16.09,5.472 4.48,3.649 7.5,9.118 9.06,16.411 z m 81.66,55.777 h 11.41 v -49.688 c 0,-8.652 -0.99,-15.519 -2.97,-20.621 -1.98,-5 -5.52,-9.121 -10.62,-12.351 -5.11,-3.117 -11.77,-4.688 -20,-4.688 -8.02,0 -14.64,1.36 -19.85,4.071 -5.1,2.808 -8.75,6.82 -10.93,12.027 -2.19,5.312 -3.29,12.5 -3.29,21.562 v 49.688 h 11.41 v -49.527 c 0,-7.5 0.68,-13.02 2.03,-16.571 1.46,-3.543 3.86,-6.301 7.19,-8.281 3.44,-1.871 7.6,-2.809 12.5,-2.809 8.33,0 14.27,1.879 17.81,5.629 3.54,3.852 5.31,11.192 5.31,22.032 z m 52.13,-85.938 v 75.778 h -28.28 v 10.16 h 68.13 v -10.16 h -28.44 v -75.778 z m 53.46,0 v 85.938 h 11.25 v -85.938 z m 27.87,41.879 c 0,14.27 3.8,25.41 11.41,33.43 7.71,8.129 17.6,12.191 29.68,12.191 8.03,0 15.21,-1.929 21.57,-5.781 6.35,-3.75 11.2,-9.012 14.53,-15.781 3.33,-6.77 5,-14.481 5,-23.129 0,-8.641 -1.77,-16.398 -5.31,-23.281 -3.55,-6.867 -8.55,-12.078 -15,-15.617 -6.36,-3.543 -13.29,-5.321 -20.79,-5.321 -8.12,0 -15.36,1.93 -21.71,5.789 -6.36,3.95 -11.2,9.27 -14.54,15.93 -3.22,6.77 -4.84,13.961 -4.84,21.57 z m 11.72,-0.16 c 0,-10.422 2.76,-18.59 8.28,-24.531 5.63,-5.938 12.66,-8.91 21.09,-8.91 8.55,0 15.58,2.972 21.1,8.91 5.52,6.043 8.28,14.633 8.28,25.781 0,6.981 -1.2,13.07 -3.59,18.281 -2.3,5.207 -5.73,9.219 -10.32,12.028 -4.58,2.922 -9.68,4.383 -15.31,4.383 -8.02,0 -14.95,-2.762 -20.78,-8.282 -5.83,-5.531 -8.75,-14.738 -8.75,-27.66 z m 85.06,-41.719 v 85.938 H 4621 l 45.16,-67.5 v 67.5 h 10.93 v -85.938 h -11.71 l -45.16,67.5 v -67.5 z m 75.56,-23.91 v 7.66 h 70 v -7.66 z m 74.4,65.789 c 0,14.27 3.8,25.41 11.41,33.43 7.7,8.129 17.6,12.191 29.68,12.191 8.02,0 15.21,-1.929 21.57,-5.781 6.35,-3.75 11.19,-9.012 14.53,-15.781 3.33,-6.77 5,-14.481 5,-23.129 0,-8.641 -1.77,-16.398 -5.32,-23.281 -3.54,-6.867 -8.54,-12.078 -15,-15.617 -6.35,-3.543 -13.28,-5.321 -20.78,-5.321 -8.12,0 -15.36,1.93 -21.72,5.789 -6.35,3.95 -11.19,9.27 -14.53,15.93 -3.23,6.77 -4.84,13.961 -4.84,21.57 z m 11.72,-0.16 c 0,-10.422 2.76,-18.59 8.28,-24.531 5.62,-5.938 12.66,-8.91 21.09,-8.91 8.54,0 15.58,2.972 21.1,8.91 5.52,6.043 8.28,14.633 8.28,25.781 0,6.981 -1.2,13.07 -3.6,18.281 -2.29,5.207 -5.72,9.219 -10.31,12.028 -4.58,2.922 -9.69,4.383 -15.31,4.383 -8.02,0 -14.95,-2.762 -20.78,-8.282 -5.84,-5.531 -8.75,-14.738 -8.75,-27.66 z m 85.68,-41.719 v 85.938 h 57.97 v -10.16 h -46.56 V 961.16 h 40.31 V 951 h -40.31 v -39.059 h -11.41"
         style="fill:#000000;fill-opacity:1;fill-rule:nonzero;stroke:none"
         id="path102" /></g></g></svg>
