<?xml version="1.0" encoding="UTF-8" standalone="no"?>
<!-- Created with Inkscape (http://www.inkscape.org/) -->

<svg
   version="1.1"
   id="svg2"
   xml:space="preserve"
   width="825.33331"
   height="621.33331"
   viewBox="0 0 825.33331 621.33331"
   sodipodi:docname="sysml_req_graphschema.svg"
   inkscape:version="1.1.2 (b8e25be833, 2022-02-05)"
   xmlns:inkscape="http://www.inkscape.org/namespaces/inkscape"
   xmlns:sodipodi="http://sodipodi.sourceforge.net/DTD/sodipodi-0.dtd"
   xmlns="http://www.w3.org/2000/svg"
   xmlns:svg="http://www.w3.org/2000/svg"><defs
     id="defs6" /><sodipodi:namedview
     id="namedview4"
     pagecolor="#ffffff"
     bordercolor="#666666"
     borderopacity="1.0"
     inkscape:pageshadow="2"
     inkscape:pageopacity="0.0"
     inkscape:pagecheckerboard="0"
     showgrid="false"
     inkscape:zoom="1.3792919"
     inkscape:cx="412.89302"
     inkscape:cy="311.02916"
     inkscape:window-width="1920"
     inkscape:window-height="1017"
     inkscape:window-x="-1928"
     inkscape:window-y="-8"
     inkscape:window-maximized="1"
     inkscape:current-layer="g8" /><g
     id="g8"
     inkscape:groupmode="layer"
     inkscape:label="ink_ext_XXXXXX"
     transform="matrix(1.3333333,0,0,-1.3333333,0,621.33333)"><g
       id="g10"
       transform="scale(0.1)"><path
         d="M 0,4660 H 6190 V 0 H 0 v 4660"
         style="fill:#ffffff;fill-opacity:1;fill-rule:nonzero;stroke:none"
         id="path12" /><path
         d="M 0,4660 H 6190 V 0 H 0 v 4660"
         style="fill:#ffffff;fill-opacity:1;fill-rule:nonzero;stroke:none"
         id="path14" /><path
         d="M 0,4660 H 6190 V 0 H 0 v 4660"
         style="fill:#ffffff;fill-opacity:1;fill-rule:nonzero;stroke:none"
         id="path16" /><path
         d="M 94.3008,3982.64 V 2789.56 c 0,-22.09 17.9102,-40 40.0002,-40 H 1474.3 c 22.1,0 40,17.91 40,40 v 1193.08 c 0,22.09 -17.9,40 -40,40 H 134.301 c -22.09,0 -40.0002,-17.91 -40.0002,-40"
         style="fill:#ffffff;fill-opacity:1;fill-rule:nonzero;stroke:none"
         id="path18" /><path
         d="M 94.3008,3982.64 V 2789.56 c 0,-22.09 17.9102,-40 40.0002,-40 H 1474.3 c 22.1,0 40,17.91 40,40 v 1193.08 c 0,22.09 -17.9,40 -40,40 H 134.301 c -22.09,0 -40.0002,-17.91 -40.0002,-40 z"
         style="fill:none;stroke:#000000;stroke-width:10;stroke-linecap:butt;stroke-linejoin:miter;stroke-miterlimit:1.45;stroke-dasharray:none;stroke-opacity:1"
         id="path20" /><path
         d="m 355.07,3389.11 v 12.04 h 12.032 v -12.04 z m 0,-50.15 v 12.03 h 12.032 v -12.03 z m 31.93,0 v 85.94 h 38.129 c 7.699,0 13.543,-0.79 17.5,-2.35 3.949,-1.56 7.133,-4.32 9.531,-8.28 2.391,-3.85 3.59,-8.12 3.59,-12.81 0,-6.15 -1.98,-11.3 -5.941,-15.47 -3.957,-4.17 -10.047,-6.82 -18.278,-7.97 3.02,-1.46 5.309,-2.86 6.879,-4.22 3.332,-3.02 6.449,-6.82 9.371,-11.4 l 15,-23.44 H 448.41 l -11.25,17.81 c -3.34,5.21 -6.101,9.17 -8.281,11.88 -2.09,2.7 -4.02,4.58 -5.789,5.62 -1.66,1.15 -3.379,1.98 -5.149,2.5 -1.25,0.21 -3.339,0.31 -6.25,0.31 H 398.41 v -38.12 z m 11.41,47.97 h 24.531 c 5.098,0 9.11,0.52 12.028,1.56 3.023,1.15 5.261,2.86 6.722,5.16 1.559,2.39 2.34,5 2.34,7.81 0,4.06 -1.511,7.39 -4.531,10 -2.922,2.6 -7.551,3.9 -13.91,3.9 h -27.18 z m 75.41,-47.97 v 85.94 h 62.032 v -10.16 h -50.633 v -26.25 h 47.5 v -10.16 h -47.5 v -29.22 h 52.66 v -10.15 z m 144.879,9.22 c 5.313,-3.65 10.16,-6.3 14.531,-7.97 l -3.281,-7.97 c -6.148,2.29 -12.289,5.83 -18.437,10.62 -6.352,-3.54 -13.383,-5.31 -21.09,-5.31 -7.813,0 -14.902,1.88 -21.25,5.63 -6.25,3.75 -11.102,9.01 -14.531,15.78 -3.442,6.77 -5.161,14.43 -5.161,22.97 0,8.43 1.719,16.14 5.161,23.12 3.429,6.98 8.328,12.29 14.679,15.94 6.36,3.65 13.442,5.47 21.25,5.47 7.918,0 15.059,-1.93 21.41,-5.78 6.461,-3.75 11.352,-9.01 14.692,-15.78 3.328,-6.77 5,-14.43 5,-22.97 0,-7.09 -1.102,-13.44 -3.281,-19.07 -2.09,-5.62 -5.321,-10.52 -9.692,-14.68 z m -25,14.53 c 6.563,-1.88 11.981,-4.64 16.25,-8.28 6.672,6.14 10,15.31 10,27.5 0,6.98 -1.199,13.07 -3.59,18.28 -2.398,5.21 -5.89,9.22 -10.468,12.03 -4.481,2.92 -9.532,4.37 -15.161,4.37 -8.539,0 -15.621,-2.91 -21.25,-8.75 -5.519,-5.72 -8.281,-14.37 -8.281,-25.93 0,-11.15 2.762,-19.74 8.281,-25.78 5.52,-5.94 12.602,-8.91 21.25,-8.91 4.059,0 7.872,0.78 11.411,2.34 -3.539,2.3 -7.289,3.91 -11.25,4.85 z m 109.59,62.19 h 11.41 v -49.69 c 0,-8.65 -0.988,-15.52 -2.969,-20.63 -1.98,-5 -5.519,-9.11 -10.628,-12.34 -5.102,-3.13 -11.77,-4.69 -20,-4.69 -8.02,0 -14.633,1.36 -19.84,4.06 -5.114,2.82 -8.75,6.83 -10.942,12.04 -2.191,5.31 -3.281,12.5 -3.281,21.56 v 49.69 h 11.41 v -49.54 c 0,-7.5 0.672,-13.02 2.031,-16.56 1.461,-3.54 3.852,-6.3 7.18,-8.28 3.442,-1.87 7.61,-2.81 12.5,-2.81 8.34,0 14.281,1.87 17.82,5.62 3.54,3.86 5.309,11.2 5.309,22.03 z m 32.281,-85.94 v 85.94 h 11.25 v -85.94 z m 31.469,0 v 85.94 h 38.121 c 7.711,0 13.551,-0.79 17.5,-2.35 3.961,-1.56 7.141,-4.32 9.539,-8.28 2.391,-3.85 3.59,-8.12 3.59,-12.81 0,-6.15 -1.98,-11.3 -5.937,-15.47 -3.961,-4.17 -10.051,-6.82 -18.282,-7.97 3.02,-1.46 5.309,-2.86 6.879,-4.22 3.332,-3.02 6.449,-6.82 9.371,-11.4 l 15,-23.44 h -14.371 l -11.25,17.81 c -3.34,5.21 -6.097,9.17 -8.289,11.88 -2.078,2.7 -4.012,4.58 -5.781,5.62 -1.66,1.15 -3.379,1.98 -5.149,2.5 -1.25,0.21 -3.339,0.31 -6.25,0.31 h -13.281 v -38.12 z m 11.41,47.97 h 24.531 c 5.102,0 9.11,0.52 12.032,1.56 3.019,1.15 5.258,2.86 6.718,5.16 1.559,2.39 2.34,5 2.34,7.81 0,4.06 -1.511,7.39 -4.531,10 -2.918,2.6 -7.551,3.9 -13.91,3.9 h -27.18 z m 75.41,-47.97 v 85.94 h 62.032 v -10.16 h -50.629 v -26.25 h 47.5 v -10.16 h -47.5 v -29.22 h 52.66 v -10.15 z m 79.411,0 v 85.94 h 17.191 l 20.309,-60.79 c 1.871,-5.72 3.23,-10 4.062,-12.81 0.938,3.13 2.449,7.71 4.527,13.75 l 20.629,59.85 h 15.312 v -85.94 h -10.94 v 71.87 l -25.001,-71.87 h -10.308 l -24.84,73.12 v -73.12 z m 100.59,0 v 85.94 h 62.03 v -10.16 h -50.63 v -26.25 h 47.5 v -10.16 h -47.5 v -29.22 h 52.66 v -10.15 z m 79.72,0 v 85.94 h 11.56 l 45.16,-67.5 v 67.5 h 10.94 v -85.94 h -11.72 l -45.16,67.5 v -67.5 z m 108.54,0 v 75.78 h -28.28 v 10.16 h 68.12 v -10.16 h -28.44 v -75.78 h -11.4"
         style="fill:#000000;fill-opacity:1;fill-rule:nonzero;stroke:none"
         id="path22" /><path
         d="M 3563.6,3982.64 V 2789.56 c 0,-22.09 17.91,-40 40,-40 h 1340 c 22.1,0 40,17.91 40,40 v 1193.08 c 0,22.09 -17.9,40 -40,40 h -1340 c -22.09,0 -40,-17.91 -40,-40"
         style="fill:#ffffff;fill-opacity:1;fill-rule:nonzero;stroke:none"
         id="path24" /><path
         d="M 3563.6,3982.64 V 2789.56 c 0,-22.09 17.91,-40 40,-40 h 1340 c 22.1,0 40,17.91 40,40 v 1193.08 c 0,22.09 -17.9,40 -40,40 h -1340 c -22.09,0 -40,-17.91 -40,-40 z"
         style="fill:none;stroke:#000000;stroke-width:10;stroke-linecap:butt;stroke-linejoin:miter;stroke-miterlimit:1.45;stroke-dasharray:none;stroke-opacity:1"
         id="path26" /><path
         d="m 4064.31,3389.11 v 12.04 h 12.03 v -12.04 z m 0,-50.15 v 12.03 h 12.03 v -12.03 z m 28.02,27.65 10.63,0.94 c 0.52,-4.37 1.72,-7.91 3.59,-10.62 1.88,-2.71 4.74,-4.95 8.6,-6.72 3.96,-1.67 8.38,-2.5 13.28,-2.5 4.27,0 8.07,0.62 11.4,1.87 3.34,1.36 5.79,3.13 7.35,5.32 1.67,2.29 2.5,4.74 2.5,7.34 0,2.71 -0.78,5.05 -2.35,7.03 -1.56,2.08 -4.11,3.8 -7.65,5.16 -2.4,0.93 -7.55,2.34 -15.47,4.22 -7.81,1.87 -13.28,3.64 -16.41,5.31 -4.16,2.19 -7.24,4.84 -9.22,7.97 -1.97,3.23 -2.96,6.82 -2.96,10.78 0,4.27 1.19,8.28 3.59,12.03 2.5,3.85 6.09,6.72 10.78,8.59 4.79,1.98 10.05,2.97 15.78,2.97 6.36,0 11.98,-1.04 16.88,-3.12 4.89,-1.98 8.64,-5 11.25,-9.07 2.6,-3.95 4.01,-8.43 4.22,-13.43 l -10.94,-0.78 c -0.63,5.41 -2.66,9.48 -6.1,12.18 -3.33,2.82 -8.28,4.22 -14.84,4.22 -6.87,0 -11.87,-1.25 -15,-3.75 -3.12,-2.5 -4.69,-5.52 -4.69,-9.06 0,-3.13 1.1,-5.68 3.28,-7.66 2.19,-1.98 7.87,-4.01 17.04,-6.09 9.27,-2.08 15.62,-3.91 19.06,-5.47 5,-2.39 8.7,-5.36 11.09,-8.91 2.4,-3.43 3.6,-7.5 3.6,-12.18 0,-4.59 -1.31,-8.91 -3.91,-12.97 -2.6,-3.96 -6.35,-7.08 -11.25,-9.38 -4.9,-2.18 -10.42,-3.28 -16.56,-3.28 -7.82,0 -14.38,1.1 -19.69,3.28 -5.21,2.3 -9.32,5.73 -12.34,10.32 -2.92,4.58 -4.43,9.74 -4.54,15.46 z m 108.01,-27.65 v 36.4 l -33.12,49.54 h 13.9 l 16.88,-25.94 c 3.12,-4.79 6.04,-9.64 8.75,-14.53 2.6,4.48 5.73,9.53 9.37,15.15 l 16.72,25.32 h 13.13 l -34.22,-49.54 v -36.4 z m 52.07,27.65 10.63,0.94 c 0.52,-4.37 1.72,-7.91 3.59,-10.62 1.88,-2.71 4.74,-4.95 8.6,-6.72 3.95,-1.67 8.38,-2.5 13.28,-2.5 4.27,0 8.07,0.62 11.4,1.87 3.34,1.36 5.78,3.13 7.35,5.32 1.66,2.29 2.5,4.74 2.5,7.34 0,2.71 -0.78,5.05 -2.35,7.03 -1.56,2.08 -4.11,3.8 -7.65,5.16 -2.4,0.93 -7.56,2.34 -15.47,4.22 -7.81,1.87 -13.28,3.64 -16.41,5.31 -4.17,2.19 -7.24,4.84 -9.22,7.97 -1.98,3.23 -2.97,6.82 -2.97,10.78 0,4.27 1.2,8.28 3.6,12.03 2.5,3.85 6.09,6.72 10.78,8.59 4.79,1.98 10.05,2.97 15.78,2.97 6.35,0 11.98,-1.04 16.88,-3.12 4.89,-1.98 8.64,-5 11.25,-9.07 2.6,-3.95 4.01,-8.43 4.21,-13.43 l -10.93,-0.78 c -0.63,5.41 -2.66,9.48 -6.1,12.18 -3.33,2.82 -8.28,4.22 -14.84,4.22 -6.88,0 -11.88,-1.25 -15,-3.75 -3.13,-2.5 -4.69,-5.52 -4.69,-9.06 0,-3.13 1.1,-5.68 3.28,-7.66 2.19,-1.98 7.87,-4.01 17.03,-6.09 9.27,-2.08 15.63,-3.91 19.07,-5.47 5,-2.39 8.69,-5.36 11.09,-8.91 2.4,-3.43 3.59,-7.5 3.59,-12.18 0,-4.59 -1.3,-8.91 -3.9,-12.97 -2.61,-3.96 -6.36,-7.08 -11.25,-9.38 -4.9,-2.18 -10.42,-3.28 -16.56,-3.28 -7.82,0 -14.38,1.1 -19.69,3.28 -5.21,2.3 -9.33,5.73 -12.35,10.32 -2.91,4.58 -4.42,9.74 -4.53,15.46 z m 83.48,-27.65 v 85.94 h 17.19 l 20.31,-60.79 c 1.87,-5.72 3.23,-10 4.06,-12.81 0.94,3.13 2.45,7.71 4.53,13.75 l 20.63,59.85 h 15.31 v -85.94 h -10.94 v 71.87 l -25,-71.87 h -10.31 l -24.84,73.12 v -73.12 z m 99.8,0 v 85.94 h 11.41 v -75.79 h 42.34 v -10.15 h -53.75"
         style="fill:#000000;fill-opacity:1;fill-rule:nonzero;stroke:none"
         id="path28" /><path
         d="M 94.3008,1119.23 V 750.152 c 0,-22.089 17.9102,-40 40.0002,-40 H 1474.3 c 22.1,0 40,17.911 40,40 v 369.078 c 0,22.09 -17.9,40 -40,40 H 134.301 c -22.09,0 -40.0002,-17.91 -40.0002,-40"
         style="fill:#ffffff;fill-opacity:1;fill-rule:nonzero;stroke:none"
         id="path30" /><path
         d="M 94.3008,1119.23 V 750.152 c 0,-22.089 17.9102,-40 40.0002,-40 H 1474.3 c 22.1,0 40,17.911 40,40 v 369.078 c 0,22.09 -17.9,40 -40,40 H 134.301 c -22.09,0 -40.0002,-17.91 -40.0002,-40 z"
         style="fill:none;stroke:#000000;stroke-width:10;stroke-linecap:butt;stroke-linejoin:miter;stroke-miterlimit:1.45;stroke-dasharray:none;stroke-opacity:1"
         id="path32" /><path
         d="m 511.66,937.711 v 12.031 h 12.031 v -12.031 z m 0,-50.16 v 12.039 h 12.031 v -12.039 z m 88.18,85.941 h 11.41 v -49.691 c 0,-8.641 -0.988,-15.52 -2.969,-20.621 -1.98,-5 -5.519,-9.121 -10.633,-12.34 -5.097,-3.129 -11.769,-4.692 -20,-4.692 -8.019,0 -14.628,1.352 -19.839,4.063 -5.098,2.809 -8.75,6.82 -10.938,12.031 -2.18,5.309 -3.281,12.5 -3.281,21.559 v 49.691 H 555 v -49.531 c 0,-7.5 0.68,-13.02 2.031,-16.563 1.457,-3.539 3.848,-6.296 7.188,-8.277 3.429,-1.879 7.601,-2.82 12.5,-2.82 8.332,0 14.269,1.879 17.812,5.629 3.539,3.851 5.309,11.199 5.309,22.031 z m 26.512,-58.281 10.617,0.937 c 0.519,-4.378 1.722,-7.918 3.59,-10.628 1.882,-2.711 4.742,-4.938 8.601,-6.719 3.961,-1.66 8.379,-2.5 13.281,-2.5 4.27,0 8.071,0.629 11.411,1.879 3.328,1.351 5.777,3.121 7.339,5.312 1.668,2.289 2.5,4.738 2.5,7.348 0,2.699 -0.781,5.051 -2.339,7.031 -1.571,2.078 -4.122,3.801 -7.661,5.149 -2.402,0.941 -7.55,2.351 -15.472,4.222 -7.809,1.879 -13.278,3.649 -16.41,5.309 -4.161,2.191 -7.239,4.847 -9.207,7.969 -1.981,3.23 -2.973,6.832 -2.973,10.781 0,4.281 1.191,8.289 3.59,12.039 2.5,3.851 6.09,6.711 10.781,8.59 4.789,1.98 10.051,2.968 15.781,2.968 6.36,0 11.981,-1.039 16.879,-3.128 4.891,-1.981 8.641,-5 11.25,-9.059 2.602,-3.961 4.012,-8.441 4.219,-13.441 l -10.938,-0.778 c -0.632,5.418 -2.66,9.477 -6.089,12.188 -3.34,2.812 -8.293,4.218 -14.852,4.218 -6.871,0 -11.871,-1.25 -15,-3.75 -3.121,-2.5 -4.691,-5.519 -4.691,-9.058 0,-3.129 1.101,-5.68 3.293,-7.66 2.179,-1.981 7.859,-4.008 17.027,-6.09 9.269,-2.09 15.621,-3.91 19.062,-5.469 5,-2.402 8.7,-5.371 11.09,-8.91 2.399,-3.441 3.598,-7.5 3.598,-12.191 0,-4.579 -1.309,-8.899 -3.91,-12.969 -2.598,-3.949 -6.348,-7.082 -11.25,-9.371 -4.899,-2.188 -10.418,-3.282 -16.559,-3.282 -7.808,0 -14.379,1.094 -19.691,3.282 -5.207,2.289 -9.321,5.73 -12.34,10.312 -2.918,4.59 -4.43,9.738 -4.527,15.469 z m 84.097,-27.66 v 85.941 H 772.48 V 963.34 h -50.628 v -26.25 h 47.5 v -10.16 h -47.5 v -29.219 h 52.66 v -10.16 z m 141.129,30.16 11.25,-2.969 c -2.398,-9.273 -6.668,-16.351 -12.808,-21.25 -6.149,-4.89 -13.7,-7.344 -22.661,-7.344 -9.269,0 -16.82,1.872 -22.648,5.622 -5.84,3.75 -10.27,9.171 -13.289,16.25 -3.024,7.191 -4.531,14.902 -4.531,23.128 0,8.961 1.718,16.774 5.16,23.442 3.441,6.66 8.277,11.711 14.527,15.152 6.352,3.438 13.332,5.156 20.942,5.156 8.539,0 15.73,-2.187 21.558,-6.558 5.942,-4.379 10.051,-10.531 12.344,-18.442 l -11.25,-2.656 c -1.981,6.25 -4.891,10.778 -8.75,13.598 -3.75,2.91 -8.492,4.371 -14.211,4.371 -6.57,0 -12.09,-1.609 -16.57,-4.84 -4.371,-3.129 -7.5,-7.351 -9.371,-12.66 -1.77,-5.313 -2.661,-10.832 -2.661,-16.563 0,-7.289 1.039,-13.648 3.133,-19.058 2.18,-5.418 5.52,-9.481 10,-12.192 4.477,-2.707 9.367,-4.058 14.68,-4.058 6.359,0 11.719,1.82 16.098,5.461 4.48,3.648 7.5,9.121 9.058,16.41 z m 15.883,-30.16 32.969,85.941 h 12.191 l 35.149,-85.941 h -12.809 l -10.16,26.097 H 889.02 l -9.532,-26.097 z m 24.84,35.32 h 29.07 l -8.91,23.75 c -2.813,7.18 -4.84,13.121 -6.09,17.809 -1.152,-5.52 -2.711,-10.989 -4.691,-16.41 z m 60.82,-7.66 10.629,0.937 c 0.52,-4.378 1.719,-7.918 3.59,-10.628 1.879,-2.711 4.742,-4.938 8.601,-6.719 3.95,-1.66 8.379,-2.5 13.278,-2.5 4.269,0 8.07,0.629 11.401,1.879 3.34,1.351 5.78,3.121 7.35,5.312 1.66,2.289 2.5,4.738 2.5,7.348 0,2.699 -0.78,5.051 -2.35,7.031 -1.56,2.078 -4.11,3.801 -7.65,5.149 -2.4,0.941 -7.56,2.351 -15.47,4.222 -7.809,1.879 -13.281,3.649 -16.41,5.309 -4.16,2.191 -7.238,4.847 -9.219,7.969 -1.98,3.23 -2.973,6.832 -2.973,10.781 0,4.281 1.204,8.289 3.602,12.039 2.5,3.851 6.09,6.711 10.781,8.59 4.789,1.98 10.051,2.968 15.778,2.968 6.351,0 11.98,-1.039 16.881,-3.128 4.89,-1.981 8.64,-5 11.25,-9.059 2.6,-3.961 4.01,-8.441 4.21,-13.441 l -10.93,-0.778 c -0.63,5.418 -2.66,9.477 -6.1,12.188 -3.331,2.812 -8.28,4.218 -14.839,4.218 -6.883,0 -11.883,-1.25 -15,-3.75 -3.133,-2.5 -4.691,-5.519 -4.691,-9.058 0,-3.129 1.101,-5.68 3.281,-7.66 2.188,-1.981 7.867,-4.008 17.027,-6.09 9.282,-2.09 15.632,-3.91 19.072,-5.469 5,-2.402 8.69,-5.371 11.09,-8.91 2.4,-3.441 3.59,-7.5 3.59,-12.191 0,-4.579 -1.3,-8.899 -3.9,-12.969 -2.61,-3.949 -6.36,-7.082 -11.25,-9.371 -4.9,-2.188 -10.418,-3.282 -16.559,-3.282 -7.82,0 -14.382,1.094 -19.691,3.282 -5.211,2.289 -9.32,5.73 -12.352,10.312 -2.91,4.59 -4.418,9.738 -4.527,15.469 z m 84.099,-27.66 v 85.941 h 62.04 V 963.34 h -50.63 v -26.25 h 47.5 v -10.16 h -47.5 v -29.219 h 52.66 v -10.16 h -64.07"
         style="fill:#000000;fill-opacity:1;fill-rule:nonzero;stroke:none"
         id="path34" /><path
         d="M 94.3008,2300.87 V 1931.8 c 0,-22.1 17.9102,-40 40.0002,-40 H 1474.3 c 22.1,0 40,17.9 40,40 v 369.07 c 0,22.1 -17.9,40 -40,40 H 134.301 c -22.09,0 -40.0002,-17.9 -40.0002,-40"
         style="fill:#ffffff;fill-opacity:1;fill-rule:nonzero;stroke:none"
         id="path36" /><path
         d="M 94.3008,2300.87 V 1931.8 c 0,-22.1 17.9102,-40 40.0002,-40 H 1474.3 c 22.1,0 40,17.9 40,40 v 369.07 c 0,22.1 -17.9,40 -40,40 H 134.301 c -22.09,0 -40.0002,-17.9 -40.0002,-40 z"
         style="fill:none;stroke:#000000;stroke-width:10;stroke-linecap:butt;stroke-linejoin:miter;stroke-miterlimit:1.45;stroke-dasharray:none;stroke-opacity:1"
         id="path38" /><path
         d="M 237.57,2209.84 H 1371.04 V 2022.83 H 237.57 v 187.01"
         style="fill:#ffffff;fill-opacity:1;fill-rule:nonzero;stroke:none"
         id="path40" /><path
         d="m 268.352,2119.35 v 12.03 h 12.027 v -12.03 z m 0,-50.15 v 12.03 h 12.027 v -12.03 z m 32.089,0 v 85.93 h 62.028 v -10.15 H 311.84 v -26.25 h 47.5 v -10.16 h -47.5 v -29.22 h 52.66 v -10.15 z m 70.969,0 33.289,44.84 -29.219,41.09 h 13.43 l 15.629,-22.03 c 3.231,-4.58 5.52,-8.12 6.871,-10.62 1.981,3.12 4.281,6.4 6.879,9.84 l 17.191,22.81 h 12.34 l -30.16,-40.47 32.5,-45.46 h -14.058 l -21.563,30.62 c -1.25,1.77 -2.5,3.7 -3.75,5.78 -1.879,-3.12 -3.23,-5.26 -4.059,-6.4 l -21.57,-30 z m 110.672,0 v 75.78 h -28.281 v 10.15 h 68.121 v -10.15 H 493.48 v -75.78 z m 51.738,0 v 85.93 h 62.032 v -10.15 h -50.633 v -26.25 h 47.5 v -10.16 h -47.5 v -29.22 h 52.66 v -10.15 z m 79.719,0 v 85.93 h 11.57 l 45.153,-67.5 v 67.5 h 10.937 V 2069.2 H 669.48 l -45.16,67.5 v -67.5 z m 82.91,27.65 10.633,0.94 c 0.52,-4.38 1.719,-7.92 3.59,-10.63 1.879,-2.7 4.738,-4.94 8.598,-6.71 3.949,-1.67 8.378,-2.5 13.281,-2.5 4.269,0 8.07,0.62 11.398,1.87 3.34,1.36 5.781,3.13 7.352,5.31 1.66,2.3 2.5,4.74 2.5,7.35 0,2.71 -0.781,5.05 -2.352,7.03 -1.558,2.08 -4.109,3.8 -7.648,5.15 -2.403,0.94 -7.563,2.35 -15.469,4.22 -7.812,1.88 -13.281,3.65 -16.41,5.32 -4.16,2.18 -7.242,4.84 -9.223,7.96 -1.98,3.23 -2.969,6.83 -2.969,10.79 0,4.27 1.2,8.28 3.602,12.03 2.5,3.85 6.09,6.72 10.777,8.59 4.789,1.98 10.051,2.97 15.782,2.97 6.347,0 11.98,-1.04 16.879,-3.13 4.89,-1.97 8.64,-5 11.25,-9.06 2.601,-3.96 4.011,-8.44 4.21,-13.44 l -10.929,-0.78 c -0.629,5.42 -2.66,9.48 -6.102,12.19 -3.328,2.81 -8.277,4.22 -14.84,4.22 -6.879,0 -11.879,-1.25 -15,-3.75 -3.129,-2.5 -4.687,-5.52 -4.687,-9.06 0,-3.13 1.098,-5.68 3.277,-7.66 2.192,-1.98 7.871,-4.01 17.031,-6.09 9.282,-2.09 15.629,-3.91 19.071,-5.47 5,-2.4 8.687,-5.37 11.09,-8.91 2.398,-3.44 3.589,-7.5 3.589,-12.19 0,-4.58 -1.3,-8.9 -3.898,-12.96 -2.613,-3.96 -6.363,-7.09 -11.25,-9.38 -4.902,-2.19 -10.422,-3.28 -16.562,-3.28 -7.821,0 -14.379,1.09 -19.688,3.28 -5.211,2.29 -9.32,5.73 -12.352,10.31 -2.91,4.59 -4.421,9.74 -4.531,15.47 z m 85.821,-27.65 v 85.93 h 11.25 v -85.93 z m 27.871,41.87 c 0,14.27 3.808,25.42 11.41,33.44 7.711,8.12 17.609,12.19 29.687,12.19 8.024,0 15.211,-1.93 21.563,-5.79 6.359,-3.75 11.199,-9.01 14.531,-15.78 3.34,-6.77 5,-14.48 5,-23.12 0,-8.65 -1.773,-16.41 -5.312,-23.28 -3.54,-6.88 -8.54,-12.09 -15,-15.63 -6.348,-3.54 -13.282,-5.31 -20.782,-5.31 -8.129,0 -15.367,1.93 -21.718,5.78 -6.348,3.96 -11.2,9.27 -14.532,15.94 -3.226,6.77 -4.847,13.96 -4.847,21.56 z m 11.718,-0.16 c 0,-10.41 2.762,-18.59 8.282,-24.53 5.629,-5.93 12.66,-8.9 21.097,-8.9 8.543,0 15.571,2.97 21.094,8.9 5.52,6.05 8.277,14.64 8.277,25.78 0,6.98 -1.187,13.08 -3.589,18.29 -2.29,5.2 -5.731,9.21 -10.309,12.03 -4.59,2.91 -9.691,4.37 -15.32,4.37 -8.02,0 -14.942,-2.76 -20.782,-8.28 -5.828,-5.52 -8.75,-14.74 -8.75,-27.66 z m 85.063,-41.71 v 85.93 h 11.558 l 45.161,-67.5 v 67.5 h 10.941 v -85.93 h -11.723 l -45.16,67.5 v -67.5 z m 86.66,0 v 85.93 h 32.498 c 5.63,0 9.95,-0.26 12.97,-0.78 4.27,-0.73 7.81,-2.08 10.63,-4.06 2.91,-1.98 5.2,-4.74 6.87,-8.28 1.77,-3.54 2.66,-7.45 2.66,-11.72 0,-7.29 -2.35,-13.49 -7.03,-18.59 -4.59,-5 -12.97,-7.5 -25.16,-7.5 h -22.03 v -35 z m 11.408,45 h 22.19 c 7.39,0 12.6,1.35 15.62,4.06 3.13,2.81 4.69,6.72 4.69,11.72 0,3.54 -0.94,6.56 -2.81,9.06 -1.77,2.6 -4.12,4.32 -7.04,5.16 -1.97,0.52 -5.52,0.78 -10.62,0.78 h -22.03 z m 65.19,-3.13 c 0,14.27 3.81,25.42 11.41,33.44 7.71,8.12 17.6,12.19 29.69,12.19 8.02,0 15.21,-1.93 21.56,-5.79 6.35,-3.75 11.2,-9.01 14.53,-15.78 3.33,-6.77 5,-14.48 5,-23.12 0,-8.65 -1.77,-16.41 -5.31,-23.28 -3.54,-6.88 -8.54,-12.09 -15,-15.63 -6.36,-3.54 -13.28,-5.31 -20.78,-5.31 -8.13,0 -15.37,1.93 -21.72,5.78 -6.36,3.96 -11.2,9.27 -14.53,15.94 -3.23,6.77 -4.85,13.96 -4.85,21.56 z m 11.72,-0.16 c 0,-10.41 2.76,-18.59 8.28,-24.53 5.63,-5.93 12.66,-8.9 21.1,-8.9 8.54,0 15.57,2.97 21.09,8.9 5.52,6.05 8.28,14.64 8.28,25.78 0,6.98 -1.2,13.08 -3.59,18.29 -2.29,5.2 -5.73,9.21 -10.31,12.03 -4.59,2.91 -9.69,4.37 -15.32,4.37 -8.02,0 -14.94,-2.76 -20.78,-8.28 -5.83,-5.52 -8.75,-14.74 -8.75,-27.66 z m 87.09,-41.71 v 85.93 h 11.25 v -85.93 z m 31.31,0 v 85.93 h 11.56 l 45.16,-67.5 v 67.5 h 10.94 v -85.93 h -11.72 l -45.16,67.5 v -67.5 z m 108.54,0 v 75.78 h -28.29 v 10.15 h 68.13 v -10.15 h -28.44 v -75.78 h -11.4"
         style="fill:#000000;fill-opacity:1;fill-rule:nonzero;stroke:none"
         id="path42" /><path
         d="M 3532.25,1119.23 V 750.152 c 0,-22.089 17.91,-40 40,-40 h 1340 c 22.09,0 40,17.911 40,40 v 369.078 c 0,22.09 -17.91,40 -40,40 h -1340 c -22.09,0 -40,-17.91 -40,-40"
         style="fill:#ffffff;fill-opacity:1;fill-rule:nonzero;stroke:none"
         id="path44" /><path
         d="M 3532.25,1119.23 V 750.152 c 0,-22.089 17.91,-40 40,-40 h 1340 c 22.09,0 40,17.911 40,40 v 369.078 c 0,22.09 -17.91,40 -40,40 h -1340 c -22.09,0 -40,-17.91 -40,-40 z"
         style="fill:none;stroke:#000000;stroke-width:10;stroke-linecap:butt;stroke-linejoin:miter;stroke-miterlimit:1.45;stroke-dasharray:none;stroke-opacity:1"
         id="path46" /><path
         d="m 4026.36,937.711 v 12.031 h 12.03 v -12.031 z m 0,-50.16 v 12.039 h 12.03 v -12.039 z m 22.4,0 32.97,85.941 h 12.19 l 35.15,-85.941 h -12.81 l -10.16,26.097 h -35.78 l -9.53,-26.097 z m 24.84,35.32 h 29.07 l -8.91,23.75 c -2.81,7.18 -4.84,13.121 -6.09,17.809 -1.15,-5.52 -2.71,-10.989 -4.69,-16.41 z m 125.98,-5.16 11.25,-2.969 c -2.4,-9.273 -6.67,-16.351 -12.81,-21.25 -6.15,-4.89 -13.7,-7.344 -22.66,-7.344 -9.27,0 -16.82,1.872 -22.65,5.622 -5.84,3.75 -10.26,9.171 -13.29,16.25 -3.02,7.191 -4.53,14.902 -4.53,23.128 0,8.961 1.72,16.774 5.16,23.442 3.44,6.66 8.28,11.711 14.53,15.152 6.35,3.438 13.33,5.156 20.94,5.156 8.54,0 15.73,-2.187 21.56,-6.558 5.94,-4.379 10.05,-10.531 12.34,-18.442 l -11.25,-2.656 c -1.97,6.25 -4.89,10.778 -8.75,13.598 -3.75,2.91 -8.49,4.371 -14.21,4.371 -6.57,0 -12.09,-1.609 -16.57,-4.84 -4.37,-3.129 -7.5,-7.351 -9.37,-12.66 -1.77,-5.313 -2.66,-10.832 -2.66,-16.563 0,-7.289 1.04,-13.648 3.13,-19.058 2.18,-5.418 5.52,-9.481 10,-12.192 4.48,-2.707 9.37,-4.058 14.68,-4.058 6.36,0 11.72,1.82 16.1,5.461 4.48,3.648 7.5,9.121 9.06,16.41 z m 47.13,-30.16 v 75.789 h -28.28 v 10.152 h 68.12 V 963.34 h -28.43 v -75.789 z m 47.99,41.879 c 0,14.269 3.8,25.422 11.4,33.441 7.71,8.121 17.61,12.18 29.69,12.18 8.02,0 15.21,-1.922 21.56,-5.781 6.36,-3.75 11.2,-9.008 14.54,-15.778 3.33,-6.773 5,-14.48 5,-23.121 0,-8.652 -1.78,-16.41 -5.32,-23.281 -3.54,-6.879 -8.54,-12.09 -15,-15.629 -6.35,-3.539 -13.28,-5.313 -20.78,-5.313 -8.12,0 -15.36,1.934 -21.72,5.782 -6.35,3.961 -11.2,9.269 -14.53,15.941 -3.23,6.77 -4.84,13.961 -4.84,21.559 z m 11.72,-0.16 c 0,-10.411 2.76,-18.59 8.28,-24.528 5.62,-5.941 12.65,-8.902 21.09,-8.902 8.54,0 15.57,2.961 21.1,8.902 5.52,6.039 8.28,14.637 8.28,25.778 0,6.98 -1.2,13.082 -3.6,18.281 -2.29,5.211 -5.73,9.219 -10.31,12.039 -4.58,2.91 -9.69,4.371 -15.31,4.371 -8.02,0 -14.95,-2.762 -20.78,-8.281 -5.84,-5.52 -8.75,-14.739 -8.75,-27.66 z m 85.21,-41.719 v 85.941 h 38.13 c 7.7,0 13.54,-0.781 17.5,-2.344 3.95,-1.558 7.13,-4.316 9.53,-8.277 2.39,-3.859 3.59,-8.129 3.59,-12.82 0,-6.141 -1.98,-11.301 -5.94,-15.461 -3.95,-4.168 -10.05,-6.828 -18.28,-7.969 3.02,-1.461 5.32,-2.871 6.88,-4.223 3.33,-3.019 6.46,-6.816 9.37,-11.406 l 15,-23.441 h -14.37 l -11.25,17.82 c -3.34,5.211 -6.1,9.16 -8.28,11.871 -2.09,2.707 -4.01,4.59 -5.78,5.629 -1.67,1.141 -3.39,1.981 -5.16,2.5 -1.25,0.211 -3.33,0.309 -6.25,0.309 h -13.28 v -38.129 z m 11.41,47.969 h 24.53 c 5.1,0 9.11,0.519 12.03,1.57 3.02,1.14 5.26,2.859 6.72,5.152 1.56,2.399 2.34,5 2.34,7.809 0,4.07 -1.51,7.398 -4.53,10 -2.92,2.609 -7.55,3.91 -13.9,3.91 h -27.19 V 935.52"
         style="fill:#000000;fill-opacity:1;fill-rule:nonzero;stroke:none"
         id="path48" /><path
         d="m 1302.43,4022.71 -0.73,34.76 -6.13,51.21 -11.3,50.93 -16.58,50.28 -21.99,49.29 -26.84,46.82 -30.82,43.05 -34.47,39.16 -37.74,35.15 -40.66,31.03 -43.23,26.79 -45.428,22.44 -47.293,17.97 -48.789,13.38 -49.918,8.68 -50.723,3.85 -51.129,-1.08 -51.211,-6.13 -50.929,-11.3 -50.282,-16.58 -49.289,-21.98 -46.82,-26.84 -43.047,-30.83 -39.16,-34.46 -35.152,-37.74 -31.028,-40.66 -26.801,-43.23 -22.441,-45.44 -17.961,-47.29 -13.379,-48.78 -5.648,-32.5 -0.063,-1"
         style="fill:none;stroke:#000000;stroke-width:10;stroke-linecap:butt;stroke-linejoin:miter;stroke-miterlimit:1.45;stroke-dasharray:none;stroke-opacity:1"
         id="path50" /><path
         d="m 248.789,4021.94 59.82,115.41 -52.32,-25.73 -47.328,34.07 z"
         style="fill:#000000;fill-opacity:1;fill-rule:nonzero;stroke:none"
         id="path52" /><path
         d="M 361.781,4621.69 H 1168.66 V 4434.68 H 361.781 v 187.01"
         style="fill:#ffffff;fill-opacity:1;fill-rule:nonzero;stroke:none"
         id="path54" /><path
         d="m 392.559,4531.2 v 12.03 h 12.031 v -12.03 z m 0,-50.15 v 12.03 h 12.031 v -12.03 z m 33.812,0 v 85.93 h 11.25 v -85.93 z m 27.559,27.65 10.621,0.94 c 0.519,-4.38 1.719,-7.92 3.597,-10.63 1.872,-2.7 4.743,-4.94 8.594,-6.71 3.957,-1.67 8.387,-2.5 13.278,-2.5 4.269,0 8.082,0.62 11.41,1.87 3.332,1.36 5.781,3.13 7.34,5.31 1.671,2.3 2.5,4.74 2.5,7.35 0,2.71 -0.778,5.05 -2.34,7.03 -1.559,2.08 -4.121,3.8 -7.66,5.15 -2.391,0.94 -7.551,2.35 -15.469,4.22 -7.809,1.88 -13.281,3.65 -16.403,5.32 -4.168,2.18 -7.238,4.84 -9.218,7.96 -1.981,3.23 -2.969,6.83 -2.969,10.79 0,4.27 1.199,8.28 3.59,12.03 2.5,3.85 6.097,6.72 10.789,8.59 4.789,1.98 10.051,2.97 15.781,2.97 6.348,0 11.981,-1.04 16.871,-3.13 4.899,-1.97 8.649,-5 11.25,-9.06 2.61,-3.96 4.008,-8.44 4.219,-13.44 l -10.941,-0.78 c -0.622,5.42 -2.649,9.48 -6.09,12.19 -3.328,2.81 -8.282,4.22 -14.84,4.22 -6.879,0 -11.879,-1.25 -15,-3.75 -3.129,-2.5 -4.692,-5.52 -4.692,-9.06 0,-3.13 1.094,-5.68 3.282,-7.66 2.191,-1.98 7.859,-4.01 17.031,-6.09 9.269,-2.09 15.629,-3.91 19.059,-5.47 5,-2.4 8.699,-5.37 11.101,-8.91 2.391,-3.44 3.59,-7.5 3.59,-12.19 0,-4.58 -1.301,-8.9 -3.91,-12.96 -2.602,-3.96 -6.352,-7.09 -11.25,-9.38 -4.891,-2.19 -10.41,-3.28 -16.559,-3.28 -7.812,0 -14.371,1.09 -19.691,3.28 -5.199,2.29 -9.321,5.73 -12.34,10.31 -2.922,4.59 -4.43,9.74 -4.531,15.47 z m 72.691,-51.56 v 7.66 h 70 v -7.66 z m 77.84,23.91 v 85.93 h 32.5 c 5.621,0 9.937,-0.26 12.969,-0.78 4.269,-0.73 7.808,-2.08 10.621,-4.06 2.918,-1.98 5.211,-4.74 6.879,-8.28 1.769,-3.54 2.652,-7.45 2.652,-11.72 0,-7.29 -2.344,-13.49 -7.031,-18.59 -4.582,-5 -12.969,-7.5 -25.16,-7.5 h -22.032 v -35 z m 11.398,45 h 22.192 c 7.398,0 12.597,1.35 15.629,4.06 3.121,2.81 4.679,6.72 4.679,11.72 0,3.54 -0.929,6.56 -2.808,9.06 -1.77,2.6 -4.11,4.32 -7.031,5.16 -1.981,0.52 -5.52,0.78 -10.629,0.78 h -22.032 z m 59.262,-45 32.969,85.93 h 12.191 l 35.149,-85.93 h -12.809 l -10.16,26.09 H 696.68 l -9.532,-26.09 z m 24.84,35.31 h 29.07 l -8.91,23.75 c -2.812,7.19 -4.84,13.12 -6.09,17.81 -1.152,-5.52 -2.711,-10.99 -4.691,-16.41 z m 64.73,-35.31 v 85.93 h 38.129 c 7.7,0 13.539,-0.78 17.5,-2.34 3.95,-1.56 7.129,-4.32 9.532,-8.28 2.386,-3.86 3.589,-8.13 3.589,-12.81 0,-6.15 -1.98,-11.31 -5.941,-15.47 -3.949,-4.17 -10.051,-6.83 -18.281,-7.97 3.019,-1.46 5.312,-2.87 6.883,-4.22 3.328,-3.02 6.457,-6.82 9.367,-11.41 l 15,-23.43 h -14.367 l -11.25,17.81 c -3.34,5.21 -6.102,9.17 -8.282,11.87 -2.09,2.71 -4.011,4.59 -5.789,5.63 -1.66,1.14 -3.383,1.98 -5.152,2.5 -1.25,0.21 -3.328,0.31 -6.25,0.31 h -13.277 v -38.12 z m 11.411,47.96 h 24.527 c 5.101,0 9.109,0.53 12.031,1.57 3.02,1.14 5.262,2.86 6.719,5.15 1.562,2.4 2.34,5 2.34,7.82 0,4.06 -1.508,7.39 -4.528,10 -2.921,2.6 -7.55,3.9 -13.91,3.9 h -27.179 z m 96.968,-47.96 v 75.78 h -28.281 v 10.15 h 68.121 v -10.15 h -28.43 v -75.78 z m 40.328,-23.91 v 7.66 h 70 v -7.66 z m 74.403,65.78 c 0,14.27 3.801,25.42 11.398,33.44 7.711,8.12 17.611,12.19 29.691,12.19 8.02,0 15.21,-1.93 21.56,-5.79 6.36,-3.75 11.2,-9.01 14.53,-15.78 3.34,-6.77 5,-14.48 5,-23.12 0,-8.65 -1.77,-16.41 -5.31,-23.28 -3.54,-6.88 -8.54,-12.09 -15,-15.63 -6.35,-3.54 -13.28,-5.31 -20.78,-5.31 -8.12,0 -15.36,1.93 -21.72,5.78 -6.35,3.96 -11.201,9.27 -14.529,15.94 -3.231,6.77 -4.84,13.96 -4.84,21.56 z m 11.719,-0.16 c 0,-10.41 2.76,-18.59 8.28,-24.53 5.62,-5.93 12.65,-8.9 21.09,-8.9 8.54,0 15.57,2.97 21.09,8.9 5.52,6.05 8.29,14.64 8.29,25.78 0,6.98 -1.2,13.08 -3.6,18.29 -2.29,5.2 -5.73,9.21 -10.31,12.03 -4.58,2.91 -9.69,4.37 -15.31,4.37 -8.02,0 -14.95,-2.76 -20.78,-8.28 -5.84,-5.52 -8.75,-14.74 -8.75,-27.66 z m 85.68,-41.71 v 85.93 h 57.97 v -10.15 h -46.57 v -26.57 h 40.32 v -10.15 h -40.32 v -39.06 h -11.4"
         style="fill:#000000;fill-opacity:1;fill-rule:nonzero;stroke:none"
         id="path56" /><path
         d="m 4983.41,2806.02 1.38,0.2 56.72,14.59 54.39,19.9 51.74,24.93 48.8,29.65 45.56,34.07 42.04,38.2 38.2,42.04 34.07,45.56 29.65,48.8 24.93,51.74 19.9,54.39 14.58,56.72 8.97,58.77 3.06,60.52 -3.06,60.52 -8.97,58.77 -14.58,56.72 -19.9,54.38 -24.93,51.74 -29.65,48.8 -34.07,45.57 -38.2,42.03 -42.04,38.21 -45.56,34.07 -48.8,29.65 -51.74,24.92 -35.49,12.99 -0.97,0.25"
         style="fill:none;stroke:#000000;stroke-width:10;stroke-linecap:butt;stroke-linejoin:miter;stroke-miterlimit:1.45;stroke-dasharray:none;stroke-opacity:1"
         id="path58" /><path
         d="m 4982.45,3966.45 101.9,-80.72 -15.29,56.27 42.46,39.97 z"
         style="fill:#000000;fill-opacity:1;fill-rule:nonzero;stroke:none"
         id="path60" /><path
         d="M 4985.99,3487.6 H 6152.81 V 3300.59 H 4985.99 v 187.01"
         style="fill:#ffffff;fill-opacity:1;fill-rule:nonzero;stroke:none"
         id="path62" /><path
         d="m 5016.77,3397.11 v 12.04 h 12.03 v -12.04 z m 0,-50.15 v 12.03 h 12.03 v -12.03 z m 33.81,0 v 85.94 h 11.25 v -85.94 z m 27.56,27.65 10.63,0.94 c 0.52,-4.37 1.71,-7.91 3.59,-10.62 1.87,-2.71 4.74,-4.95 8.59,-6.72 3.96,-1.67 8.39,-2.5 13.28,-2.5 4.27,0 8.08,0.62 11.41,1.87 3.33,1.36 5.78,3.13 7.34,5.32 1.67,2.29 2.5,4.74 2.5,7.34 0,2.71 -0.78,5.05 -2.34,7.03 -1.56,2.08 -4.11,3.8 -7.66,5.16 -2.39,0.93 -7.55,2.34 -15.46,4.22 -7.82,1.87 -13.29,3.64 -16.41,5.31 -4.17,2.19 -7.24,4.84 -9.22,7.97 -1.98,3.23 -2.97,6.82 -2.97,10.78 0,4.27 1.2,8.28 3.6,12.03 2.5,3.85 6.09,6.72 10.78,8.59 4.79,1.98 10.05,2.97 15.78,2.97 6.35,0 11.98,-1.04 16.87,-3.12 4.9,-1.98 8.65,-5 11.25,-9.07 2.61,-3.95 4.01,-8.43 4.22,-13.43 l -10.94,-0.78 c -0.62,5.41 -2.65,9.48 -6.09,12.18 -3.33,2.82 -8.28,4.22 -14.84,4.22 -6.88,0 -11.88,-1.25 -15,-3.75 -3.13,-2.5 -4.69,-5.52 -4.69,-9.06 0,-3.13 1.09,-5.68 3.28,-7.66 2.19,-1.98 7.86,-4.01 17.03,-6.09 9.27,-2.08 15.63,-3.91 19.06,-5.47 5,-2.39 8.7,-5.36 11.1,-8.91 2.39,-3.43 3.59,-7.5 3.59,-12.18 0,-4.59 -1.3,-8.91 -3.9,-12.97 -2.61,-3.96 -6.36,-7.08 -11.25,-9.38 -4.9,-2.18 -10.42,-3.28 -16.57,-3.28 -7.81,0 -14.37,1.1 -19.68,3.28 -5.21,2.3 -9.33,5.73 -12.35,10.32 -2.92,4.58 -4.43,9.74 -4.53,15.46 z m 72.7,-51.56 v 7.66 h 70 v -7.66 z m 99.7,23.91 v 75.78 h -28.28 v 10.16 h 68.13 v -10.16 h -28.44 v -75.78 z m 51.58,0 v 85.94 h 38.13 c 7.71,0 13.54,-0.79 17.5,-2.35 3.96,-1.56 7.14,-4.32 9.53,-8.28 2.4,-3.85 3.59,-8.12 3.59,-12.81 0,-6.15 -1.97,-11.3 -5.93,-15.47 -3.96,-4.17 -10.05,-6.82 -18.28,-7.97 3.02,-1.46 5.31,-2.86 6.87,-4.22 3.33,-3.02 6.46,-6.82 9.38,-11.4 l 15,-23.44 h -14.38 l -11.25,17.81 c -3.33,5.21 -6.09,9.17 -8.28,11.88 -2.08,2.7 -4.01,4.58 -5.78,5.62 -1.67,1.15 -3.39,1.98 -5.16,2.5 -1.25,0.21 -3.33,0.31 -6.25,0.31 h -13.28 v -38.12 z m 11.41,47.97 h 24.53 c 5.11,0 9.12,0.52 12.03,1.56 3.02,1.15 5.26,2.86 6.72,5.16 1.56,2.39 2.35,5 2.35,7.81 0,4.06 -1.51,7.39 -4.54,10 -2.91,2.6 -7.55,3.9 -13.9,3.9 h -27.19 z m 65.72,-47.97 32.97,85.94 h 12.19 l 35.16,-85.94 h -12.82 l -10.15,26.09 h -35.78 l -9.54,-26.09 z m 24.85,35.31 h 29.06 l -8.91,23.75 c -2.81,7.19 -4.84,13.13 -6.09,17.81 -1.15,-5.52 -2.71,-10.99 -4.69,-16.4 z m 125.97,-5.16 11.25,-2.96 c -2.39,-9.27 -6.66,-16.36 -12.81,-21.25 -6.14,-4.9 -13.7,-7.35 -22.65,-7.35 -9.28,0 -16.83,1.88 -22.66,5.63 -5.83,3.75 -10.26,9.16 -13.28,16.25 -3.02,7.18 -4.53,14.89 -4.53,23.12 0,8.96 1.72,16.77 5.15,23.44 3.44,6.67 8.28,11.72 14.53,15.16 6.36,3.43 13.34,5.15 20.94,5.15 8.54,0 15.73,-2.19 21.56,-6.56 5.94,-4.38 10.06,-10.52 12.35,-18.44 l -11.25,-2.65 c -1.98,6.25 -4.9,10.78 -8.75,13.59 -3.75,2.92 -8.49,4.37 -14.22,4.37 -6.56,0 -12.08,-1.61 -16.56,-4.84 -4.38,-3.12 -7.5,-7.34 -9.38,-12.66 -1.77,-5.31 -2.65,-10.83 -2.65,-16.56 0,-7.29 1.04,-13.64 3.12,-19.06 2.19,-5.42 5.52,-9.48 10,-12.19 4.48,-2.71 9.38,-4.06 14.69,-4.06 6.35,0 11.72,1.82 16.09,5.47 4.48,3.64 7.5,9.11 9.06,16.4 z m 25.57,-30.15 v 85.94 h 62.03 v -10.16 h -50.62 v -26.25 h 47.5 v -10.16 h -47.5 v -29.22 h 52.65 v -10.15 z m 79.73,0 v 85.94 h 29.68 c 6.67,0 11.78,-0.42 15.32,-1.25 4.89,-1.15 9.06,-3.18 12.5,-6.1 4.58,-3.85 7.97,-8.8 10.15,-14.84 2.29,-5.94 3.44,-12.71 3.44,-20.31 0,-6.57 -0.78,-12.35 -2.34,-17.35 -1.46,-5 -3.39,-9.16 -5.78,-12.5 -2.4,-3.33 -5.06,-5.94 -7.97,-7.81 -2.82,-1.88 -6.2,-3.33 -10.16,-4.38 -3.96,-0.93 -8.54,-1.4 -13.75,-1.4 z m 11.4,10.15 h 18.28 c 5.73,0 10.21,0.53 13.44,1.57 3.23,1.04 5.78,2.55 7.66,4.53 2.71,2.6 4.79,6.2 6.25,10.78 1.56,4.58 2.34,10.1 2.34,16.56 0,8.96 -1.51,15.84 -4.53,20.63 -2.92,4.89 -6.46,8.17 -10.62,9.84 -3.13,1.15 -8.03,1.72 -14.69,1.72 h -18.13 z m 64.16,-34.06 v 7.66 h 70 v -7.66 z m 78.46,23.91 v 85.94 h 57.97 v -10.16 h -46.56 v -26.56 h 40.31 v -10.16 h -40.31 v -39.06 z m 72.83,0 v 85.94 h 38.13 c 7.71,0 13.54,-0.79 17.5,-2.35 3.96,-1.56 7.13,-4.32 9.53,-8.28 2.39,-3.85 3.59,-8.12 3.59,-12.81 0,-6.15 -1.98,-11.3 -5.94,-15.47 -3.95,-4.17 -10.05,-6.82 -18.28,-7.97 3.02,-1.46 5.32,-2.86 6.88,-4.22 3.33,-3.02 6.46,-6.82 9.37,-11.4 l 15,-23.44 h -14.37 l -11.25,17.81 c -3.33,5.21 -6.1,9.17 -8.28,11.88 -2.09,2.7 -4.01,4.58 -5.78,5.62 -1.67,1.15 -3.39,1.98 -5.16,2.5 -1.25,0.21 -3.33,0.31 -6.25,0.31 h -13.28 v -38.12 z m 11.41,47.97 h 24.53 c 5.1,0 9.11,0.52 12.03,1.56 3.02,1.15 5.26,2.86 6.72,5.16 1.56,2.39 2.34,5 2.34,7.81 0,4.06 -1.51,7.39 -4.53,10 -2.91,2.6 -7.55,3.9 -13.9,3.9 h -27.19 z m 71.66,-6.1 c 0,14.27 3.8,25.42 11.4,33.44 7.71,8.13 17.61,12.19 29.69,12.19 8.02,0 15.21,-1.93 21.56,-5.78 6.36,-3.75 11.2,-9.01 14.54,-15.78 3.33,-6.77 5,-14.48 5,-23.13 0,-8.64 -1.77,-16.41 -5.32,-23.28 -3.54,-6.88 -8.54,-12.08 -15,-15.63 -6.35,-3.54 -13.28,-5.31 -20.78,-5.31 -8.12,0 -15.36,1.93 -21.72,5.78 -6.35,3.96 -11.19,9.27 -14.53,15.94 -3.23,6.77 -4.84,13.96 -4.84,21.56 z m 11.72,-0.15 c 0,-10.42 2.76,-18.6 8.28,-24.53 5.62,-5.94 12.65,-8.91 21.09,-8.91 8.54,0 15.58,2.97 21.1,8.91 5.52,6.04 8.28,14.63 8.28,25.78 0,6.98 -1.2,13.07 -3.6,18.28 -2.29,5.21 -5.73,9.22 -10.31,12.03 -4.58,2.92 -9.69,4.37 -15.31,4.37 -8.02,0 -14.95,-2.76 -20.78,-8.28 -5.84,-5.52 -8.75,-14.74 -8.75,-27.65 z m 84.74,-41.72 v 85.94 h 17.19 l 20.31,-60.79 c 1.88,-5.72 3.23,-10 4.07,-12.81 0.93,3.13 2.44,7.71 4.53,13.75 l 20.62,59.85 h 15.31 v -85.94 h -10.93 v 71.87 l -25,-71.87 h -10.32 l -24.84,73.12 v -73.12 h -10.94"
         style="fill:#000000;fill-opacity:1;fill-rule:nonzero;stroke:none"
         id="path64" /><path
         d="M 3563.58,3586.96 H 1594.37"
         style="fill:none;stroke:#000000;stroke-width:10;stroke-linecap:butt;stroke-linejoin:miter;stroke-miterlimit:1.45;stroke-dasharray:none;stroke-opacity:1"
         id="path66" /><path
         d="m 1514.37,3586.96 120,-50 -30,50 30,50 z"
         style="fill:#000000;fill-opacity:1;fill-rule:nonzero;stroke:none"
         id="path68" /><path
         d="m 2195.55,3680.47 h 686.81 v -187.01 h -686.81 v 187.01"
         style="fill:#ffffff;fill-opacity:1;fill-rule:nonzero;stroke:none"
         id="path70" /><path
         d="m 2226.33,3589.98 v 12.03 h 12.03 v -12.03 z m 0,-50.15 v 12.03 h 12.03 v -12.03 z m 28.02,27.65 10.63,0.94 c 0.52,-4.38 1.72,-7.92 3.59,-10.63 1.88,-2.7 4.74,-4.94 8.6,-6.71 3.96,-1.67 8.38,-2.5 13.28,-2.5 4.27,0 8.07,0.62 11.4,1.87 3.34,1.35 5.79,3.13 7.35,5.31 1.67,2.29 2.5,4.74 2.5,7.35 0,2.71 -0.78,5.05 -2.35,7.03 -1.56,2.08 -4.11,3.8 -7.65,5.15 -2.4,0.94 -7.55,2.35 -15.47,4.22 -7.81,1.88 -13.28,3.65 -16.41,5.32 -4.16,2.18 -7.24,4.84 -9.22,7.96 -1.97,3.23 -2.96,6.83 -2.96,10.79 0,4.27 1.19,8.28 3.59,12.03 2.5,3.85 6.09,6.72 10.78,8.59 4.79,1.98 10.05,2.97 15.78,2.97 6.36,0 11.98,-1.04 16.88,-3.13 4.89,-1.97 8.64,-5 11.25,-9.06 2.6,-3.96 4.01,-8.44 4.22,-13.44 l -10.94,-0.78 c -0.63,5.42 -2.66,9.48 -6.1,12.19 -3.33,2.81 -8.28,4.22 -14.84,4.22 -6.87,0 -11.87,-1.25 -15,-3.75 -3.12,-2.5 -4.69,-5.52 -4.69,-9.06 0,-3.13 1.1,-5.68 3.28,-7.66 2.19,-1.98 7.87,-4.01 17.04,-6.09 9.27,-2.09 15.62,-3.91 19.06,-5.47 5,-2.4 8.7,-5.37 11.09,-8.91 2.4,-3.44 3.6,-7.5 3.6,-12.19 0,-4.58 -1.31,-8.9 -3.91,-12.96 -2.6,-3.96 -6.35,-7.09 -11.25,-9.38 -4.9,-2.19 -10.42,-3.28 -16.56,-3.28 -7.82,0 -14.38,1.09 -19.69,3.28 -5.21,2.29 -9.32,5.73 -12.34,10.31 -2.92,4.59 -4.43,9.74 -4.54,15.47 z m 74.42,-27.65 32.97,85.93 h 12.19 l 35.15,-85.93 h -12.81 l -10.16,26.09 h -35.78 l -9.53,-26.09 z m 24.84,35.31 h 29.07 l -8.91,23.75 c -2.81,7.19 -4.84,13.12 -6.09,17.81 -1.15,-5.52 -2.71,-10.99 -4.69,-16.41 z m 86.45,-35.31 v 75.78 h -28.28 v 10.15 h 68.12 v -10.15 h -28.44 v -75.78 z m 53.46,0 v 85.93 h 11.25 v -85.93 z m 27.55,27.65 10.63,0.94 c 0.52,-4.38 1.72,-7.92 3.59,-10.63 1.88,-2.7 4.74,-4.94 8.6,-6.71 3.95,-1.67 8.38,-2.5 13.28,-2.5 4.27,0 8.07,0.62 11.4,1.87 3.34,1.35 5.78,3.13 7.35,5.31 1.66,2.29 2.5,4.74 2.5,7.35 0,2.71 -0.78,5.05 -2.35,7.03 -1.56,2.08 -4.11,3.8 -7.65,5.15 -2.4,0.94 -7.55,2.35 -15.47,4.22 -7.81,1.88 -13.28,3.65 -16.41,5.32 -4.16,2.18 -7.24,4.84 -9.22,7.96 -1.98,3.23 -2.97,6.83 -2.97,10.79 0,4.27 1.2,8.28 3.6,12.03 2.5,3.85 6.09,6.72 10.78,8.59 4.79,1.98 10.05,2.97 15.78,2.97 6.36,0 11.98,-1.04 16.88,-3.13 4.89,-1.97 8.64,-5 11.25,-9.06 2.6,-3.96 4.01,-8.44 4.21,-13.44 l -10.93,-0.78 c -0.63,5.42 -2.66,9.48 -6.1,12.19 -3.33,2.81 -8.28,4.22 -14.84,4.22 -6.88,0 -11.88,-1.25 -15,-3.75 -3.13,-2.5 -4.69,-5.52 -4.69,-9.06 0,-3.13 1.1,-5.68 3.28,-7.66 2.19,-1.98 7.87,-4.01 17.03,-6.09 9.28,-2.09 15.63,-3.91 19.07,-5.47 5,-2.4 8.7,-5.37 11.09,-8.91 2.4,-3.44 3.59,-7.5 3.59,-12.19 0,-4.58 -1.3,-8.9 -3.9,-12.96 -2.61,-3.96 -6.36,-7.09 -11.25,-9.38 -4.9,-2.19 -10.42,-3.28 -16.56,-3.28 -7.82,0 -14.38,1.09 -19.69,3.28 -5.21,2.29 -9.32,5.73 -12.35,10.31 -2.91,4.59 -4.42,9.74 -4.53,15.47 z m 84.42,-27.65 v 85.93 h 57.97 v -10.15 h -46.57 v -26.57 h 40.32 v -10.15 h -40.32 v -39.06 z m 74.7,0 v 85.93 h 11.25 v -85.93 z m 31.63,0 v 85.93 h 62.03 v -10.15 h -50.63 v -26.25 h 47.5 v -10.16 h -47.5 v -29.22 h 52.66 v -10.15 z m 75.97,27.65 10.63,0.94 c 0.52,-4.38 1.72,-7.92 3.59,-10.63 1.88,-2.7 4.74,-4.94 8.59,-6.71 3.96,-1.67 8.39,-2.5 13.29,-2.5 4.27,0 8.07,0.62 11.4,1.87 3.34,1.35 5.78,3.13 7.35,5.31 1.66,2.29 2.5,4.74 2.5,7.35 0,2.71 -0.79,5.05 -2.35,7.03 -1.56,2.08 -4.11,3.8 -7.65,5.15 -2.4,0.94 -7.56,2.35 -15.47,4.22 -7.82,1.88 -13.28,3.65 -16.41,5.32 -4.17,2.18 -7.24,4.84 -9.22,7.96 -1.98,3.23 -2.97,6.83 -2.97,10.79 0,4.27 1.2,8.28 3.6,12.03 2.5,3.85 6.09,6.72 10.78,8.59 4.79,1.98 10.05,2.97 15.78,2.97 6.35,0 11.98,-1.04 16.87,-3.13 4.9,-1.97 8.65,-5 11.25,-9.06 2.61,-3.96 4.02,-8.44 4.22,-13.44 l -10.93,-0.78 c -0.63,5.42 -2.66,9.48 -6.1,12.19 -3.33,2.81 -8.28,4.22 -14.84,4.22 -6.88,0 -11.88,-1.25 -15,-3.75 -3.13,-2.5 -4.69,-5.52 -4.69,-9.06 0,-3.13 1.09,-5.68 3.28,-7.66 2.19,-1.98 7.87,-4.01 17.03,-6.09 9.27,-2.09 15.63,-3.91 19.07,-5.47 5,-2.4 8.69,-5.37 11.09,-8.91 2.4,-3.44 3.59,-7.5 3.59,-12.19 0,-4.58 -1.3,-8.9 -3.9,-12.96 -2.61,-3.96 -6.36,-7.09 -11.25,-9.38 -4.9,-2.19 -10.42,-3.28 -16.57,-3.28 -7.81,0 -14.37,1.09 -19.68,3.28 -5.21,2.29 -9.33,5.73 -12.35,10.31 -2.91,4.59 -4.42,9.74 -4.53,15.47"
         style="fill:#000000;fill-opacity:1;fill-rule:nonzero;stroke:none"
         id="path72" /><path
         d="M 3563.72,3066.96 H 1594.33"
         style="fill:none;stroke:#000000;stroke-width:10;stroke-linecap:butt;stroke-linejoin:miter;stroke-miterlimit:1.45;stroke-dasharray:none;stroke-opacity:1"
         id="path74" /><path
         d="m 1514.33,3066.96 120,-50 -30,50 30,50 z"
         style="fill:#000000;fill-opacity:1;fill-rule:nonzero;stroke:none"
         id="path76" /><path
         d="m 2228.89,3160.47 h 620.13 v -187.01 h -620.13 v 187.01"
         style="fill:#ffffff;fill-opacity:1;fill-rule:nonzero;stroke:none"
         id="path78" /><path
         d="m 2259.67,3069.98 v 12.03 h 12.03 v -12.03 z m 0,-50.15 v 12.03 h 12.03 v -12.03 z m 56.31,0 -33.29,85.93 h 12.35 l 22.34,-62.5 c 1.77,-5 3.28,-9.68 4.53,-14.06 1.36,4.69 2.92,9.38 4.69,14.06 l 23.13,62.5 h 11.56 l -33.6,-85.93 z m 55.82,0 v 85.93 h 62.03 v -10.15 h -50.63 v -26.25 h 47.5 v -10.16 h -47.5 v -29.22 h 52.66 v -10.15 z m 79.88,0 v 85.93 h 38.12 c 7.71,0 13.55,-0.78 17.5,-2.34 3.96,-1.56 7.14,-4.32 9.54,-8.28 2.39,-3.86 3.59,-8.13 3.59,-12.81 0,-6.15 -1.98,-11.31 -5.94,-15.47 -3.96,-4.17 -10.05,-6.83 -18.28,-7.97 3.02,-1.46 5.31,-2.87 6.88,-4.22 3.33,-3.02 6.45,-6.82 9.37,-11.41 l 15,-23.43 h -14.37 l -11.25,17.81 c -3.34,5.21 -6.1,9.16 -8.29,11.87 -2.08,2.71 -4.01,4.59 -5.78,5.63 -1.66,1.14 -3.38,1.98 -5.15,2.5 -1.25,0.21 -3.34,0.31 -6.25,0.31 h -13.28 v -38.12 z m 11.41,47.96 h 24.53 c 5.1,0 9.11,0.53 12.03,1.57 3.02,1.14 5.26,2.86 6.72,5.15 1.56,2.4 2.34,5 2.34,7.82 0,4.06 -1.51,7.39 -4.53,10 -2.92,2.6 -7.55,3.9 -13.91,3.9 h -27.18 z m 77.12,-47.96 v 85.93 h 11.25 v -85.93 z m 31.94,0 v 85.93 h 57.97 v -10.15 h -46.57 v -26.57 h 40.32 v -10.15 h -40.32 v -39.06 z m 74.7,0 v 85.93 h 11.25 v -85.93 z m 31.63,0 v 85.93 h 62.03 v -10.15 h -50.63 v -26.25 h 47.5 v -10.16 h -47.5 v -29.22 h 52.66 v -10.15 z m 75.97,27.65 10.63,0.94 c 0.52,-4.38 1.72,-7.92 3.59,-10.63 1.88,-2.7 4.74,-4.94 8.6,-6.71 3.95,-1.67 8.38,-2.5 13.28,-2.5 4.27,0 8.07,0.62 11.4,1.87 3.34,1.35 5.78,3.13 7.35,5.31 1.66,2.29 2.5,4.74 2.5,7.35 0,2.71 -0.78,5.05 -2.35,7.03 -1.56,2.08 -4.11,3.8 -7.65,5.15 -2.4,0.94 -7.56,2.35 -15.47,4.22 -7.81,1.88 -13.28,3.65 -16.41,5.32 -4.17,2.18 -7.24,4.84 -9.22,7.96 -1.98,3.23 -2.97,6.83 -2.97,10.79 0,4.27 1.2,8.28 3.6,12.03 2.5,3.85 6.09,6.72 10.78,8.59 4.79,1.98 10.05,2.97 15.78,2.97 6.35,0 11.98,-1.04 16.88,-3.13 4.89,-1.97 8.64,-5 11.25,-9.06 2.6,-3.96 4.01,-8.44 4.21,-13.44 l -10.93,-0.78 c -0.63,5.42 -2.66,9.48 -6.1,12.19 -3.33,2.81 -8.28,4.22 -14.84,4.22 -6.88,0 -11.88,-1.25 -15,-3.75 -3.13,-2.5 -4.69,-5.52 -4.69,-9.06 0,-3.13 1.1,-5.68 3.28,-7.66 2.19,-1.98 7.87,-4.01 17.03,-6.09 9.27,-2.09 15.63,-3.91 19.07,-5.47 5,-2.4 8.69,-5.37 11.09,-8.91 2.4,-3.44 3.59,-7.5 3.59,-12.19 0,-4.58 -1.3,-8.9 -3.9,-12.96 -2.61,-3.96 -6.36,-7.09 -11.25,-9.38 -4.9,-2.19 -10.42,-3.28 -16.56,-3.28 -7.82,0 -14.38,1.09 -19.69,3.28 -5.21,2.29 -9.33,5.73 -12.35,10.31 -2.91,4.59 -4.42,9.74 -4.53,15.47"
         style="fill:#000000;fill-opacity:1;fill-rule:nonzero;stroke:none"
         id="path80" /><path
         d="m 273.09,710.141 -3.66,-20.59 -3.871,-51.352 1.281,-50.719 6.219,-49.769 10.972,-48.52 15.528,-46.961 19.902,-45.089 24.07,-42.911 28.039,-40.421 31.828,-37.629 35.434,-34.52 38.816,-31.097 42.032,-27.383 45.039,-23.348 47.863,-19 50.488,-14.352 51.668,-9.199 51.352,-3.859 50.719,1.277 49.769,6.223 48.524,10.969 46.957,15.531 45.091,19.891 42.91,24.066 40.43,28.051 37.62,31.832 34.52,35.418 31.1,38.832 27.38,42.027 23.35,45.043 19,47.859 14.35,50.481 9.2,51.68 3.86,51.347 -0.41,16.481 -0.13,0.992"
         style="fill:none;stroke:#000000;stroke-width:10;stroke-linecap:butt;stroke-linejoin:miter;stroke-miterlimit:1.45;stroke-dasharray:none;stroke-opacity:1"
         id="path82" /><path
         d="m 1283.83,711.16 -40.08,-123.668 47.4,33.969 52.27,-25.84 z"
         style="fill:#000000;fill-opacity:1;fill-rule:nonzero;stroke:none"
         id="path84" /><path
         d="M 392.461,219.441 H 1192.72 V 32.4219 H 392.461 V 219.441"
         style="fill:#ffffff;fill-opacity:1;fill-rule:nonzero;stroke:none"
         id="path86" /><path
         d="m 423.238,128.949 v 12.031 h 12.032 v -12.031 z m 0,-50.1599 V 90.8203 H 435.27 V 78.7891 Z m 33.813,0 V 164.73 h 11.25 V 78.7891 Z m 27.558,27.6599 10.629,0.93 c 0.524,-4.367 1.711,-7.9063 3.594,-10.6173 1.867,-2.7109 4.738,-4.9492 8.59,-6.7226 3.957,-1.668 8.387,-2.5 13.277,-2.5 4.281,0 8.082,0.6328 11.41,1.8828 3.332,1.3476 5.782,3.1172 7.34,5.3086 1.672,2.289 2.5,4.7422 2.5,7.3395 0,2.711 -0.777,5.051 -2.34,7.032 -1.558,2.089 -4.109,3.808 -7.66,5.16 -2.39,0.937 -7.551,2.34 -15.461,4.218 -7.816,1.872 -13.289,3.641 -16.406,5.309 -4.172,2.191 -7.242,4.84 -9.223,7.973 -1.98,3.23 -2.968,6.82 -2.968,10.777 0,4.274 1.199,8.281 3.597,12.031 2.5,3.86 6.094,6.719 10.782,8.602 4.789,1.98 10.05,2.957 15.781,2.957 6.347,0 11.98,-1.039 16.871,-3.117 4.898,-1.981 8.648,-5 11.25,-9.063 2.609,-3.957 4.008,-8.437 4.219,-13.437 l -10.942,-0.782 c -0.617,5.422 -2.648,9.481 -6.09,12.192 -3.328,2.808 -8.277,4.207 -14.839,4.207 -6.879,0 -11.879,-1.25 -15,-3.75 -3.129,-2.5 -4.688,-5.52 -4.688,-9.059 0,-3.121 1.09,-5.668 3.277,-7.648 2.192,-1.981 7.871,-4.012 17.032,-6.102 9.269,-2.078 15.629,-3.898 19.058,-5.468 5,-2.391 8.699,-5.36 11.102,-8.903 2.39,-3.437 3.59,-7.5 3.59,-12.187 0,-4.5823 -1.301,-8.9104 -3.903,-12.9729 -2.609,-3.9571 -6.359,-7.0782 -11.25,-9.3672 -4.898,-2.1914 -10.418,-3.293 -16.566,-3.293 -7.813,0 -14.371,1.1016 -19.684,3.293 -5.207,2.289 -9.328,5.7304 -12.347,10.3086 -2.911,4.582 -4.43,9.7425 -4.532,15.4685 z m 72.7,-51.5701 v 7.6602 h 70 v -7.6602 z m 74.39,65.7931 c 0,14.269 3.801,25.41 11.41,33.43 7.711,8.128 17.602,12.187 29.68,12.187 8.031,0 15.211,-1.93 21.57,-5.777 6.352,-3.75 11.192,-9.012 14.532,-15.782 3.328,-6.769 5,-14.48 5,-23.128 0,-8.641 -1.77,-16.403 -5.309,-23.2817 -3.551,-6.8711 -8.551,-12.0781 -15,-15.6211 -6.363,-3.539 -13.293,-5.3203 -20.793,-5.3203 -8.117,0 -15.359,1.9336 -21.707,5.793 -6.363,3.9492 -11.203,9.2695 -14.543,15.9297 -3.219,6.7694 -4.84,13.9614 -4.84,21.5704 z m 11.723,-0.16 c 0,-10.422 2.758,-18.59 8.277,-24.5315 5.633,-5.9414 12.66,-8.9102 21.09,-8.9102 8.551,0 15.582,2.9688 21.102,8.9102 5.519,6.0395 8.281,14.6285 8.281,25.7815 0,6.98 -1.203,13.07 -3.59,18.277 -2.301,5.211 -5.73,9.223 -10.32,12.031 -4.582,2.922 -9.68,4.379 -15.313,4.379 -8.019,0 -14.949,-2.758 -20.777,-8.277 -5.832,-5.52 -8.75,-14.742 -8.75,-27.66 z m 85.68,-41.7229 V 164.73 h 57.968 v -10.16 h -46.558 v -26.558 h 40.308 v -10.16 H 740.512 V 78.7891 Z M 790.68,54.8789 v 7.6602 h 70 v -7.6602 z m 99.711,23.9102 V 154.57 h -28.282 v 10.16 h 68.129 V 154.57 H 901.801 V 78.7891 Z m 75.648,0 V 115.199 L 932.91,164.73 h 13.91 l 16.871,-25.941 c 3.129,-4.789 6.039,-9.629 8.75,-14.527 2.61,4.48 5.731,9.527 9.379,15.16 l 16.719,25.308 h 13.121 L 977.441,115.199 V 78.7891 Z m 55.821,0 V 164.73 h 32.5 c 5.62,0 9.94,-0.257 12.97,-0.781 4.27,-0.726 7.81,-2.09 10.62,-4.07 2.92,-1.969 5.21,-4.727 6.88,-8.277 1.77,-3.539 2.65,-7.442 2.65,-11.723 0,-7.289 -2.34,-13.477 -7.03,-18.59 -4.58,-5 -12.97,-7.5 -25.16,-7.5 h -22.03 V 78.7891 Z m 11.4,44.9999 h 22.19 c 7.4,0 12.6,1.363 15.63,4.063 3.12,2.82 4.68,6.718 4.68,11.718 0,3.539 -0.93,6.559 -2.81,9.059 -1.77,2.613 -4.11,4.332 -7.03,5.16 -1.98,0.524 -5.52,0.781 -10.63,0.781 h -22.03 z m 68.95,-44.9999 V 164.73 h 62.03 v -10.16 h -50.63 v -26.25 h 47.5 v -10.148 h -47.5 V 88.9492 h 52.66 V 78.7891 h -64.06"
         style="fill:#000000;fill-opacity:1;fill-rule:nonzero;stroke:none"
         id="path88" /><path
         d="m 1243.61,1159.37 v 651.96"
         style="fill:none;stroke:#000000;stroke-width:10;stroke-linecap:butt;stroke-linejoin:miter;stroke-miterlimit:1.45;stroke-dasharray:none;stroke-opacity:1"
         id="path90" /><path
         d="m 1243.61,1891.33 -50,-120 50,30 50,-30 z"
         style="fill:#000000;fill-opacity:1;fill-rule:nonzero;stroke:none"
         id="path92" /><path
         d="M 893.551,1619.02 H 1593.67 V 1432.01 H 893.551 v 187.01"
         style="fill:#ffffff;fill-opacity:1;fill-rule:nonzero;stroke:none"
         id="path94" /><path
         d="m 924.332,1528.53 v 12.03 h 12.039 v -12.03 z m 0,-50.15 v 12.03 h 12.039 v -12.03 z m 31.938,0 v 85.93 h 38.121 c 7.709,0 13.539,-0.78 17.499,-2.34 3.96,-1.56 7.14,-4.32 9.53,-8.28 2.4,-3.86 3.6,-8.13 3.6,-12.81 0,-6.15 -1.98,-11.31 -5.94,-15.47 -3.96,-4.17 -10.05,-6.83 -18.28,-7.97 3.02,-1.46 5.31,-2.87 6.87,-4.22 3.34,-3.02 6.46,-6.82 9.38,-11.41 l 15,-23.43 h -14.38 l -11.25,17.81 c -3.33,5.21 -6.09,9.16 -8.279,11.87 -2.082,2.71 -4.012,4.59 -5.782,5.63 -1.668,1.14 -3.379,1.98 -5.148,2.5 -1.25,0.21 -3.34,0.31 -6.25,0.31 h -13.289 v -38.12 z m 11.402,47.96 h 24.539 c 5.098,0 9.109,0.52 12.029,1.57 3.02,1.14 5.26,2.86 6.72,5.15 1.56,2.4 2.34,5 2.34,7.82 0,4.06 -1.51,7.39 -4.53,10 -2.92,2.6 -7.55,3.9 -13.911,3.9 h -27.187 z m 75.408,-47.96 v 85.93 h 62.04 v -10.15 h -50.63 v -26.25 h 47.5 v -10.16 h -47.5 v -29.22 h 52.66 v -10.15 z m 144.89,9.21 c 5.31,-3.64 10.15,-6.3 14.53,-7.96 l -3.28,-7.97 c -6.15,2.29 -12.29,5.83 -18.44,10.62 -6.35,-3.54 -13.39,-5.31 -21.09,-5.31 -7.82,0 -14.9,1.87 -21.25,5.62 -6.25,3.75 -11.1,9.01 -14.54,15.79 -3.43,6.77 -5.15,14.42 -5.15,22.96 0,8.44 1.72,16.15 5.15,23.13 3.44,6.98 8.34,12.29 14.69,15.94 6.36,3.64 13.44,5.47 21.25,5.47 7.92,0 15.05,-1.93 21.41,-5.79 6.46,-3.75 11.35,-9.01 14.69,-15.78 3.33,-6.77 5,-14.42 5,-22.97 0,-7.08 -1.1,-13.43 -3.29,-19.06 -2.08,-5.62 -5.31,-10.52 -9.68,-14.69 z m -25,14.54 c 6.56,-1.88 11.98,-4.64 16.25,-8.29 6.66,6.15 10,15.32 10,27.5 0,6.98 -1.2,13.08 -3.6,18.29 -2.39,5.2 -5.88,9.21 -10.47,12.03 -4.47,2.91 -9.53,4.37 -15.15,4.37 -8.54,0 -15.63,-2.92 -21.25,-8.75 -5.52,-5.73 -8.28,-14.37 -8.28,-25.94 0,-11.14 2.76,-19.74 8.28,-25.78 5.52,-5.93 12.6,-8.9 21.25,-8.9 4.06,0 7.86,0.78 11.4,2.34 -3.54,2.29 -7.29,3.91 -11.25,4.84 z m 109.59,62.18 h 11.4 v -49.68 c 0,-8.65 -0.99,-15.53 -2.97,-20.63 -1.97,-5 -5.52,-9.11 -10.62,-12.34 -5.1,-3.13 -11.77,-4.69 -20,-4.69 -8.02,0 -14.64,1.35 -19.84,4.06 -5.11,2.81 -8.75,6.82 -10.94,12.03 -2.19,5.32 -3.28,12.5 -3.28,21.57 v 49.68 h 11.4 v -49.53 c 0,-7.5 0.68,-13.02 2.03,-16.56 1.46,-3.54 3.86,-6.3 7.19,-8.28 3.44,-1.88 7.61,-2.81 12.5,-2.81 8.34,0 14.27,1.87 17.81,5.62 3.55,3.85 5.32,11.2 5.32,22.03 z m 32.28,-85.93 v 85.93 h 11.25 v -85.93 z m 31.47,0 v 85.93 h 38.12 c 7.71,0 13.54,-0.78 17.5,-2.34 3.96,-1.56 7.14,-4.32 9.53,-8.28 2.4,-3.86 3.6,-8.13 3.6,-12.81 0,-6.15 -1.98,-11.31 -5.94,-15.47 -3.96,-4.17 -10.05,-6.83 -18.28,-7.97 3.02,-1.46 5.31,-2.87 6.87,-4.22 3.34,-3.02 6.46,-6.82 9.38,-11.41 l 15,-23.43 h -14.38 l -11.25,17.81 c -3.33,5.21 -6.09,9.16 -8.28,11.87 -2.08,2.71 -4.01,4.59 -5.78,5.63 -1.67,1.14 -3.38,1.98 -5.16,2.5 -1.25,0.21 -3.33,0.31 -6.25,0.31 h -13.28 v -38.12 z m 11.4,47.96 h 24.53 c 5.11,0 9.12,0.52 12.04,1.57 3.02,1.14 5.26,2.86 6.71,5.15 1.57,2.4 2.35,5 2.35,7.82 0,4.06 -1.51,7.39 -4.53,10 -2.92,2.6 -7.56,3.9 -13.91,3.9 h -27.19 z m 75.41,-47.96 v 85.93 h 62.03 v -10.15 h -50.62 v -26.25 h 47.5 v -10.16 h -47.5 v -29.22 h 52.66 v -10.15 z m 75.98,27.65 10.62,0.94 c 0.53,-4.38 1.72,-7.92 3.6,-10.63 1.87,-2.7 4.74,-4.94 8.59,-6.71 3.96,-1.67 8.39,-2.5 13.28,-2.5 4.27,0 8.08,0.62 11.41,1.87 3.33,1.35 5.78,3.13 7.34,5.31 1.67,2.29 2.5,4.74 2.5,7.35 0,2.7 -0.78,5.05 -2.34,7.03 -1.56,2.08 -4.11,3.8 -7.66,5.15 -2.39,0.94 -7.55,2.35 -15.47,4.22 -7.81,1.88 -13.28,3.65 -16.4,5.32 -4.17,2.18 -7.24,4.84 -9.22,7.96 -1.98,3.23 -2.97,6.83 -2.97,10.79 0,4.27 1.2,8.28 3.59,12.03 2.5,3.85 6.1,6.72 10.79,8.59 4.79,1.98 10.05,2.97 15.78,2.97 6.35,0 11.98,-1.04 16.87,-3.13 4.9,-1.98 8.65,-5 11.25,-9.06 2.61,-3.96 4.01,-8.44 4.22,-13.44 l -10.94,-0.78 c -0.62,5.42 -2.65,9.48 -6.09,12.19 -3.33,2.81 -8.28,4.22 -14.84,4.22 -6.88,0 -11.88,-1.25 -15,-3.75 -3.13,-2.5 -4.69,-5.52 -4.69,-9.06 0,-3.13 1.09,-5.68 3.28,-7.66 2.19,-1.98 7.86,-4.01 17.03,-6.09 9.27,-2.09 15.63,-3.91 19.06,-5.47 5,-2.4 8.7,-5.37 11.1,-8.91 2.39,-3.44 3.59,-7.5 3.59,-12.19 0,-4.58 -1.3,-8.9 -3.91,-12.96 -2.6,-3.96 -6.35,-7.09 -11.25,-9.38 -4.89,-2.19 -10.41,-3.28 -16.56,-3.28 -7.81,0 -14.37,1.09 -19.69,3.28 -5.2,2.29 -9.32,5.73 -12.34,10.31 -2.92,4.59 -4.43,9.74 -4.53,15.47"
         style="fill:#000000;fill-opacity:1;fill-rule:nonzero;stroke:none"
         id="path96" /><path
         d="m 435.609,1892.13 v -653.2"
         style="fill:none;stroke:#000000;stroke-width:10;stroke-linecap:butt;stroke-linejoin:miter;stroke-miterlimit:1.45;stroke-dasharray:none;stroke-opacity:1"
         id="path98" /><path
         d="m 435.609,1158.93 50,120 -50,-30 -50,30 z"
         style="fill:#000000;fill-opacity:1;fill-rule:nonzero;stroke:none"
         id="path100" /><path
         d="M 32.1719,1619.02 H 839.051 V 1432.01 H 32.1719 v 187.01"
         style="fill:#ffffff;fill-opacity:1;fill-rule:nonzero;stroke:none"
         id="path102" /><path
         d="m 62.9609,1528.53 v 12.03 h 12.0274 v -12.03 z m 0,-50.15 v 12.03 h 12.0274 v -12.03 z m 33.8008,0 v 85.93 h 11.2503 v -85.93 z m 27.5583,27.65 10.629,0.94 c 0.52,-4.38 1.723,-7.92 3.59,-10.63 1.883,-2.7 4.742,-4.94 8.59,-6.71 3.961,-1.67 8.391,-2.5 13.293,-2.5 4.269,0 8.066,0.62 11.398,1.87 3.34,1.35 5.782,3.13 7.352,5.31 1.66,2.29 2.5,4.74 2.5,7.35 0,2.7 -0.793,5.05 -2.352,7.03 -1.558,2.08 -4.109,3.8 -7.648,5.15 -2.402,0.94 -7.563,2.35 -15.473,4.22 -7.82,1.88 -13.277,3.65 -16.41,5.32 -4.168,2.18 -7.238,4.84 -9.219,7.96 -1.98,3.23 -2.968,6.83 -2.968,10.79 0,4.27 1.199,8.28 3.597,12.03 2.5,3.85 6.09,6.72 10.781,8.59 4.79,1.98 10.051,2.97 15.782,2.97 6.347,0 11.976,-1.04 16.867,-3.13 4.902,-1.98 8.652,-5 11.25,-9.06 2.609,-3.96 4.019,-8.44 4.223,-13.44 l -10.93,-0.78 c -0.633,5.42 -2.66,9.48 -6.102,12.19 -3.332,2.81 -8.281,4.22 -14.84,4.22 -6.878,0 -11.878,-1.25 -15,-3.75 -3.128,-2.5 -4.691,-5.52 -4.691,-9.06 0,-3.13 1.09,-5.68 3.281,-7.66 2.192,-1.98 7.871,-4.01 17.032,-6.09 9.269,-2.09 15.628,-3.91 19.07,-5.47 5,-2.4 8.687,-5.37 11.09,-8.91 2.398,-3.44 3.59,-7.5 3.59,-12.19 0,-4.58 -1.301,-8.9 -3.903,-12.96 -2.609,-3.96 -6.359,-7.09 -11.25,-9.38 -4.898,-2.19 -10.418,-3.28 -16.57,-3.28 -7.809,0 -14.367,1.09 -19.68,3.28 -5.211,2.29 -9.328,5.73 -12.347,10.31 -2.911,4.59 -4.422,9.74 -4.532,15.47 z m 72.7,-51.56 v 7.66 h 70 v -7.66 z m 77.832,23.91 v 85.93 h 32.5 c 5.617,0 9.949,-0.26 12.968,-0.78 4.27,-0.73 7.809,-2.08 10.621,-4.06 2.918,-1.98 5.207,-4.74 6.879,-8.28 1.77,-3.54 2.649,-7.45 2.649,-11.72 0,-7.29 -2.34,-13.49 -7.028,-18.59 -4.582,-5 -12.972,-7.5 -25.152,-7.5 h -22.027 v -35 z m 11.41,45 h 22.179 c 7.399,0 12.61,1.35 15.629,4.06 3.121,2.81 4.692,6.72 4.692,11.72 0,3.54 -0.942,6.56 -2.821,9.06 -1.769,2.6 -4.109,4.32 -7.031,5.16 -1.98,0.52 -5.519,0.78 -10.621,0.78 h -22.027 z m 59.25,-45 32.968,85.93 h 12.192 l 35.16,-85.93 h -12.82 l -10.153,26.09 h -35.777 l -9.543,-26.09 z m 24.847,35.31 h 29.063 l -8.91,23.75 c -2.813,7.19 -4.84,13.12 -6.09,17.81 -1.152,-5.52 -2.711,-10.99 -4.692,-16.41 z m 64.723,-35.31 v 85.93 h 38.129 c 7.711,0 13.539,-0.78 17.5,-2.34 3.961,-1.56 7.129,-4.32 9.527,-8.28 2.403,-3.86 3.594,-8.13 3.594,-12.81 0,-6.15 -1.98,-11.31 -5.934,-15.47 -3.957,-4.17 -10.058,-6.83 -18.277,-7.97 3.02,-1.46 5.309,-2.87 6.867,-4.22 3.332,-3.02 6.461,-6.82 9.383,-11.41 l 15,-23.43 h -14.383 l -11.25,17.81 c -3.328,5.21 -6.09,9.16 -8.277,11.87 -2.082,2.71 -4.012,4.59 -5.781,5.63 -1.668,1.14 -3.391,1.98 -5.16,2.5 -1.25,0.21 -3.329,0.31 -6.25,0.31 h -13.282 v -38.12 z m 11.406,47.96 h 24.532 c 5.109,0 9.121,0.52 12.031,1.57 3.019,1.14 5.258,2.86 6.719,5.15 1.562,2.4 2.351,5 2.351,7.82 0,4.06 -1.519,7.39 -4.539,10 -2.91,2.6 -7.551,3.9 -13.902,3.9 h -27.192 z m 96.973,-47.96 v 75.78 H 515.18 v 10.15 h 68.129 v -10.15 h -28.438 v -75.78 z m 40.328,-23.91 v 7.66 h 70 v -7.66 z m 74.402,65.78 c 0,14.27 3.797,25.42 11.411,33.44 7.699,8.12 17.597,12.19 29.679,12.19 8.02,0 15.207,-1.93 21.571,-5.79 6.347,-3.75 11.187,-9.01 14.527,-15.78 3.332,-6.77 5,-14.48 5,-23.12 0,-8.65 -1.77,-16.41 -5.32,-23.28 -3.539,-6.88 -8.539,-12.09 -15,-15.63 -6.348,-3.54 -13.278,-5.31 -20.778,-5.31 -8.121,0 -15.359,1.93 -21.722,5.78 -6.348,3.96 -11.188,9.27 -14.528,15.94 -3.23,6.77 -4.84,13.96 -4.84,21.56 z m 11.719,-0.16 c 0,-10.41 2.762,-18.59 8.281,-24.53 5.618,-5.93 12.661,-8.9 21.09,-8.9 8.539,0 15.578,2.97 21.098,8.9 5.519,6.04 8.281,14.64 8.281,25.78 0,6.98 -1.199,13.08 -3.601,18.29 -2.289,5.2 -5.719,9.21 -10.309,12.03 -4.578,2.91 -9.691,4.37 -15.309,4.37 -8.019,0 -14.953,-2.76 -20.781,-8.28 -5.84,-5.52 -8.75,-14.74 -8.75,-27.66 z m 85.68,-41.71 v 85.93 h 57.969 v -10.15 H 767 v -26.57 h 40.309 v -10.15 H 767 v -39.06 h -11.41"
         style="fill:#000000;fill-opacity:1;fill-rule:nonzero;stroke:none"
         id="path104" /><path
         d="m 3711.03,710.141 -3.66,-20.59 -3.87,-51.352 1.28,-50.719 6.22,-49.769 10.97,-48.52 15.53,-46.961 19.9,-45.089 24.07,-42.911 28.04,-40.421 31.84,-37.629 35.42,-34.52 38.82,-31.097 42.03,-27.383 45.04,-23.348 47.86,-19 50.49,-14.352 51.67,-9.199 51.36,-3.859 50.71,1.277 49.77,6.223 48.53,10.969 46.95,15.531 45.09,19.891 42.91,24.066 40.43,28.051 37.62,31.832 34.52,35.418 31.1,38.832 27.38,42.027 23.35,45.043 19,47.859 14.36,50.481 9.19,51.68 3.86,51.347 -0.41,16.481 -0.13,0.992"
         style="fill:none;stroke:#000000;stroke-width:10;stroke-linecap:butt;stroke-linejoin:miter;stroke-miterlimit:1.45;stroke-dasharray:none;stroke-opacity:1"
         id="path106" /><path
         d="m 4721.77,711.16 -40.08,-123.668 47.4,33.969 52.27,-25.84 z"
         style="fill:#000000;fill-opacity:1;fill-rule:nonzero;stroke:none"
         id="path108" /><path
         d="m 3830.4,219.441 h 800.26 V 32.4219 H 3830.4 V 219.441"
         style="fill:#ffffff;fill-opacity:1;fill-rule:nonzero;stroke:none"
         id="path110" /><path
         d="m 3861.19,128.949 v 12.031 h 12.03 v -12.031 z m 0,-50.1599 v 12.0312 h 12.03 V 78.7891 Z m 33.8,0 V 164.73 h 11.25 V 78.7891 Z m 27.56,27.6599 10.63,0.93 c 0.52,-4.367 1.72,-7.9063 3.59,-10.6173 1.88,-2.7109 4.74,-4.9492 8.59,-6.7226 3.96,-1.668 8.39,-2.5 13.29,-2.5 4.27,0 8.07,0.6328 11.4,1.8828 3.34,1.3476 5.78,3.1172 7.35,5.3086 1.66,2.289 2.5,4.7422 2.5,7.3395 0,2.711 -0.79,5.051 -2.35,7.032 -1.56,2.089 -4.11,3.808 -7.65,5.16 -2.4,0.937 -7.56,2.34 -15.47,4.218 -7.82,1.872 -13.28,3.641 -16.41,5.309 -4.17,2.191 -7.24,4.84 -9.22,7.973 -1.98,3.23 -2.97,6.82 -2.97,10.777 0,4.274 1.2,8.281 3.6,12.031 2.5,3.86 6.09,6.719 10.78,8.602 4.79,1.98 10.05,2.957 15.78,2.957 6.35,0 11.98,-1.039 16.87,-3.117 4.9,-1.981 8.65,-5 11.25,-9.063 2.61,-3.957 4.02,-8.437 4.22,-13.437 l -10.93,-0.782 c -0.63,5.422 -2.66,9.481 -6.1,12.192 -3.33,2.808 -8.28,4.207 -14.84,4.207 -6.88,0 -11.88,-1.25 -15,-3.75 -3.13,-2.5 -4.69,-5.52 -4.69,-9.059 0,-3.121 1.09,-5.668 3.28,-7.648 2.19,-1.981 7.87,-4.012 17.03,-6.102 9.27,-2.078 15.63,-3.898 19.07,-5.468 5,-2.391 8.69,-5.36 11.09,-8.903 2.4,-3.437 3.59,-7.5 3.59,-12.187 0,-4.5823 -1.3,-8.9104 -3.9,-12.9729 -2.61,-3.9571 -6.36,-7.0782 -11.25,-9.3672 -4.9,-2.1914 -10.42,-3.293 -16.57,-3.293 -7.81,0 -14.37,1.1016 -19.68,3.293 -5.21,2.289 -9.33,5.7304 -12.35,10.3086 -2.91,4.582 -4.42,9.7425 -4.53,15.4685 z m 72.7,-51.5701 v 7.6602 h 70 v -7.6602 z m 74.39,65.7931 c 0,14.269 3.8,25.41 11.41,33.43 7.71,8.128 17.6,12.187 29.69,12.187 8.02,0 15.2,-1.93 21.56,-5.777 6.35,-3.75 11.2,-9.012 14.53,-15.782 3.33,-6.769 5,-14.48 5,-23.128 0,-8.641 -1.77,-16.403 -5.31,-23.2817 -3.54,-6.8711 -8.54,-12.0781 -15,-15.6211 -6.36,-3.539 -13.28,-5.3203 -20.78,-5.3203 -8.13,0 -15.37,1.9336 -21.72,5.793 -6.36,3.9492 -11.2,9.2695 -14.53,15.9297 -3.23,6.7694 -4.85,13.9614 -4.85,21.5704 z m 11.72,-0.16 c 0,-10.422 2.76,-18.59 8.28,-24.5315 5.63,-5.9414 12.66,-8.9102 21.1,-8.9102 8.54,0 15.57,2.9688 21.09,8.9102 5.52,6.0395 8.28,14.6285 8.28,25.7815 0,6.98 -1.2,13.07 -3.59,18.277 -2.29,5.211 -5.73,9.223 -10.32,12.031 -4.58,2.922 -9.68,4.379 -15.31,4.379 -8.02,0 -14.95,-2.758 -20.78,-8.277 -5.83,-5.52 -8.75,-14.742 -8.75,-27.66 z m 85.68,-41.7229 V 164.73 h 57.97 v -10.16 h -46.56 v -26.558 h 40.31 v -10.16 h -40.31 V 78.7891 Z m 61.59,-23.9102 v 7.6602 h 70 v -7.6602 z m 99.7,23.9102 V 154.57 h -28.28 v 10.16 h 68.13 v -10.16 h -28.44 V 78.7891 Z m 75.65,0 v 36.4099 l -33.13,49.531 h 13.91 l 16.87,-25.941 c 3.13,-4.789 6.05,-9.629 8.75,-14.527 2.61,4.48 5.73,9.527 9.38,15.16 l 16.72,25.308 h 13.12 l -34.22,-49.531 V 78.7891 Z m 55.82,0 V 164.73 h 32.5 c 5.62,0 9.95,-0.257 12.97,-0.781 4.27,-0.726 7.81,-2.09 10.62,-4.07 2.92,-1.969 5.21,-4.727 6.88,-8.277 1.77,-3.539 2.65,-7.442 2.65,-11.723 0,-7.289 -2.34,-13.477 -7.03,-18.59 -4.58,-5 -12.97,-7.5 -25.15,-7.5 H 4471.2 V 78.7891 Z m 11.4,44.9999 h 22.19 c 7.4,0 12.61,1.363 15.63,4.063 3.12,2.82 4.68,6.718 4.68,11.718 0,3.539 -0.93,6.559 -2.81,9.059 -1.77,2.613 -4.11,4.332 -7.03,5.16 -1.98,0.524 -5.52,0.781 -10.62,0.781 h -22.04 z m 68.95,-44.9999 V 164.73 h 62.03 v -10.16 h -50.62 v -26.25 h 47.5 v -10.148 h -47.5 V 88.9492 h 52.65 V 78.7891 h -64.06"
         style="fill:#000000;fill-opacity:1;fill-rule:nonzero;stroke:none"
         id="path112" /><path
         d="M 1514.73,934.691 H 3451.82"
         style="fill:none;stroke:#000000;stroke-width:10;stroke-linecap:butt;stroke-linejoin:miter;stroke-miterlimit:1.45;stroke-dasharray:none;stroke-opacity:1"
         id="path114" /><path
         d="m 3531.82,934.691 -120,50 30,-50 -30,-50 z"
         style="fill:#000000;fill-opacity:1;fill-rule:nonzero;stroke:none"
         id="path116" /><path
         d="M 1939.87,1028.2 H 3106.68 V 841.191 H 1939.87 V 1028.2"
         style="fill:#ffffff;fill-opacity:1;fill-rule:nonzero;stroke:none"
         id="path118" /><path
         d="m 1970.65,937.711 v 12.031 h 12.03 v -12.031 z m 0,-50.16 v 12.039 h 12.03 v -12.039 z m 33.81,0 v 85.941 h 11.25 v -85.941 z m 27.56,27.66 10.62,0.937 c 0.52,-4.378 1.72,-7.918 3.59,-10.628 1.88,-2.711 4.74,-4.938 8.6,-6.719 3.96,-1.66 8.38,-2.5 13.28,-2.5 4.27,0 8.07,0.629 11.41,1.879 3.33,1.351 5.78,3.121 7.34,5.312 1.67,2.289 2.5,4.738 2.5,7.348 0,2.699 -0.78,5.051 -2.34,7.031 -1.57,2.078 -4.12,3.801 -7.66,5.149 -2.4,0.941 -7.55,2.351 -15.47,4.222 -7.81,1.879 -13.28,3.649 -16.41,5.309 -4.16,2.191 -7.23,4.847 -9.21,7.969 -1.98,3.23 -2.97,6.832 -2.97,10.781 0,4.281 1.2,8.289 3.59,12.039 2.5,3.851 6.09,6.711 10.78,8.59 4.79,1.98 10.05,2.968 15.78,2.968 6.36,0 11.98,-1.039 16.88,-3.128 4.89,-1.981 8.64,-5 11.25,-9.059 2.6,-3.961 4.01,-8.441 4.22,-13.441 l -10.94,-0.778 c -0.63,5.418 -2.66,9.477 -6.09,12.188 -3.34,2.812 -8.29,4.218 -14.85,4.218 -6.87,0 -11.87,-1.25 -15,-3.75 -3.12,-2.5 -4.69,-5.519 -4.69,-9.058 0,-3.129 1.1,-5.68 3.29,-7.66 2.18,-1.981 7.86,-4.008 17.03,-6.09 9.27,-2.09 15.62,-3.91 19.06,-5.469 5,-2.402 8.7,-5.371 11.09,-8.91 2.4,-3.441 3.6,-7.5 3.6,-12.191 0,-4.579 -1.3,-8.899 -3.91,-12.969 -2.6,-3.949 -6.35,-7.082 -11.25,-9.371 -4.89,-2.188 -10.42,-3.282 -16.56,-3.282 -7.81,0 -14.38,1.094 -19.69,3.282 -5.21,2.289 -9.32,5.73 -12.34,10.312 -2.92,4.59 -4.43,9.738 -4.53,15.469 z m 72.69,-51.563 v 7.653 h 70 v -7.653 z m 99.71,23.903 v 75.789 h -28.28 v 10.152 h 68.12 V 963.34 h -28.44 v -75.789 z m 51.58,0 v 85.941 h 38.13 c 7.7,0 13.54,-0.781 17.5,-2.344 3.95,-1.558 7.13,-4.316 9.53,-8.277 2.39,-3.859 3.59,-8.129 3.59,-12.82 0,-6.141 -1.98,-11.301 -5.94,-15.461 -3.96,-4.168 -10.05,-6.828 -18.28,-7.969 3.02,-1.461 5.31,-2.871 6.88,-4.223 3.33,-3.019 6.45,-6.816 9.37,-11.406 l 15,-23.441 h -14.37 l -11.25,17.82 c -3.34,5.211 -6.1,9.16 -8.28,11.871 -2.09,2.707 -4.02,4.59 -5.79,5.629 -1.66,1.141 -3.38,1.981 -5.15,2.5 -1.25,0.211 -3.34,0.309 -6.25,0.309 h -13.28 v -38.129 z m 11.41,47.969 h 24.53 c 5.1,0 9.11,0.519 12.03,1.57 3.02,1.14 5.26,2.859 6.72,5.152 1.56,2.399 2.34,5 2.34,7.809 0,4.07 -1.51,7.398 -4.53,10 -2.92,2.609 -7.55,3.91 -13.91,3.91 h -27.18 z m 65.72,-47.969 32.97,85.941 h 12.19 l 35.15,-85.941 h -12.81 l -10.16,26.097 h -35.78 l -9.53,-26.097 z m 24.84,35.32 h 29.07 l -8.91,23.75 c -2.81,7.18 -4.84,13.121 -6.09,17.809 -1.15,-5.52 -2.71,-10.989 -4.69,-16.41 z m 125.98,-5.16 11.25,-2.969 c -2.4,-9.273 -6.67,-16.351 -12.81,-21.25 -6.15,-4.89 -13.7,-7.344 -22.66,-7.344 -9.27,0 -16.82,1.872 -22.66,5.622 -5.83,3.75 -10.26,9.171 -13.28,16.25 -3.02,7.191 -4.53,14.902 -4.53,23.128 0,8.961 1.72,16.774 5.16,23.442 3.44,6.66 8.28,11.711 14.53,15.152 6.35,3.438 13.33,5.156 20.94,5.156 8.54,0 15.73,-2.187 21.56,-6.558 5.94,-4.379 10.05,-10.531 12.34,-18.442 l -11.25,-2.656 c -1.98,6.25 -4.89,10.778 -8.75,13.598 -3.75,2.91 -8.49,4.371 -14.22,4.371 -6.56,0 -12.08,-1.609 -16.56,-4.84 -4.37,-3.129 -7.5,-7.351 -9.37,-12.66 -1.77,-5.313 -2.66,-10.832 -2.66,-16.563 0,-7.289 1.04,-13.648 3.13,-19.058 2.18,-5.418 5.52,-9.481 10,-12.192 4.48,-2.707 9.37,-4.058 14.68,-4.058 6.36,0 11.72,1.82 16.1,5.461 4.48,3.648 7.5,9.121 9.06,16.41 z m 25.57,-30.16 v 85.941 h 62.03 V 963.34 h -50.63 v -26.25 h 47.5 v -10.16 h -47.5 v -29.219 h 52.66 v -10.16 z m 79.72,0 v 85.941 h 29.69 c 6.67,0 11.77,-0.41 15.31,-1.25 4.9,-1.14 9.07,-3.183 12.5,-6.094 4.59,-3.859 7.97,-8.796 10.16,-14.847 2.29,-5.93 3.44,-12.699 3.44,-20.309 0,-6.562 -0.78,-12.344 -2.35,-17.344 -1.46,-5 -3.38,-9.168 -5.78,-12.5 -2.39,-3.339 -5.05,-5.937 -7.97,-7.808 -2.81,-1.879 -6.2,-3.34 -10.15,-4.379 -3.96,-0.941 -8.55,-1.41 -13.75,-1.41 z m 11.41,10.16 h 18.28 c 5.73,0 10.21,0.519 13.44,1.559 3.23,1.039 5.78,2.562 7.65,4.531 2.71,2.609 4.8,6.199 6.25,10.789 1.57,4.582 2.35,10.101 2.35,16.558 0,8.961 -1.51,15.832 -4.53,20.622 -2.92,4.902 -6.46,8.179 -10.63,9.851 -3.12,1.141 -8.02,1.719 -14.69,1.719 h -18.12 z m 64.16,-34.063 v 7.653 h 70 v -7.653 z m 78.46,23.903 v 85.941 h 57.96 V 963.34 h -46.56 v -26.57 h 40.31 v -10.149 h -40.31 v -39.07 z m 72.83,0 v 85.941 h 38.12 c 7.71,0 13.54,-0.781 17.5,-2.344 3.96,-1.558 7.14,-4.316 9.53,-8.277 2.4,-3.859 3.6,-8.129 3.6,-12.82 0,-6.141 -1.98,-11.301 -5.94,-15.461 -3.96,-4.168 -10.05,-6.828 -18.28,-7.969 3.02,-1.461 5.31,-2.871 6.87,-4.223 3.34,-3.019 6.46,-6.816 9.38,-11.406 l 15,-23.441 h -14.38 l -11.25,17.82 c -3.33,5.211 -6.09,9.16 -8.28,11.871 -2.08,2.707 -4.01,4.59 -5.78,5.629 -1.66,1.141 -3.38,1.981 -5.15,2.5 -1.25,0.211 -3.34,0.309 -6.25,0.309 h -13.29 v -38.129 z m 11.4,47.969 h 24.54 c 5.1,0 9.11,0.519 12.03,1.57 3.02,1.14 5.26,2.859 6.72,5.152 1.56,2.399 2.34,5 2.34,7.809 0,4.07 -1.51,7.398 -4.53,10 -2.92,2.609 -7.55,3.91 -13.91,3.91 h -27.19 z m 71.66,-6.09 c 0,14.269 3.81,25.422 11.41,33.441 7.71,8.121 17.6,12.18 29.69,12.18 8.02,0 15.21,-1.922 21.56,-5.781 6.35,-3.75 11.2,-9.008 14.53,-15.778 3.34,-6.773 5,-14.48 5,-23.121 0,-8.652 -1.77,-16.41 -5.31,-23.281 -3.54,-6.879 -8.54,-12.09 -15,-15.629 -6.35,-3.539 -13.28,-5.313 -20.78,-5.313 -8.13,0 -15.37,1.934 -21.72,5.782 -6.35,3.961 -11.2,9.269 -14.53,15.941 -3.23,6.77 -4.85,13.961 -4.85,21.559 z m 11.72,-0.16 c 0,-10.411 2.76,-18.59 8.28,-24.528 5.63,-5.941 12.66,-8.902 21.1,-8.902 8.54,0 15.57,2.961 21.09,8.902 5.52,6.039 8.28,14.637 8.28,25.778 0,6.98 -1.19,13.082 -3.59,18.281 -2.29,5.211 -5.73,9.219 -10.31,12.039 -4.59,2.91 -9.69,4.371 -15.32,4.371 -8.02,0 -14.94,-2.762 -20.78,-8.281 -5.83,-5.52 -8.75,-14.739 -8.75,-27.66 z m 84.75,-41.719 v 85.941 h 17.19 l 20.31,-60.781 c 1.87,-5.731 3.23,-10 4.06,-12.813 0.94,3.122 2.45,7.711 4.53,13.75 l 20.63,59.844 h 15.31 v -85.941 h -10.94 v 71.879 l -25,-71.879 h -10.31 l -24.84,73.129 v -73.129 h -10.94"
         style="fill:#000000;fill-opacity:1;fill-rule:nonzero;stroke:none"
         id="path120" /></g></g></svg>
